<svg version="1.0" xmlns="http://www.w3.org/2000/svg" xmlns:xlink="http://www.w3.org/1999/xlink" x="0px" y="0px" viewBox="0 0 72 72" style="height:40px; width:40px; fill: #024F87; enable-background:new 0 0 72 72;" xml:space="preserve" role="img">
	<path d="M50.7,35c0-0.2-0.2-0.3-0.3-0.4s-0.3,0-0.5,0.1L47.6,37c-0.3,0.3-0.7,0.4-1.1,0.4c-0.4,0-0.8-0.2-1.1-0.4
		c-0.6-0.6-0.6-1.6,0-2.2l2.4-2.4c0.1-0.1,0.1-0.3,0.1-0.5c0-0.2-0.2-0.3-0.4-0.4c-0.5-0.2-1-0.2-1.5-0.2c-2.7,0-4.8,2.2-4.8,4.8
		c0,0.4,0.1,0.8,0.2,1.2l-3.9,3.9c-0.2,0.2-0.2,0.5,0,0.7c0.2,0.2,0.5,0.2,0.7,0l4.1-4.1c0.1-0.1,0.2-0.3,0.1-0.5l0-0.1
		c-0.1-0.4-0.2-0.7-0.2-1.1c0-2.3,2-4.2,4.3-3.8l-1.7,1.7c-1,1-1,2.6,0,3.6c0.5,0.5,1.1,0.7,1.8,0.7c0,0,0,0,0,0
		c0.7,0,1.3-0.3,1.8-0.7l1.5-1.6c0,0,0,0,0,0.1c0,2.1-1.7,3.9-3.9,3.9c-0.4,0-0.7-0.1-1.1-0.2c-0.2-0.1-0.4,0-0.5,0.1l-4.2,4.1
		c-0.2,0.2-0.2,0.5,0,0.7c0.1,0.1,0.2,0.1,0.3,0.1c0.1,0,0.2,0,0.3-0.1l4-4C45.3,41,45.6,41,46,41c2.7,0,4.8-2.2,4.8-4.8
		C50.8,35.8,50.8,35.4,50.7,35z"></path>
	<path d="M35,50.2c-0.2-0.2-0.5-0.2-0.7,0l-4.1,4.2C30,54.4,30,54.6,30,54.8c0.1,0.4,0.2,0.7,0.2,1.1c0,2.1-1.7,3.9-3.9,3.9
		c0,0,0,0-0.1,0l1.6-1.6c1-1,1-2.6,0-3.6c-0.5-0.5-1.1-0.7-1.8-0.7c0,0,0,0,0,0c-0.7,0-1.3,0.3-1.8,0.7l-1.7,1.7c0-0.2,0-0.3,0-0.5
		c0-2.1,1.7-3.9,3.9-3.9c0.4,0,0.8,0.1,1.1,0.2l0.1,0c0.2,0.1,0.4,0,0.5-0.1l4.1-4.1c0.2-0.2,0.2-0.5,0-0.7c-0.2-0.2-0.5-0.2-0.7,0
		l-3.9,3.9c-0.4-0.1-0.8-0.2-1.2-0.2c-2.7,0-4.8,2.2-4.8,4.8c0,0.5,0.1,1,0.3,1.6c0.1,0.2,0.2,0.3,0.3,0.3c0.2,0,0.3,0,0.5-0.1
		l2.4-2.4c0.3-0.3,0.7-0.4,1.1-0.4s0.8,0.2,1.1,0.4c0.6,0.6,0.6,1.6,0,2.2l-2.2,2.2c-0.1,0.1-0.2,0.3-0.1,0.5c0,0.2,0.2,0.3,0.4,0.3
		c0.4,0.1,0.8,0.2,1.2,0.2c2.7,0,4.8-2.2,4.8-4.8c0-0.4,0-0.7-0.1-1.1l4-4C35.2,50.7,35.2,50.3,35,50.2z"></path>
	<path d="M37.1,48.6l0.4-0.4L50,60.6c0.1,0.1,0.2,0.1,0.3,0.1c0.1,0,0.2,0,0.3-0.1c0.2-0.2,0.2-0.5,0-0.7L38.2,47.5l0.5-0.5
		c0.6-0.6,0.6-1.6,0-2.2c-0.4-0.4-0.9-0.5-1.4-0.4l-4.1-6.3l-5.4-5.7c0,0-0.1,0-0.1-0.1l0,0c-0.7-0.6-1.6-0.9-2.5-0.9
		c-2.1,0-3.7,1.7-3.7,3.7c0,0.8,0.3,1.6,0.8,2.3l6.1,5.9l6.1,3.9c-0.1,0.5,0,1,0.4,1.4c0.3,0.3,0.7,0.5,1.1,0.5
		C36.4,49.1,36.8,48.9,37.1,48.6z M35.6,47.9c-0.2-0.2-0.2-0.5-0.1-0.7c0-0.1,0.1-0.2,0.1-0.2c0-0.2-0.1-0.3-0.2-0.4L29,42.5
		L23.3,37l-0.2-0.2c-0.4-0.5-0.5-1.1-0.5-1.7c0-1.5,1.2-2.8,2.8-2.8c0.7,0,1.3,0.2,1.9,0.7c0,0,0,0,0,0l5.3,5.6l4.2,6.5
		c0.1,0.2,0.4,0.3,0.7,0.1c0.2-0.1,0.5-0.1,0.7,0.1c0.2,0.2,0.2,0.6,0,0.8l-0.8,0.8c0,0,0,0,0,0c0,0,0,0,0,0l-0.8,0.8
		C36.2,48.1,35.8,48.1,35.6,47.9z"></path>
	<path d="M31.8,20.5v0.7c-6,1-11.4,4.3-15.2,9.1c-0.3,0.4-0.2,1,0.2,1.4c0.2,0.1,0.4,0.2,0.6,0.2c0.3,0,0.6-0.1,0.8-0.4
		c3.6-4.7,8.8-7.7,14.7-8.5c0.5-0.1,0.8-0.5,0.8-1v-2.1c0-0.4-0.2-0.8-0.6-0.9c-3.3-1.2-5.5-4.4-5.5-7.9c0-4.7,3.8-8.5,8.5-8.5
		s8.5,3.8,8.5,8.5c0,3.6-2.3,6.8-5.7,8c-0.4,0.1-0.7,0.5-0.7,0.9V22c0,0.5,0.5,0.9,1,1c5.8,0.8,10.9,3.9,14.5,8.5
		c0.3,0.4,0.9,0.5,1.4,0.2c0.4-0.3,0.5-0.9,0.2-1.4c-3.7-4.8-9-8-15.1-9.1v-0.6c3.8-1.6,6.4-5.4,6.4-9.6c0-5.8-4.7-10.4-10.4-10.4
		S25.7,5.2,25.7,11C25.7,15,28.1,18.8,31.8,20.5z"></path>
	<path d="M71.8,28c-2.3-3-5.5-5-9.2-5.8c2.3-1.2,3.8-3.5,3.8-6.2c0-3.8-3.1-6.9-6.9-6.9s-6.9,3.1-6.9,6.9c0,2.6,1.5,5,3.7,6.1
		c-1.8,0.4-3.4,1-5,1.9c-0.5,0.3-0.6,0.9-0.3,1.3c0.3,0.5,0.9,0.6,1.3,0.3c1.6-1,3.4-1.6,5.2-1.9c0.5-0.1,0.9-0.5,0.9-1v-1.4
		c0-0.4-0.3-0.8-0.6-0.9c-1.9-0.7-3.2-2.6-3.2-4.7c0-2.8,2.2-5,5-5c2.8,0,5,2.2,5,5c0,2.1-1.4,4-3.4,4.7c-0.4,0.1-0.7,0.5-0.7,0.9
		V23c0,0.5,0.4,0.9,0.9,1c3.6,0.5,6.7,2.4,8.9,5.2c0.2,0.2,0.5,0.4,0.8,0.4c0.2,0,0.4-0.1,0.6-0.2C72,29.1,72.1,28.4,71.8,28z"></path>
	<path d="M11.6,23v-1.3c0-0.4-0.3-0.8-0.7-0.9c-2-0.7-3.4-2.6-3.4-4.7c0-2.8,2.2-5,5-5s5,2.2,5,5c0,2.1-1.3,4-3.2,4.7
		c-0.4,0.1-0.6,0.5-0.6,0.9V23c0,0.5,0.4,0.9,0.9,1c1.9,0.3,3.6,0.9,5.2,1.8c0.5,0.3,1.1,0.1,1.3-0.3c0.3-0.5,0.1-1.1-0.3-1.3
		c-1.5-0.9-3.2-1.6-5-1.9c2.3-1.2,3.7-3.6,3.7-6.1c0-3.8-3.1-6.9-6.9-6.9s-6.9,3.1-6.9,6.9c0,2.6,1.5,5,3.8,6.2
		C5.8,23,2.5,25,0.2,28c-0.3,0.4-0.2,1,0.2,1.4c0.2,0.1,0.4,0.2,0.6,0.2c0.3,0,0.6-0.1,0.8-0.4c2.2-2.9,5.4-4.7,9-5.2
		C11.3,23.9,11.6,23.5,11.6,23z"></path>
	<path d="M55.9,32.3c-0.5,0.3-0.6,0.9-0.3,1.3c2.4,3.8,3.7,8.1,3.7,12.6c0,12.9-10.5,23.3-23.3,23.3c-12.9,0-23.3-10.5-23.3-23.3
		c0-4.4,1.2-8.6,3.5-12.3c0.3-0.5,0.1-1.1-0.3-1.3c-0.5-0.3-1.1-0.1-1.3,0.3c-2.5,4-3.8,8.6-3.8,13.4c0,13.9,11.3,25.3,25.3,25.3
		c13.9,0,25.3-11.3,25.3-25.3c0-4.8-1.4-9.6-4-13.6C57,32.1,56.4,32,55.9,32.3z"></path>
</svg>