<svg version="1.1" xmlns="http://www.w3.org/2000/svg" xmlns:xlink="http://www.w3.org/1999/xlink" x="0px" y="0px" viewBox="0 0 72 70.8" style="height:40px; width:40px; fill: #024F87; enable-background:new 0 0 72 70.8;" xml:space="preserve" role="img">
<path fill="accent" d="M54.8,32.6c1.4,0,2.6-0.9,3-2.2h4c2,0,3.7-1.7,3.7-3.7V11.2c1.2-0.5,2-1.6,2-3c0-1.8-1.4-3.2-3.2-3.2
	c-1.8,0-3.2,1.4-3.2,3.2c0,1.5,1,2.7,2.3,3.1v15.3c0,0.9-0.7,1.7-1.7,1.7h-4c-0.4-1.3-1.6-2.2-3-2.2c-1.8,0-3.2,1.4-3.2,3.2
	C51.6,31.1,53.1,32.6,54.8,32.6z M64.4,7.1c0.6,0,1.2,0.5,1.2,1.2S65,9.4,64.4,9.4s-1.2-0.5-1.2-1.2S63.7,7.1,64.4,7.1z M68.8,35
	c-1.4,0-2.6,0.9-3,2.2h-7.9c-0.4-1.3-1.6-2.2-3-2.2c-1.8,0-3.2,1.4-3.2,3.2s1.4,3.2,3.2,3.2c1.4,0,2.6-0.9,3-2.2h7.9
	c0.4,1.3,1.6,2.2,3,2.2c1.8,0,3.2-1.4,3.2-3.2S70.6,35,68.8,35z M68.8,39.3c-0.6,0-1.2-0.5-1.2-1.2c0-0.6,0.5-1.2,1.2-1.2
	c0.6,0,1.2,0.5,1.2,1.2C69.9,38.8,69.4,39.3,68.8,39.3z M65.6,56.5v-6.2c0-2-1.7-3.7-3.7-3.7h-4c-0.4-1.3-1.6-2.2-3-2.2
	c-1.8,0-3.2,1.4-3.2,3.2s1.4,3.2,3.2,3.2c1.4,0,2.6-0.9,3-2.2h4c0.9,0,1.7,0.7,1.7,1.7v6.1c-1.3,0.4-2.3,1.6-2.3,3.1
	c0,1.8,1.4,3.2,3.2,3.2c1.8,0,3.2-1.4,3.2-3.2C67.6,58.1,66.8,56.9,65.6,56.5z M64.4,60.6c-0.6,0-1.2-0.5-1.2-1.2s0.5-1.2,1.2-1.2
	c0.6,0,1.2,0.5,1.2,1.2S65,60.6,64.4,60.6z M8.4,56.4v-6.1c0-0.9,0.7-1.7,1.7-1.7h4c0.4,1.3,1.6,2.2,3,2.2c1.8,0,3.2-1.4,3.2-3.2
	s-1.4-3.2-3.2-3.2c-1.4,0-2.6,0.9-3,2.2h-4c-2,0-3.7,1.7-3.7,3.7v6.2c-1.2,0.5-2,1.6-2,3c0,1.8,1.4,3.2,3.2,3.2s3.2-1.4,3.2-3.2
	C10.7,58,9.7,56.8,8.4,56.4z M7.5,60.6c-0.6,0-1.2-0.5-1.2-1.2s0.5-1.2,1.2-1.2c0.6,0,1.2,0.5,1.2,1.2S8.2,60.6,7.5,60.6z
	 M31.4,57.8c-1.4,0-2.6,0.9-3,2.2h-8c-2,0-3.7,1.7-3.7,3.7v0.9c-1.2,0.5-2,1.6-2,3c0,1.8,1.4,3.2,3.2,3.2c1.8,0,3.2-1.4,3.2-3.2
	c0-1.5-1-2.7-2.3-3.1v-0.8c0-0.9,0.7-1.7,1.7-1.7h8c0.4,1.3,1.6,2.2,3,2.2c1.8,0,3.2-1.4,3.2-3.2C34.6,59.2,33.2,57.8,31.4,57.8z
	 M17.8,68.7c-0.6,0-1.2-0.5-1.2-1.2s0.5-1.2,1.2-1.2c0.6,0,1.2,0.5,1.2,1.2S18.4,68.7,17.8,68.7z M51,64.5v-0.9c0-2-1.7-3.7-3.7-3.7
	h-2.6c-0.4-1.3-1.6-2.2-3-2.2c-1.8,0-3.2,1.4-3.2,3.2s1.4,3.2,3.2,3.2c1.4,0,2.6-0.9,3-2.2h2.5c0.9,0,1.7,0.7,1.7,1.7v0.8
	c-1.3,0.4-2.3,1.6-2.3,3.1c0,1.8,1.4,3.2,3.2,3.2s3.2-1.4,3.2-3.2C53,66.2,52.2,65,51,64.5z M49.8,68.7c-0.6,0-1.2-0.5-1.2-1.2
	s0.5-1.2,1.2-1.2s1.2,0.5,1.2,1.2S50.5,68.7,49.8,68.7z M30.7,6.4c1.4,0,2.6-0.9,3-2.2h4c0.9,0,1.7,0.7,1.7,1.7V12
	C38,12.4,37,13.6,37,15.1c0,1.8,1.4,3.2,3.2,3.2s3.2-1.4,3.2-3.2c0-1.4-0.8-2.5-2-3V5.9c0-2-1.7-3.7-3.7-3.7h-4
	c-0.4-1.3-1.6-2.2-3-2.2c-1.8,0-3.2,1.4-3.2,3.2S28.9,6.4,30.7,6.4z M30.7,2.1c0.6,0,1.2,0.5,1.2,1.2s-0.5,1.2-1.2,1.2
	S29.5,4,29.5,3.3S30.1,2.1,30.7,2.1z M12.3,6.4c0.4,0,0.7-0.1,1.1-0.2l9.5,9.5c0.2,0.2,0.5,0.3,0.7,0.3h4.1c0.4,1.3,1.6,2.2,3,2.2
	c1.8,0,3.2-1.4,3.2-3.2s-1.4-3.2-3.2-3.2c-1.4,0-2.6,0.9-3,2.2H24l-9-9c0.3-0.5,0.5-1.1,0.5-1.7c0-1.8-1.4-3.2-3.2-3.2
	S9.1,1.4,9.1,3.2S10.5,6.4,12.3,6.4z M12.3,2.1c0.6,0,1.2,0.5,1.2,1.2S13,4.5,12.3,4.5c-0.6,0-1.2-0.5-1.2-1.2S11.7,2.1,12.3,2.1z
	 M6.3,30.4h7.9c0.4,1.3,1.6,2.2,3,2.2c1.8,0,3.2-1.4,3.2-3.2c0-1.8-1.4-3.2-3.2-3.2c-1.4,0-2.6,0.9-3,2.2H6.3
	c-0.4-1.3-1.6-2.2-3-2.2c-1.8,0-3.2,1.4-3.2,3.2c0,1.8,1.4,3.2,3.2,3.2C4.6,32.6,5.8,31.7,6.3,30.4z M3.2,30.5C2.6,30.5,2,30,2,29.3
	c0-0.6,0.5-1.2,1.2-1.2c0.6,0,1.2,0.5,1.2,1.2S3.9,30.5,3.2,30.5z M7.3,41.2c1.4,0,2.6-0.9,3-2.2h3.9c0.4,1.3,1.6,2.2,3,2.2
	c1.8,0,3.2-1.4,3.2-3.2s-1.4-3.2-3.2-3.2c-1.4,0-2.6,0.9-3,2.2h-3.9c-0.4-1.3-1.6-2.2-3-2.2c-1.8,0-3.2,1.4-3.2,3.2
	C4.1,39.8,5.5,41.2,7.3,41.2z M7.3,36.9c0.6,0,1.2,0.5,1.2,1.2S8,39.3,7.3,39.3S6.1,38.7,6.1,38S6.6,36.9,7.3,36.9z"></path>
<path d="M22.4,25.3v25.4c0,2.7,2.2,4.9,4.9,4.9h17.5c2.7,0,4.9-2.2,4.9-4.9V25.3c0-2.7-2.2-4.9-4.9-4.9H27.3
	C24.6,20.4,22.4,22.6,22.4,25.3z M47.6,25.3v25.4c0,1.6-1.3,2.8-2.8,2.8H27.3c-1.6,0-2.8-1.3-2.8-2.8V25.3c0-1.6,1.3-2.8,2.8-2.8
	h17.5C46.3,22.4,47.6,23.7,47.6,25.3z M27,46.6c0,1.6,1.3,3,3,3h12.2c1.6,0,3-1.3,3-3V29.4c0-1.6-1.3-3-3-3H29.9c-1.6,0-3,1.3-3,3
	v17.2H27z M29,29.4c0-0.5,0.4-0.9,0.9-0.9h12.2c0.5,0,0.9,0.4,0.9,0.9v17.2c0,0.5-0.4,0.9-0.9,0.9H29.9c-0.5,0-0.9-0.4-0.9-0.9V29.4
	z"></path>
</svg>