<svg xmlns="http://www.w3.org/2000/svg" viewBox="0 0 397.395 400" style="fill: #024F87; height:40px; width:40px; " role="img"><path d="M393.268,399.969a5.426,5.426,0,0,1-4.3-2.111A237.291,237.291,0,0,0,234.5,307.466l-1.409-.159a5.434,5.434,0,0,1-4.822-5.4V280.365a5.433,5.433,0,0,1,3.655-5.133,93.1,93.1,0,0,0,23.633-163.739,5.433,5.433,0,0,1,6.323-8.838,103.971,103.971,0,0,1-22.744,181.5v13.02a248.087,248.087,0,0,1,158.428,94.037,5.433,5.433,0,0,1-4.3,8.755Z" transform="translate(-1.303)"></path><path d="M6.732,400a5.433,5.433,0,0,1-4.3-8.755,249.468,249.468,0,0,1,71.237-62.812,246.823,246.823,0,0,1,87.7-31.332V283.2A103.971,103.971,0,0,1,138.32,104.665a5.433,5.433,0,0,1,6.6,8.629,92.488,92.488,0,0,0-36.568,73.967,93.56,93.56,0,0,0,60.364,87.165,5.432,5.432,0,0,1,3.522,5.085V301.8a5.433,5.433,0,0,1-4.709,5.385l-.763.1A236.073,236.073,0,0,0,79.184,337.8a238.633,238.633,0,0,0-68.148,60.089A5.428,5.428,0,0,1,6.732,400Z" transform="translate(-1.303)"></path><path d="M196.4,33.566a5.433,5.433,0,0,1-5.433-5.433V5.433a5.433,5.433,0,1,1,10.866,0v22.7A5.434,5.434,0,0,1,196.4,33.566Z" transform="translate(-1.303)"></path><path d="M142.558,56.737a5.417,5.417,0,0,1-3.842-1.591L122.665,39.1a5.433,5.433,0,0,1,7.684-7.684L146.4,47.462a5.433,5.433,0,0,1-3.842,9.275Z" transform="translate(-1.303)"></path><path d="M250.353,56.228a5.433,5.433,0,0,1-3.842-9.275L262.562,30.9a5.433,5.433,0,1,1,7.684,7.683L254.2,54.637A5.419,5.419,0,0,1,250.353,56.228Z" transform="translate(-1.303)"></path><path d="M187.883,157.566a5.43,5.43,0,0,1-5.433-5.433v-7.548c0-14,3.729-22.312,14.781-32.921l8.946-8.55.076-.071c4.559-4.193,7.383-7.944,7.383-13.68,0-7.921-5.073-12.842-13.239-12.842-9.362,0-14.547,7.761-14.831,15.427a5.434,5.434,0,0,1-5.914,5.211l-24.433-2.186a5.434,5.434,0,0,1-4.912-6.049C153.531,61.636,173.816,44,201.987,44c12.891,0,24.684,3.924,33.205,11.048C244.7,63,249.73,74.317,249.73,87.774c0,18.917-8.6,27.825-21.729,39.256-9.348,8.27-11.245,11.905-11.245,21.584a5.434,5.434,0,0,1-4.626,5.373l-23.44,3.519A5.5,5.5,0,0,1,187.883,157.566Zm25.766-46.561-8.9,8.506c-8.972,8.614-11.431,14-11.431,25.074v1.238l12.745-1.913c.8-9.985,4.55-16,14.772-25.047,11.859-10.328,18.03-16.387,18.03-31.089,0-15.179-9.658-32.9-36.876-32.9-20.667,0-35.522,11.274-39.917,29.807l13.392,1.2c2.78-11.849,12.709-20.219,24.935-20.219,14.193,0,24.106,9.749,24.106,23.708C224.5,99.611,219.023,106.055,213.649,111.005Z" transform="translate(-1.303)"></path><path d="M208.777,203.538H193.1c-2.394,0-4.353-1.544-4.353-3.432v-2.46a.691.691,0,0,1,.755-.595L212.473,195a.6.6,0,0,1,.657.518v4.584C213.13,201.994,211.171,203.538,208.777,203.538Z" transform="translate(-1.303)"></path><path d="M186.852,175.161a5.434,5.434,0,0,1-.732-10.817l28.16-3.869a5.433,5.433,0,0,1,1.478,10.766l-28.16,3.868A5.4,5.4,0,0,1,186.852,175.161Z" transform="translate(-1.303)"></path><path d="M188.741,191.034a5.433,5.433,0,0,1-.754-10.813l24.382-3.448a5.433,5.433,0,1,1,1.521,10.759l-24.381,3.448A5.563,5.563,0,0,1,188.741,191.034Z" transform="translate(-1.303)"></path></svg>