<svg viewBox="0 0 400 341.23" xmlns="http://www.w3.org/2000/svg" style="fill: #9A9393; height:110px; width:129px; " role="img"><g fill-rule="evenodd"><path d="m371.84 246-.09.41.13.22.26.24.28.08.16-.34-.4-.25-.07-.41h-.14zm-6.26-10.62-.1.47.2.23h.09l.21-.11.1.12.1.28.06.48.14.32v.12l.24.06.26-.23h.45l.23-.2-.13-.18-.05-.16-.19-.09-.1-.16h-.09l-.44-.3v-.15h-.08l-.14-.07-.23-.55-.25-.13h-.16zm6.26 9.49h.12l.14-.15-.12-.23-.28-.22.16-.1-.23-.12-.11-.3h-.17l-.22.08-.08.2v.37.14zm-2.75-4.46h-.07-.02-.08l-.25.29-.1.21h.08l.15-.06h.14l.08.13-.16.1.45.09h.38l.18-.32h-.12l-.3-.45zm-5.09-7.28-.05.6.21.34.18.16v.19h.2l.34-.18h.48l.32-.29v-.14l-.06-.16-.15-.78h-.07l-.12-.17v-.3l.06-.12h-.15-.12l-.06.38-.13.24-.12.05h-.22l-.2-1-.25-.29-.17-.3h-.12l-.12.36v.28zm-141.22-117.37v.2.18l.12.18.08.19.26.82.12.29.16.27.21.2.28.14.31.27.08.14.22.48v.4l.16.25.3.09.07-.34v-.34-.38l.06-.37.15-.4.19-.37.46-.49.41-.61.17-.32.14-.33.24-.8.15-.78.17-.62.09-.61.08-.25.3-.49.27-.8v-.34-.34-.25l.11-.23.22-.25-.07-.26-.16-.16-.37-.16-.14-.09-.13-.16-.15-.14h-.23l-.21.09-.25.29-.82.3-.17.1-.23.34-.19.37-.2.29-.23.25-.39.53-1.42 2.44-.08.18v.4.41l-.06.29zm15.54 99.6-.43.33-.22.17-.1.3-.37.29-.4.47-.33.24-.28.28-.25.19-.3.06-.46.05-.62.34-.34.14h-.34l-.31-.11-.12-.12v-.17l.1-.14.13-.12.08-.15-.36-.2v-.14l.14-.39.09-.41.14-.27.5-.49.31-.25.18-.09.49-.26.74-.2.4-.11.22-.12.18-.16.56-.29.09-.08.32-.25.27-.46.19-.18.44-.17.18-.05 1.28-.25h.3.82l1.08-.06h.27l.35-.11.34-.14.17-.11.19-.08.28.1.47.08.13.06.12.09-.55.49-.6.39-.38.13-.38.08-.29.15-.25.24-.32.14-.36.05-.3.07-.28.14-.38.25h-.16-.16l-.32.1-1 .35zm-2.34-.5-.08.23-.11.11.11-.11zm99.46-5.71h.22l.07.11.31.1.24-.19-.1-.1-.11-.05h-.12l-.23-.08-.43-.37-.14-.14-.15-.43-.22-.2-.8-.39-.49-.37-.38-.1-.11.06v.24l.11.14.61.45.63.81.6.44zm15.29 10.19-.39-.62-.16-.16-.25.07-.33-.12h-.22l-.38-.18-.05-.05-.14-.06-.54-.35-.28-.1h-.24l-.05.24v.13h.32l.27.09v.28l.13.11v.23l.76.46.36.15.41.06.25.12.23-.05.31.07h.21l-.25-.14zm-4.65-3-.21-.07-.18-.31-.3-.16-.52-.35h-.87l-.29.05-.71-.5h-.19l-.19.13-.05.13v.36.19l.18.31.23.27.14.12.15.08.46.07h1l.49.23.51.1h.19l.27-.11v-.05l-.07-.29zm1.86-.31v-.12-.25l-.34-.53v-.38l-.15-.18v-.12l-.14-.4-.35-.32h-.2l-.1-.12v-.31l.1-.1v-.16l-.75-.9h-.14l-.06.07h-.11-.15v.14l.37.5-.15.25.33 1 .31.59.45.34.06.11.45.26.4.6zm-10.51-3.36-.22-.55-.19-.25-.34-.08-.12-.16v-.48l-.33-.12-.17.06-.28.34-.06.19-.28.16v.15l.05.16.21.06.15-.18.46-.05h.16v.21l.08.33.2.16.28.07.22.27v-.12h.16zm5.6-.1.41.26v-.07l-.09-.22-.17-.17.15-.24-1.25-.91-.19-.1-.24-.06-.27-.2h-.27l-.3-.2-.12-.14-.33-.21-.39-.35-.84-.18.07.09.26.23.09.33.28.17.27.27.17.06.07.1.27.25.44.19.45.28h.16l.19.17.88.34zm-120.64-40.92.17-.22.26-.05.06-.14.09.09h.13l.1-.08.08-.19-.07-.08-.06-.17h-.13l-.26.2-.29.11-.47.29v.19h.17zm4.74-22.79.06-.17-.18-.61v-.28-.27l.14-.22v-.13l-.25-.17-.26-.24-.22-.33-.24-.18-.25.16-.13-.09-.16-.06-.14-.17h-.2l-.48.09h-.15l-.16-.06-.56-.08h-.2l-.15.14v.18h.14.16.05l.08.25.08.16.2.16.23.12.09.12.25.49v.39.16l.06.13.18.13.14.18.06.2v.21l.12.2.26.26.1.07.08.11v.15h.11l.25.06.16-.18.1-.08h.1.12v-.19l.06-.08v-.11l.14-.26zm-10.73 10.14h-.15-.14l-.43.43-.46.4-.19.2-.34.41-.21.16-.28.52-.08.26v.27l.28-.22.3-.17.18-.05.14-.08.07-.17.1-.14.32-.11.31-.15.33-.22.3-.24.25-.32.19-.36.29-.2.37-.1.25-.17.22-.23.19-.27.62-1.05-.06-.29.09-.16.16-.1.34-.14.74-.2.08-.12v-.16l.16-.3.26-.23.16-.09.36-.07.16-.09.28-.28v-.16l-.2-.47-.28-.75.11-.28-.09-.17v-.17l.08-.34v-.14l-.15-.1-.11.16-.38.8-.11.18-.13.39.11.29.05.19-.08.35-.19.29-.12.11-.13.1-.19.07-.17.1-.54.67-.08.08-.28.22-.59.73-.57.58-.7.78-.27.23zm10 9.79-.21.06-.17-.22-.36-.06-.43.27-.06.16.16.17.27-.08.19.09.41-.15.23.22.36-.21v-.04l-.07-.12zm-2.86-18.39-.24-.2-.1-.24-.1.16-.12.05-.17-.05-.07-.09-.34-.22-.14-.15h-.06v.06l-.07.09v.19l.09.06.19.33.16.19h.27l.23-.08h.21.21zm16.08 7.38-.37-.32h-.15l-.18.27.3 1.19.07.41-.11.39-.37.07-.39-.11h-.12l-.1.32-.1.16-.29-.07-.31-.2h-.23l-.19.14-.06.15-.07.56-.1.39-.33.12-.52-.25h-.15l-.14.12-.1.15-.12.37-.18.35-.08.13-.12.08-.49.13-.2.1-.4.24h-.14l.3-.26.08-.14-.06-.57v-.17l-.2-.35-.31-.22-.36-.08-.19-.1-.2-.07-.16.27-.12.14-.15.08-.44.08-.15.11-.14.14-.1.11-.06.13v.23.2l-.25.19-.33.07h-.4l-.25.12-.61.15h-.15l-.29.25-.34.41v.14.32l-.2.89-.17.26-.21.24-.06.38.18.32.2.12h.21l.14-.1.1-.17.23-.5.2-.52.39-.67.08-.23.07-.1.36-.28h.3l.23.16.09.49.07.09h.22l.22-.05.18-.21.15-.26.07.1.06.12v.16l.09.14.31.2.33.17.26-.78v-.14-.14l.05-.15.18-.08h.17.17l.16.1.14.13.62.23.3.26.35.43.07.12v.2l-.06.19-.1.15-.13.13-.22.19-.18.36v.2.2l.18.59v.41l.08.39.41.51.57.35.72.36.88.38h.14.19l.12-.11.3-.42h.12l.11.11v.32l-.09.36v.15l.14.38.18.1.33-.2.46-.62.18-.33v-.74l-.25-.73-.07-.1-.24-.23-.08-.13-.16-.25.07-.32.19-.35.23-.32.3-.26.06-.17v-.19l.06-.12.25-.18h.16l.23.66.18.25.08.27.17.31.11.33.09.74.1.28.15.26.09-.52.06-.76-.15-.36.08-.12h.23l.44-.39.33-.5.1-.22v-.23-.67l-.07-.4-.08-.14-.15-.1-.18-.23v-.28l.1-.68v-.16l-.24-.38v-.47l-.25-.17-.33-.06-.11-.11v-.1l.24-.21.13-.14.17-.31-.05-.32-.28-.39-.06-.14v-.46l-.29.08-.25-.18-.16-.32-.23-.27zm-11.06-11.88h-.06-.18l-.15-.08-.16.43v.3l.14.14.39.24.11-.1v-.1l.2-.29v-.17-.13zm-.37 21.26v.13l.24.31h.1.3l.33-.16.16-.29.21-.07-.1-.11-.7-.31-.43.19h-.26l-.04.15zm-5.73-29.48-.16-.07-.14-.15-.16-.12-.13.07v.15.62.14l.12.17.15.15.07.09v.12l.13 1.25.08.28.13.35.1.35v.42l.12.39.17.16h.23l.11.05.1.33.25.24.09.35.13.12h.17.18l.1-.13v-.34l-.11-.53.11-.35.16.2.22.12.29.05.25.14.16.21v.27l-.08.2-.71.62-.14.15-.08.17v.59l.06.59.28-.3.34.05.28.38h.22l.27.24.33.12h.42l.31-.2v-.24l.15-.16.43-.22.15-.06h.15.11l.89.46.41.43.52.39.09.08.27.4v.15.17l.25.2.23-.18v-.44l-.18-.37v-.14l-.27-.29v-.14-.18-.18l-.08-.2.06-.14h.17l.16.05.56.53.25.36.1.08.81.46.09.12v.15l.27.42v.36l.06.17h.28l.68.38h.33.2l.18-.07h.17l.09.07-.16.34-.05.36.25.29.3.08.23-.68v-.75h-.12-.1l-.35-.21-.25-.05h-.26l.09-.25v-.24l-.17-.26-.18-.24-.29-.29-.18-.36.18-.18.6-.06.16-.24-.13-.11-.27-.15h-.13-.16l-.6-.21-.17-.19-.17-.1-.12.11-.07.15.14.12v.31l-.2.27h-.4l-.12-.11v-.16-.17-.18l-.17-.37-.24-.33-.24-.19-.29-.11-.41-.1h-.41l-.32.18-.31.22h-.14l-.11.08v.11l.22.21v.15l-.18.05-.05.15h-.11-.2l-.5-.22-.18-.14-.16-.15-.1-.17v-.2l-.31-.76-.06-.31v-.31l.21-.17v-.09l-.08-.07-.35-.65-.33-.66-.11-.16v-.18l.06-.15.12-.13.12-.29.27-.35.08-.14v-.18l-.06-.16-.09-.15.11-.33.27-.25.31-.19.57-.25.48-.09.24-.51v-.26l.6-1.2.13-.52.1-.21.06-.21-.16-.09-.18-.07v-.19-.21l-.08-.12-.28-.16-.1-.12-.19-.44-.06-.27v-.29l.09-1 .13-.29.21-.24.07-.26v-.26l-.1-.18-.14-.13h-.22l-.21.36-.12.13-.28.14h-.3l-.4-.1-.37-.15-1-.58-.46-.16h-.15l-.39.09h-.17-.16l-.32.18-.33.12-.05.44-.1.32-.14.32-.44 1.63v.32l.16.3v.19.33.56.42l-.27.6-.05.36v.36l.06.4.2.55v.19l-.06.16-.1.13h-.2-.54l-.1-.06-.28-.36zm12.35 8 .36.23.22-.17h.14l.1.07.08-.2.15-.15v-.21l.06-.38-.24-.18h-.09l-.25-.4-.12.05-.1.11-.09.14v.58l-.25.39zm-1.51 3.55-.29-.17-.38-.12-.31-.13v.27l.09.31-.07.2-.11.68-.16.42v.13l.41-.34.39-.48.16-.07.18.06.24.33.17.06v.06l.19.15v.15l.09.06.29.06.4.29.2.2v-.18-.47l-.4-.62-.58-.36-.43-.37zm4.82-.39-.94.12h-.83l-.82-.14.1.51.17.49.19.28.25.22.13.08.32.1.22.27.14.11.08.14.19.23.15.06h.18v.19.2l-.19.24.08.25.27.42.17.16.2.06.24.37h.23l.37.09.59-.06h.14l.19.22v-.08l-.14-.28-.23-.21h-.16v-.13l.09-.13-.05-.17-.27-.5v-.16-.18-.18l-.1-.18v-.55l.18-.31v-.25l.09-.17-.16-.19-.22-.1h-.17l-.1-.09v-.2-.18l-.21-.25zm-9.45 2.16h-.2l-.14.13-.08.19.15.1.39.11.1.13v.12l-.14 1v.7l-.09.36-.17.33v.35l.07.17v.19l-.14.44v.07.08h.11l.19-.17.17-.19.27-.14 1-.21.45-.34.3-.07.06-.17v-.18-.15l.13-.1.28-.11.24-.18.17-.24.14-.28.07-.23v-.24-.29h-.17l-.63.3v-.14l.1-.13-.29-.2h-.33l-.35.14-.35-.16-.3-.27-.33-.21-.61-.25zm1.2 6.1-.08.22v.39l.46.64.14.13.17.09.33.12.28.16.25.64.14.15h.21.2l.19-.08.11-.1.19-.29.09-.17v-.13-.12l-.48-.76v-.16-.17-.45l.07-.21.24-.39.09-.2.15-.61.19-.4.26-.38.11-.24.12-.36v-.11l-.16-.33-.77-.21h-.1l-.6.24-.13.07v.16.21.21l-.16.29-.15.15-.12.15.11.33v.34.48.12l-.43.29h-.2-.38l-.16.05zm4.9-4.2-.22.27v.15.18l-.08.11v.24l-.29.71-.32.51v.27l-.36.52-.24.5-.38.52.05.24-.23.95v.27l.05.2.12-.08.37-.43.43-1v-.3l.17-.33.27-.28.26-.11.23-.18.16-.26.14-.56-.07-.56.08-.48v-.31-.08-.16l.06-.34zm-5.87-4.2-.31.15v.5l-.15.16-.05.16v.13l.14.14-.07.16.17.26.24-.76.13-.6v-.23-.12zm6.68 3.55.07.18.11.18.14.67.1.69.17.06.35-.18h.14l.23.25.14.3v.15.16l-.19.73.16.35v.16.32l.1.1.35.12.3.19v-.25l-.06-.25-.05-.52.17.14.19.32.11.09v-.21-.12h.32v-.13-.13l-.19-.33v-.39l-.07-.16-.11-.14-.14-.11-.15-.1-.06-.1.08-.51v-.56l-.05-.23-.1-.13-.19-.36-.33-.09-.3.24h-.24l-.21-.11-.08-.16-.11-.09-.23-.1-.19-.17-.13-.07zm-.65 4.35-.1.18-.46.25-.14.12-.14.19v.17l.13.26.19.16.57.07.72-.09.13-.08.23-.28h.08.24v-.11-.13l-.08-.15.07-.45-.28-.12-.24-.18h-.1-.07v-.05l-.5.07zm68.16 37.06.19-.11h.19l.15-.1.54.12h.42l.23-.06h.2l.29-.27.1-.08h.15.16v-.14l-.06-.05v.07h-.06l-1-.2h-.64l-.29.09h-.32l-.18.13v.25l-.22.07v.09l.05.16zm28.22 12.85-.18-.27-.27-.25-.29-.23-.17-.07-.19-.05-.16-.11-.28-.52-.15-.12-.29-.21-.09-.11v-.15l-.28-.48-.29-.24h-.38l-.16-.09-.14-.12h-.13v.31l-.09.61v.21l.12.34.07.12.27.28.21.13.21.32.1.07.48.22.1.32-.08.35.16.3.25.28.25.19.29.14.29.08h.31l.13-.08.13-.12.26-.11.07.11.06-.05.07-.28-.09-.37zm-30.59-3.9v-.87l-.07-.2-1.31-1.32h-.38l-.36-.09-.25-.23-.21-.26-.29-.26-.32-.22-.33-.11-.24-.24-.07-.17-.14-.09-.16-.05h-.16l-.38.05h-.38-.17l-.16-.07-.38-.26-.28-.24-.29-.13-.58-.43-.4-.11-.75-.12h-.35l-.31-.19-1.08-.35-1-.36-.68-.36h-.15-.15l-.15-.06-.46-.26-1.52-.65h-.24-1.08l-.09-.29-.14-.11-.15-.08-1-.08h-.13l-.14-.11-.15-.08h-.87-.24l-.93-.41-.7-.34-.31-.18-.33-.14-.37-.07-.32-.15-.23-.22-.26-.16-1.64-.53-.31-.18-.29-.22h-.32l-.58.25-.71.36-.62.35-.16.12v.12l.16.27v.16l-.3.24-.69.28-.7.08-.68.15-.11.15-.15.31-.1.31-.08.16-.7.46-.07.09-.19.42-.21.27-.7.58-.2.25-.23.23-.34.09h-.37l-.48-.06-.17-.05-.36-.25-.09-.12-.11-.31v-.39-.21l-.22.11h-.2l-.17-.69v-.35l-.05-.16-.18-.08-.15.08-.11.14v.4l-.1.35-.3-.63-.5-.94-.12-.35v-.34-.34l-.05-.37-.07-.38.12-.3.22-.27.06-.17.06-.33v-.16l-.18-.33-.22-.3-.13-.3v-.32l.08-.15-.27-.23-.15-.08h-.38-.38-.76l-.62-.28-.58-.37-.67-.28-.7-.18h-.36-.34l-.81.3-.13.11-.12.14-.25.13-.22.23-.26.14-1 .24-.5.15-.12.07v.12.17.16l-.19.48-.12.16-.18.09-.14.11-.14.3v.12l.18.07h.19.18.19l.16-.11 1.33.44.3.05h.3v.47l.19.65.07.18.18.12.12.18.26.25.31.2h.29l.3-.07.39.09.7.07h.3l.8-.18h.4.39l.68-.11.64-.26v.14l-.06.11-.16.11-.18.22h.33v.26l-.08.07h-.13l-.25.08-.13.28v.25l-.15-.08-.13-.16h-.25l-.35-.09-.44-.18h-.23-.21l-.26.11-.42.52-.52.39-.22-.07-.23-.11-.77-.13h-.28l-.49.24-.29.09.1.2.15.18h.14.47l.28.09.62.47.6.5.24.35.12.42-.35.46.11.37.14.37.1.18.14.15.16.11.35-.08h.35.15l.46-.49.07-.17-.05-.17v-.16l.29-.36.1-.29-.07-.32h.24l.17-.15v-.54-.16l.09-.14.2-.13h.23l-.19.29-.25.3v.18.51l.14.3.26.22.15.09.14.12.08.17.13.12h.19l.19-.07h.14l.1.09.07.18.19.18.38-.11.23.12.25.09h.17l.31-.14h.16l.39.05h-.55l-.06.17v.2l.22.35 1.34.77h.24.24.29l.81.11.8.16.36.16.34.2.55.15.69.35.72.23h.18.18l.16.07h.18l.17.08.16.12h.12l.13-.09.08.2 1.37.73.11.17.14.12h.14l.11.07.19.17.23.12v.24.25.14l.07.1h.12.12l.26-.07h.26l-.29.15-.13.25.25.09h.28l-.18.13-.06.19.22.51.22.68.25.33.36.33.17.19.09.32.25.18.17.21-.55.08-.26.08v.07l.36.41.38.2.62.19h.19.19l-.34.11h-.14l-.3-.07h-.16-.2l-.16.11.14.14.18.12.1.11.16.3.14.11.2.06.11.17v.16l-.08.16-.13.44-.21.23-.09.39-.06.16-.09.16v.14l.08.14.13.07.45-.36.33-.17.17-.32v.2l.06.18.12.18.21.07.4-.05.4-.14.42-.06h.44l.3-.24.25-.3-.24.49-.13.17v.08l.06.09.3.32 1.17 1 .28.32.24.36.38.39.42.34.16.1.47.31h.26l.23-.14.34-.05.34.12.32.06h.32.76l.76-.09h.19l.31.11.12.06.31.2.34.07.64-.38.66-.33.45-.17.43-.23.06-.16v-.32-.12l-.22-.31-.25-.27-.34-.3h-.14-.15l-.66-.3h-.67l-.31.11-.25-.18-.09-.19-.11-.15h-.36l.21-.07h.22l.08.13.07.14.15.18h.23l.28-.1h.28.3l.3.08h.57l.57-.14.51-.08.5-.12-.1-.26-.12-.26-.07-.08.1-.05h.34l.35.1h.16.17l-.15-.23h.16.15l-.61-1.2-.26-.27.21.12.17.15.16.2.2.18.23.09.51.16h.25l.14-.15.17-.11h.07l.16.05h.08l.06-.24.18-.1.27.07.26.11.27.05h.28l.06.31.11.13.16.08.33.07h.34l.28.07.55.2.29.05h.5.13l.12.08.67.26.14.11.09.17.1.12.13.11.2.3.14.34.48.57.21.32.32.61.2.23.49.19h.17l.15-.1-.1.29v.28l.27.43.15.11.71.47.33.29.27.35.17.37.19.15.16.16.3.17.37.05.49.13h.15l.15-.06.36.07.35.17h.14.49l.19-.06h.18l.37.2.31.06 1.26.11.58.15h.32.31l.25.14.34.26.1.1.11.18.38.14.54.1h.32.17l.41-.24.09-.13-.13-.1-.35-.18-.24-.26.11-.1.58.1.16-.06.48-.25-.55.06-.39-.15-.53-.05-.24-.09-.24-.11-.35-.11-.37-.09-.15-.06-.13-.08-.16-.24-.18-.2v-.19l.32-.11h.19l.17-.07.08-.15-.11-.08-.33-.1-.33-.05-.85-.07-.17-.06-.48-.22-.18-.28v-.33l.15-.35-.05-.34-.15-.12h-.17-.14l-.92.22h-.34l-.3-.12-.35-.7-.23-.74-.11-.09-.51-.33v-.14-.15l-.07-.37-.16-.54-.08-.17-.58-.39-.35-.11-.29-.19-.54-.5-.27-.29-.28-.25-.32-.21-.21-.26-.26-.64-.44-.72v-.14-.15l.5-.34.72.07 1.07-.06.31-.06.11-.12v-.34l-.09-.54-.07-.17-.11-.08-.1-.09-.24-.32-.26-.3-.14-.1-.3-.17h-.14-.38-.39l-.26-.08-1.92-.92-.6-.21-.62-.15-.45-.08-.32-.2zm8.24 1.89.35.08.29.11.26.15.89.61h.08l.44-.15h.34l.3.14.35.41.17.09h.29.31 1 .72.13l.35-.23.36-.12.16-.1.15-.13.34-.14h.37l.14-.06.43-.23.31-.24.27-.28.1-.14.14-.27v-.19l.1-.12h.55l.51.07.32-.11.33-.21.2-.31-.2-.33-.26-.3v-.22l.09-.22h.47.15l.12-.08.29-.4.15-.27v-.31l-.09-.21v-.21l.12-.45-.32-.06-.31-.11-.24-.22-.46.32-.15-.06-.16-.11-.14-.13h-.35-.33l-.1.14v.16.14l.35.88v.37.37l-.3.16h-.41-.17l-.17.06-.57.46-.21.28-.14.35-.21.31-.16.07h-.18-.17l-.15.12h-.33l-.33-.18h-.35l-.32.19h-.35l-.23-.28-.1-.36v-.38l.08-.15.19-.2-.15-.15h-.1l-.13.07-.11.31-.14.93-.4.23h-.46-.15l-.47.17h-.36-.34l-.37-.15-.38-.12-.65.09-.18-.06h-.18l-.15.06h-.15l-.41-.11-.26.22v.37l.19.29zm6.78-9.25.31.12h.36l.3.15 1 .63.18.19.34.16.66.56.26.18.28.17h.15l.35.06.17.05.26.23.23.26.74 1 .21.41.09.45v.23.22.21l.18.41.14.19.18.19.14.22.22-.23.18-.28.06-.27v-.3l.2-.25.07-.12v-.31l-.32-.44-1.93-1.58-.16-.18-.45-.33-.35-.4-.1-.08-.68-.24-.36-.3-.31-.21-.34-.19-.49-.2h-.26l-.16-.25-.54-.3-.52-.35v.21.21zm-2.13-.68.18.27.19.17.22.05h.6v-.09-.27-.09l-.06-.13-.61-.26-.38.06-.43.21.07.06zm54.92 145.64-.1-.12-.24-.09v-.17h.31v-.15l-.57-.64h-.52l-.06.38.11.41-.18.19v.22l-.26.12-.07.16v.21l-.27.22-.06.23h.1l.37-.08.33-.26h.08.29l.33-.24.51-.06.17-.12.06-.17v-.18zm31.29-34-.35-.14-.27-.18-.8-.05-.15.09-.15.13-.29.14-.26.17-.24.36-.31.27-.31.21-.36.12h-.19-.34l-1.18-.34-.48-.2-1-.53-.14-.06h-.16l-.25-.08-.21-.16v-.08l.07-.05.23.08v-.16l-.38-.36-.21-.81-.14-.86-.1-.28-.18-.25v-.24h-.28l-.46-.58-.09-.19-.11-.17-.19.09v.19l.12.12.1.15.09.19v.21.2.2l.18.63.05.4-.08.14-.24.05h-.23l-.12-.18-.06-.4-.08-.16-.17-.08-.6-.2-.29-.21h-.1l-.08.16-.13-.13-.14-.07h-.24v-.16l.09-.07.08-.43.13-.14-.2-.42.07-.16v-.18l.09-.28-.6-.79-.17-.26-.21-.42-.25-.3v-.08l.43.07h.15l-.22-.41.07-.13v-.16l-.23-.44-.14-.15-.11-.15-.06-.15-.16-.27h-.12l-.24.19h-.18l-.07-.12v-.16-.16l-.05-.1-.54-.29-.25-.11-.09.06-.08.09-.14-.05-.14-.17-.67-.2-.11-.06v-.29l-.2.18-.12.18-.17.11-.05-.16-.09-.12-.18-.16v-.16l-.35-.54-.17-.17-.11-.21.25-.36h-.52l-.51.07.47.61.51.57.27.35.22.39v.37l-.22.28.13.14.21.29h.14l.05.09v.14l.08.12.19.2.07-.07.16-.28.13-.12.14-.12.07-.08h.13v.13l-.08.11-.32.24-.21.28 1.62 2.19.14.21.19.42.13.11.15-.05.06-.17-.07-.13-.42-.5-.26-.44v-.22-.16l.16.39.21.35.66.44h.07l-.08-.17.05-.11h.11l.27.24v.12l-.13.16v.19l.17.1.11.16v.2l-.06.19-.1.13-.47-.41h-.17l.58.81.08.15.11.39.1.21.18.11h.2l.2-.05.2-.08h.15l.44.49h-.19l-.19.07-.17.14v.23l-.22-.44-.16-.07-.07.1.27.61.1.18h.18l-.07.19v.19l.06.2.29.63.25.42h-.15l-.13.1-.1.16.11.45-.09.27-.28.44-.19.71-.11.63-.06.63-.1.2-.32.3-.19.13h-.12-.14l-.73.21-.69.38-.11.11-.08.15v.19.46l.06.2.09.18.37.29.65.21.61.27.31.33.35.27.36.12.38.05.6.33.44.58.17.3.13.32-.16.77-.12.42-.44.81-.51.76-.5.57-.08.13-.07.13v.09l.08.05h.26l.26-.12-.07-.1v-.12h.1l.11.07-.08.13v.46.07h.07l.45-.15.34.09.06.12.06.31.05.14.27.13.21-.11.2-.15.73-.46.46-.33.44-.38.23-.3.18-.37.4-.54.19-.39.22-.36.27-.35.41-.46.24-.53.25-.24.21-.25.39-.88.43-.84-.44-.25-.08-.17v-.23l.05-.44.24-.36.13-.16.16-.12.51-.25.34-.12h.35.4l.4.09.12.12.15.29h.1l.17-.35v-.17l-.11-.11v-.14l.07-.57.13-.49.33-.1.29-.21.27-.29.14-.38.1-.85.14-.85.16-.37.21-.34.06-.23zm-13.16 12.73h-.3l.2-.09.29-.2v-.13l.19-.2.08-.18h-.24v-.14h-.18l-.1.05h-.12-.25v.12l.08.16-.2.1-.13.21.05.1-.11.19-.3.12.2-.29v-.24l.17-.2-.11-.14v-.08l.19-.08.15-.25h-.16l-.15.09-.35.08-.14.06-.53.41-.35.18-.33.21-.33.26h-.35l-.14-.34-.05-.39v-.45l-.16-.38-.36-.1-.31-.16-.12-.18-.07-.2v-.23l.06-.22.64-.09-.34-.1h-.36l-.22.08-.52.37-.59.49-.4.68-.14.92-.26.87-.19.34-.35.42-.3.24-.18.09h-.41l-.16.14-.19.65-.19.38-.11.4-.08.41-.14.37.14.1.05.11h-.17l-.11.05-.09.08-.5.71.06.39v.22l-.08.08v-.24-.2l-.12-.17-.39.48-.3.29-.05.17v.2l-.21-.25h-.16l-.27.14v.11l.23.19-.23-.12-.23-.08-.24.11-.23.15.21.1.07.17-.12-.1h-.17l-.18.07-.16.22-.12.09-.14.07-.26.31-.48.28.15.07v.06h-.17v.14.15h-.19l-.33.2-.44.12-.58.28-.47.28-.1.16.13.35-.13-.05-.21-.14-.23.1-.56.38h-.1l-.37-.09-.59.22-.27.19-.52.53-.54.5-.49.53v.34l.11.12v.15l-.15-.15-.22-.11-.27.17-.37.37-.28.11-.07.12v.13l.07.14v.15.16l-.17-.48-.66.5-.07.13.1.19.17.13h-.22l-.18-.16-.31.27v.2.17l.29.16.24.06h.07-.26l-.08.06v.13l.13.22-.31-.11-.43-.28h-.12v.22l.13.15h-.43l-.11.22v.29h.41l.36-.07-.5.27-.08.16v.2l.58.05-.15.15-.35.09-1 .14-.08.07v.27l.05.23h.36l.32-.25.05.15v.13l-.23.3h.24l.39-.27.18-.09-.62.66.06.25.3.1.82.09h.81l.14-.05.23-.28h.15l.43.17.12.13.37.53h.17l.54-.06h.34l.12.09.11.12.16.11.07.16v.22l.1.16.07.06.26-.06.32.09.18-.09.41-.08h.21l.39.13.41.07h.73l1.05-.26.13-.12.09-.15.48-.56.81-.65.25-.3.21-.34.25-.19.77-.18.15-.06h.16v-.1-.2l-.15-.13-.12-.16v-.11l.35-.62.23-.55.15-.59.15-.24.37-.42.07-.23-.34-.16-.07-.09h.44l.16-.54.05-.58.05-.34.25-.81-.12.08-.14-.05h.38l.16-.17.07-.27.23-.06h.43l.16-.07.29-.21.25-.13.26-.08.32-.14.3-.19-.13-.23-.26-.34v-.15l.33.23.23.23.23.16h.16l.11-.11v-.19l.11-.12.15-.07h.14l.17.13-.32.22h.08l.15-.05.59-.06.21.21.31.08h.32.12l.09-.11.07-.17-.06-.35-.07-.1-.39-.06-.42-.14-.12-.22-.06-.17v-.18l-.15-.08-.5.07.11-.11h.21l.2-.11.11-.16-.14-.15-.19-.06v-.1l.29-.05.27-.22.25-.27.55-.24.24-.13.21-.17.39-.5.6-1.18.13-.16.76-.74.15-.22v-.29l.26-.18.22-.28.51-.56.08-.13.12-.27-.2-.22-.14-.08-.26.05.23-.39-.2-.21-.06-.12v-.15l.1-.23.2-.14.21-.05.18-.18.21-.27v-.31l-.26.25zm-22.94-63.73.62.36.18-.07h.2l.21-.09.11-.2-.19-.54-.37-.23-.4-.2-.31-.26-.29-.28-.57-.46-.74-.49-.33-.13-.2-.17-.19-.08-.14-.16-.31-.21-.25-.28-.41-.31-.08-.12v-.19l-.1-.14-.22-.16-.17-.22-.18-.15-.24-.08-.42-.2-1.17-.94-.46-.31-.37.08-.34-.19-.43-.33-.06.1v.19l.08.14.18.08.11.14v.21l.05.2.44.48.18.34.25.28.31.24.29.27.61.66.22.28.25.12.7.62.26.18.31.11.58.34.37.17.25.24.33.17.49.16.09.1.05.17.11.15.35.21.37.13.07.11.09.07h.16zm-256.93-90.6-.1-.11-.21-.49-.14-.18v-.08-.09-.13l-.7-1v-.08-.21l-.15-.65-.12-.13h-.18l-.14-.07v-.13-.26l-.07-.16-.55-.82-.11-.08h-.13l-.08-.16v-.19l-.55-.85-1-.84-.37-.47h-.22-.31-.29v.06.16l.08.13.2.15.64.11.39.19.13.21h-.18l-.16.05-.18-.09-.19-.13-.33-.12.08.37v.39l-.06.35-.1.35-.42.6v.16.32.15l-.27.85-.06.32-.07.77-.08.1-.1-.09v-.75l-.11.34v.36l.16.81.1.64.2 2.29.27.74.18.67.27.64.52.43.69.18.7-.09.74-.33 1-.35.22-.11.78-.56.23-.26.17-.31.15-.43.13-.44.05-.36v-.9zm144.87-82-.09.36.25.17.41.35.3.2.07.12.21.46h-.27l-.22-.14-.15-.31-.3-.25-.05.22v.21l.07.18.29.31.12.19-.05.27-.12.25.25-.17.3-.33.31-.17.3.08.12.14.16.1h.16l.13-.09.06-.18v-.18l-.08-.15h-.14l-.18.06h-.14v-.27-.28l-.14-.31.16-.13.18-.11.15.08.29.21.17.47.33.41.07.32-.22.26.2.11h.23l-.24.55-.3.51-.2.28-.23.26-.32.09-.06.08v.48.33l-.07.27.11.13.13.11.17.32v.38.12h-.1l-.34.09.16.39.15.07h.18l.84.29.1-.13.07-.17-.24-.28-.07-.17v-.19l.09-.34.17-.34.13-.18h.07.18l.07.12v.15l-.05.07h-.09l-.14.07v.17l.2.48v.38l-.09.38-.07.11-.09.09-.07.12v.14l.65-.32.6-.48-.19-.4.11-.2h.2l.34.11h.26l.38-.89v-.36-.35l.13-.4.08-.38.1-.36.14-.34.15-.47.22-.43.74-.85.08-.13v-.12l-.3-.18.08-.13v-.12l-.14-.14-.17-.1v-.21l.13-.25h-.54l-.55-.08.24-.39.29-.38v-.17l-.09-.17-.16-.12h-.18l-.26.1-.24.13h-.16-.17l-.41-.1-.35-.24-.15-.34-.17-.33-.35-.16h-.37-.14l-.56.28-.08.15-.06.19-.22.33-.28.13h-.32l-.12.06-.08.13-.09.07-.47.13-.28.15v.11l.07.1v.18l-.43-.13h-.13zm31.18-31 .39.32.1.12.16.56-.08.4-.19.39-.08.43.05.2.08.17.15.15h.19l.37-.11.35-.23.14-.18.17-.38.32-.34.2-.17.47.2.28.06h.28l.24-.08.22-.17-.13-.15-.6-.47-.54-.51h-.15-.32-.15l-.34-.25-.27-.34v-.15-.15l.08-.22.11-.19.29-.26h.2.17.28l.24.21.48.53.12.06 1.27-.75 1.35-.11.72.39 1.27.78 1.21.51.62.35.38.08.13-.14.11-.17v-.24-.25l.11-.39.19-.34.46-.65.55-.55.62-.49.7-.34h.31l.65.15h.35l.53-.17h.35l.33-.11.29-.21.32-.17.35-.15h.18.3l.23-.09.26-.36.31-.19.32-.16h-.24-.24l-.27.22-.29.18h-.16l-.29-.07-.2-.59-.18-.43-.23-.31-.11-.38.07-.38.36-.77.33-.57.05-.19v-.17h-.08l-.73.63-.7.68-.22.15h-.25-.36l-.35-.07-1.16-.56-.29-.06h-.17-.38-.19l-.32-.34-.43-.21-.68-.44-.65-.51-.57-.51-.55-.55-.88-1.15-.74-.75-.47-.42-.11-.17-.13-.1-.17.1-.15.17-.16.07-.33.07-.05.09v.05l-.18.34v.38l.22.39.19.41.19.84-.06.87-.14.42-.17.4v.9l-.14.37-.46.63-.15.39v.48.49l-.11.37-.24.29-.16.06h-.32l-.56-.08h-.41-.11l-.6-.36-.29-.09-.29.12v.25l.05.25.27.43-.16.36-.31.32-.32.26-.33.23-.31.17h-.19l-.18.08-.1.25-.09.49v.22.4zm-23.84 31h.16l.6-.26.28-.06h.11v.34l.12.09h.2v.13.14l-.09.11v.18l-.15.23.2.17v.32h.33l.32.06-.2.47h.15l.34.08h.2l.33-.29.11-.48.11-.09.15-.06.14-.18.28-.56.14-.38 1.05-.51h.16l.51.08.32.15.5.55.18.13.07-.33.11-.32.2-.29.21-.28.52-.41.58-.31-.2-.09.07-.27-.13-.19-.06-.2v-.68h-.43l-.42-.14-.42-.21-.43-.13h-.39l-.37.14-.36.24h-.16-.16l.13.37-.05.22-.14.18-.33.15h-.37-.16l-.32.12h-.18l-.25-.24-.18-.3h-.17l-.29.25-.17.1-.1.29-.11.19-.05.2-.17.35-.32.19-.55.43-.23.14-.53.26zm7-7.61-.37.14-.71.11h-.37-.36l-.38-.06-.36.05-.18.09h-.18l-.33-.33h-.34l-.71.16-.53.22-.15.1-.24.38-.62.52-.47.46-.31.19-.28.23-.31.31-.32.28-.37.2-.39.18-.28.22-.25.28-.19.27-.29.07-.39-.05-.39.05-.15.15-.15.17v.12l.09 1 .23-.11h.23l.24.16.25.09.27-.06.26-.13h.2l.81-.11h.07l1 .64.17.06v-.36l.13-.29.1-.67.23-.33.33-.1.34.23.37.14h.36l.74-.26.38.1.2-.15.38-.14.34-.16h.08l.32-.12.3-.07h.6l.28-.11.32-.22.41-.36.12-.06h.35l.33-.11h.34.47l.14.06.44.29.34.11.47-.08h.48l.18.12v.24l-.08.16-.23.29-.14.12-.4.22-.1.09.11.36v.6l.14.37.25.31.27.29.14.31.18.26.74.22.67-.25.47-.73.59-1.08.19-.28.65-.27.75-.14.19-.09.08-.19v-.42l-.12-.1-.68-.43-.25-.31.13-.37.34-.67.17-.13.18-.1h.14l.14.08-.13.2v.22l.08.37v.25l.13.08h.09v-.32l.08-.07.13.07.08.17h.2l.38-.05h.16l.06.16v.08l-.64.28-.05.13.78-.18.68-.1.62.06h.35.35l.64.15.19-.46.29-.39.26-.23.23-.25.08-.2.12-.14.44-.13.3.1.25.24-.3.17v.34l-.13.6.11.17.12.11h.18l.26-.24.1-.13.22-.35.11-.41v-.48-.19l.09-.2.26-.23.35-.07h.34l.27.19.22.35h.11l.17-.24v-.11l-.13-.07-.11-.16v-.31l.35-.29v-.09-.1l.05-.21.15-.16h.23.23l.17.12.16.17v.15l-.18.19-.25.22-.12.26-.24.17.08.22-.07.55v.21l-.13.18.14.15h.23l.12-.16.3-.32.3-.19.47-.21.12-.09.12-.13.07-.16v-.44l.14-.39.42-.42.13-.1.71-.22-.18-.2-.17-.22-.42-.73-.16-.41-.05-.31.05-.26.09-.27v-.16-.2l.31-.79.19-.4.14-.15.17-.12.23-.27.1-.39.1-1.23-.1-.8-.13-.44-.1-.44v-.37l.1-.33.35-.58.09-.09.44-.15h.35l.3-.09.12-.33v-.47l.09-.46.1-.19.13-.17.07-.19v-.2l.1-.07h.15l.1-.06.1-.08.1-.18.18-.07v-.38l.2-.75.05-.64v-.21-.25-.19-.18l-.13-.41-.18-.39-.24-.8-.46-.65-.31-.21-.25-.28-.09-.41-.05-.41-.05-.93.06-.55.11-.56-.56.19-.12-.07-.38-.3-.17-.08-.34-.1-.14.09-.09.2-.18.62v.41l.81-.2h.14l.12-.1h.14l.13.14.06.37-.12.41-.12.23-.2.15-.55-.21h-.18l-.1.2-.13.15h-.16l-.14-.1-.07-.13-.12-.94v-.14l-.19-.06h-.2-.17l-.17-.08-.13.1-.09.15.09.56-.05.21-.14.36-.09.14-.15.12-.17.08h-.18-.17l-.19.22-.14.26v.23l.12.43.15.36v.19l-.11.44-.2.41-.1.13-.15.07h-.21v.13l.2.16h.25.13l.15.11.18.37v.45l-.06.57v.19l-.08.18-.1.17-.12.13-.08.16-.1.44-.23.79-.16.33-.27.32-.24.35-.18.34-.14.36-.09.46-.14.44-.11.15-.35.32-1.1.58-.2.24-.15.39-.18.36-.24.31-.25.27-.69.61-.31.16-.33.07-.6.3-1.21.4-.09.09-.43.54h-.13-.16l-.37-.08-.33-.21v-.21-.22l-.07-.23-.29-.32.07-.19.18-.1.19-.06.32-.23.57-.53v-.17l-.06-.13-.37.09-.72.29-.36.11-.38.64.09.86-.15.73-.43.58-.6.73-.3.26-.32.22-.26.37-.19.43.05.4.22.37-.24.29-.34.26-.33.2-.35.16h-.24-.83l-.18-.08-.11-.14.11-.24v-.21l-.13-.07h-.14l-.89.29-1.29.12zm-125.37 74-.08-1-.24-.28.07-.1.13-.27.16-.08.12-.2.07-.2v-.1l-.18-.25.19-.2v-.11-.34h-.1l-.31.18-.21.39v.39l-.15.58.06.12-.07.38-.16.17v.13l.06.34-.09.16v.23.56.07l.13.1v.23h-.23v.07l-.11.24v.3l-.07.2-.13.06-.1.17.08.12.05.36.28.54.1.08.07-.07.12-.31v-.39l-.09-.27v-.13l-.1-.07-.05-.16.12-.13v-.14l.2-.31v-.14-.64l.21-.05zm-1.46 5-.19.1-.23.22-.06.13.08.3v.32l.32.08.09-.11.22-.45-.07-.29zm90 59.31h.41.29.16l.25-.14.27-.1.45-.07.11-.05.08-.1-.11-.25.28-.19.06-.11.1-.08.15-.08-.08-.53-.19-.14h-.21l-.16.1-.11.18.49.11-.21.25-.3.15-.45.15-.14.08-.13.12-.09.13-.05.16-.1.11-.34.08h-.18l-.59-.39-.15-.07h-.16l-.16.08h-.15-.35-.2l-.22.06-.19.15h-.15-.16l-.22-.08-.29-.23-.48-.16-.33-.18-.37-.11h-.41-.13l-.3-.21-.19.06h-.19-.18-.22l-.37.09-.4.27-.41.18h-.14l-.13-.08v.16l-.05.15-.09.15v.15.23l.1.2.11.14.09.15.32-.15.33-.1.6.13.7-.05.7.14.61.24h.16.15l.16-.06h.16l.42.07.26-.31h.26.25l.12.11.09.13.26-.08h.3l.78-.36zm4.37-.93h.21l.25-.38.43-.08-.09-.1-.15-.08-.21-.07-.53.31h-.09l-.13-.08h-.17-.25v.1h.09.16l-.07.1-.39.26-.29.27h.07.24l.24.15h.07l.17-.13.19.1.08-.06v-.07-.06-.08zm-9.6-6.57v.46l.06.18.12-.51.06-1v-.2l-.17-.39-.1.31v.66.26zm-11.26-14.81-.12.14-.31.16-.18.14v.24l-.08.13-.12.11-.44.24-.1.09-.07.13h.23.22v.24l.07.17-.08.39-.34.27.17.05.15.09.33.06.12.28-.05.33-.06.3-.24.09-.15-.06h-.15l-.11.09v.15l.21-.07v.38l-.06.38-.07.21-.12.17-.19.06-.18-.13v.15.12l.26.31-.16.07-.11.1-.05.15-.28.35-.13.25-.05.28-.13.21-2.12.94-1.71.8-.12-.06-.09-.12-.06-1.23-.21-.63v-.36l-.24.32h-.15l-.16-.08-.12-.11v-.13l.13-.39-.16.21-.17.17h-.17l-.16-.09-.05-.12h-.08l-.38.35-.49.18h-.28l-.21-.11v-.36-.26l-.06-.15-.14-.06h-.12l-.35.14h-.13l-.07.07-.94-.94-.19.76-.65.41-.48.24-.47-.09-.48-.15-.48.18-.52.44-.15.07h-.15l-.11-.06v-.34-.33-.76-.15l-.15-.21-.2-.15-.11.11-.1.15h-.4l-.38-.12-.33.07-.65.3h-.35l-.19-.07-.11-.16.06-.14.15-.12-.27.09-.23.15-.1.1-.1-.05-.29-.34-.6.13h-.08l-.14.11h-.14l-.08-.13v-.71l-.3-1.37-.09-.7-.06-.17-.35-.25v-.36l.18-.3v-.35l-.05-.39-.11-.37-.14-.28-.19-.24-.27-.27-.32-.21-.69-.22h-.36l-.14-.09-.09-.12v-.23l.12-.15h.17v-.09l-.35-.18-.3-.25-.09-.15v-.16-.38l.08-.24v-.13l.09-.4.19-.12v-.08h-.08l-.12-.13-.1-.15-.23-.26-.39-.31-.07-.53-.05-.79v-.36l.12-.67.22-.21.18-.06.13-.09h-.11-.09-.17l.14-.6.06-.18.27-.33.33-.3.13-.34.19-.31.75-.32.2.42.08.09.44.29.36.14.4.05h.4.15l.16-.06.15.06.84.46.32.08h.34.14l.48.35h.14.24l-.3-.16-.2-.12-.09-.21.05-.23.2-.15.13-.17.05-.49.08-.25.16-.24v-.22l-.18-.18v-.3-.25l.11-.17.16.11.17.11h.16.12v-.13-.22-.45l.21-.32.33-.23.32-.11 1.18-.18 1.88-.47.55-.18.21-.1.17-.13.29-.41.55-.66.38-.54.8-.79.65-.73.08-.13.11-.4v-.19-.19l.09-.09h.12.38l.37-.05.37-.16.37-.19.31-.22.28-.25.31-.2.47-.23h.15v.15l-.06.19h.34l.72-.1.16-.11.28-.24.1-.13.08-.31-.34-.18-.14-.23v-.25l.42-.46.14-.11.06.16h.19.34l.25-.23.12-.34.43-.48.16-.36.08-.38 1.08-1.19.13-.18.64-1.2h.08l.18.12.05.38v.16l-.1.25-.06.26h.07l.31-.16.32-.41.18-.36.15-.16.31.09.07.06v.26.15l.12.32.26.2.36.12.33.18.11.12.07.14.08.23v.24l-.24.22.1.38v.21l-.09.19-.35.17 1-.17.24-.1.33-.24.17.21.17.36-.14.1-.41.13v.06l.14.19h.17l.34-.13.32-.2h.15.17l.31.13.17.11.15.13.1.28.36.1.74.39h.14.14.39.13l.1.14v.18.19.14l-.09.12-.26.18-.67.23-.73.18h-.36l-.52-.16h-.18l-.18.07-.23.49.42.48.72.5.1.13v.15l-.11.09-.15.05-.41.08-.41.06-.34.09-.33.11h-.34l-.47-.22h-.13l-.15.12-.14.31-.08.09-.21.08-.1.18.29.26v.18l.22.16.27.24v.08l.09.11.05.13-.19.14h-.26l-.19-.12-.17-.16-.05.2-.13.11h-.49-.36l-.35.05h.18l.16.06.54.5.12.18-.19.37.09.15.21.08.26.19h.18l.13.1v.18l.08.16-.21.07h.21l.18.08-.1.09-.08.1.09.05.25.1.11.09.05.23.25.38.45.5.1.18v.16l-.08.15-.25.16-.21.22v.08l-.27.11.12.07.11.1.19.31.46.49.23.19 1 .67.5.3.65.67.34.15.06.19-.28.29-.41.14-.67.08-.68-.1-.35-.08-.31-.17-.24-.33-.31-.18.12.2.08.21v.22l-.13.18-.21.13-.23.1-.1.07-.58 1.17-.09.32-.18 1.31v.38l.26.69v.36.16.13l-.12.08-.5.21-.36.18-.28.25-.23.31-.21.23-.27.11h-.19l-.16-.1-.11-.2-.07-.22v.16.16l.09.17v.18zm-3.19 21.38v-.13l-.42-.47-.31-.16-.33-.12-.45-.15h-.11l-.48.33h-.18-.32l-.64-.17h-.35-.09v.14.15l.07.14.21.25.13.1.35.05.34.1.33.21.32.23.15.17.11.21v.22l-.14.18.16.06h.15.08l.05-.07v-.12l.14-.28.12-.15.69-.31.3-.2zm62-22.43-.26-.31-.53-.45-.16-.05-.28.07-.26-.21h-.23l-.65-.12v.16l.14.2.15.09v-.05h.1l.37.29.3-.18.24.62v.27l.23.18h.27l.33.15h.16l.43-.13.21-.23-.28-.09zm-58.88 22.37-.05-.16-.09-.09-.13-.07-.74-.24-.3.11-.25.17-.48.43v.53.4l-.13.07h-.36-.13v.14.11l.46.14.65.12h.15l.27.07.63-.13-.08-.09-.14-.1.38-.63zm-1.5-15.5-.37.24-.17.36-.12.46v.27l.17.35-.05.57.1.15.64-.56v-.15l.09-.17v-.14l-.07-.55v-.12-.14l-.07-.16v-.44zm59.89-4.93h-.33l-1.19-.16v.08l.06.16 1.14.25.56.21.43.11.11.1.3-.06.41.05.49-.05.26-.1.56-.12-.23-.14-.3-.06h-1l-.57-.21zm-51.77 21.35h.11l.1.08h.11l.22-.06.07-.06.08-.13-.09-.12-.11-.09-.06-.11v-.32l-.17-.36-.19-.12h-.24-.16l-.14.08-.1.25-.07-.06-.06-.21-.18-.13h-.18-.19l-.17.06-.29.19h-.14l-.15-.12-.12-.15-.16-.36-.1-.08-.59-.1h-.16l-.35.15-.05.17.09.22.14.19.5.36h.12.13.12l.22.16.19.19-.09.18h-.31l-.41.23-.23-.07h-.26l-.29-.39-.12-.06-.09-.08-.06-.23-.17-.1h-.4-.24l-.4-.16h-.18l-.3.23-.34.18h-.2l-.16.07-.1.2v.2l.07.45-.11.25v.34l.06.16.25.12.27.09.31.07.3-.09.15-.11h.17.18.19l.36-.08.68-.26h.2.19l.64-.24h.18.18l.13-.1.44-.41.07.09v.33l.09.13h.16l.59-.13h.16l.25.1h.07v-.07l-.05-.06-.19-.05v-.11l.23-.07zm60.61-2.49.29-.57-.08-.32-.19-.23-.29-.3-.1-.07h-.69l-.75.17-.33.18-.32.21-.22.23-.53.88-.45 1-.1.38.11.07.56-.09h.25l.95.07.73-.4.23-.22.53-.43zm-.9 1.48.76.09h.15v-.15l-.31-.5h-.1l-.26.08-.17.21-.18.12v.07zm-96.73-17.23.12-.12.22-.14-1.37-.32-.48-.84-.14-1-.1-.2-.15-.18-.1-.21-.06-.23-.14-.16-.21-.11h-.29l-.29.08.11.38-.17.21-.1-.15-.08-.21-.17-.25-.38.14-.14.11-.12.14v.15l.07.13v.19l-.18.14-.38.17-.16.17v.21l.35.11.14.11h.15l.64-.14.14.07.32.09.24.15.07.38.16.33.14.11.1.12-.1.45.09.3.19.25.38.09.38.12.28.16.17.06.15.08.15.11.15.08h.19.17v-.21l-.12-.19v-.13l.2-.57zm62.95-6.07-.09.29.08.2h.1l.38-.11h.06l.08.15.28.15.25-.11.11-.11v-.15l-.08-.11-.1-.09h-.44l-.16-.24.23-.43-.35-.45h-.12l-.11.09-.11.21-.25-.22h-.14v.17l-.1.21v.12l.25.3zm-25.65 27.07.11.15.13.12.84.19h.16.16.4l.64.44.36.15.2.22.17.25.28.24.33.13.43.06.13.09.37-.17h.24l.18-.06.32-.3.08-.22-.14-.24-.26-.17-.2-.29-.24-.27-.15-.13-.19-.09h-.23-.23l-.1-.14v-.18l-.08-.11-.5-.27-.13-.13-.12-.16-.1-.07-.27.18-.17.06-.55-.08h-.58-.39l-.33.06-.47.17-.11.09-.11.15.06.16zm33.19-18.84.08.14.12.11.76.31.28.14.66.38.68.32.17-.86v-.11l-.22-.35h-.16l-.15-.06-.09-.24v-.25l-.17-.3-.66-.39h-.23-.61-.36l-.69-.34-.47-.18h-.18-.17-.18l-.17.09-.28.2-.31.14h-.18l-.13-.13-.05-.17h-.2l-.24.06h-.37-.67l-1.12.07-.26.21-.71.87.05.18.1.18v.17l-.08.29h.05l.15-.18.19-.32v-.11-.19l.08-.17.16-.08.14.05.16.09.14.11.43.53.14.07h.15.37l.12-.11.22-.29.16-.1.18-.09h.19.1v.1.1l.05.06.42.07.32.13h.37l.41.13.16-.05v-.22-.1h.1.25.66zm-6.19-5.16.45.08h.09l.19-.12v-.17l-.36-.22-.38-.28-.49-.23-.3-.09-.16.06-.41.31-.19.41v.16l.2.16.32.1.54-.12zm20.75 13.53v-.22-.15l-.12-.3.13-.2-.05-.2v-.22-.11l-.14-.32-.17-.06v-.13-.14l-.09-.16h-.14-.2l-.05.26-.1.1-.35.46-.28-.09-.13.08.06.11.36.27-.14.41v.12h-.23-.22v.13l.06.09.27.24.05.09.23.21.25.19.6.1.07-.09h.07l.09-.1.09-.28zm-9.26 2.97-.18-.08-.25.07-.09.09v.16l-.16.1-.11.19-.1.08-.19.25h-.16l-.11.1-.19.44v.17h-.16v.29l-.16.26.12.17v.23h.21.38.05.05v-.1l.08-.24.3-.28.07-.14.25-.15.13-.17.21-.56-.15-.53.28-.21zm7.43-2h-.14l-.14.9.09.19.33.23.38-.18.1-.1.17-.41.28-.27v-.24-.21l-.36-.17-.3-.21-.25-.27-.2-.16h-.17v.19.52l.22.1v.06zm-33.91-7.41v.1l.07.26.25.24h.2l.3-.37v-.21l-.1-.13h-.57zm-80.42-19.56-.08-.15-.72-.44-.15-.18-.09-.06-.31-.12-.31-.32-.28-.08-.1.18-.17.09.05.18.23.33h.22l.18.13h.25l.81.5.15.18.19.06h.19v-.17zm89.48 13.2 1-.17.14-.11-.94-.1-.92.07h-.6-.23l-.18.1.12.12v.17h.14l1.09-.1zm0 18.11.27-.08h.15l.19.09h.43l.48.1.14-.25.18-.19.35-.16.37-.05v-.06-.15h-.23l-.35-.27-.45.11-.31.21-.44.09h-.39l-.33-.1-.4.46-.11.19v.32h.08zm7.22-31.32-.34.52.12.65.11.14.48-.05.29-.14.22-.38.2-.75-.26-.37h-.1l-.29.08zm8.63 8.48.12.09h.12l.25-.23-.11-.14v-.11l-.12-.17-.76-.33h-.12l-.52-.13-.28.08h-.42l-.11.07h-.15l-.2.12-.21-.08-.21.09v.16l-.15.16.31.16h.47l.17.29h.07l.1-.1.25-.1v.29l.15.16.45-.09v-.19l-.17-.14h-.13-.12l-.21-.34-.17-.11v-.17h.18l.38.44.27.13.15.21.18.07.28-.1zm-1.43 2.29.08.2.13.25.19.19.37.08.11-.09.13-.38.09-.66-.13-.16h-.28l-.13-.08-.68.21v.07l.11.2zm-11.07 6.36-.11-.15-.5-.24h-.16-.77l-.75.12-.26.13-.4-.12-.12.06-.07.13v.56l.07.2.28.3.09.17.11.08.6.32.41.18.42.16h.17l.16-.07h.23l.21-.06.46-.42.21-.07h.23v-.49-.24l-.19-.16-.12-.08-.1-.11zm-66 7.1.14-.06.52.37.1.12.07.15.13.12.17.05h.22l.16-.3v-.13l.22-2v-.65-.41-.32l-.17-1.18v-.12l.26-.72v-.15l-.11-.16-.13-.15v-.35l.12-.49.05-.13.4-.45.08-.13v-.17-.16l-.44-.66-1-1.19-.26-.19-.3-.15-.33-.07h-.79-.17l-.16.07-.12.08-.43.45-.11.09h-.05l-.06-.16.05-.34.06-.13.36-.31.12-.15.06-.19v-.24l-.16-.15-.35-.16-.33-.2-.16-.31v-.36l-.12-.3-.1-.72-.06-.33-.14-.53-.06-.11h-.31-.18l-.42-.1-.36-.13-.67-.28-.43-.27-.14-.13-.28-.54v-.12l.24-.21v-.14l-.28-.17.12-.27-.1-.1.06-.14.48-.37.36-.15.24-.2-.13-.38-.21-.35-.29-.3-.3-.28-.2-.08h-.23l-.19.06-.5.29-.33.2-.32.16-.35.1-.7.09.72-.25.67-.35.18-.23-.11-.26-.25-.26-.3-.15-.86-.11-.29-.09-.24-.19-.46-.44v-.09l-.08-.37-.12-.35-.18-.3-.24-.25-.71-.54-.42-.03h-.33l-.3-.07-.22-.19-.14-.39-.18-.38-.23-.27-.54-.47-.33-.11h-.18l-.15.13v.14.16l.18.27v.31l-.21-.12-.4-.4h-.25l-.24-.15-.2-.21-.17-.22-.15-.24-.14-.17-.54-.55-.33-.44-.15-.3-.19-.28-.53-.59-.64-.39-1.12-.81-.86-.39-.28-.15-.21-.22-.06-.16-.09-.13-.39-.21-.67-.28-.2-.31.09-.39-.07-.27-.69-.67-.06-.08-.11-.35-.17-.31-.61-.48-.36-.4-.13-.1-.14-.07h-.15l-.79.08-.32-.06-.35-.12h-.38l-.69.16h-.37l-.74-.12-.35-.08-.33-.17-.56-.49-.31-.2-.33-.09-.34-.05h-.37l-.35.11-.16.08v.15l.06.16v.16l-.08.19v.19l.53.93.15.34.19.31.25.3 1.25 1.2.73.58.24.26.41.51.24.15.84.18.28.16.23.24.66.9.19.26.19.34.24.31.61.39.07.18.08.33.06.55.12.41.28.22.38.06.26.08.25.13 1.45.88.09.11.33.49.28.63.42 1.39.38 1 .16.69.14.32.23.25.3.18.8.32.22.17.15.24.43.85.21.26.26.22.22.24.61.74.05.08.26.83.28.59 1.12 1.92v.63l.13.31.16.29.53.74.27.23.3.19.18.24.15.27.5.81.21.23.51.41.94.66.18.23.56.89.5.55 1.16 1 .67.38.3.24.28.27.23.16 1.1.65.19.14.71.93.25.24.28.22.39.46.34.34.36.3h.09.16v-.23l-.18-.53v-.21l.06-.16.88.49.28.14.18.05.14-.07zm23.77 8.25h.36l1.34.59.75.27.66.18h.36l.19.1.13.17.23.11.38.09v-.13-.13l-.34-.24-.1-.14-.19-.47v-.21-.22l.18-.78v-.33l-.1-.31-.08-.07-1-.42h-.1l-.49.14-.39.08-.76.06h-.75l-.71-.18-.67-.32v-.37-.38l-.13-.12-.31-.13-.07-.13-.12-.39-.14-.38-.32-.07h-.37-.53-.15l-.3-.26-.76-.1-.15-.1-.14-.13-.31-.15h-.17l-.3.13h-.13-.49-.08l-.47-.62-.08-.09h-.42l-.15.06-.15.09-.11.14-.08.16-.12.36-.15.35-.19.28-.29.15h-.16-.16l-.18-.08-.19-.05h-.4-.39-.35l-.71-.18-.26-.1-.3.15h-.33l-.84-.15h-.36-.36l-.31-.06-.22-.18-.2-.65-.07-.13-.29-.27-.27-.29-.11-.07h-.12l-.18.07h-.18l-.39-.06-.38-.13h-.32-.33l-.32-.1-.27-.18-.3-.34-.13-.09-.51-.07-.36-.16-.1.32-.24.19-.17.06h-.16l-.45-.18h-.32-.34l-.33-.11-.56-.05-.27-.16-.14.06-.28.25-.21.3-.24 1-.09.07-.16.06-.15-.09-.15.45-.08.16-.29.34h-.08l-.16-.06-.06-.05-.05-.26h-.1l-.19.17-.09.14v.18h.15.18.18l.17.06h.37.38.33.33l.77.21 1 .38-.09.18-.13.19-.09.19v.22l.13.17.24.08.3.06 1.33.1.65.07.79.22.16.07.29.21.33.16.35.11.91.18h.35.36l.2-.18.16-.09.51-.12h.35l.4.11h.62.27l1.73.38.57.18 1.72.79.68.16.68.11.86.07.52.13 1.83.06.72.09.71.14h.28.28l.39-.11.36-.15zm-16.6-15.36.5-.14v-.19h.07l.25.13.08.11v.17h.23l.09-.09.25-.16.08-.12v-.32l.26-.5-.23-.41-.43-.3-.6-.11-.12-.09-.52.11-.07.5-.13.2v.2l-.13.17.06.06v.11.24l.12.2-.06.26zm-29.93-13.11-.27-.12-.66-.84-.38-.23v.14l-.25.17h-.61l.66.71.22.4.11.33h.17l.43.33.24.58v.13l.41.1.17-.19.08-.77.09-.27-.09-.14zm1.91 3.5-.13-.07h-.16l.32.68-.05.25-.17.21v.27l-.1.19.28.14.18-.14.18-.46.08-.36-.19-.27zm2.41 4.65-.25-.36v-.07-.1l-.08-.13-.12-.3-.33-.56-.07-.31-.19-.11-.58.16-.23.69.08.19.57.83v.22l.14.16.6.36h.27l.33-.12v-.34zm3 3.37-.57-.51h-.08l-.05.2.09.12v.36l.07.15h.35l.22-.24zm-1.17-1.19-.24-.32-.15-.34-.2-.15h-.15v.08.19l-.06.14.21.29.24.07.49.27v-.08zm77.31-1.23v-.2l-.15-.07h-.18v-.2l-.13-.06h-.06l-.09.12h-.1l-.28-.1-.93-.21h-.55l-.2.05-.11.08-.15.52.26.44h.32l.36-.09.59-.25.52.14.39-.16zm-2.83 19.75.19.09 2-.27.11-.08v-.37l-.23-.08h-.38-.52-.23l-.23.11-.08-.19h-.2l-.24.14-.11.21.1.13-.21.28zm-72.51-16v-.23-.12l-.64-.66h-.14l-.06.11.08.5.17.21.22.17.05.14v.21l.36.3-.12-.44v-.13zm69.71-4.91.19-.15.1-.33-.06-.16-.11-.08-.17-.06-.29.05-.3.4-.12-.3.11-.16-.07-.19h-.16l-.57.09h-.19l-.23.3-.07.45.15.35.09.12.29-.23.36-.51.14-.11.1.57-.18.19v.06l.13.12.14-.06.06-.06.11-.42h.16l.12.19zm-5 11.17v.16l.16.29.36.34.19-.08.06-.65-.06-.19h-.13l-.1-.2h-.16l-.14.07v.15zm1.4.36.07.18h.2l.06-.15.25.14h.14.13l.17-.15.08-.21-.09-.39.44-.62-.06-.78-.12-.17-.13.05-.41.22-.47.18-.1.24.17.46v.21l-.2.21zm-8.4-13.31-.45 1-.16.49v.27.26l-.05.23.12.5-.08.31-.24.31-.21.33-.1.35v.38l-.13.3-.41.34-.15.11-.17.05-.13.1-.08.12v.13l.14.26.09.23-.11.34v.35l.06.37.11.36.16.25.22.17.75-.19.37-.05.17.05.14.11.09.13v.16.18.19.12l.36.69v.11 1.17l-.05.3-.15.33-.09.33v.41l-.26.61-.13.37-.09.34v.33l.26.3.29.27.48.25h.15l.28-.11.27-.2.13-.05h.38l.38-.05.17-.05h.16l.36.15v-.31l-.08-.29-.33-.75v-.16l.09-.39.29-.71v-.33l-.1-.61-.07-1 .06-.7.16-.32v-.12l-.13-1.08-.1-.31-.18-.28-.14-.3v-.31l.24-.25.62-.41.33-.19.34-.08h.35l.33.07.19.25v.39.39.47l-.05.12-.4.6-.05.17v.18l.07.1 1.21 1.1.31.2.37.09.25.23v.19l-.09.17-.08.1-.05.12-.16.9.08.3.23.24.17.07.31.1.51.09h.37l.11-.13-.08-.35v-.17l.18-.24.28-.13.8-.22h.44.17.15v-.1-.11l.29.15h.17l.07-.13v-.36-.19-.18l-.09-.13h-.15l-.06.08-.08.06h-.19l-.12-.19-.13-.11v-.19l-.09-.12-.15-.09-.29-.34-.15-.09h-.17l-.12-.1-.11-.12v-.13-.15l.15-.44v-.32l.24-.23v-.17l-.23-.28v-.14-.16-.13l-.64-.48-.2-.28-.13-.34-.38-.64-.23-.27-.14-.1-.31-.1-.15-.07-.22-.32-.28-.23-.18-.07v-.2l.12-.14.36.17h.18.24l.2-.1.19-.29.23-.22.91-.3.28-.12.26-.17.52-.45.45-.52.21-.33.25-.3.14-.11.15-.09.45-.08.31.1.22.29.22.07.24-.07.06-.12.11-.56-.05-.21-.11-.18-.3-.17-.33-.06-.46.09-.45.12-.13.05v.09l.14.11v.09l-.7.05h-.39-.76l-.32.11-.11.14-.13.11-.38.17h-.35l-.35-.06-.17-.12-.15-.14h-.17l-.17.08-.27.25-.47.54-.19.28-.2.38-.35.21-.35-.09h-.36-.21-.19l-.19-.34-.26-.66-.28-.24-.47-.18-.09-.09-.44-.66-.1-.29-.09-.37-.06-.37v-.34l.07-.32.13-.39.15-.38.19-.31.35-.42.13-.12.33-.19h.36.37l.64.2h.31l1.25-.16h.27.27l.36.1.36.05.67-.1h.66 1.91.27.26l.29.21.26.27h.14l.65.06h.34.35l1-.21h.35l.19-.05.32-.14.13-.08.27-.26.22-.29.16-.27.17-.25.58-.51.24-.26.18-.29.28-.6.07-.09.24-.21v-.07l-.21-.43-.16-.13h-.37l-.13.08-.26.29-.22.33-.13.08-.31.08-.13.07-.08.26-.12.22-.38.14-.41.49-1 .52h-.26l-1.72-.27h-.64-.17l-.16.05-.2.22h-.17-.14l-.4-.23-.33-.13-.34-.11h-1l-.73-.17-.83.06h-.13l-.11-.08-.13-.15-.09-.18-.11-.09h-.15-.22-.23l-.38-.2h-.17-.18l-.17.07-.13.11-.19.31-.15.34-.13.15-.16.13-.1.12-.07.15-.26.11-.31-.1-.15-.11-.13-.29h-.09-.07l-.12.33-.23.26-.17.1-.13.14-.06.38-.12.14-.25.23-.32.62v.16l.16.44-.08-.18-.16.1h-.15v.12l.15 1.19.17.61.05.26v.27l-.18-.3-.23-.25-.17.14zm24-6.16.28.65.27.23v.15l-.1.16-.07.19v.21l.06.37.18.32.16.14.12.14-.07.42v.35.34.25l.05.24.15.17.34.24.11.14.37.7.11.15.56.24.14.25.45.07-.28-.23-.25-.26-.49-.74-.34-.71-.27-.9.07-.3v-.17l-.09-.28v-.22l.07-.2.17-.1h.38l.34.14h.34.35l.28.16 1.09.37-.11-.16-.14-.11h-.22l-.16-.12v-.23l-.09-.21-.13-.13-.63-.25-.41-.29v-.21l.12-.22.14-.09.52-.22.46-.27.11-.11v-.79l-.09-.29v-.19-.14h-.45l-.35.13-.61.35-.2.25v.24.24l-.13.1h-.19l-.26.22-.12.33v.17l-.12.13h-.22l-.23-.06-.16-.12-.13-.15v-.01l.06-.11.71-.45.31-.38.07-.13v-.38-.38-.35l-.2-.27-.18-.13v-.22l.05-.12.38-.53v-.11-.12l-.22.07-.2.11-.46.5-.3.37-.19.43v.2l-.07.19v.31l-.35.65zm9.09 8.87-.18-.17v-.18h-.11l-.36.12h-.28l-.34.09-.78.32.05.09.41.27.62.13.12.11.35-.05.11-.12.17-.08h.1l.14-.06-.08-.09v-.12h.08zm-22.61 10.86.18.08.23-.08.2-.18v-.18l-.16-.15-.3-.21h-.08l-.13.07v-.14-.53l.09-.16v-.24l.11-.25h.09.06v-.05l.06.05.17.25v-.17l-.07-.65-.34-.36v-.14h-.11l-.28.15-.28.53v.64l-.09.34v.17.16l-.08.38v.1l-.11.15-.18.21-.09.15v.14l-.17.19v.17l.18.35h.12l.15-.09.24.11.11-.1.2-.36v-.13l.08-.12zm-30.1 5.46h.26.07.1.82l.23-.08.33-.25h.52.06l.12-.17.6-.19v-.08l-.3-.27h-2.75l-.6.06-.31.31-.13.22.12.2zm33 3.75h.27l.15.33.24-.06.12-.1.12-.33.19-.19v-.3-.06h-.07-.08l-.39.49-.08-.12h-.17l-.13.11zm-45.07-85.35-.49.41-.34.2-.29.25-.09.11v.12l-.05 1.11v.13l.12.37.07.67.67.37.33.15.46.13.48.08.18.06.36.19h.22l.27-.07h.07l.17-.28.17-.15.46-.08h.16l.14-.1v-.09l-.05-.09.32-.2.29-.27h.12.13l.2-.08.16-.16.08-.2.12-.49.15-.4v-.12-.11l.1-.11.11-.26.55-.84.28-.09.3-.21-.05-.35-.08-.37-.1-.2-.15-.14-.24-.07-.19-.14-.2-.24h-.08l-.17.13v.08.3l-.51-.25h-.08v.18l-.15-.2h-.39-.13l-.27.19-.53.09-.78-.07h-.2l-.21.21h-.29-.32l-.15.06-.14.13-.12.23h.12.18l-.3.28zm-55.68-9.77-.05-.23v-.09l-.23-.16-.29.09.06.28.12.24v.17l.26.24.08.31v.37l-.5.83h.27l.53-.11.16-.22.11-.73v-.3l-.4-.49zm68 149.59v-.23l-.1-.21-.35-.95h-.1l-.12.12.17.69.58 1 .08-.14-.11-.25zm93.95 46.7-.09-.52-.27-.2h-.16v.26l-.18.15-.05.14v.3l-.08.29.15.28v.29l.07.2h.09l.32-.13.24-.2.08-.25-.1-.28zm12.8 8.37v-.14l-.08-.12v-.13-.28l-.08-.4v-.62-.33-.32l.07-.42v-.42-.21-.21-.61l-.23-.33-.56-.27h-.19l-.29.33h-.17l-.59-.1-.13.11-.24.32-.14.14-.2-.06-.21-.11h-.15l-.15.08h-.35-.35l-.21.09-.19.15-.06.18v.22l-.19-.2-.19-.13-.22.14-.23.09-.78.08-.62-.16-.88-.34-.14-.1-.13-.13-.14-.08-.33-.12-.13-.15h-.15-.17l-.24-.11-.2-.21h-.14l-.2.09h-.35l-.68-.23-.3-.18v.4l-.19.71.05.35.1.41.2.54v.18.1l.41.81.43.67.55.7.06.31-.07.33h.18l.11-.16v.16l.06.13.47.46v.13l-.18.38-.1-.32-.19-.24-.53-.4.12.82.09.33.67 1.39.09.09.15.07.13.11.22.28.36.62.22.18.31-.06.45.13h.16l.09.05.06.15h-.36l-.35.08v.12l.09.14.09.37.44-.12h.68.41l.46.35.41.06h.12l.25-.41.15-.49.09-.19.13-.15-.27-.21v-.17-.12l.54.36.22-.14v-.33-.21l.06-.14.14-.07.05-.18v-.14l-.14-.31v-.18l.33.37.13.52.26-.14v-.08-.35l.11-.12.37.09.32.21v.09.1l-.08.09-.26-.09-.12.15.15.37.27.36.16-.09.32-.05.11-.09-.07-.72-.13-.53v-.63-.31l.14-.24.11-.26v-.33l.05-.31.14-.33.18-.24.09-.05-.05-.07.08-.21.14-.15.09.18-.12.08-.06.08.22.14.06.12v.13.17.13h.13v-.17-.21zm-.13-7.65-.09-.07-.28-.1-.53-.64-.21-.12-.28.38-.22.14.14.14h.19l.09.24-.05.15.41.56.07.15.08.1.09.07.32-.1.27-.22h.05v-.11l-.22-.16.12-.12zm-31.44-14.91-.28.12-.73-.08v-.06l.11-.22-.15-.13-.17-.05h-.59l-.74.24-1.37.29-.18.21-.12.28.15.16.5.33.48.05.34-.08h.37l.19-.19.52.13.2.19.43-.17.1-.3.15-.14.5-.11.53.14h.17l.17-.17-.23-.33zm-21.16-76.4 1-.66.35-.39h.23v-.24l.21-.22-.05-.07-.14-.1-.11-.21-.36-.2-.16-.18-.15.16-.23.07-.36.21h-.11l-.22-.09-.49.23h-.4l-.18-.21-.13-.08-.28-.3h-.07-.05v.07l.11.27.05.43.27.53.4.38zm18.14 7.11.05-.19h-.05l-.14.06-.3-.12-.12-.13v-.13l.13-.39.08-.12h.09l.19-.21v-.12l-.06-.07h-.08l-.12.28h-.14l-.13-.13-.06-.24v-.14h-.13l-.22.14-.15.22-.33.22v.45l.05.35-.11.15-.17.11.08.06h.3l.57.14h.34l.4.06zm-20.62-7.42.56-.16.56.19.32-.05v-.14l-.07-.11-.12-.1-.25-.07-.08-.27-.14-.25v-.28l-.11-.25h-.14l-.13.07-.3.36.11.19v.36l-.18.12h-.2l-.09.33.1.11zm71.08 51.63-.18-.32-.19-.31-.08-.49-.13-.42-.57-1.19-.24-.68.14-.69-.24-2.2.24-1.09-.11-.14-.3-.17-.13-.17-.2-.41v-.83l-.37-.51-.41-.23-.28-.42-.18-.34v-.2l-.11-.32-.32-.22-.21-.11-.46-.33-.23-.33-.46-.94-.22-.25-.42-.27h-.35l-.23-.07-.8-.6-.21-.12-.2-.28-.3-.3-.18-.22-.26-.24-.19-.89v-.87l-.05-1-.28-.5-.15-.16-.17.05v.32l.05.23h-.12l-.41-.28-.52-.3-.28-.35-.2-.32h-.17l-.12.05-.12.39.2.68-.1.09-.16-.16-.3-.35-.15.11-.21.05-.18-.36-.15-.22-.21-.74-.2-.82v-.59l-.37-.32-.15-.56-.12-.15-.11-.4-.44-.52-.45-.36-.37-.34-.32-.49.14-.36.23.08h.24l-.2-.36-.18-.24-.48-.45-.23-.11-.48-.07-.54-.41-.33-.18h-.23l-.27-.07-.19-.23-.34-.08-.47-.46-.23-.46-.12-.17-.16-.13-.23.07h-.19l-.43-.07-.14-.19-.27-.24-.53-.06-.41-.15-.32-.15-.32-.19-.3-.32-.26-.42.05-.55.06-.35-.33-.14-.58-.73v-.31l.16-.61.15-1.07-.23-.79-.45-1v-.49h-.22l-.25-.09-.36-.48-.26-.31-.18-.29-.2-.39v-.31l.05-.21v-.56l-.25-.54-.08-.56-.24-.69.07-.46v-.38l-.08-.33.08-.21v-.27l-.33-.26-.35-.2-.45-.36-.81-.56-.19-.43-.34-.38-.46.15-.34.07-.31.28-.44.22-.42-.19-.2-.17-.15-.56-.19-.62-.23-.33-.12-.37.11-.92-.17-.42-.05-.65-.17-.73-.18-.36v-.3l-.34-.43-.1-.31-.2-.11-.24-.18v-.23-.18l.15-.28.08-.37-.34-.1h-.24l-.17-.12-.18-.18-.07-.58v-.61l-.05-.38-.1-.28-.07-.31-.17-.31-.52-.42v-.17l.12-.21-.18-.13h-.27l-.15.29-.25.25-.48.19-.09 1-.29 1.09-.27.81.05.24v.24l-.14-.11-.13-.13-.2.32-.35.83v.43l.2.11.15.12h.17l.08.11v.21l.11.18v.19l-.13-.07h-.29l-.14.17-.37.33.1 1-.17.51-.17.39-.19.75v.4l.16.28.18.41-.1.57-.11.41.29 1.12.07.62-.14.43-.39 1.27-.18.92.06.51-.17.47-.2.75-.21.56-.77 1.15-.15.55-.26.69-.56.4-.41.25-.92.25h-.52l-.27-.15-.16-.13-.62-.22-.76-.5-.58-.16-.29-.5v-.21l-.11-.27-.3-.35-.58-.12-.58-.21h-.36l-.79-.22-.53-.32-.21-.19-.27-.24-.63-.76-.54-.2-.69-.31-.39-.26-.24-.13-.27-.19h-.24-.42l-.26-.19v-.14-.11-.21h-.09-.07l-.07.06h-.11l-.37-.16-.52-.26-.09-.23-.17-.29-.71-.41-.42-.34-.91-.49-.24-.24-.07-.21-.07-.3.2-.31.2-.22.63-.92.18-.16.24-.25.21-.67.11-.38-.18-.58v-1l.72-.38h.21l.18-.08.22.12.14.18h.15l.4-.67-.06-.29-.17-.24.06-.15 1.24-1.33-.15-.32-.18-.07h-.36l-.33-.29-.21-.53h-.29l-.53.55-.06.12.13.08.11.33-.21.39h-.2-.34l-.15-.28-.07-.43-.22-.12-.24.08-.2.15h-.15l-.11-.09v-.18l.31-.3.26-.19v-.07l-.18-.06v-.13l.24-.25h-.12l-.29.26-.31.15-.42.32-.59.21-.41.28-.57-.08-.53-.28-.12-.15-.26-.21-.58.23h-.37l-.2-.09h-.34l-.3-.21-.71-.33-.76-.06h-.37l-.27-.17-.26-.09-.52-.07-.22-.26-.27-.52-.19-.13-.32-.05-.33.23-.2.12-.38-.43-.67-.43-.22-.06-.11.1-.09.2h-.13l-.15-.09-.26-.26h-.17l-.46.28v.1l.37.14.38.38.19.08.44-.1.59.07.61.48-.09.24-.05.33v.37.24l.25.27h-.11l-.28-.06-.22.08-.21.12-.09.37-.11-.24-.36-.17-.21.13-.36.16-.33-.06-.21-.09-.49.15h-.87l-.29-.2-.09-.35-.06-.09-.08.16-.14.18h-.53l-.08.07v.17.22h-.2l-.25.06v.27.21l-.09.1-.28-.19-.12-.21-.19-.06-.15.07v.19.47l-.14.06h-.35l-.17.09-.25.6-.45.22-.07.32v.26l.38.48-.19.25-.19.2-.19.08-.41.08-.3.22-.13.23v.22l-.08.28-.13.34v.18l-.27.18-.49.54-.24.55.31.3.38.21h.27l-.29.22.18.23.27.21h.17l.12.09-.26.05h-.38l-.08.23.05.27.07.23-.05.16-.14-.11-.06-.18-.33-.35-.24-.1-.34-.09-.1.11v.54l-.07.24-.12-.14v-.39l-.33-.32h-.17l-1.11-.28h-.18l-.3.05-.2.12v.13l-.14.1-.22.11-.2.18-.13.14v.18l.16.35.1.1v.16l-.16-.17-.14-.06-.14.27-.12.05v-.74l.13-.5.11-.3.12-.24-.06-.12-.89-.7-.37-.57-.28-.32-.43-.31-.22-.19-.5-.3-.64-.12-.28-.28-.31-.1-.39.13v.26l.05.25-.31.42-.33.22-.27-.25-.24-.19-.24.13-.07.23-.12.09-.1-.16-.13-.34-.2-.14-.2.06.06.27.12.15v.22l-.15.1v.2l-.09.27v.38l-.22.08-.17.3-.12-.06v-.2l-.06-.2-.24-.07-.09.18-.06.07h-.08l.05-.15v-.29l.08-.29-.24-.11-.09.07v.25l-.05.38-.23.06-.21.16h-.3l-.16.08v.2l-.27.2v.24l.18.25v.22l.42.22v.22l-.06.1h-.16l-.35-.19h-.35l-.11-.09v.06.15l-.14.11h-.19l-.23.15.16.25v.1l.08.12h.35.15v.21.21l-.14.08-.14-.2-.67-.36h-.17v.12.15l-.14.18-.25.24-.17-.07-.2.06-.13.41v.41l.23.28.15.38.31-.46.12-.06v.2l-.12.21-.07.26v.29h-.21-.23l-.05.09-.09.21.06.3.15.11h.35.3l.26.11.05.09-.24-.05h-.5-.23-.46l-.35-.17-.17-.17-.26-.05-.25.07-.14.24-.17.06-.39-.59h-.25l-.12.14.12.37-.07.22-.13.17h-.17l-.11.07.09.16.27.39.22.17.19.24.1.21h.24l.06.17-.14.24v.17h-.09l-.14-.08-.27-.24h-.14l-.07.06v.17l.07.42-.14.61v.18.15l-.11-.11-.14-.24-.29-.36-.36-.8-.37-.53-.21-.46-.31-.86h-.17l-.21.37-.23.49-.15.24-.37.24-.23.24-.28.09-.3.27-.22.24-.3.55v.36.37l.13.54.14.77.21.08.17.13-.05.23-.25.15-.78.73-.52.26-.15.19-.19.38-.28.49-.12.31-.29.6-.47.66-.48.5-.55.39-.37.19-1.35.56-.72.21-1.29.15-.56.25-.69-.08-.77-.05-1.07.84-.89.2-.78.15-.34.14-.77.48-.45.22-.85.25h-.34l-.46-.22-.44.05h-.48-.4l-.3.19-1.81 1-.35.28-.37.39-.53.37-.43.42-.89.44-.92.33-.45.28-.32.37-.57 1-.12.25-.22.27-.3.1-.19.08.06-.5-.21-.45.15-.86-.06-.26-.3.17-.2.18-.49 1.25-.34 1 .25.56.09.32v.35l-.1.5v.32.44l-.62 1-.19.43-.21.84v.39.58l.26.51.2.32.31.91.37.61.61 1.21.67 1v.38l-.08.51v.53l-.12.15-.26.18-.3-.23-.15-.2-.19-.75h-.08l-.12.33-.14.14-.13-.1-.1-.12v-.13-.15l.05-.56-.28-.32-.25-.35-.27-.08-.16.15v.22l.36.59.23.65.36.4.21.11.23.25v.54l-.17.2-.14.11-.46-.12-.11-.4-.36-.77-.12-.3-.09-.08v.15.26l-.06.12h-.07l-.15-.14-.13-.08h-.07l.14.19.31.57 1.14 1.39 1 1.63.22.64.1 1.41.1.34.57.7.56.81.16.4v.35l.11.33.7.89.31.95v.35l-.09.6.09 1.06.07.58.26 1.14.3.82.35.51.49 1.13.74 1.31.12.65v1.72l-.05.56-.17.09-.11.24.16 1.13v.64l-.24.61-.27.54-.47.37h-.54l-.25-.22-.32-.22-.05 1v.84l.1.32v.38l.36.29.2-.11h.25l.87.41.49.35.79.91.7.25.91.41 1.06.14h.84l1.33.22.28-.08.57-.07.44-.14.39-.09 1.16-.85 1.14-.88.56-.07h.51l.61-.3.56-.91.29-.2.38-.23 1.07-.13.64.09.34-.15.86-.16 1.79-.15 1 .12h.66l.35.06.27.4 1.9-.34h.54l.34.06.42.3.48-.29h.43l.44-.27.66-.81.3-.51.48-1.07.36-.39.39-.19.46-.06.71-.19 1.54-.91.59-.19.32-.17 1.06-.7.67-.14 1.94.18h.93l.71-.11 1.09-.38.77-.5 1.45-.6 1.21-.62h.17l.57-.1 1.15-.11 1.7-.17 2 .09.5-.13.25-.11.35-.12.43.08.32.09 1 .5 1.49 1h.33l1-.24h.33l1.38.76h1l.34.08.37.2.44.48.92.46v.37l-.06.24h-.21l-.18.06.22.77.39.63.93.08.34.22.22.25.16.39.13.62.47.51.43.44.1.18.21.62.08.18.16.61.25.7-.07.07h-.14l-.26-.18-.23-.2h-.13l-.14.13v.17l.21-.05h.12l.28.21.27.25.21.15.5.62.2-.14.24-.12.39.33.15.07.09-.13-.15-.6-.14-.15v-.21l.18-.16.09-.18.43-.46.94-1.35.29-.16.33-.3.45-.22.46-.27.3-.11h.29l.32-.25.36-.68.26-.79.29-.36.44-.37.33-.52v-.41-.42l.24.32.15.33.24 1.09-.2.24-.22.12v.38l.14.5.06.4-.46.42-.4.53-.47 1v.31l-.08.43v.38l.08.37-.12.57-.19.51h-.27-.17l-.38.05h-.34l-.4 1.11.25.05.19-.06h.35l.39-.19.57-.17.32.06h.38l.55-1.42.14-.92.28-.42.09-.29.15-.27.29.47.24.45.52.74.16.37.06.89-.33 1-.21.3-.24.25-.21.44.63.11h.4l.63-.32h.12.32l.12-.17.31-.16.23-.18.3-.15.27.1.06.08.07.1-.1.2v.43l-.17-.05-.16-.25-.2.06-.14.2-.34.04.05.12.16.25.63.47.67.64.25.29.55.95.39 1v.3l-.19.53-.13.55v.28l.12.37.28.37 1 1 .54.89.72.46 1 .15h.13l.62.33.64.68.2.05h.31l.4-.41h.6l.8.4.48-.09.33.05.48.23.69.45.74.23.43.34.34.05.61.23.45-.19.38-.24.87-.84.69-.4.36-.15.3-.07.36-.26-.23-.19h-.21l-.37-.1.21-.12.22-.09 1.13-.51.28.18.2.21.21.28-.16.4-.14.19-.33.3h-.4-.19l.4.34.34.23.7-.41.17-.33.14-.19h.22l.33.07.13.23.07.29-.24.08-.11.22-.09.2.42.26.22.17h.26.3l.22.39.21.44.26-.12.15-.12.27.12.29.34.24.4v.17l.18.07.18-.11.08-.17v-.31-.48l-.12-.08-.28.27-.15-.19-.21-.21v-.19l.23-.1h.19.24l1.28-.17 1.63-1.56.72-.57.74-.43.77-.27.4-.09 2.07-.15h1.07l.55-.11.26-.14.44-.4.3-.24.38-.07v-.1l.06-.19v-.32l.07-.33-.11-.62v-.82l.08-.42.23-.6.1-.61.1-.88.09-.51.11-.47.29-.52.25-.34.59-1.27.13-.08.08-.15.21-.09-.08-.14v-.12l.18-.12h.06.09v-.07l-.08-.34.12-.49.15-.86.17-.38.1-.3.39-.46.43-.45h-.12-.2l.13-.1h.1l.13.08.11-.2v-.31l.1-.46-.09-.4.19-.13.23-.08.1-.42.06-.16.14-.16.23-.34.19-.34.44-.67.42-.27.64-.21.07-.13-.16-.07v-.07h.24l.09-.24.26-.17.42-.4.14-.36.09-.29v-.66l.69-.87.47-1.18.12-.75.12-.41.08-.59-.07-.62v-.52l.48-1.33.1-.54.15-.35.23-1.31v-.68l.55-.88.43-.64v-.6l-.15-.45zm-176.85-135.63-.14.15h-.3l-.41.07-.16-.5v-.18-.16-.16-.13l-.1.25v.21l-.15.2-.42.2v-.26-.23l.09-.22v-.33l.13-.49v-.16-.19l-.07.27-.05.28-.08.08-.15.06-.28.32-.16.28-.44.27h-.22v-.35l.17-1.2.17-.17.08-.21.14-.71.16-.27.06-.56.07-.1.21-.44.07-.81-.08-.4-.2-.39-.2-1.17-.5-1v-.31l-.24-.39h.22l-.47-.33-.06-.14-.09-.79v-.44l-.06.06-.07.27-.18.11.08.47v.12l-.1.18-.39-.19-.29-.21-.32-.5-.32-.57.11-.09h.15l.45.42.3.09.18-.1.23-.18.11-.35-.11-.13-.22-.07-.15-.09-.21-.24v-.12l-.06-.16-.22-.1-.17-.14.15-.25.14-.18h-.38l-.43-.31-.09-.09-.15-.07h-.34l-.28.09.13.44v.15h-.18l-.39-.68.12-.17.17-.16h-.09-.16l.16-.6-.1-.09v.19l-.08.18-.33.43-.16-.08-.12-.11.16-.22.09-.06.06-.12-.13-.24-.19-.17-.16-.29h-.08l.08.35v.5l-.35-.55-.7-.78-.16-.23h-.05l-.18-.29-.17-.32-.42-.6-.13-1.08v-.53l-.29-.62-.19-.87-.08-.23.1-.28v-.1h-.05l-.15.14-.19-.34-.13-.31-.49-.65-.15-.28v-.28l-.22.28-.29.2-.29.29-.2.09h-.62l-.36-.39-.52-1-.07-.21.07-.57-.12-.54v-.29-.19h-.09v.13.2.16h-.44l-.42-.08.37.29.39.06.21.26v.2.22l-.2.16-.19.09v.22l.22.26-.27.07-.08.17v.24l.14.22v.15.15l.13.16.2.33.06.23-.08.33-.11.13-.18.12-.42.41-.21.47-.17.22h-.22l-.08-.1-.18-.13v-.23l.06-.18.37-.44-.21.06-.22.13-.35.23-.11-.29-.07-.27v-.34l.28-.5-.32.25-.09.31v.37.26l-.12.34-.17.2-.27.13-.12.2-.18.15v-.29l-.06-.39-.2-.93v.2l.1.58v.37l-.15.29-.3.32h-.23-.13l-.21-.19-.22-.28v-.45l-.1-.25-.07.49h-.24l.22.33.07.24v.33h-.25-.18l-.15-.29-.07.27-.28.24-.09-.12-.06-.13v-.22l.15-.86v-.1l-.07-.06h-.14l-.06-.17-.23.92.1.37v.17l-.42.15-.43-.35v-.11.19l-.07.24h-.4l-.2-.19.13-.31.24-.76v-.34l-.33-.24-.28-.15-.16-.35.06.38.15.13.22.1.23.19-.17.24-.16.14-.31.56-.38.31-.44.23-1.45.34-.3.14-.45.43-.85.34-.05.41.16.44.13.7.11.14-.15.25-.27.27-.23.36v.2l-.05.13-.77.45-.16.26-.21.25-.25-.14h-.14l.2.2v.14l-.07.08-.19.07-1.1.33-.85.31h-.23v-.1l.15-.08v-.36l-.15-.06h-.14l-.64.44-.26.42.06.09h.14l.43-.25.2.07v.1l-.66.37-1.37 1.19-.07.24-.18.27-.24.25-.45.6-.85.91-.24.33-1.36.7-.25.2-.56.68-.57.55-.67.46-1.17.58-.71.55-.22.37v.13l.08.18.13.16v.13l-.06.24v.13l-.21.32-.36.23-1.15.49h-.15l-.94-.09-.35.08-.14.23-.33.93-.31.25-.11.23v.15h-.2l-.16-.07-.12.05-.13-.31-.22-.07h-.19l-.79.32-.28.25-.58 1.19-.15.77.14.85.2.68v.31.39l-.11.2-.07.23.1.47.24.61.06.26v.27l.18.62-.12-.11-.1-.26-.24-.33-.28.33.16.23.53.29.16.23-.35 2.05-.26.73-.32.48-.17.19-.37.75-.26.91-.06.35.12.39-.13.24-.17.17.32-.08.11.22v.22 1.3 1.36l-.25.06h-.27-.24-.17l-.43.07-.23.15-.18.25v.43l-.79 1.07-.17.35-.07.35.11.18.2.18.26.07.51.08.25.1.17.18-.61-.2h-.7l-1.7.49-.44.35-.25.3-.17.69v.46l-.2.39-.88.59-.56.18-.21.16-.65-.21-.72-.51-.3-.28-1-1.52-.19-.17-.21-.57v-.22l-.06-.08-.1-.06v-.09l-.23-.65-.1-.68-.15-.77.04.04.17.25.09.36v.51l.13.06h.12l-.35-1.18-.29-.29h-.08l-.08-.19v-.24-.11l-.23-.38-.09-.23-.52-1.16-.24-.84-.37-.93-.23-.32-.37-.72-.31-.33-.33-.45-.25-.2-.1-.1-.76-1.55-.24-.86-.2-.4-.1-.31-.25-1.39v-.23-.26l-.19-.56-.33-.6-.1-.38v-.15l-.21-.58v-.27l-.15-.25-.16-.23-.18-.18-.4-.6-.15-.14-.28-.39-.19-.71-.26-.28h.4l-.32-.19-.12-.17-.12-.11.18-.26h-.3l-.16-.16-.22-.51-.4-.56-.07-.3-.35-1-.3-2.29-.27-1v-.29l-.33-.89-.16-.59-.07-.5-.09-.33-.07-.66-.13-.21v-.12l.09-.3.24-.47.05-.28-.1-.41-.21.43-.2.12-.1-.32v-.44-.1l.06-.15.53.07-.61-.27-.07-.16v-.11l.13-.22-.22-.18-.09-.56-.07-.13v-.1l.12-.78.53-1.52v-.35-.49l-.12-.39v-.41-.11h-.19l-.18-.16-.2-.61.19-.2.14-.11h-.2-.17l.32-.29.28-.21.64-.25.28-.16-.41.14-.42.06h-.9l.15-.58.16-.19.17-.1h-.25-.29l.09-.58.23-.13h.24l.31-.08-.33-.1h-.34l-.4.09-.38-.07h-.45l.18.08.19.18-.09.31-.09.2-.26.13-.2.21-.06.18-.11.13.2.09.2.06.12.15.14.21v.41l-.53 1-.19.21-1.35.59-.53.31-1.12.41-.44.08-.49-.08-.71-.31-1.08-.81-.45-.43-.86-1-.63-.55-.47-.51-.59-.48-.55-.65-.12-.29v-.3l.21-.17.24.07.19.25.13.12h.12l.82-.39h.32l.22-.2.28.05.57-.31h.24l.28-.06.45-.77.35-.49.22-.1v-.12l-.06-.16h-.16l-.12.15-.08.18-.09.11-.27-.1h-.14l-.22.06-.81.29-.34.26h-.23l-1.3-.28-1.27-.66-.53-.43-.34-.55-.34-.66.11-.19.53-.4.45-.31-.41.14-.44.19-.22.14-.24.28-.33.07-.13-.43-.08-.41v.2l-.1.14-.15-.21-.09-.1-.11.07h-.15l-.28-.24-.12.24h-.46l-.06-.18v-.16l-.25.12-.18-.19-.08-.25-.07-.07-.08-.08-.19-.08-.17-.27v-.28-.34l-.36-1.24-.21-.12-1.21-.22-.06-.21.08-.59v-.37l-.39-.49-.11-.34-.32-.29-.31-.09h-.32l-.18.12-.09.19h.68l.16.07.18.13h-.36l-.22-.06h-.28l-1.06.15-.62.21-.83-.07-1 .21h-.87l-.35.4-.2-.08-.15-.09-1.23-.13-.08-.13-.2-.1-.22.17h-.16l-.65-.14-.5.1-.18.18v.28l-.63-.05-.35-.09-.47.1-1.06-.13h-.28l-.39.18-.16.15h-.23l-.2-.2-.15-.08h-.14l-.19.17-.55.08h-.5l-.54-.15h.07l.08-.27.07-1 .1-.35v-.19-.06l.21-.16.05-.08.08-.49.09-.55.1-.19h.08l.66-.25.12-.16h.34v-.19l.16-.21.22-.17h.17l.59-.11.35-.15h.11.93.2v-.56l.17-.09-.06-.38v-.26l.19-.15v-.09l-.14-.18-.18-.12h-.09l-.76.11h-.31l-.15-.07v-.11-.19l.11-.28v-.17l.08-1.22-.13-.66.07-.65v-.14h-.1l-.46.06-.4-.42-.25-.19-.67-.21h-.3l-.43-.18-.4-.4-.41-.4-.16-.26-.19-.55-.51-.85v-.15l-.06-.13-.51-.56-.35-.4-.58-.64.79-.89.69-.78.69-.78.67-.82.08-.27v-.53l-.18-.7-.29-.33-1-.13-.61-.04-.78-.1h-.1l-.12-.65v-.25-.48-.37l.11-.6v-.28l-.36-1.18-.2-.65-.2-.67-.05-.22v-.27l.48-.62.15-.14.28-.31.17-.17v-.11l-.3-.07h-.46l-.25-.09-.19-.17-.08-.25.13-.44-.13-.86.26-.42.22-.3h.75l-.33-.33-.13-.19-.08-.06v-.09-.09h.19l.13-.12.21-.15.11-.07v-.19l.1-.14.16-.17.12-.19v-.23l.19-.31v-.17l.08-.15-.08-.25v-.18-.22h.12l.15-.08v-.17l.08-.22.06-.17.1-.14v-.13l-.06-.23-.07-.14v-.15l.07-.2v-.36l-.14-.26-.16-.12v-.08l.07-.18.09-.16v-.32l-.12-.34v-.49-.49l-.19-.29h-1.25-1.11l-.07-.06-.43-.61-.35-.46-.35-.27-.79-.34-.38-.14-.27-.24-.27-.28-.07-.39v-.13l-.08-.1h-.08-.1l-.92-.45-.48-.15-.35.09h-.15l-.3-.13-.35.17h-.15-.21l-.17-.06-.46-.41-.39-.17-.28-.1-.54-.16-.58-.08-.29-.07-.21-.09h-.06v-.16-.19l-.07-.15-.15-.18-.2-.13h-.35-.52l-.4-.13h-.32-.38-.31l-.22.1-.13.11-.09.34h-.07-.13-.54l-.63-.04h-.8l-.59.17-.48.25-.45.27-.53.44-.16.19-.31.77-.14.11-.18.09h-.19l-.36.11-.48.19-.33.07h-.84v-.24l-.16-.93-.08-.91v-.41l.09-.84v-.42-.39-.37l-.01-.4v-.43-.3l-.15-.27-.28-.3v-.18-.2h-.26l-.31-.23-.18-.09-.42-.13h-.21l-.2.09-.14.18-.1-.29v-.3l.33-.63.21.19.26.07h.32l.33-.05-.07-.21-.13-.13-.18-.1-.07-.28v-.3l.08-.28-.1-.11-.15-.07h-.35l-.45-.07h-.46l-.11.32.25.43-.21-.21-.2-.28-.29-.5-.18-.59v-.64l.15-.53.2-.5.12-.64.17-.63.16.28.19.26.26.23.14.06.43.09h.27l.29-.13h.29l.24.26.21.29.32.06.67-.21h.31l.28.1h.14.14l-.12-.26-.05-.25.16-.13.53.14.33-.09h.09l.07-.07v-.21-.23l-.05-.21-.1-.18-.24-.26-.93-.61-.25-.37-.26-.31-.17-.45-.14-.47-.12-.35-.37-.79-.12-.09h-.16-.39l-.39.06-.64.14h-.37l-.16.08-.42.34-.2.29-.27.67.2.22v.14l-.16 1 .1.47-.07-.11-.24-.49-.46-.72-.35-.91-.08-.38v-.59-.12l.16-.5.17-.34.14-.35.06-.47-.13-.74-.16-.22-.17-.05h-.18-.33l-.16.06-.27-.25h-.33l-.17.07h-.17l-.22-.06-.13-.15-.1-.17-.08-.18-.25-.36-.26-.2-.31-.09h-.5-.16v-.21l.06-.46v-.24-.23l-.09-.18-.1-.16-.3-.27-.23-.37-.38-.77-.33-.87-.15-.13-.33-.11-.65-.11-.43-.11-.16-.11-.07-.19v-.21-.24l.1-.21.34-.15h.74.63l.57.36.19.09h.2l.41-.11h.19l.58-.01-.15-.17-.19-.09h-.2l-.17-.07-.29-.32-.51-.35-.11-.16v-.26l.1-.21.34-.23.29-.3.13-.41.12-.19.25-.29.39.05.58-.22 1 .05 1.15-.06h.31l.74.2.42.09h.51l.29-.06-.34-.28-.76-.34-.19-.29.35-.78.46-.71.29-.84-.08-.85-.14-.23v-.27l.17-.23.11-.24-.1-.27-.2-.44-.11-.14-.36-.23h-.7l-.59-.13-.19.1-.11.16-.13.1-.46.21h-.16-.16l-.22-.23h-.2l-.61-.07-.29-.33h-.1l-1-.26h-.34l-.78.27-.57.34h-.16l-.29.21h-.17-.17-.16l-.34.32-.62.38-.31.24-.34.14-.39.1h-.38l-.16.03h-.45l-.27.06v.13l.06.29-.23-.1-.24.18.08.19h-.14l-.69-.35-.56-.25-.49-.23h-.08l-.13-.1-.1-.26v-.19-.13l.12-.09h.14.13l.14.09.25.1h.33l.2-.08v-.19l-.39-.69-.36-.55-.32-.57-.15-.23-.38-.47-.42-.51-.33-.49-.17-.14-.55-.08-1-.11-.35-.05-.29.13-.29.11-.27-.2-.22-.32-.11-.28.05-.28v-.41l-.14-.37-.18-.2-.46-.15-.58-.35-.16-.66.28-.91.46-.64.33-.26.16-.24.05-.2v-.2l-.28-.19-.3-.2-.16-.25.11-.55.2-.77.31-.61.42-.34.36-.28.14-.23v-.63l.09-.14.16-.18.16-.15.22-.18h.29l.32.14.44.38.64.74.37.49.13.15.33.29.3.12.47-.26.48-.21.15-.14.1-.2-.07-.34-.1-.22-.11-.29-.15-.5-.1-.78-.13-.25h.09l.24.06h.23l.37-.18.44-.33.8-.5.17-.33.13-.33.22-.23.51-.07.47-.12.34-.26.52-.23.43-.14.19-.13.13-.2.5-.54.38-.34.34-.35.12-.21h.27l.41.15.44.14.32.21.06.22v.17l.13.09h.15l.24-.05h.41l.5-.28.71-.48.64-.14.34.11.28.35.22.33.23.12h.19l.28-.07h.28l.25.11h.41l.58-.09h.06.27l.34.15.26.18.46.6.27.15.55.21.25.19.3.29.16.18.32.33.38.53.06.43.09.36.14.17h.11l.13-.06.12-.16v-.28-.48l-.09-.39-.13-.13-.06-.14.09-.17.2-.09.26.05.43.23.45.29.54.5.51.31.54.26.44.07.34-.07.4-.21.36-.24.17-.25.12-.27.55-.37.58-.24.23.06.16.09.52-.2.18-.06.49-.07.51.11.4.36.4.23h.35l.29-.11.19-.23.14-.26.2-.17.62.09h.4l.52.07.57.37.35.41.45.53.22.17.3.07h.24l.33.08.85.11.13.07.09.08-.08.29.07.07.7-.2.18-.15.23-.44.2-.43.16-.16h.16l.16.06.23.26.3.26.42.1h.25.4l.92-.13.86-.31.49-.35.23-.51.15-.59.22-.37-.1-.38-.43-.37-.15-.11-1-.2-.07-.15h-.06l-1-.32-.5-.14-.14-.21-.15-.32-.33-.25-.64-.23-.12-.17.11-.17.51-.2.58-.41.22-.08h.52l.48-.34.33-.19.18-.23v-.23l-.48-.72-.14-.49v-.29l.28-.31.16-.16.18-.3.13-.16.48-.07h.59l.4.07h.56l.52.05h.26l.19-.09.14-.16v-.14l-.2-.21-.69-.27-.37-.25h-.25-.38l-.38-.15-.34-.05-.11-.2.07-.29.13-.16.25-.08h.27l.25-.07.09-.07v-.09-.13l-.14-.11h-.19l-.23.09-.27.06-.45-.13-.36-.16v-.15l.27-.31.14-.14v-.54l.07-.32.26-.23.31-.12.81.22 1 .2h.17l.05-.1.12-.1h1.39l.27-.13.13-.11 1.34-.15.16-.14.2-.13h.3.37l.51-.16.36-.09h.06.38l.48-.13h.1l.08-.1.41-.19.8-.15.19.09h.38l.48-.06.36-.12.21.12.28.11.21-.1.1-.32.14-.31.24-.15h.19l.17-.12.13-.13h.7l.62-.31.13.14h.81l1-.2.6-.09 1-.21.48-.17.69-.11.64-.08.41-.3h.33.41l.25-.08.16-.11.11-.2-.06-.27-.01-.41.29-.11h.42.26l.55-.55.39-.21.43-.13.82.07.74.07.75.21.4.26.34.2.32.09.28.06.34-.09.24-.12.14-.17.2-.13.77-.09.16.18.36.57.25.74.41 1 .17.49-.08.25v.35.38l-.3.44.12.2.74.22 1-.08.63-.18.38.08.18-.11.12-.32.25-.07.25.22.18.38.18.24v.29l.06.37.13.09.25-.14.17-.08v-.11l-.07-.14v-.14-.13l.12-.06h.36l.53.08.62.52.33.1h.14.32l.38-.16.26-.18.08-.1h.15l.14.09v.19l-.12.28-.37.25-.47.24-.29.43-.06.45.13.23.1.15v.21h.11l.28-.07.56-.41.26-.11.39-.07h.64l.42.15.21.2.22.17.16-.07.08-.2v-.18l.07-.18.69-.45.47-.29h.16l.31.06h.19l.51-.28.44-.34v-.22-.19l.12-.09.66-.07h.11l.57-.22.79-.37.38-.23.7-.1.13-.06.32-.23.41-.22h.24l-.15.5-.26.58-.14.16h-.71v.16l.11.24.08.14.09.12.19.21.74.5 1 .63 1 .71.71.49.29.26.18.2.53.71.5.68.84 1.19.74 1.15.82 1.26.48.72 1 1.52.26.46.49.88.43.81.39.73.24.06v-.19-.13l.13-.08.28-.21.15-.05h.23l.23-.11.09-.2-.06-.38v-.18l.08-.19.13-.07.18-.06h.17l.13-.21.26-.07h.24.19l.17.15.1.22h.18.31v.18l-.09.3-.1.23v.18l.16.09.59-.08h.21l.07.19.08.15v.19l-.06.21.1.13h.51l.36-.1h.55l.5.22h.35l.34-.09.51.06.36-.18.25-.22.07-.17.13-.1h.78l.23-.26.2-.11h.35.25l.68.23.41.2.43.27.26.18.18.39.29.28.23.34.06.33.19.59.2.2h.23l.3.08.33.06.7.44h.26l.2.1v.2l-.08.24.08.22.23.29.18.28.23.34.07.19.18.06.24-.09.38.07 1.16.19h.16l.12.2h.17.19.27l.19-.19.15-.16.38-.2.32-.27.26-.24h.2l.16.12v.21l-.2.15-.16.18v.19h.27l.29.28.43.65.15.14.21.13.23.06.26.09.19.27.08.24h.29l.18-.06.12-.12h.18l.28-.06.29-.07h.52l.16-.09.12-.12.27-.15.05-.16v-.33l.17-.27.44-.09h.17.18.28.27l.15.08.19.08h.36l.08-.13v-.18l.11-.05.13.13.08.09h.11l.31-.11.21-.12.07-.25.13-.12.17.06h.29l.24-.2.31-.15.23-.07.05-.13-.11-.29v-.31l.3-.18h.41l.3-.12.09-.34.14-.1h.15l.37-.06.26-.13.17-.07.46-.18h.42l.18-.14.14-.19.23-.07.24-.16.32-.2h.12l.52-.12h.2.13.22l.22-.41.22-.16h.23l.11-.16.22-.2.3-.11h.46.45.27l.22-.29v-.15l.05-.15.18-.06.22.24.18.16.28.15.14.15h.17l.17-.11.13-.31h.23.26l.07.14v.13l.12.23.28.2h.36.15.35.35.37.11.41.59.26l.53.07.11.18.1.42.08.4v.33l.14.16.18.06.11.13.21.18.15.25h.19l.12-.06h.29.36l.25.14.09.19.21.1h.16.67l.17.1h.24l.14-.13.43-.09.24-.19h.19l.15.09.11.12.16-.05.09-.1h.22l.14.06.36.12.26.21h.2l.26-.07h.12l.11.1.17.05.12-.07.22-.06.83.12.19.21.15.09.12.18.22.12h.45l.18-.13.37-.28.15-.27.19-.08h.21.4l.25-.19.21-.07.3-.25.06-.12.14-.29.09-.19.15-.29.09-.48v-.26-.18l-.18-.1h-.22l-.2-.14-.15-.16-.09-.23-.17-.35v-.2-.15l-.1-.13-.19-.23-.09-.16v-.27l.23-.45v-.22-.13-.12l.07-.27.13-.12.15-.29.2-.13h.25l.1-.08.06-.3.12-.22.07-.16.16-.18.87-.34.36-.42.13-.21.14-.45.13-.2.2.07.23.27h.17l.26.14.7.31.38.1h.25l.32.08.21.18.4.29.34.07h.6.72.21l.52.21.59.23.55.21.42.16.25.15.23.09.25-.08h.32l.76.19.48.15.4.12.14.16v.33l-.05.18v.44l.13.22.05.31v.29.29l.06.15.12.09.12.2v.21l-.05.13v.19l.14.17h.22.19l.23.26.42.29.24.08.29.13.55.13h.37l.21.11.22.25.35.05.23.09.41.11.28-.06.24-.09h.16l.31.06h.37l.3-.06.25-.17.28-.25.34-.12h.4l.27-.1.88-.16h.36l.27-.16.25-.12h.35l.48.13.46.1h.55l.37.15.26.14.41.11.46-.05.62-.05.42.07.43.25.27.21.3.43.31.21.27.18h1.24l.47.09.39.05.1.09v.3.62l.09.15h.13l.08.21.19.12.35.15.59.5.35.22.28.07.36-.05h1.53l.65.15.23.11.67.12.74.13.63.14.36-.18h.33l.31.13.3.2h.24l.36-.1 1.14-.54.4-.2.28.05.25-.07.19-.06.49-.08h.3.3.45l.89-.35.36-.07.62.1.33-.07.33-.18.42-.18.11-.3.22-.41.47-.31.39-.26.33-.31.48-.22.45-.16.57-.41.5-.21.23-.07.27.07.51.06h.36l.21.05.41.2.38.18.29.31.53.44.28.14.19.06h.48.4l.23-.1.4-.19.63-.23h.25l.41.12.6.23.25.17.15.21.63.34.4.18.68.26.7.06.67.29.35.09h.18l1-.7.8-.6.93-.47.68-.06.5-.14.35-.21.2-.35.06-.49-.14-.3-.33-.1-.09-.1.16-.11.12-.21.08-.3.19-.29.31-.28.11-.16v-.34l.19-.33.33-.33.19-.31v-.29l.29-.4.47-.63.3-.72.52-.49.83-.51.52-.5.2-.5v-.44l-.24-.39v-.39l.15-.4-.13-.29-.41-.2h-.49l-.57.1-.32-.12-.07-.35.16-.29.37-.21.62-.53.85-.83.86-.47 1.27-.13 1-.28 1-.28.76-.13.13.09h.41l.69-.05.65-.12.59-.19h.47l.35.11h.41l.15-.08.4.15.77.43.49.2.19-.05.22.12.24.29.29.17.53.08.52.31h.21l.08-.18.19-.1h.32l.45.15.6.34.37.15h.16l.16.06.13.16v.19.11l.15.16h.16l.27.08.21.29.19.13.14.12v.1.09.08l-.07.12v.14l.09.15.34.11.11.11v.14l.1.16.23.19.09.15-.06.12.07.11.11.08v.29.17l.18.19v.38l.13.43.43.59.15.31v.38l.06.17.2.09.09.16v.23l.08.14.06.16v.23l.06.22.1.12.07.24.05.29.29.45.53.63.33.48.12.35v.28l-.12.22v.17l.11.1v.13.18l.17.2.59.36-.23.54-.07.38v.4l.14.29.26.16.17.17.06.18.31.2.56.21h.72l.88-.14h.54l.2.09.06.14-.06.19.15.12.36.06.25.11.13.18h.17l.2-.08h.19l.19.1h.12l.1-.11h.35l.11.26.17.14h.24l.37.32.74.88.48.32.49.1h.6l.19.34-.16.36v.3l.14.11.19.36.26.2.05.17.13.18-.05.34-.23.49.06.42.35.34.2.34.06.32.09.19.12.07h.36l.6-.12h.44l.28.16h.69l1.11-.14.7-.05.29.06.26-.21.22-.47.22-.22h.2l.31-.15.44-.33.37-.16h.48.51l.31-.13.3-.29.52-.26 1.1-.33.27-.06h.12l.37.05.33.14.3.26v.17.22l-.07.13-.13.14-.12.23.08.19.18.39.15.28.16.33-.08.12-.09.23-.31.38-.16.15-.18.15h-.3-.13l-.15.06-.09.14-.11.09-.17.2v.16l.08.25v.25l-.2.23-.15.35-.05.1-.07.26v.09.56l-.2.37-.28.44.06.26.05.24-.07.12v.1.23l-.09.09-.25.15-.15.17v.27l-.08.23-.11.2-.12.13-.17.09-.12.07-.09.26v.2l-.08.2.05.2-.09.17-.25.13-.14.07h-.13l-.24.19-.22.65v.38.33l-.45.39-.23.17-.14-.06-.15-.06h-.09v-.3l-.25-.31-.44-.25-.54-.12h-.52l-.48.16-.14.19h-.14l-.21-.11-.18-.2-.17.08-.16.23-.27.14-.12.26-.1.2-.28.26-.12.11-.55.18-.12.06h-.44l-.15.08-.15.16v.17l.11.17.18.35.07.24.12.47.4 1.48-.13.25-.12 1.1v.2.54l.09.06.1.07.05.14v.2.15l-.09.29-.11.43-.12.16-.08.13-.07.09v.3.2l-.19.07-.19.11h-.23-.2l-.24.08-.44.09-.26.12-.12.08-.08.11v.1h.06.25l.17.19v.2l-.17.12.08.22.19.21.1.16v.16l.09.1-.15.1-.2-.06h-.34l-.44.32-.24.11-.17.31-.33.19-.19.2-.24.34-.16.33-.36.34-.21.42v.37l.23.37v.32l-.16.64.09.69-.1.27-1.12.47-.29.24-.41.61-.5.22-.31.25-.43.15-.27.43-.3.24-.36.14-.27.19h-.6l-.43.13-.3.35-.9.41-.13.3.06.48v.36l-.08.29-.2-.08-.11.1-.11.27v.32l.31.1.25.12.36.07.27.14.56.66.46.29.12.11.26.14.24.23.14.2.74 1.57.71 1 .6.73.86 1.4.26.75v.47l.14.64-.12.36v.58l-.06.29-.1.22v.41.23.29l.07.12h.1l.15-.11h.19v.35l-.23.9-.2.65-.28.57-.34.51-.42.21-.29.07h-.56l-.47-.08-.4.06-.16.11-.11.18.08.29v.21h-.17l-.34-.12h-.37l-.18-.06-.17-.3h-.19l-.31.18h-.48l-.17.1-.06.12.07.16.24.21-.08.21-.25.1-.2-.25-.13-.26h-.14l-.22.07-.05.27.02.22.17.22-.24.24-.06.18-.17.13-.46-.28.06-.2.2-.2v-.2l-.07-.12-.65.51-.41.57h-.21l-.09-.15-.13-.06-.44.37-.08.29h-.16l-.07-.13v-.26l-.08-.23-.45-.32-.21-.29.11-.16.44.09h.3l-.06-.14-.1-.06.2-.08.17-.15h-.14l-.21.09h-.17l-.07-.37-.22-.39-.11-.37.21-.22.11-.33.2-.49.1-.15.27-.12.09-.12-.15-.07h-.23v-.14l.16-.08.19-.15.35-.19.11-.47-.1-.09-.22-.08.05-.18.09-.14v-.08l-.26-.23-.17-.21.05-.24v-.37-.3-.17l-.12-.37-.06-.38-.17.06-.13.09-.48-.13h-.15l-.06-.28.17-.34.41-.31h.23l.18-.14h.27l.33.21h.3l.16.35.11.08v-.13l.24-.15v-.12-.06l-.27-.07-.25-.44v-.19l-.15-.19.14-.36-.29-.4-.14-.13v-.36l-.15-.23-.08-.13-.05-.22v-.1h.13v-.1h-.15l-.62-.28-.5.17-.13.23-.13.07-.21-.44h-.33l-.52-.39-.22.08-.06.16-.29.36-.4.29h-.13-.15v-.08l-.17-.33-.55-.21-.23-.14h-.11l.61-.37.17-.07-.12-.09h-.14l-.51.06-.26-.13h-.39l-.27-.09.56-.37v-.21-.17l.28-.49.28-.27.74-.38h.32.23.19l-.2-.15-.15-.13h-.38l-.4-.22v-.24l.76-1.47v-.13l-.12-.36v-.35l-.54-.21-.32-.02-.7-.4-.28-.2-.11.06v.32l-.1.07-.19.06-.09-.36-.15-.26-.47-.27-.17-.15.08-.31-.25.31-.49.3-1.05.06-.33-.21-.12.15-.09.19-.28.07h-.43l-.24.12-.13.15h-.59l-.21.19-.37.07-1.53.84-.33.35-.32.4-.22.21-.2.14-.18.06-.18.14h-.18l-.18-.06h-.21l-.13.17.11.22-.06.1-.4.12-.6.08-.25.14-.09.09h-.13l-.13-.29v-.38l.24-.09h.23l1.26-.52-.16-.4.12-.17.28-.28.18-.14h-.1l-.82.09h-.48-.24l.07-.24v-.24l-.06-.09.42-.27.2-.07h.14v-.17l-.12-.25.13-.32.86-.37.21-.34.34-.32.63-.8v-.13l.18-.38v-.15l-.29-.21-.12-.31-.85-.55-.08-.48-.2-.09-.13.34-.11.1h-.39l-.19-.12-1.1-.08-.27.21-.25.33-.24.24-.25.12-.21.22-.86 1.33-.33.09-1.57.78-.79.3-.61.53-.21.33-.18.35-.11.55-.56.65-.19.15h-.2-.26-.22l-.39-.05-.46.2-.53.18-.46-.45-.32-.11-.53.12-.25.21-.51 1-.19.57v.23l.3.71.34.4.75.45 1.6.31.38-.11h.4l.43.29.26.49v.33.11l.1.1.06.17-.17.14-.13.06-.11.52v.57l.14.19.35.26.53.22h.49l.94-.11.39-.34v-.15-.19l.83-.5.47-.45-.07-.12-.09-.08h.08.26l1.15-.47.91.38.52.44.51.07.35.23.41.19h.49.45l.13-.18.15-.11h.16l.18.23.51.18h.47l.33-.06.2.08-.29.29v.48l-.21.15-.21.24.12.16.11.07v.19l-.19.11-.35.29h-.21l-.09-.06-.07-.1-.05-.17-.12-.11h-.35-.35l-.8.43-.78.34-.81.27-.28.17h-.19l-.34-.12h-.12v.09l.27.24.06.18v.15l-.15.06-.22-.1-.19.14-.09.25v.79l-.13.13-.36.08-.38.19-.13-.09-.06-.11v-.27l-.05-.14h-.17l-.26.08-.21.18-.07.11.27.35h.25l.06.07-.2.18-.49.25-.09.21-.15.21-.2.16-.14.17-.17.09-.27.1-.34.41-.25.38-.29.19-.23.65-.42.35-.15.55.11.35h.45l.23.12.47.45.57.3.59.16.72.42.2.17.17.36.31 1 .22.51v.26l.34.5.36.86.41.74.08.59-.13.26v.35l.41.32.92.36.15.11.18.18v.56l.14.17.12.11.56.24.23.19.25.31.07.28v.38h-.31-.25l-1-.49h-.26l-.37.07-.52-.09-.55-.55-.4-.16-.42-.09-1 .47h-.26-.08l-.11.08.47.1.47-.15.46-.23.66.12.11.21.11.34.45.23.36.11.45.3.45.48.93.55.38.52.15.34.13.48-.33.16h-.28l-.45.07-.33.17-.33.3-1 .47-.18.3-.12.25-.23.13-.58-.12h-.55l-.62.34-.15.14h.1.1.28l.43-.18.42.56.82-.09.77-.47h.3l.25.08.28.18.75.82.4.09.4.19h.23l.19.06-.53.3-.7.64-.31.16-.2.17.55-.09.4-.31.2-.07.17.07.08.38-.16 1.17h-.19l-.19-.32-.22-.1-.19.07h-.37l-.14.14-.12.2h.22l.44.36v.19l-.12.12h-.3l.37.26-.1.28-.12.1-.21.07-.14.24.19.39.2.51v.24l-.3-.1-.47.31h-.25l-.17-.4-.22.06-.14.12-.19.43-.23.4-.2.1h-.25-.19v.1l.22.13v.15l-.45.48-.08.19v.15l-.24.19.13.33-.07.22-.2.31-.22.2-.25.33-.33.19-.42.68-.13.34v.36l-.13.12-.23.15-.26-.08v-.23h-.11l-.06-.15v-.2-.16h-.11l-.07.18-.17.15-.18-.06-.19-.12v.18l.1.17v.18h.27l.18.2.14.31v.12l.1.14v.12l-.26.11-.31.21-.38.35-.32.23h-.28-.17l-.25-.14h-.28l.38.47.2.08h.26l.26-.18h.35l.09.27-.09.31-.2.4v.35l.24.49v.15l-.09.07-.28-.13-.23-.16h-.24l-.24-.07-.26.06-.1.12.07.18.23.16.12.24-.15.09-.64-.06h-.14l-.19.26.12.39-.14.25h-.26l-.35.2h-.21v.09l.15.09.09.11-.19.4-.3.13-.45-.06-.35.09-.3-.17h-.33l-.22.22v.25h-.21-.12-.16v.14l.09.11.44.06.08.16v.26l-.47.45-.19.3h-.3l-.22.24-.12.33-.15-.06-.34.05-.1.15.08.07v.11l-.13.37-.15.1-.07-.15v-.23h-.12l-.2.22-.24.15-.2.06-.15-.14-.37-.07.02.83-.31.23-.14.07h-.25l.16.08v.16l-.09.16h-.25l-.15.12-.05.55-.15.2h-.38l-.28-.13-.1.11v.09l-.15.1h-.29l-.64.25-.29-.08-.35-.09-.24.09-.08.19-.11.15h-.35l-.28-.18-.23-.07-.31.11-.24.23-.3.08v.14l-.13.07h-.32l-.12-.35-.18-.06-.18.18-.06.14-.08.11v.29h-.18l-.23-.18h-.24l-.23.16.07.11v.14l.12.06v.13l-.13.07v.16l-.06.09-.39-.17-.32-.08h-.29l-.11-.1v-.1l.34-.18v-.09l-.25-.06-.31-.24-.23-.4-.28-.21-.13-.19v-.35l-.06-.16v-.18l.09-.16-.31.08-.22.15v.19l-.05.17-.34.1v.07.08l.27.23v.21l.11.1.2.31v.61l.11.17v.17l-.08.22-.14.06h-.08l-.17.05h-.15l-.12.07-.19.18h-.35l-.19-.42-.24.28-.07.57-.09.1-.16.24-.28-.2-.26.14-.19.13-.08.13-.15.13-.28-.13-.22-.2.06-.14v-.1l-.11-.07h-.11l.06.19v.36l-.11.11-.15.08-.34-.06-.23-.14-.28-.12h-.25l-.05.23-.16.19h-.15-.15l-.19.21-.09.14-.24.16-.64.08-.22.15h-.3-.23-.13l-.12-.08h-.14l-.06.26-.36.1h-.32l-.36.34-.26.21h-.19l-.14-.07-.07-.31h-.07v.28l-.06.24-.14.13-.41.29-.12.3.08.27.56.06.07.15-.06.12-.13.1v.16l.6.48v.18l-.09.11-.12.22-.32.19-.67.1-.63-.1-.17-.22v-.15h.14.16l-.05-.14-.06-.08-.26-.13-.21-.34v-.28l-.12-.22-.12-.18-.13-.11-.06-.14.12-.42-.07-.25.24-.31.06-.34.43-.12v-.33h-.31l-.21-.24-.05.1h-.17l-.28-.47-.09-.06h-.13l.07.49-.33.18-.27.08h-.38l-.22.06h-.21l.06-.14.1-.18-.09-.15-.22-.11h-.33-.23-.22l-.09-.06-.21-.23-.18-.15-.08-.14.17-.22-.06-.1h-.35v.24.28l.1.22-.07.11-.18.09-.18-.23-.09-.06h-.09l-.07.22-.17.2h-.3l-.24.12-.29.06h-.14-.35l-.31.28-.22.12-.33.1-.35.17-.11.28v.21l-.06.23-.58.33h-.16l-.11-.12h-.17l-.11.06h-.14l-.15.08h-.2l-.18-.11h-.11-.13v.13l.19.48.05.23-.62.65.07.42-.17.33-.37.26-.7.67h-.31l-.24.15-.51 1.1v.38l-.08.27v.27l-.23.52-.23.22-.06.28.34.58v.11l.19.31.09.22.15.23.54.58.24.18.29.12.52.52.26.33-.12.23.06.48-.37-.15v.06l.44.26.66.92.58.45.59.52.18.49.53.32.59.47v.1l.16.13.4.25.24.26.09.25h.15l.16-.06h.17.11l.18.28.25.24.12.22h.1.08v.19.12l.33.36.16.34.4.55.29.31.21.18.24.15.23.61.13.55.25.61.18.27v.5l.15.52.17.35.05.35v.18l.06.13.18.61-.05.28-.12-.28v.82l.11.42v.53l.12.18.2.6.14.21v.73l.08.36-.2-.22-.14-.24-.18.13-.17.19.26.78-.3-.07v1l.12.25v.11.14l-.08-.15v-.16.08l-.1.18v.23l.1.2v.15l-.08.18-.12.19h-.28l-.07.38-.09.4-.51.07-.36.35-.45.13-.41.35-.44.33h-.29l-.25.07-.28.54-.47.06-.85.44-.29.21-.26.09-.37.18-.08-.07-.13-.15-.32-.08-.16-.18v-.23-.09l-.07.13-.05.54-.06.12-.13.06-.27-.16-.26-.31-.37.22h.11.17.13l.11.21v.11l-.06.13h-.35-.46-.08l.42.21.38.11.17.13v.11l-.21.17-.17.21v.47l-.18.13h-.12l-.33-.21-.94-.86.14.24 1 1 .17.32v.22l-.1.12-.17.13h-.32l-.53-.36-.84-.87-.29-.12.85 1 .14.25.15.28v.16l-.08.16-2 .92-.3.4-.24.49-.4.27-.23.25-.68.14-.37-.05.39-.45-.24-.17v-1.16l.09-1.28.18-.64.25-.16.32-.1v-.13-.15l-.18-.22-.18-.1-.28-.05-.22-.26h-.17l-.25.09-.15-.12-.06-.18-.24-.22-.27-.22-.5-.4-1-.13-.11-.18h-.09l-.1.23-.54.21-.22-.13-.17-.16v-.19l.16-.16.27-.12.12-.4-.2-.51-.18-.15-.19-.12-.2.19-.17.33-.17.17h-.25-.36l-.14-.49-.05-.42.05-.47.06-.29-.35-.39v-.37l-.17-.19v.09.11h-.07l-.09-.21-.28-.35-.08-.38-.33-.42-.18-.17-.06.14-.11.15-.32-.21-.28-.23-.25-.43v.1l-.06.09-.29-.34-.3-.27-.27-.1-.17-.09-.16-.14-.34-.15-.85.21-1.07-.17-.42.17-.17-.1-.1-.19.1-.32v-.66l.13-.47-.06-.35.06-.17.05-.23-.17-.09-.76-.18-.16-.15-.2.17-.92.09-.34.14-.32.26-.08.34.18.22.12.39-.32.84-.06.24.13 1-.05.56-.18.38-.28.34-.12.57-.22.27-.3.61-.2.75-.14.35-.09.64-.61 1-.14.55-.22.21.07.16v.28l-.08.73v.61l.09.33.29.64-.07.19v.27l.24.12h.18l1-.3.34.08.13.28.08.25.17 1.34.09.25.2.24.22.25.08-.05v-.09-.11l.19.26.16.47.52 2.5.16.32.12.34-.32-.17-.08-.55-.1-.24h-.11-.18v-.1l.13-.18v-.21l-.18-.18-.3.14v.37l.13.3.51.67.15.28.2.08.3-.05.35.29.27.26.69.4h.41l.45-.1h.3l.29.1.35.34.56.84.92.71.52.11.2.1.59.93.78.66.33.25.25.11.35.36.3.44.67 1.24.11.55.05.83-.15 1.26-.18.62v.3l.24.45-.07.43.05.36v1l.14.29.15.19.84.59.06.21.41.75.76 1.62.21.73v.2l-.09.08-.23.07-.18-.14-.07-.11v-.12l-.07-.13-.18-.15-.11-.13v.22.29h-.23l-.3-.09-.37.08-.44.36h-.21l-.16-.31-.08-.2-.13-.15-1.4-.74-.51-.19-.54-.56-1.22-.62-.78-.61-.33-.37-.79-.33-.34-.4-.17-.07-.17-.14.18-.38-.08-.4-.09-.33-.56-.66-.35-.47-.53-.46-.21-.26-.2-.31.13-.11.11-.06-.11-.23-.3-.38-.14-.45v-.84l-.42-1.18-.37-1.65.06-.57-.09-.62-.24-.6-.32-.43-.12-.36-.76-.93-.52-.38.07-.7-.16-.13h-.2l-.15-.19.14-.41-.21.08h-.28l-.23-.11-.18-.58-.11-.17-.25-.3h-.32l-.1-.14v-.37l-.23-.23-.31-.19-.25-.11-.2-.63-.2-.15-.18-.12-.24.08-.08.22-.16.2h-.18l-.17-.12-.2-.6v-.36l.05-.68.25-.61.14-1 .22-.62.15-.2.21-.84.43-1.08h-.14l-.29.44-.12-.22-.08-.23.08-.52-.17-1 .1-.13.11-.06.19-.38.23-.37v-.45l.18-.33v-.27-.32-.26-.22l.15-.22.26-.17-.11-.06-.1-.12-.34.19-.17-.07v-.19-.21-.12l.14-.14v-.28l-.07-.24.1-.3h-.2l-.09-.06.05-.17.18-.15-.16-.28.12-.31v-.37l-.09-.33v-.24l-.13-.42-.06-.54-.27-.4-.2-.59-.53-.76v-.25-.29l-.12-.14-.15 1-.12-.2v-.57l-.07-.27.08-.54-.31-.53-.07-.39-.2-.59.06-.13.27.13-.25-.34-.2.08-.17-.37v-1l-.17-.37.09-.39-.19-1.37-.38-.44.07-.39.1-.34v-.63l.09-.19.18-.15-.17.05h-.15-.34-.4l-.13-.46-.2-.22-.16-.47-.11-.52.07-.11-.3-.21-.08-.13-.32-.34-.36-.26.08.18.1.11-.18.32.18.53-.16.34-.14.45-.14.21-.43.45-.35.15h-.23-.2l-.25-.24-.06-.19v-.33l-.09-.05h-.1l.15.42v.2l.27.38-.1.11-.48.21h-.16-.12v.18l-.06.09-.76.26-.15.3-.1.3-.38.43-.5.35h-.12l-.15-.08v-.38l.18-.33-.06-.35v.2z"></path><path d="m323.63 262.75-.06.37-.15.28-.63.54.09.48-.04.23-.21.42-.1.45.13.79.19.21.1-.12.03-.3.24-.75.86-1.98.04-.37-.25-.28-.07-.78-.1-.04-.14.05-.18.11-.15.22.17.08z"></path></g></svg>