<svg version="1.0" xmlns="http://www.w3.org/2000/svg" xmlns:xlink="http://www.w3.org/1999/xlink" x="0px" y="0px" viewBox="0 0 72 72" style="height:40px; width:40px; fill: #024F87; enable-background:new 0 0 72 72;" xml:space="preserve" role="img">
<path d="M36,0C16.1,0,0,16.1,0,36c0,19.9,16.1,36,36,36s36-16.1,36-36C72,16.1,55.9,0,36,0z M37,69.9c-0.2,0-0.5,0-0.7,0
	c-4.6-4.6-8.2-9.3-10.8-14.2c6-1.6,13.5-2.3,21.6-0.2C43.3,63.2,38.4,68.4,37,69.9z M49,56.1c3.3,1,6.7,2.6,10.1,4.7
	c-5.2,4.8-11.9,8-19.3,8.8C42.1,67.2,46,62.5,49,56.1z M33.4,69.8c-7.9-0.6-15-3.9-20.4-8.9c1.9-1.1,5.6-3.1,10.5-4.6
	C26,60.9,29.3,65.4,33.4,69.8z M24.6,53.9c-2.7-5.5-4.2-11.2-4.3-17h31.7c-0.2,6.3-1.8,12-4,16.8C39.1,51.4,31,52.2,24.6,53.9z
	 M20.2,35c0.1-6.1,1.7-11.7,3.8-16.4c4,1.1,7.9,1.6,11.6,1.6c4.5,0,8.7-0.7,12.3-1.7c2.6,5.4,3.9,10.9,4,16.5H20.2z M24.8,16.8
	C28.6,9,33.5,3.6,35.1,2c0.3,0,0.5,0,0.8,0c4.7,4.8,8.4,9.7,11.1,14.8C40.9,18.4,33.1,19.1,24.8,16.8z M22.9,16.2
	c-3.3-1.1-6.7-2.7-10.1-4.9C18,6.4,24.7,3,32.2,2.2C29.9,4.8,26,9.7,22.9,16.2z M38.7,2.1c8.1,0.6,15.3,4.1,20.8,9.4
	c-1.8,1.1-5.6,3.1-10.7,4.7C46.4,11.4,43,6.7,38.7,2.1z M22.1,18c-2.1,4.9-3.7,10.7-3.8,17c0,0,0,0,0,0H2.1
	c0.2-8.6,3.7-16.5,9.2-22.3C14.9,15.1,18.5,16.8,22.1,18z M18.3,37c0.2,6,1.6,11.8,4.4,17.5c-5.4,1.7-9.3,3.9-11.1,4.9
	C5.9,53.6,2.4,45.7,2.1,37H18.3z M49.9,54.3c2.2-5,3.9-10.9,4-17.4H70c-0.3,8.7-3.8,16.6-9.5,22.5C56.9,57.1,53.3,55.5,49.9,54.3z
	 M53.9,35c-0.1-5.8-1.5-11.5-4.1-17.1c5.5-1.7,9.5-4,11.2-5c5.4,5.9,8.8,13.6,9,22.1H53.9z"></path>
</svg>