<svg version="1.1" xmlns="http://www.w3.org/2000/svg" xmlns:xlink="http://www.w3.org/1999/xlink" x="0px" y="0px" viewBox="0 0 215.3 214.7" enable-background="new 0 0 215.3 214.7" xml:space="preserve" style="fill: #024F87; height:40px; width:40px; " role="img">
<g>
	<circle opacity="0.9" enable-background="new    " cx="103.4" cy="77.3" r="4.8"></circle>
	<ellipse opacity="0.9" enable-background="new    " cx="92.8" cy="80.8" rx="4.8" ry="4.8"></ellipse>
	<ellipse opacity="0.9" enable-background="new    " cx="84.1" cy="88" rx="4.8" ry="4.8"></ellipse>
	<ellipse opacity="0.9" enable-background="new    " cx="78.7" cy="97.8" rx="4.8" ry="4.8"></ellipse>
	<ellipse opacity="0.9" enable-background="new    " cx="77" cy="109" rx="4.8" ry="4.8"></ellipse>
	<ellipse opacity="0.9" enable-background="new    " cx="79.5" cy="119.9" rx="4.8" ry="4.8"></ellipse>
	<ellipse opacity="0.9" enable-background="new    " cx="85.9" cy="129.3" rx="4.8" ry="4.8"></ellipse>
	
		<ellipse transform="matrix(0.5264 -0.8502 0.8502 0.5264 -70.2472 145.0768)" opacity="0.9" enable-background="new    " cx="95.1" cy="135.6" rx="4.8" ry="4.8"></ellipse>
	
		<ellipse transform="matrix(0.1837 -0.983 0.983 0.1837 -49.2914 217.136)" opacity="0.9" enable-background="new    " cx="106.1" cy="138.2" rx="4.8" ry="4.8"></ellipse>
	
		<ellipse transform="matrix(0.983 -0.1838 0.1838 0.983 -23.127 23.8936)" opacity="0.9" enable-background="new    " cx="117.3" cy="136.7" rx="4.8" ry="4.8"></ellipse>
	<ellipse opacity="0.9" enable-background="new    " cx="127.1" cy="131.3" rx="4.8" ry="4.8"></ellipse>
	
		<ellipse transform="matrix(0.7227 -0.6912 0.6912 0.7227 -47.5739 126.885)" opacity="0.9" enable-background="new    " cx="134.3" cy="122.7" rx="4.8" ry="4.8"></ellipse>
	
		<ellipse transform="matrix(0.4242 -0.9056 0.9056 0.4242 -22.0036 189.4789)" opacity="0.9" enable-background="new    " cx="138" cy="112" rx="4.8" ry="4.8"></ellipse>
	
		<ellipse transform="matrix(6.841231e-02 -0.9977 0.9977 6.841231e-02 27.6452 230.9767)" opacity="0.9" enable-background="new    " cx="137.5" cy="100.7" rx="4.8" ry="4.8"></ellipse>
	
		<ellipse transform="matrix(0.955 -0.2965 0.2965 0.955 -20.8592 43.4847)" opacity="0.9" enable-background="new    " cx="132.9" cy="90.5" rx="4.8" ry="4.8"></ellipse>
	<ellipse opacity="0.9" enable-background="new    " cx="125.1" cy="82.4" rx="4.8" ry="4.8"></ellipse>
	<ellipse opacity="0.9" enable-background="new    " cx="114.7" cy="77.9" rx="4.8" ry="4.8"></ellipse>
	<circle opacity="0.8" enable-background="new    " cx="98.7" cy="64.1" r="4.8"></circle>
	<ellipse opacity="0.8" enable-background="new    " cx="86.3" cy="68.6" rx="4.8" ry="4.8"></ellipse>
	<ellipse opacity="0.8" enable-background="new    " cx="75.9" cy="76.6" rx="4.8" ry="4.8"></ellipse>
	<ellipse opacity="0.8" enable-background="new    " cx="68.3" cy="87.4" rx="4.8" ry="4.8"></ellipse>
	<ellipse opacity="0.8" enable-background="new    " cx="64.2" cy="99.8" rx="4.8" ry="4.8"></ellipse>
	<ellipse opacity="0.8" enable-background="new    " cx="63.9" cy="112.9" rx="4.8" ry="4.8"></ellipse>
	<ellipse opacity="0.8" enable-background="new    " cx="67.4" cy="125.7" rx="4.8" ry="4.8"></ellipse>
	
		<ellipse transform="matrix(0.866 -0.5 0.5 0.866 -58.2722 55.6368)" opacity="0.8" enable-background="new    " cx="74.7" cy="136.6" rx="4.8" ry="4.8"></ellipse>
	
		<ellipse transform="matrix(0.6802 -0.7331 0.7331 0.6802 -79.1577 108.5116)" opacity="0.8" enable-background="new    " cx="84.8" cy="145" rx="4.8" ry="4.8"></ellipse>
	
		<ellipse transform="matrix(0.4339 -0.901 0.901 0.4339 -80.4072 172.2246)" opacity="0.8" enable-background="new    " cx="96.8" cy="150.1" rx="4.8" ry="4.8"></ellipse>
	
		<ellipse transform="matrix(0.149 -0.9888 0.9888 0.149 -56.0368 237.4441)" opacity="0.8" enable-background="new    " cx="109.9" cy="151.3" rx="4.8" ry="4.8"></ellipse>
	
		<ellipse transform="matrix(0.9888 -0.1491 0.1491 0.9888 -20.7889 19.97)" opacity="0.8" enable-background="new    " cx="122.8" cy="148.6" rx="4.8" ry="4.8"></ellipse>
	<ellipse opacity="0.8" enable-background="new    " cx="134.4" cy="142.3" rx="4.8" ry="4.8"></ellipse>
	
		<ellipse transform="matrix(0.733 -0.6802 0.6802 0.733 -52.0752 133.1279)" opacity="0.8" enable-background="new    " cx="143.6" cy="132.9" rx="4.8" ry="4.8"></ellipse>
	
		<ellipse transform="matrix(0.5 -0.866 0.866 0.5 -30.2623 190.0132)" opacity="0.8" enable-background="new    " cx="149.4" cy="121.2" rx="4.8" ry="4.8"></ellipse>
	
		<ellipse transform="matrix(0.2225 -0.9749 0.9749 0.2225 12.4121 232.0994)" opacity="0.8" enable-background="new    " cx="151.7" cy="108.3" rx="4.8" ry="4.8"></ellipse>
	
		<ellipse transform="matrix(0.9972 -7.474228e-02 7.474228e-02 0.9972 -6.698 11.477)" opacity="0.8" enable-background="new    " cx="150" cy="95.2" rx="4.8" ry="4.8"></ellipse>
	
		<ellipse transform="matrix(0.9309 -0.3654 0.3654 0.9309 -20.4016 58.5554)" opacity="0.8" enable-background="new    " cx="144.5" cy="83.2" rx="4.8" ry="4.8"></ellipse>
	
		<ellipse transform="matrix(0.8716 -0.4902 0.4902 0.8716 -18.5256 75.9909)" opacity="0.8" enable-background="new    " cx="135.8" cy="73.4" rx="4.8" ry="4.8"></ellipse>
	<ellipse opacity="0.8" enable-background="new    " cx="124.6" cy="66.6" rx="4.8" ry="4.8"></ellipse>
	<ellipse opacity="0.8" enable-background="new    " cx="111.8" cy="63.4" rx="4.8" ry="4.8"></ellipse>
	<g opacity="0.7">
		<ellipse transform="matrix(0.9309 -0.3654 0.3654 0.9309 -18.4498 64.0355)" cx="160" cy="80.8" rx="4.8" ry="4.8"></ellipse>
		<ellipse transform="matrix(0.8262 -0.5633 0.5633 0.8262 -12.7568 98.0854)" cx="152.6" cy="69.7" rx="4.8" ry="4.8"></ellipse>
		<ellipse transform="matrix(0.6802 -0.7331 0.7331 0.6802 1.277 124.3745)" cx="143.2" cy="60.7" rx="4.8" ry="4.8"></ellipse>
		<ellipse cx="131.8" cy="54" rx="4.8" ry="4.8"></ellipse>
		<ellipse cx="119.3" cy="49.9" rx="4.8" ry="4.8"></ellipse>
		<ellipse cx="106.1" cy="48.7" rx="4.8" ry="4.8"></ellipse>
		<ellipse cx="93.2" cy="50.5" rx="4.8" ry="4.8"></ellipse>
		<ellipse cx="80.9" cy="55.1" rx="4.8" ry="4.8"></ellipse>
		<ellipse cx="69.9" cy="62.4" rx="4.8" ry="4.8"></ellipse>
		<ellipse cx="60.8" cy="71.9" rx="4.8" ry="4.8"></ellipse>
		<ellipse cx="54.1" cy="83.3" rx="4.8" ry="4.8"></ellipse>
		<ellipse cx="50" cy="95.8" rx="4.8" ry="4.8"></ellipse>
		<ellipse cx="48.8" cy="108.9" rx="4.8" ry="4.8"></ellipse>
		<ellipse cx="50.7" cy="121.9" rx="4.8" ry="4.8"></ellipse>
		<ellipse transform="matrix(0.9309 -0.3653 0.3653 0.9309 -45.1941 29.4906)" cx="55.3" cy="134.2" rx="4.8" ry="4.8"></ellipse>
		<ellipse transform="matrix(0.8262 -0.5633 0.5633 0.8262 -70.9225 60.4217)" cx="62.5" cy="145.2" rx="4.8" ry="4.8"></ellipse>
		<ellipse transform="matrix(0.6802 -0.7331 0.7331 0.6802 -90.0589 102.1665)" cx="72.1" cy="154.3" rx="4.8" ry="4.8"></ellipse>
		<ellipse transform="matrix(0.5 -0.866 0.866 0.5 -97.7369 152.6913)" cx="83.4" cy="161" rx="4.8" ry="4.8"></ellipse>
		<ellipse transform="matrix(0.2948 -0.9556 0.9556 0.2948 -90.1184 208.0659)" cx="95.9" cy="165.1" rx="4.8" ry="4.8"></ellipse>
		
			<ellipse transform="matrix(7.473197e-02 -0.9972 0.9972 7.473197e-02 -64.8767 262.4193)" cx="109" cy="166.2" rx="4.8" ry="4.8"></ellipse>
		<ellipse transform="matrix(0.9888 -0.149 0.149 0.9888 -23.144 20.0276)" cx="122.1" cy="164.5" rx="4.8" ry="4.8"></ellipse>
		<ellipse cx="134.4" cy="159.8" rx="4.8" ry="4.8"></ellipse>
		<ellipse cx="145.4" cy="152.5" rx="4.8" ry="4.8"></ellipse>
		<ellipse cx="154.4" cy="143.1" rx="4.8" ry="4.8"></ellipse>
		<ellipse cx="161.1" cy="131.7" rx="4.8" ry="4.8"></ellipse>
		<ellipse transform="matrix(0.2948 -0.9556 0.9556 0.2948 2.5667 241.9389)" cx="165.2" cy="119.2" rx="4.8" ry="4.8"></ellipse>
		<ellipse transform="matrix(7.473686e-02 -0.9972 0.9972 7.473686e-02 48.14 263.917)" cx="166.3" cy="106" rx="4.8" ry="4.8"></ellipse>
		<ellipse transform="matrix(0.9888 -0.149 0.149 0.9888 -12.0183 25.5565)" cx="164.5" cy="93" rx="4.8" ry="4.8"></ellipse>
	</g>
	
		<ellipse transform="matrix(0.9309 -0.3654 0.3654 0.9309 -14.1119 67.0906)" opacity="0.6" enable-background="new    " cx="170.2" cy="70.8" rx="4.8" ry="4.8"></ellipse>
	
		<ellipse transform="matrix(0.858 -0.5136 0.5136 0.858 -8.1475 92.5513)" opacity="0.6" enable-background="new    " cx="163.3" cy="61" rx="4.8" ry="4.8"></ellipse>
	
		<ellipse transform="matrix(0.7618 -0.6478 0.6478 0.7618 2.9085 112.8615)" opacity="0.6" enable-background="new    " cx="154.9" cy="52.5" rx="4.8" ry="4.8"></ellipse>
	
		<ellipse transform="matrix(0.6448 -0.7644 0.7644 0.6448 16.9122 127.0744)" opacity="0.6" enable-background="new    " cx="145.2" cy="45.3" rx="4.8" ry="4.8"></ellipse>
	<ellipse opacity="0.6" enable-background="new    " cx="134.5" cy="40" rx="4.8" ry="4.8"></ellipse>
	<ellipse opacity="0.6" enable-background="new    " cx="123" cy="36.5" rx="4.8" ry="4.8"></ellipse>
	<ellipse opacity="0.6" enable-background="new    " cx="111.2" cy="35" rx="4.8" ry="4.8"></ellipse>
	<ellipse opacity="0.6" enable-background="new    " cx="99.2" cy="35.3" rx="4.8" ry="4.8"></ellipse>
	<ellipse opacity="0.6" enable-background="new    " cx="87.5" cy="37.7" rx="4.8" ry="4.8"></ellipse>
	<ellipse opacity="0.6" enable-background="new    " cx="76.2" cy="42" rx="4.8" ry="4.8"></ellipse>
	<ellipse opacity="0.6" enable-background="new    " cx="65.9" cy="48" rx="4.8" ry="4.8"></ellipse>
	<ellipse opacity="0.6" enable-background="new    " cx="56.8" cy="55.7" rx="4.8" ry="4.8"></ellipse>
	<ellipse opacity="0.6" enable-background="new    " cx="48.9" cy="64.8" rx="4.8" ry="4.8"></ellipse>
	<ellipse opacity="0.6" enable-background="new    " cx="42.7" cy="75" rx="4.8" ry="4.8"></ellipse>
	<ellipse opacity="0.6" enable-background="new    " cx="38.2" cy="86.1" rx="4.8" ry="4.8"></ellipse>
	<ellipse opacity="0.6" enable-background="new    " cx="35.8" cy="97.8" rx="4.8" ry="4.8"></ellipse>
	<ellipse opacity="0.6" enable-background="new    " cx="35.1" cy="109.8" rx="4.8" ry="4.8"></ellipse>
	<ellipse opacity="0.6" enable-background="new    " cx="36.6" cy="121.7" rx="4.8" ry="4.8"></ellipse>
	
		<ellipse transform="matrix(0.9783 -0.2072 0.2072 0.9783 -26.739 11.1402)" opacity="0.6" enable-background="new    " cx="39.8" cy="133.2" rx="4.8" ry="4.8"></ellipse>
	
		<ellipse transform="matrix(0.9309 -0.3654 0.3654 0.9309 -49.5118 26.4011)" opacity="0.6" enable-background="new    " cx="45" cy="144" rx="4.8" ry="4.8"></ellipse>
	
		<ellipse transform="matrix(0.858 -0.5136 0.5136 0.858 -71.6475 48.4804)" opacity="0.6" enable-background="new    " cx="51.9" cy="153.8" rx="4.8" ry="4.8"></ellipse>
	
		<ellipse transform="matrix(0.7618 -0.6478 0.6478 0.7618 -90.8373 77.7353)" opacity="0.6" enable-background="new    " cx="60.3" cy="162.4" rx="4.8" ry="4.8"></ellipse>
	
		<ellipse transform="matrix(0.6448 -0.7644 0.7644 0.6448 -104.6502 113.6616)" opacity="0.6" enable-background="new    " cx="70" cy="169.4" rx="4.8" ry="4.8"></ellipse>
	
		<ellipse transform="matrix(0.5102 -0.8601 0.8601 0.5102 -110.7219 154.9887)" opacity="0.6" enable-background="new    " cx="80.7" cy="174.7" rx="4.8" ry="4.8"></ellipse>
	
		<ellipse transform="matrix(0.3617 -0.9323 0.9323 0.3617 -107.4446 199.6915)" opacity="0.6" enable-background="new    " cx="92.1" cy="178.3" rx="4.8" ry="4.8"></ellipse>
	
		<ellipse transform="matrix(0.2033 -0.9791 0.9791 0.2033 -93.2615 245.077)" opacity="0.6" enable-background="new    " cx="104" cy="179.8" rx="4.8" ry="4.8"></ellipse>
	
		<ellipse transform="matrix(3.933964e-02 -0.9992 0.9992 3.933964e-02 -67.7415 288.2814)" opacity="0.6" enable-background="new    " cx="116.1" cy="179.4" rx="4.8" ry="4.8"></ellipse>
	
		<ellipse transform="matrix(0.9921 -0.1257 0.1257 0.9921 -21.2477 17.4581)" opacity="0.6" enable-background="new    " cx="127.7" cy="177.1" rx="4.8" ry="4.8"></ellipse>
	<ellipse opacity="0.6" enable-background="new    " cx="138.9" cy="172.8" rx="4.8" ry="4.8"></ellipse>
	<ellipse opacity="0.6" enable-background="new    " cx="149.3" cy="166.7" rx="4.8" ry="4.8"></ellipse>
	<ellipse opacity="0.6" enable-background="new    " cx="158.5" cy="159" rx="4.8" ry="4.8"></ellipse>
	<ellipse opacity="0.6" enable-background="new    " cx="166.3" cy="150.1" rx="4.8" ry="4.8"></ellipse>
	<ellipse opacity="0.6" enable-background="new    " cx="172.6" cy="139.7" rx="4.8" ry="4.8"></ellipse>
	
		<ellipse transform="matrix(0.4374 -0.8993 0.8993 0.4374 -16.1646 231.4503)" opacity="0.6" enable-background="new    " cx="176.9" cy="128.6" rx="4.8" ry="4.8"></ellipse>
	
		<ellipse transform="matrix(0.2834 -0.959 0.959 0.2834 16.4215 255.9761)" opacity="0.6" enable-background="new    " cx="179.5" cy="117" rx="4.8" ry="4.8"></ellipse>
	
		<ellipse transform="matrix(0.1217 -0.9926 0.9926 0.1217 54.0894 270.9806)" opacity="0.6" enable-background="new    " cx="180.2" cy="104.9" rx="4.8" ry="4.8"></ellipse>
	
		<ellipse transform="matrix(0.9991 -4.331260e-02 4.331260e-02 0.9991 -3.8659 7.8289)" opacity="0.6" enable-background="new    " cx="178.7" cy="93.1" rx="4.8" ry="4.8"></ellipse>
	
		<ellipse transform="matrix(0.9783 -0.2072 0.2072 0.9783 -13.106 38.1095)" opacity="0.6" enable-background="new    " cx="175.4" cy="81.6" rx="4.8" ry="4.8"></ellipse>
	<g opacity="0.5">
		<ellipse transform="matrix(0.8952 -0.4457 0.4457 0.8952 -11.4382 90.2448)" cx="186.2" cy="69.4" rx="4.8" ry="4.8"></ellipse>
		<ellipse transform="matrix(0.8096 -0.587 0.587 0.8096 0.5744 115.8696)" cx="178.9" cy="57" rx="4.8" ry="4.8"></ellipse>
		<ellipse transform="matrix(0.7071 -0.7071 0.7071 0.7071 17.1655 133.3976)" cx="169.6" cy="46" rx="4.8" ry="4.8"></ellipse>
		<ellipse transform="matrix(0.5753 -0.818 0.818 0.5753 37.4513 145.3068)" cx="158.6" cy="36.6" rx="4.8" ry="4.8"></ellipse>
		<ellipse transform="matrix(0.4329 -0.9015 0.9015 0.4329 56.6824 148.4262)" cx="146.3" cy="29.2" rx="4.8" ry="4.8"></ellipse>
		<ellipse transform="matrix(0.4288 -0.9034 0.9034 0.4288 54.2612 133.673)" cx="132.8" cy="23.9" rx="4.8" ry="4.8"></ellipse>
		<ellipse cx="118.9" cy="20.9" rx="4.8" ry="4.8"></ellipse>
		<ellipse cx="104.4" cy="20.2" rx="4.8" ry="4.8"></ellipse>
		<ellipse cx="90.1" cy="21.9" rx="4.8" ry="4.8"></ellipse>
		<ellipse cx="76.4" cy="25.9" rx="4.8" ry="4.8"></ellipse>
		<ellipse cx="63.4" cy="32.3" rx="4.8" ry="4.8"></ellipse>
		<ellipse cx="51.6" cy="40.6" rx="4.8" ry="4.8"></ellipse>
		<ellipse cx="41.3" cy="50.7" rx="4.8" ry="4.8"></ellipse>
		<ellipse cx="32.9" cy="62.3" rx="4.8" ry="4.8"></ellipse>
		<ellipse cx="26.5" cy="75.3" rx="4.8" ry="4.8"></ellipse>
		<ellipse cx="22.4" cy="89.1" rx="4.8" ry="4.8"></ellipse>
		<ellipse cx="20.5" cy="103.3" rx="4.8" ry="4.8"></ellipse>
		<ellipse cx="21" cy="117.6" rx="4.8" ry="4.8"></ellipse>
		<ellipse transform="matrix(0.9567 -0.2912 0.2912 0.9567 -37.3569 12.6526)" cx="23.8" cy="131.8" rx="4.8" ry="4.8"></ellipse>
		<ellipse transform="matrix(0.8957 -0.4447 0.4447 0.8957 -61.573 28.0666)" cx="29" cy="145.3" rx="4.8" ry="4.8"></ellipse>
		<ellipse transform="matrix(0.8103 -0.586 0.586 0.8103 -85.4851 51.1629)" cx="36.3" cy="157.6" rx="4.8" ry="4.8"></ellipse>
		<ellipse transform="matrix(0.7071 -0.7071 0.7071 0.7071 -105.9495 81.6204)" cx="45.5" cy="168.7" rx="4.8" ry="4.8"></ellipse>
		<ellipse transform="matrix(0.5763 -0.8173 0.8173 0.5763 -121.5959 121.6453)" cx="56.5" cy="178.1" rx="4.8" ry="4.8"></ellipse>
		<ellipse transform="matrix(0.434 -0.9009 0.9009 0.434 -128.1931 167.0038)" cx="68.8" cy="185.5" rx="4.8" ry="4.8"></ellipse>
		<ellipse transform="matrix(0.2798 -0.9601 0.9601 0.2798 -124.0599 216.3979)" cx="82.2" cy="190.9" rx="4.8" ry="4.8"></ellipse>
		<ellipse transform="matrix(0.118 -0.993 0.993 0.118 -107.5406 266.6264)" cx="96.3" cy="193.9" rx="4.8" ry="4.8"></ellipse>
		<ellipse transform="matrix(0.9989 -4.694937e-02 4.694937e-02 0.9989 -9.0153 5.4072)" cx="110.6" cy="194.6" rx="4.8" ry="4.8"></ellipse>
		<ellipse transform="matrix(0.9776 -0.2107 0.2107 0.9776 -37.82 30.6431)" cx="124.9" cy="192.8" rx="4.8" ry="4.8"></ellipse>
		<ellipse cx="138.8" cy="188.9" rx="4.8" ry="4.8"></ellipse>
		<ellipse cx="151.8" cy="182.6" rx="4.8" ry="4.8"></ellipse>
		<ellipse cx="163.6" cy="174.3" rx="4.8" ry="4.8"></ellipse>
		<ellipse cx="173.8" cy="164.2" rx="4.8" ry="4.8"></ellipse>
		<ellipse cx="182.3" cy="152.6" rx="4.8" ry="4.8"></ellipse>
		<ellipse cx="188.7" cy="139.6" rx="4.8" ry="4.8"></ellipse>
		<ellipse transform="matrix(0.2002 -0.9798 0.9798 0.2002 31.0141 289.65)" cx="192.9" cy="125.8" rx="4.8" ry="4.8"></ellipse>
		
			<ellipse transform="matrix(3.627913e-02 -0.9993 0.9993 3.627913e-02 76.1396 302.1935)" cx="194.8" cy="111.6" rx="4.8" ry="4.8"></ellipse>
		<ellipse transform="matrix(0.9917 -0.1286 0.1286 0.9917 -10.8857 25.7914)" cx="194.3" cy="97.2" rx="4.8" ry="4.8"></ellipse>
		<ellipse transform="matrix(0.957 -0.2901 0.2901 0.957 -15.8586 59.0751)" cx="191.3" cy="83" rx="4.8" ry="4.8"></ellipse>
	</g>
	<ellipse opacity="0.4" enable-background="new    " cx="7.4" cy="95.7" rx="4.8" ry="4.8"></ellipse>
	<ellipse opacity="0.3" enable-background="new    " cx="6.9" cy="112.3" rx="4.8" ry="4.8"></ellipse>
	<ellipse opacity="0.3" enable-background="new    " cx="9.1" cy="128.9" rx="4.8" ry="4.8"></ellipse>
	
		<ellipse transform="matrix(0.8957 -0.4447 0.4447 0.8957 -62.9751 21.2932)" opacity="0.3" enable-background="new    " cx="13.9" cy="144.9" rx="4.8" ry="4.8"></ellipse>
	
		<ellipse transform="matrix(0.8103 -0.586 0.586 0.8103 -89.5039 42.8441)" opacity="0.3" enable-background="new    " cx="21.4" cy="159.7" rx="4.8" ry="4.8"></ellipse>
	
		<ellipse transform="matrix(0.7071 -0.7071 0.7071 0.7071 -113.3795 72.7377)" opacity="0.3" enable-background="new    " cx="31.1" cy="173.2" rx="4.8" ry="4.8"></ellipse>
	
		<ellipse transform="matrix(0.5763 -0.8173 0.8173 0.5763 -132.8798 113.5993)" opacity="0.3" enable-background="new    " cx="43.1" cy="184.9" rx="4.8" ry="4.8"></ellipse>
	
		<ellipse transform="matrix(0.434 -0.9009 0.9009 0.434 -143.0194 161.1711)" opacity="0.3" enable-background="new    " cx="56.8" cy="194.4" rx="4.8" ry="4.8"></ellipse>
	
		<ellipse transform="matrix(0.2798 -0.9601 0.9601 0.2798 -141.8571 214.0642)" opacity="0.3" enable-background="new    " cx="71.7" cy="201.6" rx="4.8" ry="4.8"></ellipse>
	
		<ellipse transform="matrix(0.118 -0.993 0.993 0.118 -127.3997 269.01)" opacity="0.3" enable-background="new    " cx="87.7" cy="206.2" rx="4.8" ry="4.8"></ellipse>
	
		<ellipse transform="matrix(0.9989 -4.694963e-02 4.694963e-02 0.9989 -9.6606 5.1261)" opacity="0.3" enable-background="new    " cx="104.3" cy="208.2" rx="4.8" ry="4.8"></ellipse>
	
		<ellipse transform="matrix(0.9776 -0.2107 0.2107 0.9776 -40.9735 30.1468)" opacity="0.3" enable-background="new    " cx="121" cy="207.4" rx="4.8" ry="4.8"></ellipse>
	<ellipse opacity="0.3" enable-background="new    " cx="137.2" cy="203.7" rx="4.8" ry="4.8"></ellipse>
	<ellipse opacity="0.3" enable-background="new    " cx="152.6" cy="197.6" rx="4.8" ry="4.8"></ellipse>
	<ellipse opacity="0.3" enable-background="new    " cx="167" cy="189" rx="4.8" ry="4.8"></ellipse>
	<ellipse opacity="0.3" enable-background="new    " cx="179.5" cy="178" rx="4.8" ry="4.8"></ellipse>
	<ellipse opacity="0.3" enable-background="new    " cx="190.2" cy="165.3" rx="4.8" ry="4.8"></ellipse>
	<ellipse opacity="0.3" enable-background="new    " cx="198.6" cy="150.9" rx="4.8" ry="4.8"></ellipse>
	<ellipse opacity="0.3" enable-background="new    " cx="204.5" cy="135.3" rx="4.8" ry="4.8"></ellipse>
	
		<ellipse transform="matrix(3.627899e-02 -0.9993 0.9993 3.627899e-02 81.4142 322.3712)" opacity="0.3" enable-background="new    " cx="207.9" cy="119" rx="4.8" ry="4.8"></ellipse>
	
		<ellipse transform="matrix(0.9917 -0.1286 0.1286 0.9917 -11.4351 27.6554)" opacity="0.4" enable-background="new    " cx="208.4" cy="102.4" rx="4.8" ry="4.8"></ellipse>
	<g opacity="0.4">
		<ellipse transform="matrix(0.8952 -0.4457 0.4457 0.8952 -9.9652 97.0216)" cx="201.3" cy="69.7" rx="4.8" ry="4.8"></ellipse>
		<ellipse transform="matrix(0.8096 -0.587 0.587 0.8096 4.6933 124.1777)" cx="193.8" cy="54.9" rx="4.8" ry="4.8"></ellipse>
		<ellipse transform="matrix(0.7071 -0.7071 0.7071 0.7071 24.6045 142.1996)" cx="184" cy="41.4" rx="4.8" ry="4.8"></ellipse>
		<ellipse transform="matrix(0.5753 -0.818 0.818 0.5753 48.7366 153.4038)" cx="172.1" cy="29.8" rx="4.8" ry="4.8"></ellipse>
		<ellipse transform="matrix(0.4329 -0.9015 0.9015 0.4329 71.6711 154.1646)" cx="158.4" cy="20.1" rx="4.8" ry="4.8"></ellipse>
		<ellipse transform="matrix(0.2786 -0.9604 0.9604 0.2786 90.9782 146.9877)" cx="143.3" cy="12.9" rx="4.8" ry="4.8"></ellipse>
		<ellipse cx="127.3" cy="8.3" rx="4.8" ry="4.8"></ellipse>
		<ellipse cx="110.9" cy="6.5" rx="4.8" ry="4.8"></ellipse>
		<ellipse cx="94.2" cy="7.3" rx="4.8" ry="4.8"></ellipse>
		<ellipse cx="77.9" cy="10.8" rx="4.8" ry="4.8"></ellipse>
		<ellipse cx="62.4" cy="17.2" rx="4.8" ry="4.8"></ellipse>
		<ellipse cx="48.2" cy="25.7" rx="4.8" ry="4.8"></ellipse>
		<ellipse cx="35.6" cy="36.6" rx="4.8" ry="4.8"></ellipse>
		<ellipse cx="24.9" cy="49.4" rx="4.8" ry="4.8"></ellipse>
		<ellipse cx="16.5" cy="63.9" rx="4.8" ry="4.8"></ellipse>
		<ellipse cx="10.6" cy="79.4" rx="4.8" ry="4.8"></ellipse>
		<ellipse transform="matrix(0.957 -0.2901 0.2901 0.957 -16.029 63.5079)" cx="206.2" cy="85.8" rx="4.8" ry="4.8"></ellipse>
	</g>
</g>
</svg>