<svg xmlns="http://www.w3.org/2000/svg" viewBox="0 0 392.723 400" style="fill: #9A9393; height:90px; width:88px; " role="img"><path d="M275.535,254.759l.116-.433-.068-.737.363-.377.2-.635.234.433.054.676.316.8.265.246.042.041.372,1.03-.048.193-.263.119-.137.01-.163-.165-.115-.348-.2.082-.339-.415-.336-.02Zm2.2,8.755.1.062.262-.064.246-.318.3-.054.356-.839.046-.382-.079.069-.216.324-.631.492-.272.335-.28.173Zm.181-12.464.167.111.2.069.226-.239.278-.672.029-.486-.016-.731.074-.23-.029-.243-.409.188-.522-.087.135.9-.264,1.234ZM138.247,54.74l-.859.024-.055.179-.058.634.17.117h.135l.353.166.124-.017.235-.148.128-.025.172-.13.216-.212-.019-.108-.077-.1Zm1.729-4.695.015-.265-.127-.1-.5.415-.143.344ZM24.248,188.155l-.345-.145-1.162.074-.472.248,1.673.468.324.311.07-.126.124-.479-.058-.23Zm264.081-45.361-.194.066.124.338.465.469.325.153.522-.09.149.137.029.126.094.118.146.12.046-.128.016-.557-.537-.471-.163.227.033.079.155.158-.376-.028-.2-.165.077-.147-.042-.137-.029-.647-.149-.284-.276-.045.119.277-.13.268Zm-25.8-44.416.126.224.932.349.2.173.2.256.341.349h.128l.258-.163-.147-.056-.859-.687-.772-.315-.168-.132-.1-.223Zm.205-.86-.013.4.205.181.046-.069v-.114l-.076-.313.014-.311Zm108.048,27.1-.713.8v.638l.088.035.306-.076.244-.242.305-.79.562-.465-.322-.828ZM120.3,203.073l-.422.64.308.036.471-.147.132-.334-.275-.057Zm-114.964-74,.312-.488.145-.8-.242.085-.13.238-.276.46.053.321ZM319.063,77.391l.181.285.187.05.277-.118.316-.372.034-.134,0-.331-.586-.813-.209-.225-.127.1-.1.333-.091.055-.032.085.006.113-.162.264Zm-34.28,157.373-.533.354-.093.277.181-.043.6-.281.09-.073.012-.074-.041-.08ZM7.354,167.3l-.635.048.025.151.218.357.312.065.252-.6Zm-.319,3.365-.084.037-.191.119L6.606,171l-.091,0-.2.081.027.094.177.243.389-.073.205-.12.095-.164-.071-.389Zm.9-1.306-.066-.6-.239-.045-.266.347-.019.245.126.137.236.072Zm.9.8-.181.161-.122.363.06.06.205.038v-.2l.185-.091.1-.115.043-.14-.066-.05Zm-.932.686-.138-.153-.043.063-.083.413.063.04-.065.137.286.021.045-.135-.046-.322Zm1.407-1.819.276.1.045-.113.133-.083.2-.067.009-.316-.263.071ZM127.76,208.983l.14-.462.748-1.1.022-.376-.2-.255-.727.018-.12-.019-.291.108-.185.324-.073.43-.221.471-.134.072-.413.082-.063.133-.085.438.052.188.146.139.862.23.251-.032Zm151.863-60.219-.371-.2.134.414.583.107.489-.036.529.1.458-.013.045-.243-.768-.368-.078.186-.11.088-.141.025-.2-.263-.043-.49-.173-.214-.263-.183-.417-.069.212.3-.1.106-.166.087-.026.221.371.056.263.28-.034.053Zm.255-2.113-.137-.109-.044.116-.209.19.079.1.475.183ZM330.73,97.405l.15.138.157-.394.049-.616-.037-.633-.252-.382.136-.219-.106-.03-.457.091-.086.2.181.685-.115.48Zm9.908,7.622-.007.088.086.276.082-.037.2-.226-.137-.226Zm8.721-.78-.214.171.111.145.344.091.137.009.043-.1-.189-.145-.137-.18Zm-5.083.835-.688.26.327.2.36-.029.244-.115.128-.138.177-.324-.16-.2-.2.239Zm2.435.424-.7.247-.268.21.395.125.405.05.132-.09.494.05v-.173l-.166-.194Zm45.653-14.137.093.618-.043.075-.27.141-.087.893-.05.082-.315.091-1.488-.06-.171.024-.559.237-.958.169-.263.095L387.9,94l-.255.329-.049.3-.05.063-.551-.062-.179.263-1.065.393-.133.085-.158.314-.142.877-.128.788-.081.115-.335.269-.034.092.047.3-.152.556-.12,1.539-.134.431-.266.035-.208.216-.379.265-.822-.2-.653-.216-2.161-.506-.236-.245-.135-.432-.374-.121-.535.647-1.825-.374-.62.115-.382-.2-.983-.011-.777-.4-1.112.278-.88.053-1.206-.708-1.3-.2-1.052.06-.541-.055-.877-.254-.417-.262-.682.2-.309-.372-1.933-.343-.358-.658-.269-.612-.02-.629-.472-1.1-.157-1.6-.175-.626-.261-.545-.349-.463-.473-.5-.412-.2-1.808-.378-.348.05-.808.248-.86.549-1.412.312-.285.236-.355.531-.459.309-.631-.08-.678.314-1.258.875-.663.268-.555-.02-.6-.416-1.336-.558-.864-.185-1.2.128-.568-.093-.965-.655-.253-.476-.551-.318-1.744-.715-1.414-.945-.259-.357-.173-.529-.616-.642-1.379-.527-.783-.559-.917-.124-.853.017-.376-.1-.342-.239L334.3,85.457,334.286,85l-.718-1.133-.168-.4-.154-1.123-.2-.294-.749-.463-.116-.3.159-.4v-.307l-.39-.288-.584-.154-.142-.345.107-.673-.09-.423-.515-.675-.761-.692-.761-1.025-.3-.256-.194-.672-.279-.8-.43-.057-2.08.956-.606-.538L323.492,74l-.127-.141-.127-.215.229-.124.229-.05.457.166.277-.2-.111-.317-.457-.2-.624.016.171.3-.585.282-.124.37.085.457.051.639-.238.31-.184.142-.784.038-.366.282-.238.068-.449.126-.484-.1-1.034-.446-.335-.012-.438.169-.019.151-.024.195.155.583.348.636.286.515.036.241-.263-.035-.2-.1-.383-.1-.739.682-.448.372-.013.126.6.145.438,0,.305-.1.259.159.169.421.069.341.405,1.218.335.411.42.725.155.376.09.316.256.465.273.494.119.491.5,1.166.716.908.172.33.115.5-.124.185-.049.214.531.5.877.42.343.106.389.185-.3.288.517.662.6.674.644.152.868,1.02,1.31.66.8.863-.073.015-.234-.087-.292-.118-.089.107.016.362.077.425.406.368.36.264.14.5-.283,1.076h-.1l-.191-.093-.2-.021-.108.061.24.774.239.593.289.469.24.686.2.293.845.729.259.609.24,1.133.529.631.285.486.383.412.173.391-.173-.391.154-.314.052-.2-.337-1.485-.111-1.143.041-.235.193-.27.32-.6.171-.575.483-1.33.51-.512.749-.376.616.735.748.562.142.627-.221.511-.2.812.12.373.046.323.2.542.2.7.034.49-.107.452-.26.38-.513,1.144-.152.119-.624.195.342.22.353-.034.035.2-.235.277-.292.7.415.11.4.055.282.112h.163v.145l.018.664-.018-.664v-.145l.18-.268.086.192.2.26.341-.064.16.043.117.92.25.327.305.131,1.033.073.642-.124,1.266-.6.665-.216,1.837.038,1.473.25,2.293.149.445-.039,1.237-.482.76-.426.45-.123.3-.41.2-.535.174-.351.223-.167.212-.3.169-.484.426-.488,1.707-1.189,1-1,.088-.324.543-.488.435-.534,2.032-1.527.408-.631.24-.707.028-.05.408-.748.16-.114.151.048.375-.08.2-.406.156-.221.167.027.081.124-.058.616-.007.515-.208,1.573-.215.271-.107.22-.046.3.319.419.046,2.839.073.2.495,1.351.732,1.262.649.7.672.945,1.023.867.47.3,1.9.609,1.039.228,1.434.217.992.474.333.029.519-.14.379.011.948.645.278.611.4.323.349.507.225.531.8.808.565.909.575.674.514.418.78.165.62.188.069.45-.064.586-.118.432-.579.843-.138.519-.655.857-.71,1.434-.326.321-1.145.74-.84.89-1,1.542-.758,1.528-.292.488-.609.1-.4-.043-.277-.144.11-.417.065-.465-.367.049-.324.1-.756,1.142-.415.5-.088.636-.2.82-.3.754-.131.633,0,.359.222.876.015.9.128.538.1.646-.355.2-.305.1-1.2.071-1.221.206-1.065.373-.638.372-.83.831-.507,2.1-.813.888-.549.185-1.325.078-1.864.245-.655.213-1.087,1.284-.083.4.21.291.068.322-.1.3-.493.812-.532.589-1.42.37-.521-.22-.476-.111-.921-.012-1.5.14-.553.435-.87.309-.8.476-1.516.181-1.03.372-.3-.655-.295-.654-.294-.655-.295-.655-.206-.459-.347-.161-.21-.486-.215-.5-.215-.5-.215-.5-.215-.5-.216-.5-.215-.5-.214-.5-.216-.5-.215-.5-.215-.5-.214-.5-.216-.5-.215-.5-.215-.5-.215-.5-.215-.5.685-.235.835-.287.836-.287.836-.287.836-.287-.836.287-.836.287-.836.287-.835.287-.685.235-1.14.159-1.108.153-1.246.173-1.5.208-1.175.162-1.714.238-1.537.213-1.442.2-1.443.2-1.228.17-.73.2-.861.432-1.321.664-1.346.675-.7.35-.731.9-.37.454-.669.821-.506.618-.6.74-.263.658-.406,1.015-.351.256-.575.33-.523.235-.815-.033-.465-.624-.493-.662-.247-.266-.222-.015-.819.084-.987.1L309,140.841l-1.343-.126L306.4,140.6l-.626-.088-.826-.43-.213-.086-.217-.02-.979-.011-.97-.01-.973.136-.932-.05-.966.079-.34.164-.378-.01-.235.145-.207.068-.246-.124-.3.027-.443-.106-.29-.281-.273-.246-.282-.136-.315-.086h-.274l-.349.15-.213.146-.541.484-.022.173.246.29-.076.135-.318.17-.1.458-.047.251-.047.6.141.472.189.174.009.2-.1.405-.293.126-.214.384-.132.18-.23.205-.908.681-.046-.4-.288-.586-.021-.415-.133-.415-.25-.319-.459-.334-.043-.452-.336-.449-.445-.361-.247-.666-.187-.887-1.174-1.167-1.469-1.079-.447-.607-.73-1.24-.369-.98-.982-1.13-.042-.433-.146-.531-.227-.589-.137-.466-.984-2.044-.318-.327-.274-.457-.07-.354-.087-.194-.7-.335-.649-.86-1.951-1.37-.955-.137-.757-.489-.557-.641-.595-1.105-1.045-1.2-.887-1.7.278-.619-.018-.436-.272-.734-.3-.566-.2-.536.162-.769.062-.862.175-.458.126-.5-.165-1.013-.294-.544.029-.361-.334-.176-.271-.393h.283l-.513-.545-.188-.3-.193-.743-.248-.567-.8-1.288-.379-.786-.852-1.018-.924-.753-.587-.341-.282-.311-.48-.011-.522-.445-.366-.017-.462-.071-.545-.859-.449-.8-.765-1.049.192-.274.223-.446-.111-.583-.122-.4-.338-.723L264.548,98.4l-.294-.265-.474-.3-.292-.782-.133-.7L262.6,96l-1.308-2.538-.757-.888-.3-.6-.877-.984-.43-.981-.883-.9-.765-1.573-1.182-1.573-.5-.273-1.218-.113-.512-.115-.472.346-.042-.439.325-.606.47-1.275.093-1.119.737-3.331.153-.691-.043-.372-.336.409-.271.239-.545.852-.579,2.7-.829,2.1-.094,1.314-.133.473-.395.664-.478.651-.85-.337L249.194,85.9l-.807-1.088-.864-.7-.818-.932-.223-.673.009-.431-.358-1.054-.264-.5-1-1.123-.286-.6-.218-.264-.22-.379-.361-1.461-.4-.929-.45.257.08.391-.393.54-.237.627.182.512.815.778.165.339.19.737-.03,1,.131.339.61.742.219.44.131.379.2.343.6.645.871,1.226.827.826.595.4.254.4.057,1.028-.044.491.523.921.193.466.508.381.231.433.212.7.321,2.08.44.51,1.359,2.726L253.1,98.14l.555,1.282.845,1.56,1.656,3.416.986,1.051.392.591.714.454.773.657-.738-.065-.185.04-.258.112-.124.4-.053.325.09,1.72.2.874.649,1.656.483.5.236.321.328.234,1.537.564.9,1.192,2.016,1.5.2.415,0,.1.055,1.155.215.922.749,1.317.634.709.228.39.022.182-.028.167-.193-.193-.325-.131-.047.615.077.438.077.822.266.883-.192.815.025,1.379.338,1.652-.069,1.054.549,2.456.533,1.36.294.335.329.179.633.115.933.692.74.73.262.382.358.419.245-.075.15-.112.242.338,1.172.729.172.338,1.468,2.879.6,1.7.525,1.77.389,2.656.371,1.35.6.665.41,1.259.351.048.254.346.436,1.18.314.439.165-.377-.019-.219-.123-.362.113-.469.244-.28.556.382.305.289.082.58.127.322.583.681.492.2.637.05.534.15.428.25.8.69,1.832.605,1.473,1.855.867,1.285,2.852,1.944.492.932.257.911.6-.043,1.028,1,.3.757.842.275.143-.448.408.368.164.569.069.236.815.964.266.475.273.867-.143.483-.211.315-.315.282-1.088.687-1.21.439-.772.877-.574-.059.087.331.214.037.335-.062.665-.255.592-.122.638-.009.577.11.41.324.948.749.923,1.52,1.076,1.227,1.484,1.14.589.384.521.2,2.7-.032,1.917-1.04,1.74-.752.587-.156,1.01.206,1.114.061,1,.229.509-.058,1.984-.876,1.246-.852.85-.362.335,0,1.159.307,1.49-.133,2.039-.737.649-.149.5-.01,1.111.331.172-.018.6-.06,1.585-.351,1.233-.529,2.273-.384,1.73-.969.3-.469.523-.59.759-.195,1.939.694.309.054-.112.42-.066.427-.4.746-.253.829.185,1.265.089,2.051-.046.3-.128.293-.054.231-.209.081-.092.133.153.053.607-.224-.013-.244.036-.122.5.273.357.115.1.257-.027.176-.566-.081-.288-.137-.84.225-.514.242-.154.4-.12,1.6-.2,1.041-.038,1.375-.679.911-.229.641-1.011,1.285-.528,1.1-.172.535-.889,1.5-1.218,1.153-.441,1.471-.438.922-.491.837-1.076,1.486-.552,1.034-.691,1.791-.211,1.134-1.944,3.289-2.017,2.622-1.256,2.2L316,205.777l-3.073,3.3-4.021,3.914-1.092.8-4.4,2.412-2.854,2.024L299.1,219.6l-1.531,1.2-1.214,1.139-3.671,3.848-.378.362-.357.342-.462.651-.322.259-.877,1.1-.547.57-.614.564-.26.4-.185.459-.2.254-.554,1.095-.487.716-.482.564-.709.828-.58.377-.78.18-.234-.034-.307-.119-.12.2-.091.309-.172-.065-.131-.091.078.55.081.271-.118.369-.379.32-.034.271-.821.709-1.164.079-.612.353-.272.288-.208.631.073.967-.324.744-.061.373-.6.484-.267.443L279,242l-.172.2-.2,1.011-.28.614-.076.2-.069.184-.217.36-.14.248-.1.163-.71,1.574-.554.711-.434-.081-.289.275-.031.13-.1.406-.381.987-.022.411-.15.484-.144.32-.389,1.389-.326.52-.446,1.218-.071.932.246.653.091.612.522.6.417.215.283.274.5.627.286.628.9.309.358.7-.131.486-.417.4-.39.652-.314.856-.007,1.31.211-.2.476.322.061.964-.49,1.124-.151.526-.024.451.356,1.346.539.686-.04.215-.14.18.923,1.214-.077,1.056.346.823.152.713.228.547.043.377-.284.419.673.1.4.344.186.328.486-.014.264.223.379.186.839.55.228.277.082.16.054.1.258.5.461.46-.275.266-.332.239.537.32-.394.483-.048.336.1.132.086.2-.258.553-.342.424-.088.325.3.573-.156,1.017.293.916.083.469.1.315-.146.562.038.948.067.391-.175.487.3.169.158.534-.043.6-.091.324-.513.394-.061.153.008.231.641.008.022.359-.043.282.025.531-.086.346.151.394-.184.437.064.337.008.437.149,1.1.025,1.367.033.219.228.155.321.077-.012.375-.355.49-.022.305.051.427.392-.581.235,0,.209.228-.029.335.072.165-.031.325.117.413-.046.359-.287.252-.366.431-.065.4.034.265-.253.085-.119.164.172.381-.011.337-.447,1.05-1.19,1.437-.515.51-.482.556v.227l-.047.2-.562.794-.6.13-.335.212.261.7-.389.161-.676.552-1.861,1.058-.294.245-.473.65-.624.158-.346.184-.618.067-.215-.047-.211.023-.178.139-1.226.457-1.146.361-.282.165-.188.226-1.014.357-1.589.884-1.3.843-.942.843-.248.128-.293.292-.1.432-.1.244-.7.89-1.049,1.053-.2.288-.417.586-.041.383-.371.117-.313-.367-.132.708-.255.051-.283-.145-.7.35-.614.405-.983.854-1.389,1.654-2.028,1.6-.277.046-.187-.006-.639-.557-.347-.042.311.331.206.275-.053.54.024.811-.252,1.577.034.346.29.448.546.548.511.683.657,1.963.051,1.011.678,1.293.026.56.274,1.4-.018,1.132-.048.693.327.293.12-.264-.034-.439.088-.7.182-.314.181.045.055.332.122.3.049.276.009.376-.252,1.428.076.581.338.972-.393,1.132-.571,2.668-.032.462.139.2.307.069.113-.341.18,0,.1.2-.254,1.234-.251.541-.89,1.328-.48.57-.8.56-1.87.877-3.746,1.268-1.487.623-.887.371-1.877,1.182-.821.795-.338.911-.324.418-.318.529.277.455.273.344.321.23.166.2.219.137.219-.715.109-.223.187-.017-.1.874-.215,3-.015.1h0l-.18,1.2-.7,1.883-.237.864-.594,3.1-.775,1.565-.435.646-1.256,1.146-.349.232-.31.149-.55.132-2.153,2.323-.8,1.122-.713,1.639-.707.9-1.041,1.925-.929,1.49-.892,1.36-1.542,1.877-.684.544-.463.249-1.225,1.093-1.725,1.76-1.321,1.563-1.975,1.778-1.143.78-1.717,1.537-.479.227-1.935,1.432-1.391.87-2.253,1.011-.894.283-2.138-.262-.892.14-.745.611-.07.879-.31.132-.471-.04-1.494-.366-.811.07-.473.468-.381.6-1.125.031-2-.616-2.357-.374-.545-.042-1.142.456-.4.067-1.665-.1-.922-.288h-.883l-.677.238-.821.083-2.218,1.655-1.145,0-.988.192-.49-.007-.917-.231-.342.015-.522.1-.523.292-1.19.126-.462.248L182.447,400l-.458-.061-.371-.1-1.044-.019-1.183-.807-.453.051.122-.242.036-.428-.249-.3-.169-.135-.464.025-.247-.364-.71-.035-.246.092-.341.019-.031-.369.028-.232-.021-.357-.086-.437-.275-.139-.211-.059-.5.03-.346.047-.163.127-.186.32,0,.975-.249-.28-.283-.584-.091-.622.1-.735.537-.279-.041-.5-.114-.43-.6-1.1-.235-.5-.509-.341-.4-.82-.4-.3-.166-.573-.389-.459-.132-.723.215-.415.339-.226.347.359.429-.141.612-.523.361-.792.023-1.266-.093-.79-.485-2.038-.23-.468-1.093-1.454-1.269-1.943-1.6-3.054-.767-1.83L167.53,371.1l-1.023-2.076-1.256-1.933-.161-.126.124-.152-.125.152-.546-.426-1.593-1.6-.565-.415-.835-.977-1.834-3.024-.262-.581-.349-1.456-.4-1.078-.044-.622.193-.351-.118-.478-.207-.427-.625-.558-.178-1.862-.418-1.2.09-.991-.2-.9-.019-.578.09-1.1-.336-1.261-.68-1.232-.614-1.775-.088-.776.065-2.083-.118-.849.006-1-.243-1.032-.1-.563.17-.445.1.14.176.067.118-.591.03-.522-.307-1.288-.685-1.316-1.694-2.141-.413-.814-.237-.675-1.889-2.811-.807-1.98-.564-1.707-.613-.787-2.837-5.523-.629-.879-1.132-1.05-.264-.351-.437-1-.852-1.341-.206-1.249-.058-1.416.1-1.082.18-1.878.189-.83,0-.992-.112-2.566-.134-.352-.09-.413.48-.315.244-.24.33-.424.235-.6.277-1.312,1.007-3.014.478-2.949.606-1.395.228-1.562,1.686-2.014.416-1.236.872-.606,1.235-.646.879-1.148.426-.8.485-1.523-.006-1.589.307-2.119-.067-.609-.46-.843-.085-.6-.427-.592-.457-.447-.214-.8-.793-1.258-.217-.839-.38-.6-.06-.743-.2-.784-.388-.776-.376-.887v-.277l.235-.335.223-.109-.075.168-.149.2.035.154,1.482-1.554.094-.3-.049-.34-.009-.415.059-.484-1.4-2.864-1.111-2.661-.188-1.343-1.468-1.767-.579-1.148-.33-.8-.247-.305.093-.154.378-.04.841-.186,1.152-.2,1.065-.467.283-.207-.315-.139-.692.088-.336.114-.539.4-.807.21-.3-.018-.2-.068-.47-.441-.363-.426-.13-.236-.071-.129-.211-.481.119-.455.129-.34-.143-.695-.324-.617-.343-.784-.1-.15L143.5,249l-.175-.134-.357-.429-.353-.533-.094-.243-.1-.138-.016-.536-.532-.636-1.332-1.131-.143-.338-1.138-1.035-.477-.434-.412-.794-.479-.487-1.01-.789-.269-.58-1.155-1.279L133.8,238.2l-1.2-1.11-.182-.246.2.03,1.158.553.158-.062.134-.124-.5-.289-.478-.229-.447-.142-.449.012-.251-.235-.163-.356-.083-.3-.2-.319-.636-.658-.154-.254-.348-.348.211-.045.682.332.061-.133-.059-.194-.685-.315-.372-.021-.086-.221.051-.256-.49-.958-.509-.718-.08-.339,1.372,1.56.184.027.241-.015.569-.175-.108-.208-.257-.223-.248.1-.323.022-.17-.094-.075-.16.323-.758-.14.038-.1.136-.178.064-.273.04-.676-.406-.6-1.095-.158-.225-.159-.381-.157-.156-.686-1.557.263.116.312.451.607-.1.237-.262.207.011.213-.06.267-.246.778-1.072.206-1.414-.067-.84-.114-.833.257-.266.1.175.05.3.122.219.277.2.516.052.8.309.283.2.078-.393.917-.335-.278-.12-.815.132-1.118-.5-.371-.318-.346-.6-.36-.315.025-.283.8-.261.212.03.086.311.216.128.082-.043.035-.266,0-.713-.245-1.023.075-.2.041-.108-.435-.291-.313-.029-.289-.089.234-.759.293-.67.437-.506.232-.123.076-.251.346-.826.428-.67-.133-.679.1-1.141.1-1.133.222-.946.087-.877.306-.784-.162-.776-.189-.339-.992-1.1.455-.417-.6.058-.128-.409-.291-.491.178-.078.172-.27.542.083-.017-.131-.468-.412.045-.208.193-.233-.094-.1-.336.241-.242-.007-.188-.156-.137-.027.083.316-.188.282-.178.1-.307-.016-.249-.071-.066-.157-.234-.121-.657-.209-.553-.243-.112-.672-.219-.289-.089-.327-.053-.373.075-.574-.139-.092-.161-.031-.239.028-.22-.032-.263-.317-.231-.123.143.584-.163.164-.4-.048-.169-.221-.033-.164.183-.707-.071-.016-.059-.012-.14.16-.406-.1-.183-.326-.251-.054-.434-.479-.092.079.458,1.216-.17.476-1.285.011-1.107.16-.76-.014-.382-.173-.169-.455-.065.046-.038.245-.241.192-.853.036-.377-.311-.306-.348-.327-.155.051.146.375.34-.046.49-.687.565-.437.032-.269-.243-.14-.4-.07-.588-.18-.385h-.1l.089.352.03.287,0,.6.327.463-.5.145-.2,0-.4.01-.077-.171-.076-.384-.1-.1-.123.651-.265.046-.184-.006-.789.141-.176-.027-.037-.121.094-.18-.021-.292-.274.225-.044.451-.156.072-.471-.064-.514-.231-.312-.238-.524-.33-1.024-.925-.166-.416-.293-.51-.219-.518-.315-.887.1-.063.238.076.116-.133-.426-.1-.089-.1-.028-.311.018-.379.347-.134.3-.064.15-.231.087-.232-.8.351-.745-.4-.162-.241.081-.185.356-.028.509.015.3-.18-.187-.063-.33.007-.121-.12.01-.288-.107.064-.141.255-.5.188-.294-.188-.029-.419-.064-.189-.248-.147-.879-1.108L107.7,194.9l-.983-.637-1.484-.3-3.1.012-.174-.088.19-.147.273-.1,1-.516-.168-.068-1.038.322-.356.031-.459.621-2.736.1-.32.032-2.039.2-2.277.327-.949.212-1.516.339-.6.279-.4.184-.269.278-.205.424-.284.465-.976.243-.373,0-2,.011-1.876.917-1.079.325-.665.516-.893.367-.624.444-1.3.213-2.124.7-.665.277-.672.486-1.093.57-.429-.008-.856-.532-.644-.268-1.575-.408-1.175-.157-.568-.175-.156-.03-.643-.123.153-.161.622.092.329-.012-.033-.095-.185-.035-.509-.22.084-.7-.235-.031-.183.093-.362.844-.173.146-2.541-.435-.551-.351-.661-.08-1.152.04-.95.1-.272.213,2.4-.125.258.024.121.128-3.033.279-1.157.166-.342-.046-.26-.27-1.257-.032-.258.088-.156.2.495-.043.781-.012.209.152-2.443.2-1.7.38-.719.281-2.365.924-1.441.437-.378.16-.656.452-.842.284-.946.532-.578.12-.558-.075-1.644-.686-1.267-.393-4.241-2.248-1.179-.9-1.358-1.345-3.022-2.7-.689-.435-.869-.211-.537-.231-.379-.25-.308-.751-.755-.447-1.4-.634-1.048-1.058h0l-.194-.2-.9-.687-.951-.461-2.028-.767-.675-.216.024-.273.233-.5-.378-.586.147-.425h-.147l-.29.256-.619-.074-.41-.365-.335-.134-.146-.184-.214-.964-.155-.438-.31-.27-.623-.067-.256-.589-.345-.456.056-.281.281.016.221.2.354.085.441-.494.395-.268.091-.234-.048-.129-.24.2-.655-.051-.162.179-.292.058-.227-.579.011-.34.094-.376.66-.064.056-.121-.458-.081-.573-.436-.1-.3-.048-.142.161-.449-.129-.233-.486-.466-.046-.226-.15-.291-.641-.6-.6.037.167-.5-.008-.669-.2-.365.052-.373-.111.024-.2.257-.323-.083-.654-.4-.326-.385-.039-.329-.074-.127-.2.068-.409-.006-1.246-.584-.887-1.471-.02-.332.127-.571-.029-.155-.408.379-.077-.254-.311-.591-.091-.34-.3-.151-.24-.027-.185.113-.244.691-.181,0-.189-.148.04-.515-.246-.347.19-.639-.205.009-.41.517-.2.016.026-.612-.226-.023-.263.043-.368-.318-.036-.239.029-.334.224-.213-.03-.09-.216-.024-.242.057-.148-.1.244-.433.858-.364.431-.037.443-.083-.242-.312-.524-.123-.42.086-.208.226-.259.038L9.88,168.1l.008-.267.16-.316.251-.141,1,0,.377-.179.153-.031.144-.163-.03-.107-.162-.006-.372.21-1.2-.08-.382.128-.667.485-.819.269-.595-.113.189-.652-.084-.088-.188-.107-.872.207-.661-.3-.261-.36.045-.451.312-.3.049-.152-.329-.029-.6.19L4,165.011l-.165-.219-.19-.358.119-.261.4-.168.6-.219.317.112.185.006.035-.141-.059-.075-.456-.191-.237-.253-.2.148-.168.31-.14.092-.207.087-.117-.211-.051-.2.1-.157-.048-.888.056-.474-.029-.414-.029-.414-.27-.946.362-.414.393-.244.265.195.08.386.2.263.7.165.688-.119.421.055-.014-.213.144-.285.835-.121.884-.082.907-.17.711.007.213-.048-.052-.073-.638-.082-1.362.2-1.387.058-1.051.515-.431-.048-.435-.515-.157-.636-.123-.5-.292-.4-.474-.341-.1-.318.161-.277.458-.228.1-.162-.24.024-.362.147-.241.008-.03-.439-.4-.567-.453-.959-.513-.394-.43-.777-.45-.3-.414-.139-.353.029-.129.354-.44-.51.6-.183,1.286-.641,1.476-1.837,1.324-2.177.173-.514,0-2.222.265-.83.086-.73.568-1.613.676-1.323.625-1.757.236-1.7-.08-1.671-.186-1.489-.316-.984-.306-1.426-.451-.754-.827-.657-.186-.386.192-.144.5-.1.321-.513-.678.2.784-1.576.244-1.074-.039-.7.15-.436-.6-.946-.467-1.191-.24-.188-.249-.1-.022.28-.135.251-.29-.151-.514-.867L3.2,121.64l-.252-.144-.21.193-.132.186-.241,1.178-.078-.467.1-.551.177-.679.149-.7-.149.7-.177.679-.1.551.078.467-.247-.256.433-2.627.383-2.646.668-1.316.531-.582.824-.3L5.717,114l.265-1.222.5-.563.156-.441-.2-.336.469-.661.284-.5.284-.5.263-.649.664-1.006.081-.222-.061-.252-.259.214-.279.372-.331.293h0l.086-.229.049-.132.13-.264.13-.265.59-.555.931-.613,1.932-2.081.727-.36.654-.877.234-.78.064-1.793.117-.474.116-.474.214-.37.213-.371.509-1.346h0l.387-.6.253-1.23.275-.47.493-.222.7-.615,1.051-.38,1.244-.8.584-.479.389-.714.263-.9.154-.527.746-1.5.3-.875.094-.278h0l.657-.6.446-.754.754-.335,1.578-.163,2.346-.627,2.105-.947.595-.377.637-.755,1.06-.985,1.977-1.185.911-.662L35.633,78.9l.924-1.378.767-.887.53-.788.371-.8.21-1.29-.141-.5-.584-.826-.392-.22-.1-.391.209-.688,0-1.185.12-1.894.65-1.532L39.778,64.5l.3-.828.182-1.32.016-.466,1.989-1.877,1.166-1.441.405-.353,1.029-.66,3.589-1.442,2.029-1.032,1.184-.754.706-.892,1.955-3.512,1.922-4.97.159-.576.859-.167.608-.072.489-.182.606-.375.581.15-.291.255V44.6l.413.719.716.809,1.3,1.025,1.014.412,1.45.246,1.688-.45.945-.008.46-.192.5.283.952.091.917-.15.694-.429.442-.5.069.242.021.264.134.154.275.629.143.245.528-.04.459.124,1.035-.059.992.106.98.1.508-.05,1.164-.488.923-.658L78.7,46.7l.634-.723.572-.457.827-.493,2.387-1.066.366-.009.785.244.684-.076.468-.374.5-.9L86.7,42.3l.985-.55,1.34-.525.879-.484,1.387-.42,3.485-.266,1.789-.237,1.217.053,1.23-.767.614-.253,2.66-.06,1.256-.561,4.756,0,.582.189.571.3.973.73.485.159.627-.152,1.462-.69,1.648-.359.9-.412.382-.6.771-.221.434.461,1.709.465,1.048-.133.462-.14-.166-.69,1.108.185.852.331.893.665.578.133,1.052-.3,2.184-.15,1.2-.336,1.143-.882.4-.216,2.653-.814.344.057.387.119-.112.3-.153.241.225.425.321-.259-.083-.174-.018-.23.547-.02.482.036.53.253-.037.959.706.938-.2.466.578.276.515-.331.258-.489.947-.283.9-.718.5-.074.113.589.241.515-.341.181-.434.548-.821,1.388-.757.407-.567.533-.183.379-.055.441.142.79.413.8.476.484.461.152,1.071.762-.017.453.15.537.057.653.373.522-.8,1.133-.436.819-.851,1.126-.758.731-1.625,1.085-.4.36-.259.373-.121.389.044.457.534,1.122.711.662.723.356,1.258-.143-.043.43.09.517.511-.025.342-.08.289-.5.615.344.319,1.049.521.327.061.123-.184.079-.143.122.154.084.5.13.3-.083.506.232.741.342.759.135,2.266,1.27.715.159,1.586.151,1.868-.519.707-.093,1.228.488.541.137.911.038,1.557.442.4.154.907.705.435.211,3.222.646.439.427.448.817.019,1.012.248.734.4.95.483.672.535.56.613.35,1.413.515,1.593.2,1.606.066,2.758.711,2.338.821.577.4,1.171.4,2.329,1.921,1.3.665.91.129.816-.116,1.449-.668.6-.4,1.457-1.66.478-.868.192-.612-.048-.624-.182-.56-.406-.588-.286-.778-.169-1.4.228-.974.28-.584.439-.595,1.211-1.14,1.217-.8,2.143-1.052,1.246-.013.514-.115,1.027-.745.415-.029.573.183,1.69-.052.745.208.888.463,1.121.288.79.288.844.369.19.919-.093.272-.021.355.875.632,2.484.3.49.17.682.483.441.15,1.7.068.992-.1.945.17.351.163.36.378.438.916.172.307.364.648.762.112,2.482-.578,2.741.582,1.512.223,2.329.495,1.419.881.389.112,1.019-.018.669.521,2.658.251,1.419.574.806.458.482.141.427-.023.578-.173.727-.322.792-.448,1.643-1.151.581-.2.38.052.462-.015.192-.312.243-.214.153-.244.25-.294.854-.082,1.713-.5-.192.238-1.56.564.668.07.685-.193.779-.122.141-.24.1-.448.15-.063.539.084,1.6.691.4.013,1.13-.377.241-.081.366.211.835.86-.291-.018-.894-.737-.079.367-.509.647.636.28.517.105.278.36.175.321.509-.14.366-.436-.19-.244-.129-.252.167-.007.355.208,1.016.829.343.17.395-.028.825-.233.229.036,1.109-.305.13.224.183.222.892-.248,1.4,0,1.147-.27,1.329-.656.107-.1.919-.862.437-.54.032-.04.945-1.624.609-1.614.573-2.247.408-1.146.346-.759.154-.63.225-.412.236-.536.232-.723.41-.6.851-2.042.49-.83.175-1.177.76-1.032.569-.3.275-.3-.008-.448-.374-1.219-.056-.528.01-.613.258-.9-.121-.416-.01-.28-.066-.386-.67-.83.365-1.531.258-.371.363.036.777.433.127-.013.235-.572.228-.2.479-.169.135-.928.224-.178.27-.1.415-.018.361-.056.023-.163-.5-1.075.045-.271.244-1.082.153-.425.146-.138.574.055.8.191.212.311.393.276.588-.018.679.051.531.019.423-.194.956-.364.474-.121.431-.161,1.385-.6.555.046.379.078.291.095.652.407.538.411.378.122.679-.008.981.078,1.206-.006.7-.114.9-.2,1.6-.486L281.7,37.6l1.24-.495.534-.058.7-.006.7.13.789.092.364-.008.855-.1,1.108-.206.7-.169.841-.277.524-.46.17-.049.217.084.1.032.216.262.224.675.47-.113.873-.672.513-.629.163-.055.459.206.328.056.757-.237.45.126.379.158.212.01,1.016.392.253.048.524.048.78.02.5-.254L299,35.9l.25.006.242.059.2.1.172.185.081.263-.033.841.077.222.137.16.176.029.212-.183.372-.265.456-.29.34-.266.195-.1.307.013.3.047.166.127.007-.078-.04-.338.186-.294-.012-.116-.384-.372-.54-.372-.146-.065,0-.4.02-.3-.049-.271-.1-.155,0-.122.217-.292-.14-.192-.794-.474-.3-.239-.55-.048-.057-.156.086-.332.189-.4.3-.395.1-.21.116-.355.039-.253.334-.356v-.092l-.092-.127-.268-.072-.273-.029-.1-.065-.037-.191.034-.776-.086-.468-.112-.338.071-.765-.191-.154-.3-.4-.128-.339.069-.127.064-.224.042-.293L299.8,25.6l-.276-.2-.205-.214-.023-.236-.082-.289-.115-.228-.051-.15.1-.088.389-.07.566.048.461,0,.262-.149.324-1.392.3-.367.342-.213.67.5.277.175.171,0-.165-.194-.073-.108-.168-.245-.842-.8-.781-.617-.536-.255-.54.026-.839.124-.308-.051-.73-.27-.61-.32.083-.134.129-.1-.154-.417-.339-.671.036-.211-.107-.291-.118-.22.478-.526.219-.423.047-.413-.127-.429-.315-.776-.194-.226-.36-.211-.3-.345-.077-.245.011-.109-.04-.17-.151-.122-.21-.078-.387.028-.359-.081-.256-.215-.057-.164.147-.133-.108-.111-.446-.264-.731-.66-.414-.148-.164-.413-.164-.088-.348-.039-.367.04-.08.047-.112.066-.289.517-.2.174-.5-.082-.41-.121-.335-.068-.648-.042-.738-.01-.5.367-.215-.048-.377-.179-.608-.149L286.843,12l.931-1.09.277-.648.01-.394.01-.5-.484-1.029-.416-1.464-.432-1.529-.336-.459-1.413-.53-.326-.6-1.093-.779-1.518-.338-.3-.145-1.319-.982L279.4.885,279.622.5l.3-.4.318-.1.934.16.858.181.627-.129L283.4.53l.682.366.685.257,1.337.242.5.336.582.336,2.281.171.183-.052.168-.049.764-.122.678.023.714.406.457-.023.488-.062.629.217.493.242.042.247.432.356,1.257.542,1.02.306.316.216.776.355.078.113-.016.145-.221.267-.056.237.1.135.321.13.639.03.23-.17.476-.121.471-.219.63-.292.857-.264h.343l.33.081.23.146.386.544.385-.762.1-.056.352.153.623.212.43.112.233.157.659.693,1.064-.035.451.106.241.114.108.135-.19.687-.263.716.021.173.427.269.581.285.312.228.212.206.459.155.541.1.257.013.267.172.7.324.089.079.524.12.07.337.093.071.217-.04.361-.142.287.109.37.4.512.424.277.284.108.2.261.191.382.223.305.35.271.813.275.189.986.308.346.063.968.109.34-.078.5-.7.449-.722.419-.151.757-.348.453-.33.191-.356.427-.674.264-.378.445.336.774.911,1.1,1.481.271.417.178.485.152.587.252.519,1.119,1.3.482.48.788.622.28.138.368.039.675,0,.625.242.307.171.319.246.285.285.287.76-1.082-.25-1.09.039-.616.163-.6.223-.573.314-.358.611-.3,1.413-.44,1.319.015.61.193.584-.022.277-.2.118-.252.248-.338,1.205-.167.24-.216.15-.059-.143.012-.315-.475-.279-.251.313-.173.662-.348.7-.018.132.087,2.145.009.242.149,1.4.116.723.169.7.269.639.319.608.438.375.978.451.474.13,1.248.09,1.233.2.727.211.223.148.184.229.6,1.062.949.755,1.915,1.133.928.375,3.126.712,2.08-.04,5.752-1.373,1.912-.342h.718l-.428.273-.718.156.433.193.668.032.31-.032.224-.174.037-.287-.032-.285-.317-1.277-.183-.9,1.347.063.526-.118.772-.3.584-.182.295-.025.29-.142.223-.178.5-1.236.25-.309.853-.7.724-.442.759-.392.959-.273,1.277.029,1.016.1.587,0,.28.028.21-.039.121-.081.132-.542.208-.176.358-.151.5,0,.612-.039.508.037.642.208.837.017.557-.036.323.207.233.277.113.231.026.317,0,.241.088.093.34.144.472.108.921.13.863.249.449.17.623.266.743.657.274.1.333.066.238-.017.558-.278.484.2.246-.025.557-.153.591.189,1.475.722.162-.017.134.073.123.165.086.2.11.62.426.451.521.412.607.226,1.27.54.554.438.562.743.691.977.1.089,1.781-.03,2,0,.244.39-.047.774.072.792.179.55,0,.505-.145.256-.112.292-.032.128.257.183.225.42.032.584-.112.31.016.255.112.218.1.365-.016.218-.16.218-.1.273-.129.346-.048.272-.241.128-.193.091.032.345.1.29.112.344-.129.237-.08.272-.177.435.048.362-.192.308-.241.271-.16.217-.033.308-.177.108-.337.254-.209.181-.305.053-.065.145.048.144.129.091.2.312.415.538-1.2.067-.352.477-.41.68.2,1.375-.2.707.121.4.306.275.392.151.738.01.488.107.049.182-.28.266-.449.5-.237.218-.766,1.005.007.427.071.346.33,1.082.321,1.048.577,1.886-.01.437-.181.971-.012.59.081.764-.061.4.141.885.162.064,1.247.171,1.146.158,1.523.209.461.519.288,1.135-.017.849-.129.433-1.092,1.237-1.107,1.251-1.105,1.248-1.146,1.292-.121.136.927,1.032.573.638.808.9.1.215-.007.352L384,80.867l.292.711.264.417.656.651.64.635.7.292.474.063,1.08.337.393.266.635.674.743-.091h.155l.041.048.022.218-.11,1.047.207,1.053.144,1.584-.054.274-.178.457-.009.3-.047.18.05.08.236.108.5.057,1.222-.177.142.045.292.187.22.294.018.14-.307.244ZM6.739,120.407l-1.114,0h0Zm8.912-.01Zm6.046-4.008.042.65.046.714.046.714.023.359-.023-.359-.046-.714-.046-.714Zm-.421-2.871.236.654.064.329.036.572.041.624.028.447-.028-.447-.04-.624-.037-.572-.063-.329Zm.679,6.871-.043-.672-.017-.266.017.266.043.671h-.734l-1.115,0h0l1.114,0ZM43.009,93.967v-2.2l0-1.029v-2.8h0v3.829l0,1.03Zm0,1.588v0ZM44.1,188.287l-.137.1h0ZM167.112,364.554l-.11.318-.151.239.151-.239Zm1.2-.507-.267-.159h0Zm.868.879-.214.008-.2-.168.2.168Zm.463.674-.025.294-.183.2.184-.2Zm0-.025-.131-.439-.11-.1.11.1Zm2.581,2.325-.366-.1-.357-.024.357.024Zm13.326-16.577-.247-.625-.661-1.39.661,1.391Zm2,6.418-.569-.159-.4-.065.4.065Zm3.485-.736-.244.5-.211.177.211-.177Zm3.316-2.545-1.231.879-.379.613.379-.613Zm1.981-3.933-.29.708-.112.433-.24.68.241-.68.111-.433ZM203.385,352l-.668-.568-.43.01.43-.01Zm4.289.068-.588-.025h0Zm11.415-12.478-.313.223-.484.078.484-.078Zm6.717-4.731-.515.436-.7.277.7-.277Zm4.647-1.07-1.163-.193-1.387.236,1.387-.235Zm4.641,23.633-.248-.025-.06-.109.06.109Zm1,1.676-.609-1.022.609,1.022Zm.7-6.58-.579.71-.266.606-.428.626-.689,1.009-.07.217-.007.813.007-.813.07-.217.689-1.009.428-.626.266-.606Zm.451-17.234-.034-.122-.025-.267-.441-.29.44.29.026.267Zm.956,16.961-.4-.226-.019,0,.019,0Zm.109-13.141-.256-1.083-.115-.488.115.488Zm.967,2.824-.089-.2-.119-.352.119.352Zm1.128,2.8.078.237.073.338-.073-.338Zm-.108,8,.1.373-.1-.374-.039-.575.312-.733-.025-1.405.037-.5-.006-.976-.007-1.182-.006-1.052.006,1.052.007,1.182.006.976-.037.5.025,1.405-.312.733Zm.322,4.829-.133.744-.1,1.107.1-1.107ZM263.6,76.435l-.106.077-.335.539.336-.539Zm3.66-6.167-.726-.741-1.09-1.112-.712-.729h0l.712.729,1.089,1.112Zm4.355-4.487-1.283.355-1.64.455,1.64-.455Zm5.052-1.273-.227-.037-.133-.022.133.022Zm17.484,9.074L293.39,73l-1.448-1.183L293.389,73ZM315.9,81.473l-.279-.519-1.43-.193,1.43.193Zm39.254,36.61-.179.56-.178.561.179-.561Zm-.38-2.236.413.666.307.495-.111.351.111-.351h0l-.308-.495Zm-1.357,7.694.135-.424.179-.558.088-.279-.088.279-.179.558Zm-1.146,3.59.214-.67.178-.557-.178.557ZM349.81,113.47l.877.112.742.1-.742-.1Zm-.985,14.848.418-.144.836-.288.835-.289-.835.288-.836.289Zm-2.925,1.006.836-.288.836-.287-.836.287Zm-3.343,1.15.836-.287.836-.287.418-.144-.418.143-.836.288Zm-1.519-18.126.367.047.572.073-.572-.073Zm-1.294-1.012.267.334.267.333-.267-.333Zm-.668-.835.133.167.267.334-.267-.334ZM354.96,92.866l-.9.322-.245-.05-.007.095.08.242.14.036.405.013.58-.178.639-.355.353-.034.487-.2.226-.008.292.162.684-.519.452-.624.444-.161-.318-.266-.679.1-.812.382-.726-.2-.049.087.18.384-.107.234ZM327.379,306.555l-.154.762.546-.913.421-1.031-.18.085Zm-7.514-18.443-.191.031-.068.253-.313.019.1.616.64.074-.007-.18.043-.266Zm9.738,8.558-.38-1.01-.149-1.072-.15-2.337-.488-2.274-.516-1.511-.144-.973-.3-.487-.347-.457-.813-1.191-.26-.492-.223-.513-.284-.41-.563-.549-.164-.234-.088-.317-.236-.214-.274,0-.833,1.157-.5.6-.156.1-.465-.091-.085.151.328.683.2.547.123.575-.045.475-.553,1.629-.85.779-.559.21-.492.34-.327.5-.4.4-.331-.063-.492-.413-.224-.129-.281.09-.2.234-.218.336-.061.379.087.248.457.5-.06.12-.127.1-.009.31-.883,1.49.185.862.742.63-.456-.134-.468-.043-.282.215-.223.31-.376.6-.33.631-.225.086-.239-.068.063-.349.155-.261.108-.265-.055-.266-.1-.252-.125-.049-.423.31-.162.274-.185.6-.4.5-.51.523,0,.222.066.242.136.285-.009.3-.166.358-.188.109-.161-.02.024-.146-.19-.887-.248-.119-.292.052-1.007.752-.97.651-.437.428-.261.562-.025.263.073.231.487.408-.2.142-.233-.032-.182-.067-.6-.781-.161-.042-.744.217-.575.089-.9.068-.187.124-.1.219-.077.31-.129.232-.274-.041-.269.007-.7.252-.193-.13-.151-.238-.235-.059-.273.161-.6.555-.433.289-.223.105-1.736.149-.368.063-.163.131-.075.225-.044.606.086,1.042-.07.4-2.147,3.423-.174.946.243.542.1.568-.035.641.163,1.773.333,1.073.34.576.264.61.062.613-.057.848.023.213.718,1.142.3.629.02.613-.1.619-.134,1.244-.115.568-.16.555-.527,1.178-.6.838-.262.555-.739,1.057-.269,1.065-.27.516-.469.383-.585.187-.395.326-.311,1.467-.133.253-.2.211-.131.264-.051.308-.2.412-.116.592-.046,1.152.037.544.315,1.567.136.5.2.486.834.989.219.548.112.6.3.583.115.556-.28.514-.09.57.078,1.213-.026.664.064.981.085.3.8.925.282.525.166.751.224.394.089.353.132.327.208.149.864.474.436.563.3.14.326.092,1.078.147.569.177,1.469,1.077.44.142,1.468-.038.469-.178.426-.31,1.111-.656,1.155-.571,1.108-.3,1.144-.012.516-.106,1.019-.52.47-.359.692-.986.464-1.144.188-.622.107-.644.189-.507.267-.479.634-1.282.149-.6.075-.63.657-2.04.314-1.232.264-1.243.243-1.431.127-.365,1.172-2.794.85-2.5.572-2.267.673-2.23.492-1.259.433-1.277.586-2.122.69-2.06.7-1.638.454-1.241.321-1.037.558-2.184.077-1.141-.275-1.607.06-.528.438-1.032.271-.506.2-.19.5-.216.134-.17-.139-.282-.022-.274.375-.5.135-.577-.039-1.144-.219-.48-.212-.186-.143-.222-.012-.732-.065-.581-.146-.573-.083-.636.07-.225.386-.356.532-.05.191.09.165.573.456,1.129.36.479.439.294.117.013.259-.292.142-.213.549-1.135.38-1.2-.2-1.167Z" transform="translate(0)" fill-rule="evenodd"></path><title>Middle East &amp; Africa</title><title>Middle East &amp; Africa</title><title>Middle East &amp; Africa</title></svg>