<?xml version="1.0" encoding="utf-8"?>

<svg version="1.1" xmlns="http://www.w3.org/2000/svg" xmlns:xlink="http://www.w3.org/1999/xlink" x="0px" y="0px"
	 viewBox="0 0 500 500" enable-background="new 0 0 500 500" xml:space="preserve">
<g>
	<defs>
		<rect id="SVGID_1_" width="500" height="500"/>
	</defs>
	<clipPath id="SVGID_2_">
		<use xlink:href="#SVGID_1_"  overflow="visible"/>
	</clipPath>
	<rect x="0.2" clip-path="url(#SVGID_2_)" fill="#FFFFFF" width="499.6" height="499.6"/>
	<g clip-path="url(#SVGID_2_)">
		<path fill="#F30004" d="M0,461.2h500v38.4H0V461.2L0,461.2z M0,0h500v38.4H0V0L0,0z M0,76.9h500v38.4H0V76.9L0,76.9z M0,153.7h500
			v38.4H0V153.7L0,153.7z M0,230.6h500V269H0V230.6L0,230.6z M0,307.5h500v38.4H0V307.5L0,307.5z M0,384.3h500v38.4H0V384.3z"/>
		<rect fill="#0132BF" width="379.7" height="269"/>
		<path fill="#FFFFFF" d="M350.7,75.8l-3.5-10.6l-3.5,10.6h-11.2l9,6.6L338.2,93l9-6.6l9,6.6l-3.5-10.6l9-6.6H350.7L350.7,75.8z
			 M38.1,28.4l9-6.6H35.9l-3.5-10.6L29,21.8H17.8l9,6.6L23.4,39l9.1-6.6l9,6.6L38.1,28.4L38.1,28.4z M101,28.4l9-6.6H98.9l-3.5-10.6
			L92,21.8H80.8l9,6.6L86.4,39l9-6.6l9,6.6L101,28.4L101,28.4z M164,28.4l9-6.6h-11.2l-3.5-10.6l-3.5,10.6h-11.2l9.1,6.6L149.3,39
			l9-6.6l9,6.6L164,28.4L164,28.4z M226.9,28.4l9-6.6h-11.2l-3.5-10.6l-3.5,10.6h-11.2l9,6.6L212.3,39l9-6.6l9,6.6L226.9,28.4
			L226.9,28.4z M71.2,216l9-6.6H69.1l-3.5-10.6l-3.5,10.6H51l9,6.6l-3.5,10.6l9.1-6.6l9,6.6L71.2,216L71.2,216z M65.6,214.2
			L65.6,214.2L65.6,214.2L65.6,214.2L65.6,214.2z M70,163.6l9-6.6H67.8l-3.5-10.6L60.9,157H49.7l9.1,6.6l-3.5,10.6l9-6.6l9,6.6
			L70,163.6L70,163.6z M70.3,111.4l9-6.6H68.2l-3.5-10.6l-3.5,10.6H50.1l9,6.6l-3.5,10.6l9-6.6l9,6.6L70.3,111.4L70.3,111.4z
			 M289.9,28.4l9-6.6h-11.2l-3.5-10.6l-3.5,10.6h-11.2l9,6.6L275.2,39l9-6.6l9,6.6L289.9,28.4L289.9,28.4z M352.8,28.4l9-6.6h-11.2
			l-3.5-10.6l-3.5,10.6h-11.2l9,6.6L338.2,39l9-6.6l9,6.6L352.8,28.4L352.8,28.4z M133.3,111.4l9-6.6h-11.2l-3.5-10.6l-3.5,10.6H113
			l9.1,6.6l-3.5,10.6l9-6.6l9,6.6L133.3,111.4L133.3,111.4z M132.9,163.6l9-6.6h-11.2l-3.5-10.6l-3.5,10.6h-11.2l9.1,6.6l-3.5,10.6
			l9-6.6l9,6.6L132.9,163.6L132.9,163.6z M134.2,216l9-6.6H132l-3.5-10.6l-3.5,10.6H114l9,6.6l-3.5,10.6l9-6.6l9,6.6L134.2,216
			L134.2,216z M128.6,214.2L128.6,214.2L128.6,214.2L128.6,214.2L128.6,214.2z M197.1,216l9.1-6.6H195l-3.5-10.6l-3.5,10.6h-11.2
			l9,6.6l-3.5,10.6l9-6.6l9,6.6L197.1,216L197.1,216z M195.9,163.6l9-6.6h-11.2l-3.5-10.6l-3.5,10.6h-11.2l9,6.6l-3.5,10.6l9-6.6
			l9,6.6L195.9,163.6L195.9,163.6z M196.2,111.4l9-6.6h-11.2l-3.5-10.6l-3.5,10.6H176l9,6.6l-3.5,10.6l9-6.6l9.1,6.6L196.2,111.4
			L196.2,111.4z M69.5,55.4l9-6.6H67.4L64,38.2l-3.5,10.6H49.3l9.1,6.6L54.9,66l9-6.6l9,6.6L69.5,55.4L69.5,55.4z M132.5,55.4l9-6.6
			h-11.2l-3.5-10.6l-3.5,10.6h-11.2l9.1,6.6L117.9,66l9-6.6l9,6.6L132.5,55.4L132.5,55.4z M259.2,111.4l9-6.6H257l-3.4-10.6
			l-3.5,10.6h-11.2l9,6.6l-3.5,10.6l9-6.6l9.1,6.6L259.2,111.4L259.2,111.4z M258.8,163.6l9-6.6h-11.2l-3.5-10.6l-3.5,10.6h-11.2
			l9,6.6l-3.5,10.6l9-6.6l9.1,6.6L258.8,163.6L258.8,163.6z M260.1,216l9-6.6h-11.2l-3.5-10.6l-3.5,10.6h-11.2l9,6.6l-3.5,10.6
			l9-6.6l9.1,6.6L260.1,216L260.1,216z M323,216l9-6.6h-11.2l-3.5-10.6l-3.5,10.6h-11.2l9,6.6l-3.5,10.6l9-6.6l9,6.6L323,216
			L323,216z M317.4,214.2L317.4,214.2L317.4,214.2L317.4,214.2L317.4,214.2z M321.8,163.6l9-6.6h-11.2l-3.5-10.6l-3.5,10.6h-11.2
			l9,6.6l-3.5,10.6l9-6.6l9,6.6L321.8,163.6L321.8,163.6z M322.1,111.4l9-6.6H320l-3.5-10.6l-3.5,10.6h-11.2l9,6.6l-3.5,10.6l9-6.6
			l9,6.6L322.1,111.4L322.1,111.4z M195.5,55.4l9-6.6h-11.2l-3.5-10.6l-3.5,10.6h-11.2l9,6.6L180.8,66l9-6.6l9,6.6L195.5,55.4
			L195.5,55.4z M258.4,55.4l9-6.6h-11.2l-3.5-10.6l-3.5,10.6h-11.2l9,6.6L243.8,66l9-6.6l9.1,6.6L258.4,55.4L258.4,55.4z
			 M321.4,55.4l9-6.6h-11.2l-3.5-10.6l-3.5,10.6h-11.2l9,6.6L306.7,66l9.1-6.6l9,6.6L321.4,55.4L321.4,55.4z M39.7,243l9-6.6H37.6
			l-3.5-10.6l-3.5,10.6H19.5l9,6.6l-3.5,10.6l9-6.6l9,6.6L39.7,243L39.7,243z M38.5,190.6l9-6.6H36.4l-3.5-10.6L29.5,184H18.3
			l9.1,6.6l-3.5,10.6l9-6.6l9,6.6L38.5,190.6L38.5,190.6z M38.8,138.4l9.1-6.6H36.7l-3.5-10.6l-3.5,10.6H18.6l9,6.6L24.2,149l9-6.6
			l9,6.6L38.8,138.4L38.8,138.4z M101.8,138.4l9-6.6H99.7l-3.5-10.6l-3.5,10.6H81.6l9,6.6L87.1,149l9-6.6l9,6.6L101.8,138.4
			L101.8,138.4z M101.5,190.6l9-6.6H99.3l-3.5-10.6L92.4,184H81.2l9,6.6l-3.5,10.6l9-6.6l9.1,6.6L101.5,190.6L101.5,190.6z
			 M102.7,243l9-6.6h-11.2l-3.5-10.6l-3.5,10.6H82.5l9,6.6l-3.5,10.6l9-6.6l9,6.6L102.7,243L102.7,243z M165.7,243l9-6.6h-11.2
			l-3.5-10.6l-3.5,10.6h-11.2l9,6.6l-3.5,10.6l9-6.6l9,6.6L165.7,243L165.7,243z M164.4,190.6l9-6.6h-11.2l-3.5-10.6l-3.5,10.6
			h-11.2l9.1,6.6l-3.5,10.6l9-6.6l9,6.6L164.4,190.6L164.4,190.6z M164.7,138.4l9-6.6h-11.2l-3.5-10.6l-3.5,10.6h-11.2l9,6.6
			l-3.5,10.6l9-6.6l9,6.6L164.7,138.4L164.7,138.4z M38.1,82.4l9-6.6H35.9l-3.5-10.6L29,75.8H17.8l9,6.6L23.4,93l9.1-6.6l9,6.6
			L38.1,82.4L38.1,82.4z M101,82.4l9-6.6H98.9l-3.5-10.6L92,75.8H80.8l9,6.6L86.4,93l9-6.6l9,6.6L101,82.4L101,82.4z M227.7,138.4
			l9-6.6h-11.2l-3.5-10.6l-3.5,10.6h-11.2l9,6.6l-3.5,10.6l9-6.6l9,6.6L227.7,138.4L227.7,138.4z M227.4,190.6l9-6.6h-11.2
			l-3.5-10.6l-3.5,10.6h-11.2l9,6.6l-3.5,10.6l9-6.6l9,6.6L227.4,190.6L227.4,190.6z M228.6,243l9-6.6h-11.2l-3.5-10.6l-3.5,10.6
			h-11.2l9,6.6l-3.5,10.6l9-6.6l9,6.6L228.6,243L228.6,243z M291.6,243l9-6.6h-11.2l-3.5-10.6l-3.5,10.6h-11.2l9,6.6l-3.5,10.6
			l9-6.6l9,6.6L291.6,243L291.6,243z M354.5,243l9-6.6h-11.2l-3.5-10.6l-3.5,10.6h-11.2l9,6.6l-3.5,10.6l9-6.6l9,6.6L354.5,243
			L354.5,243z M290.3,190.6l9-6.6h-11.2l-3.5-10.6l-3.5,10.6h-11.2l9.1,6.6l-3.5,10.6l9-6.6l9,6.6L290.3,190.6L290.3,190.6z
			 M353.3,190.6l9-6.6h-11.2l-3.5-10.6l-3.5,10.6H333l9,6.6l-3.5,10.6l9-6.6l9,6.6L353.3,190.6L353.3,190.6z M290.6,138.4l9-6.6
			h-11.2l-3.5-10.6l-3.5,10.6h-11.2l9,6.6L276,149l9-6.6l9,6.6L290.6,138.4L290.6,138.4z M353.6,138.4l9-6.6h-11.2l-3.5-10.6
			l-3.5,10.6h-11.2l9,6.6L339,149l9-6.6l9,6.6L353.6,138.4L353.6,138.4z M164,82.4l9-6.6h-11.2l-3.5-10.6l-3.5,10.6h-11.2l9.1,6.6
			L149.3,93l9-6.6l9,6.6L164,82.4L164,82.4z M226.9,82.4l9-6.6h-11.2l-3.5-10.6l-3.5,10.6h-11.2l9,6.6L212.3,93l9-6.6l9,6.6
			L226.9,82.4L226.9,82.4z M289.9,82.4l9-6.6h-11.2l-3.5-10.6l-3.5,10.6h-11.2l9,6.6L275.2,93l9-6.6l9,6.6L289.9,82.4z"/>
	</g>
</g>
</svg>
