<svg version="1.1" xmlns="http://www.w3.org/2000/svg" xmlns:xlink="http://www.w3.org/1999/xlink" x="0px" y="0px" viewBox="0 0 244.2 315.9" style="height:40px; width:40px; fill: #024F87; enable-background:new 0 0 244.2 315.9;" xml:space="preserve" role="img">

	<path class="transparent" d="M129.3,36.6H42.2c-11.4,0-20.7,9.3-20.7,20.7v69.4c0,11.4,9.3,20.7,20.7,20.7h87.1c11.4,0,20.7-9.3,20.7-20.7
		V57.4C150,45.9,140.7,36.6,129.3,36.6z M140.5,126.8c0,6.2-5,11.3-11.3,11.3H42.2c-6.2,0-11.3-5-11.3-11.3V57.4
		c0-6.2,5-11.3,11.3-11.3h87.1c6.2,0,11.3,5,11.3,11.3V126.8z"></path>
	<path class="transparent" d="M203.5,165.9h-20.7c-11.4,0-20.6,9.2-20.6,20.6V266c0,11.4,9.2,20.6,20.6,20.6h20.7c11.4,0,20.6-9.2,20.6-20.6
		v-79.4C224.1,175.2,214.8,165.9,203.5,165.9z M214.9,266c0,6.3-5.1,11.4-11.4,11.4h-20.7c-6.3,0-11.4-5.1-11.4-11.4v-79.4
		c0-6.3,5.1-11.4,11.4-11.4h20.7c6.3,0,11.4,5.1,11.4,11.4V266z"></path>

	<path d="M223.2,0H21C9.4,0,0,9.4,0,21v273.9c0,11.6,9.4,21,21,21h202.2c11.6,0,21-9.4,21-21V21C244.2,9.4,234.8,0,223.2,0z
		 M234.2,294.9c0,6.1-4.9,11-11,11H21c-6.1,0-11-4.9-11-11V21c0-6.1,4.9-11,11-11h202.2c6.1,0,11,4.9,11,11V294.9z"></path>
	<path d="M144.6,163.3H27.8c-2.8,0-5,2.2-5,5s2.2,5,5,5h116.8c2.8,0,5-2.2,5-5S147.4,163.3,144.6,163.3z"></path>
	<path d="M144.6,189.3H27.8c-2.8,0-5,2.2-5,5s2.2,5,5,5h116.8c2.8,0,5-2.2,5-5S147.4,189.3,144.6,189.3z"></path>
	<path d="M144.6,215.3H27.8c-2.8,0-5,2.2-5,5s2.2,5,5,5h116.8c2.8,0,5-2.2,5-5S147.4,215.3,144.6,215.3z"></path>
	<path d="M144.6,241.3H27.8c-2.8,0-5,2.2-5,5s2.2,5,5,5h116.8c2.8,0,5-2.2,5-5S147.4,241.3,144.6,241.3z"></path>
	<path d="M144.6,267.3H27.8c-2.8,0-5,2.2-5,5s2.2,5,5,5h116.8c2.8,0,5-2.2,5-5S147.4,267.3,144.6,267.3z"></path>
	<path d="M219,37h-52.5c-2.8,0-5,2.2-5,5s2.2,5,5,5H219c2.8,0,5-2.2,5-5S221.7,37,219,37z"></path>
	<path d="M219,63h-52.5c-2.8,0-5,2.2-5,5s2.2,5,5,5H219c2.8,0,5-2.2,5-5S221.7,63,219,63z"></path>
	<path d="M219,89h-52.5c-2.8,0-5,2.2-5,5s2.2,5,5,5H219c2.8,0,5-2.2,5-5S221.7,89,219,89z"></path>
	<path d="M219,115h-52.5c-2.8,0-5,2.2-5,5s2.2,5,5,5H219c2.8,0,5-2.2,5-5S221.7,115,219,115z"></path>
	<path d="M219,141h-52.5c-2.8,0-5,2.2-5,5s2.2,5,5,5H219c2.8,0,5-2.2,5-5S221.7,141,219,141z"></path>

</svg>