<svg version="1.0" xmlns="http://www.w3.org/2000/svg" xmlns:xlink="http://www.w3.org/1999/xlink" x="0px" y="0px" viewBox="0 0 71.7 72" style="height:40px; width:40px; fill: #024F87; enable-background:new 0 0 71.7 72;" xml:space="preserve" role="img">
	<path d="M36,9.8c0.5,0,0.9-0.4,0.9-0.9v-8C36.9,0.4,36.5,0,36,0c-0.5,0-0.9,0.4-0.9,0.9v8C35.1,9.4,35.5,9.8,36,9.8z"></path>
	<path d="M70.8,35.1h-8c-0.5,0-0.9,0.4-0.9,0.9s0.4,0.9,0.9,0.9h8c0.5,0,0.9-0.4,0.9-0.9S71.3,35.1,70.8,35.1z"></path>
	<path d="M8.9,35.1h-8C0.4,35.1,0,35.5,0,36s0.4,0.9,0.9,0.9h8c0.5,0,0.9-0.4,0.9-0.9S9.4,35.1,8.9,35.1z"></path>
	<path d="M11.9,10.8c-0.4-0.3-0.9-0.3-1.3,0c-0.4,0.4-0.4,0.9,0,1.3l5.7,5.7c0.2,0.2,0.4,0.3,0.6,0.3c0.2,0,0.5-0.1,0.6-0.3
		c0.4-0.4,0.4-0.9,0-1.3L11.9,10.8z"></path>
	<path d="M60.1,10.6l-5.7,5.7c-0.4,0.4-0.4,0.9,0,1.3c0.2,0.2,0.4,0.3,0.6,0.3c0.2,0,0.5-0.1,0.6-0.3l5.7-5.7c0.4-0.4,0.4-0.9,0-1.3
		C61,10.3,60.4,10.3,60.1,10.6z"></path>
	<path d="M36.3,18.2C36.3,18.2,36.2,18.2,36.3,18.2l-0.3,0c0,0-0.1,0-0.1,0c-8.7,0.2-15.8,7.4-15.8,16.1c0,2.7,0.7,5.4,2,7.7
		c0.1,0.1,1.4,2.9,3,4.8c2,2.4,2.3,3.3,2.3,3.7v3.9c0,2.3,1.9,4.1,4.1,4.1c0.6,0,1.1-0.5,1.1-1.1c0-0.6-0.5-1.1-1.1-1.1
		c-1,0-1.8-0.8-1.8-1.8v-3.9c0-1.3-0.9-2.9-2.8-5.2c-1.4-1.6-2.6-4.3-2.7-4.4c-1.1-2-1.7-4.4-1.7-6.7c0-7.6,6.1-13.8,13.7-13.9
		c7.6,0.1,13.7,6.3,13.7,13.9c0,2.3-0.6,4.7-1.8,6.8c0,0-1.3,2.7-2.6,4.3c-2,2.3-2.8,3.9-2.8,5.2v3.9c0,1-0.8,1.8-1.8,1.8
		c-0.6,0-1.1,0.5-1.1,1.1c0,0.6,0.5,1.1,1.1,1.1c2.3,0,4.1-1.8,4.1-4.1v-3.9c0-0.4,0.3-1.4,2.3-3.7c1.6-1.9,2.9-4.7,2.9-4.7
		c1.3-2.4,2-5.1,2-7.8C52.1,25.6,45,18.4,36.3,18.2z"></path>
	<path d="M39.9,69.5L33,70.1c-0.1,0-0.2,0.1-0.2,0.2V71c0,0.6,0.6,1,1.3,1h4.7c0.7,0,1.3-0.5,1.3-1v-1.4C40,69.5,40,69.5,39.9,69.5z
		"></path>
	<path d="M42.3,60.1l-12.5,1.7c-0.6,0.1-1.1,0.7-1,1.3c0.1,0.6,0.6,1,1.1,1c0.1,0,0.1,0,0.2,0l12.5-1.7c0.6-0.1,1.1-0.7,1-1.3
		C43.5,60.5,42.9,60,42.3,60.1z"></path>
	<path d="M41.5,64.8l-10.8,1.5c-0.6,0.1-1.1,0.7-1,1.3c0.1,0.6,0.6,1,1.1,1c0.1,0,0.1,0,0.2,0L41.8,67c0.6-0.1,1.1-0.7,1-1.3
		C42.7,65.1,42.1,64.7,41.5,64.8z"></path>
</svg>