<svg version="1.1" xmlns="http://www.w3.org/2000/svg" xmlns:xlink="http://www.w3.org/1999/xlink" x="0px" y="0px" viewBox="0 0 75 62" style="height:40px; width:40px; fill: #024F87; enable-background:new 0 0 75 62;" xml:space="preserve" role="img">
	<path d="M37.2,31.7c8.8,0,15.9-7.1,15.9-15.9S46,0,37.2,0S21.4,7.1,21.4,15.8S28.5,31.7,37.2,31.7z M37.2,2
		c7.7,0,13.9,6.2,13.9,13.9c0,7.7-6.2,13.9-13.9,13.9c-7.7,0-13.9-6.2-13.9-13.9C23.4,8.2,29.6,2,37.2,2z"></path>
	<path d="M70.3,30.3c-0.3-0.2-0.7-0.1-1.1,0.1c-0.1,0.1-0.2,0.1-0.2,0.2c-1.3,1.9-3.4,3-5.6,3c-2.2,0-4.3-1.1-5.6-3
		c-0.3-0.4-0.8-0.5-1.3-0.3C55.1,31,54,32,53.3,33.2c-0.8-0.6-1.7-1.2-2.7-1.7c-0.4-0.2-1-0.1-1.3,0.3c-2.7,3.9-7.1,6.2-11.8,6.2
		s-9.1-2.3-11.8-6.2c-0.3-0.4-0.9-0.5-1.3-0.3c-1.1,0.5-2,1.1-2.8,1.8c-0.7-1.3-1.8-2.3-3.2-3c-0.4-0.2-1-0.1-1.3,0.3
		c-1.3,1.9-3.4,3-5.6,3c-2.2,0-4.3-1.1-5.6-3c-0.2-0.2-0.4-0.4-0.7-0.4c-0.2,0-0.4,0-0.6,0.1c-4.7,2.4-4.7,7.1-4.6,12
		c0,0.5,0,1,0,1.5c0,0.3,0.2,0.7,0.5,0.8C0.6,44.8,4.1,47,11.5,47c1.6,0,3-0.1,4.4-0.3c-0.1,2.4-0.1,4.9-0.1,7.5c0,1,0,2,0,3
		c0,0.3,0.2,0.6,0.4,0.8c0.3,0.2,6.7,4.3,21.1,4.3c14.4,0,21-4.1,21.3-4.3c0.3-0.2,0.5-0.5,0.5-0.8c0-1,0-2,0-3c0-2.6,0-5.1-0.1-7.5
		c1.4,0.2,2.8,0.3,4.3,0.3c7.5,0,11-2.2,11.1-2.3c0.3-0.2,0.5-0.5,0.5-0.8c0-0.5,0-1,0-1.5C75,37.4,75,32.7,70.3,30.3z M11.5,45
		c-5.4,0-8.5-1.2-9.6-1.7c0-0.3,0-0.6,0-1c0-4.4-0.1-7.9,2.8-9.8c1.7,2,4.1,3.1,6.7,3.1c2.6,0,5-1.1,6.7-3.1
		c0.9,0.6,1.5,1.3,1.9,2.2c-2.5,2.7-3.5,6.1-4,9.9C14.7,44.8,13.2,45,11.5,45z M57.2,54.2c0,0.8,0,1.6,0,2.5
		c-1.7,0.9-8,3.7-19.7,3.7c-11.6,0-17.9-2.8-19.5-3.7c0-0.8,0-1.7,0-2.5c-0.1-9.2-0.1-16.5,6.7-20.5c3.1,4,7.8,6.4,12.9,6.4
		s9.8-2.4,12.9-6.4C57.3,37.7,57.3,45,57.2,54.2z M72.9,42.3c0,0.3,0,0.6,0,0.9c-1.1,0.5-4.2,1.7-9.6,1.7c-1.6,0-3.1-0.1-4.5-0.3
		c-0.4-3.9-1.5-7.3-4.1-10c0.4-0.9,1-1.6,1.9-2.1c1.7,2,4.1,3.1,6.7,3.1c2.6,0,5-1.1,6.7-3.1C73,34.4,73,37.9,72.9,42.3z"></path>
	<path d="M63.3,31.3c4.7,0,8.6-3.9,8.6-8.6c0-4.7-3.9-8.6-8.6-8.6s-8.6,3.9-8.6,8.6C54.7,27.5,58.5,31.3,63.3,31.3z M63.3,16.1
		c3.6,0,6.6,3,6.6,6.6s-3,6.6-6.6,6.6s-6.6-3-6.6-6.6S59.6,16.1,63.3,16.1z"></path>
	<path d="M11.6,31.3c4.7,0,8.6-3.9,8.6-8.6c0-4.7-3.9-8.6-8.6-8.6C6.9,14.1,3,18,3,22.7C3,27.5,6.9,31.3,11.6,31.3z M11.6,16.1
		c3.6,0,6.6,3,6.6,6.6s-3,6.6-6.6,6.6S5,26.4,5,22.7S8,16.1,11.6,16.1z"></path>
</svg>