<svg viewBox="0 0 307.31 400" xmlns="http://www.w3.org/2000/svg" style="fill: #9A9393; height:115px; width:88px; " role="img"><path d="m199.94 88.88-1.36-.46-.43-.1h-.53l-.08-.11-.13-.7-.24-.13-.82-.14-.24-.09v-.15l.05-.24-.16-.16h-.28-.28l-.43.16-.21.15-.08.17v.35l-.05.17-.15.22-.68.56-.28.17h-.27-.11l-.18.21-.28.5-.11.15-.18.15-.37.23-.39.18-.63.21-.36.07-.24-.07-.16-.48-.34-1.41-.06-.1-.07-.06h-.08l-1.15.18h-.63l-.62.32h-.16-.32l-.23-.05h-.06v-.14-.15l.08-.15.28-.43.23-.26.11-.08 1.04-.37.26-.16.13-.16v-.16l-.05-.21-.19-.51v-.47-.24l.07-.36.26-.87.09-.43.13-1.53.09-.44.13-.41.13-.24.34-.48.26-.2.34-.13h.07l.06.06.12.2.47.19.15.19.1.21.06.26-.06.12-.22.17v.08.06l.42.27.32.67h.08.1l.16-.19.37-.53.1-.05h.15l.55.35.19.19.11.27.11.1.43.14h.41l.53.14.2.1.42.51h.05l.49.21.74.46.19.07.72.15.26.12.26.17.28.32.32.49.26.79v.16.09l-.1.1-.41.32v.06h.4l.87-.2.54.14h.18l.19-.25h.21l.31.24.2.19.09.15v.08h-.21l.5.14.44.23-.09.14-.47.33-.48.28-.56.43-.14.06h-.07l-.31-.08zm59.28 40.12-.07.12-.4-.11-.09-.17h-.28l-.42.25-.72.27-.23.11-.14.1-.16.17-.13.4v.06l-.35.29-.14.06.05.09v.08l-.14.28-.18.22-.26.13-.07.05-.05.09v.07l.07.07.2.11h-.13-.22l-.07.06-.16.24-.08.13-.33.8-.24.52-.49 1v.1l.07.2.23.28v.05h-.15l-.24-.17h-.13l-.21.12-.17.2-.07.14v.25l.07.13.21.09h.27v.06l-.14.09-.11.3v.1l.09.1.12.07h-.1l-.31-.22-.31-.06h-.09-.1l-.21.24-.12.32-.22.44-.11.37-.06.08h-.3l-.08-.05-.06-.08v-.12l.16-.17h-.05l-.51.35-.25.2v.1h.51l.51-.06h.27l.26.06h.38l-.38.22-.24.09-.24.25-.58.49-.72.48-.15.18-.05.13v.07l.09.38.14.3.1.09.23.1h.41l.75-.14.24-.07.19-.09.21-.14v.13h.22.72.09l.52.1h.43l1.2.17h.41l.12-.08.61-.07.31-.11h.14.1l.16-.3h.07l.07.05h.16l.24-.08.14-.08v.09l-.06.57-.49.2-.1.06h.1l.51-.08h.11.09l.46.09h.17.09l.06-.05.05-.14v-.27l.06-.06h.39.28l.09.07h.21.13l.24-.1v.07l-.17.21-.25.16-.5.19-.39.56-.09.11-.21.17-.27.12-.38.08-.15.06-.19.16-.08.13v.05.08l.16.12h.09.13.31l.28-.09h.12l.18.05h.2l.14-.1.26-.3.1-.17v-.21l.53-.61h.13.13.22l.18-.14.23-.26-.18.32-.05.15.17-.09.08-.07.05-.1.07-.27.39-.63v-.22h.06l.33.16.14.14.11.33.09.4.05.13.07.07v.15l-.23.37-.28.51-.15.34v.15.11l.09.12h.07.06.16l.34-.29.2-.21.18-.24.14-.13h.09v.1l-.08.26.08.15v.2l-.05.61.07.12h.05.07l.36-.23h.13.07l.09.06.09.1h.11.12l.1-.08.09-.12.16-.28.17-.44v-.11-.1l-.05-.17.52-.94v-.13-.23-.21l-.07-.21v-.15l-.08-.07h-.08l-.08.13-.13.31-.17.2-.26.2-.15.08.02-.14v-.07-.41l.05-.24.1-.23.26-.48.1-.16.19-.19v-.06h-.08l-.38.23-.46.2-.51.75-.23.24h-.15-.22l-.09-.09-.08-.13-.06-.18.38-.36.09-.14v-.13h-.32-.18l.26-.07h.11l.31-.06.07-.06-.05-.19-.11-.1.18-.07.29-.19.16-.18h.08.18.1l.1-.08.18-.24v-.1-.17-.18-.07l-.16.08-.21.17h-.13-.2-.11l-.33.24-.21-.09-.22.05-.14.14h-.12-.19l-.39.14.1-.08.42-.19.21-.12.05-.15.16-.23v-.08h-.2-.24l-.18-.07.17-.09.09-.08h-.23l-.34.06h-.14l.59-.3.14-.1v-.08-.13l.12-.12.2-.13.22-.19v-.15-.21l-.11-.17-.32-.19-.24-.13h-.22l-.72.06h-.11-.09l-.08.07-.13.18v-.18-.2-.19h-.08l-.18.11-.16.14-.15.17-.15.1h-.15l-.15.08-.17.15h-.07v-.1h-.08l-.26.16-.16.13v.06.17l-.19.13.05-.14v-.13l.2-.29.08-.2v-.22-.22l-.06-.08h-.08v.3.07l-.13.05v-.17l-.06-.11-.27.09-.43.08-.32-.24-.52.17h-.1l.45-.39v-.19-.08h-.08-.17l-.17.06-.16.11.23-.26.74-.37.31-.19.13-.14.05-.13-.06-.05-.33.1h-.33l-.25-.15h-.12l-.34.11-.2.12v-.05l.08-.17v-.14l-.06-.12h-.08l-.15.07-.17.23-.13.24-.12.11-.17.09-.25.24-.34.41-.15.11v-.18-.11-.12-.07l.12-.14.08-.14v-.08-.17-.13l.09-.15.35-.45.13-.19.07-.24v-.09l.17-.11.43-.51.14-.2v-.25-.08l.07-.06.27-.18.2-.21.17-.38v-.17-.13-.11l-.05-.07h-.06-.07l-.2.05h-.09l-.07-.08v-.11-.2h.2.49.23l.11-.05.12-.14.17-.31v-.08l-.1-.08h-.06l-.33.05-.08.06zm-82.15-120.24.43-.12.62-.26.48-.09.34.1h.34 1.18l-.06.13-1.63.81-.13.19.45.13h.26l3.05-.78 1.15-.12h.87l1.17.18-.05.09h-1.17l-1.15.1-.62.15-1.23.47-.57.33.09.14 1 .29-.12.06-.7.07-.88.29-.08.26.43.33.39.18h.52l1.18-.18 3.72-.13 1.5-.22 1.73-.65 1.09-.25.45-.05.61.05-.33.22-1.67.67-1.54.48-1 .19-1.06.07-2.37-.07-1.73.32-.23.15.12.18.16.15.19.13.32.13.69.19.9.36.53.15.67.1.88-.07.58-.3 1.95-1.21.61-.34.43-.13 2.64-.34 3.11-.27-.14.24-3.07.33-1.37.41-.91.34-1.41.74-.44.33-.37.34v.19l.13.06.65.21h.35l.86-.1 1 .29h.37 1.68l.45-.06.33-.1.44-.24.55-.39.57-.22 1.43-.12.65-.14h.64l-.27.23-1 .53-.27.29.63.1h.56l1.88-.33h.58l.68-.15 2-.59.86-.42.36-.21.14-.15.16-.28.17-.42.22-.28.25-.16.29-.05h.33l.45-.17.88-.59.88-.39 2.5-.55-.33.24-1.17.36-1.73.84-.41.29-.38.39-.12.23-.08.27.38.16 1.27.09h1.41l.63.05.61.1v.07l-.71.12h-.78l-2 .27-2.84.78-.11.12-.87.52-2.14.45-3.59.37-.57.12-.46.16.06.24.64.55.8.57 1.09.58.5.35.66.54.41.29.39.21.69.09h1 .38l-.34.18-.47.15h-.45l-.85-.07-1-.21-.52-.16-.39-.2-.44-.31-.76-.66-.69-.45-.75-.32-.79-.49-.87-.44-.77-.17-1.43-.1h-1.11l-2.65-.25-.44.33-.27.71.28.56.17.91.63.54.27.11 1.32.17.44.21.41.27.58.61.73.62.32.39.42.39.51.32.73.38.2.19h-.58l-.52-.2-.47-.13h-.29l-.34.09-.09.16.17.22.19.16.22.11.39.08.85.07h1.66l1 .17h.47l.46-.11.49-.19.32-.07h.32l-.07.13-.47.26-.39.18-.32.09h-.35-1.26l-.36.19-.29.19-.27-.05-.37-.13-.83-.17-2-.24-.49-.14-.68.16-1.06.29-1.27.11-1.3.25-.34.56-.49.54-.45.4-.3.31v.67l-.14.54.49.22h1l.51-.12.61-.23.82-.44.35-.29-.33.78-.35.53 1.45-.14.39-.16.34-.29.57-.57.55-1.09-.29 1.46.83-.06.37.22.39.16-.7-.11h-.21l-1 .67-.54.26-.65.41.59.81v1l.46.21.53.08.86-.31.73.2h.56l.34-.07.81-.44.29-.26 1.38-1.43.25-.15-.07.28-.09.23-.11.2-.44.58-.8.73-.53.35-.16.16-.14.19-.26.14-.58.12-1.18.11h-.58l-.49-.06-1.47-.43-.33-.23-.41-.52-.61-.66-.49-.31-.85-.27-.61-.14h-.5l-.6.1-.6.17-.6.26-.18.33.36.59.36.53.23.27.21.21.37.23h.38l.19.06.19.12.52.52.15.08-.1.05h-.49l-.68.15h-.57l-.51-.05-.73.06-.58.1-.37.16-.49.38-1.68.81-.1.81-.06.81.46.08 1.3.08.6.18v-.61l-.12-.5.27-.59v.93l.19.84h.68l1.4.12v-1l.32.67.86.17.69.17.27-.67.25-.33h.08l.12.15.17.28.41.27 1 .41.78.17h.47l2-.25.11-1.53.55.87.23.2 1.15.07 2.79.08.06-.23-.12-.29-.22-.3-.32-.3-.08-.12.31.16.19.17.22.07h.24l.18.06.49.53.24.12.29.05h.27l.26-.08h.44l.23.06.23.14.32.3v.18l-.16.23-.12.25-.1.26.08.15h.38.25l1.16-.3h.54l1-.29.52-.21.36-.23.45-.23 1.5-.58.38-.35.31-.53v-.47l-.39-.4-.28-.21h-.19l-.2.07-.46.29-.31.11h-.43l-.56-.21-.23-.22.11-.22v-.29l-.14-.35-.36-.19h-1l-.68.23h-.13l-.92-.45-.29-.08-.73-.05-.37.06-.6.21-.51.05-.19-.05-.29-.16-.23-.18v-.06h.6l.56-.07.51-.16.06-.11-.24-.09-.28-.22-.35-.34v-.14l.32.08.33.14 1.16.61.69.21.67.07h.87l1.77-.16h.62.37l.5-.14.48-.21.27-.22.21-.3.07-.48-.08-.65v-.64l.06-.33.1-.17h1.33l1.11.1.61-.05.82-.27h.64.25l.23-.08.73-1.06.82-.54-.1-.14-.58-.24-1.53-.46-.64-.11h.09l.94-.05h1.32l1.19-.11.77-.39v-.2l.24-.33-.12-.13h-.31l-1.11-.51-.69-.12h-.91l-.37-.36-.28-.13-.41-.11-.62-.09h-.7l-1.58.2-.43.13-.43.06-.35-.11-.43-.26-.46-.18h-.32v-.1h.75.65l.57.1h.76l1.45-.16h.55l.35-.09h.51l.57-.09.63.15.28.14.65.13h1.37l.25-.09.12-.91h-.57l-.84.16-.6-.12-.58-.06-.79-.37-.39-.08-.42-.45-.86-.34h-.43l-.1-.13 1.21.1.71.11.68.22.62.08h.56l1.07-.2h.9l.5-.06.4-.13.35-.06h.92.24l.16-.1.12-.16.09-.23-.07-.24-.4-.47-.16-.12-.39-.08h-.94l-1.13-.19-.28-.11.62-.2h.57l.79.17.82.11 2.33.69h.51l.58-.07 1.33-.32.2-.11.44-.34v-.15l-.4-.16h-.18l1.38-.46.46-.38v-.12l-.44-.13h-.27l-1.71.27-.76-.08-.27-.1v-.1l.29-.08h.31.31l.44-.05.85-.22 1.93-.24.12-.24-1-1.22-.1-.18.17.07.54.36.6.33.45.13h.49l.43-.09.34-.21 1-.88.76-.5 2-1 2.42-1 .95-.57 1.91-.76 1.5-.85.12-.3-1.06-.09-1.2-.06-2.46-.18.08-.2.32-.29 1.43-.07.7-.09.48-.13.22-.26.4-.16 1.5.06.32-.05.71-.29 1.23-.29 2.53-.9.74-.2.48-.38.81-.42.79-.54.15-.34-.22-.34-.2-.23-.2-.15-.51-.12-1.79-.18-1.78.4v-.1l.38-.37v-.19l-.69-.5-.48-.23-.11-.11.05-.1.13-.11.21-.13-.06-.12-.33-.12-.83-.09h-.35l-.65.34h-.16l-.3-.23-.33-.33-.29-.14h-.19l-.29.08-.12.1-.19.3-.12.11h-.23l-.35-.14-.43-.17-.91.21-1.09.37-.58.13h-.31l-.92.27-.78.09h-1-.68l.26-.14 3.5-.81.55-.25.4-.25v-.1l-.44-.1-1.86-.06-.5-.06-.7.05h-.42l-.69-.26h-.61l-1.88-.1h-.19l-.49-.39-.2-.1h-.23l-2.08.1-.49.09-.78.36.05.12.47.18.61.34v.05l-.44-.12-.63-.3-1.35-.81h-.2l-1.71.11-1.2.48-.17.13-.08.18v.23l.48.35 1.06.51.27.2-1.43-.28-1-.46-.49-.3-.32-.3-.33-.19-.47-.15-3.09-.2-3.18.22.19.24.31.28 1.15.6.51.33.23.2 1 .46.18.19-.42.21-.61.21-.27-.08-.24-.26-.21-.23-.2-.15-1.85-1-.59-.26-.32-.07-.8-.07-1.29.09-1.5-.25h-1.63l-.61.16v.09l.38.21.33.24.44.18 1 .3 1 .23.1.08h-.66l-2.4-.18-1.36-.37h-.82l-.27.1-.11.1.07.16.78.74-.13.09-.75-.19-.9-.28h-.47l-.77.12v.16l.38.22.64.26-.09.07-.7.07-.57.17-.42.21v.18l.45.33.59.33 1.22.49 3.08.92 1.16.54.47.44h-.1l-.5-.19-.52-.28-.56-.23-.92-.16-2.38-.65-1.6-.55-.6-.16h-.25l-.16.09-.09.19.21.21.76.37-.07.15-.65-.08-.32-.1-.55-.27-.38-.25-1-.79-.53-.14-1.22-.13-.43-.14-.44-.22-.35-.07-.87.25-.47.22-.73.43h-.29l-.61.19-1 .17.08.18 2.93.8.32.12.27.16v.07h-.83l-.31.15h-.24l-.53-.12-.66-.28-.5-.11h-.58l-.47.1-.39.23v.19l-.46-.23-.43-.3-.54-.18-1-.06-1.16.2-.71.24-.65.35-.52.22-.58.12h-1.22l-.75.1-1 .28-.64.22-.47.24-.51.33-.09.27.65.32zm67.75 68.32.42.15.45.31h.18l.33-.16v-.16l-.1-.22-.38-.34-.71-.6-.33-.34-.36-.1-.59.55-.52-.09-.21-.08-.14.08h-.15l-.29-.06-.42.09-.75.24-.39.17h-.15l.91-.67.11-.12.06-.17.09-.19.08-.22.28-.24-.64-.4-.47-.08-.17-.08-.19.13-.34.12v.2h-.52-.29-.39v-.18l-.5-.05-.25-.14h.27.26.38.68l-.16-.58.53-.28-.39-.35-.32.13-.55-.46-.3-.29-.26-.11-.44.22h-.44l-.12-.14.11-.27.16-.19.11-.11.07-.1-.2-.17h-.13l-.2.06-.55.35-.26.24-.06.18.06.43.06.17-.32-.35v-.14l.15-.54-.05-.13h-.14-.3l-.13.12-.25.13-.25-.13.07-.3v-.15h-.1l-.55.43-.27.42-.11.08h-.12l-.19-.07.27-.17.32-.54v-.33l.12-.63-.73.12-.23.16.06.4-.14.3v-.36h-.06l-.39.27h-.06v-.13l.17-.33v-.29l-.16-.19-.4-.21.08-.19.54-.21.12-.08-.07-.05h-.26-.59-.21l-.27-.09h-.31l-.26-.14-.21-.07h-.25l-.25.1h-.15l-.23-.11-.25-.26v-.26l-.13-.09-.3-.15-.48-.07h-.76l-1-.39h-.06.3l1.14.26h.13l.29-.13h.21.29l.71.2h.31l.2-.32.1-.28v-.43l-.18-.11-.67-.27-.42-.14h-.26l-1.33.38-.11-.08 1-.44.49-.1.48.12.6-.19.4.2.37.11h.28l.35-.07.29.06.93.07.22-.06.07-.1v-.27-.11l-.07-.11-.13-.1-.65-.35-.42-.15h-.29-.83-.24l-.26-.13-.34-.07-1-.41h-.63l-.67.19h-.4l.05-.14.24-.11.66-.2.39-.09h.68l.19-.08.1-.15.13-.12.18-.1.21-.07h.5l1.08.24h.18.09l.06-.11.05-.18-.06-.25-.28-.57-.1-.15-.81-.76-.33-.26-.47-.15h-.14l-.19.14-.18.22-.1.2v.08l.25.14v.06l-.17.11-.2.06h-.23l-.2.14-.18.26-.21.11-.45.02-.25-.11.39-.41.14-.09.12-.19v-.14l-.1-.06h-.33l-.75.09-.55.1-.35.13-.37.34-.27.08-.33-.06v-.18l.83-.49.61-.26.32-.1h.5l.55-.11h.11l.35-.24.19-.1h.18l.15-.1.12-.17v-.18l-.09-.17-.11-.12-.11-.07-.91-.32-.41-.18-.23-.15-.28-.08h-.25l-.38.05h-.31l-.23-.2h-.36l-.31.07-.58.17-.51.21-.67.4-.3.26-.15.26-.62 1.29-.21.33h-.06l.35-1.24v-.31l-.12-.13-.11-.07h-.12-.12l-.2.17-.27.36-.1.1h-.11l-.28-.38.21-.1.16-.13.17-.19.16-.14.48-.16.43-.1.39-.19.6-.5.25-.33v-.13-.44l-.08-.19-.28-.22h-.08-.14l-.36.21-.33.3h-.38l-.86-.3-.61.14-.33.31-.17.3-.2.15h-.74l.08-.08.34-.14.35-.23.63-.54.2-.12h.19l.61.07.22-.08.23-.17.41-.39.07-.17-.1-.26-.06-.09-.17-.18-.3-.26-.41-.22-.54-.2-.56-.13-.57-.08h-.36-.14l-.28-.14-.46-.16-.66.48-.21.11-.07.23.27.58v.28l-.19-.17-.32-.21-.19-.46-.32-.19-.21-.27-.32.29-.28.2-.21.2-.31.09.76-.83.36-.51v-.12l-.24-.11h-.13l-.29.09-.33.29h-.62l-.19.1-.26.27-.22.5-.14.56-.55.51-.09-.06.24-.35.21-.4v-.18l-.08-.23.1-.29.28-.32v-.12h-.6l-.53-.1v-.08l.72-.07.24-.07.38-.19.71-.24.15-.22.09-.2v-.17l-.13-.25-.06-.06-.19-.07-.33-.08h-.41-.48l-.56.16-.65.34-.39.28-.22.35-.29.39-.18.14h-.06v-.06l.29-.31.33-.58.23-.3.34-.14.79-.81v-.19l-.07-.23-.12-.24-.15-.24-.25-.21-.94-.39h-.3l-.31.06h-.28-.23l-.66-.26-.51-.27-.45-.12-.84-.06h-.72l-.43.06-.57.16-.8.38-.17.13-.08.13v.14.17l.07.15.38.33.83.29.54.24.36.08.05.18h-.48l-.9-.43h-.45-.27l-.36-.22-.27-.09-.28.37-.1.71.17.31.18.25.21.16.08.16v.07h-.06l-.38-.21-.53-.49v-.26-.36-.37l-.45-.36-.3-.15-.24.23-.36.1-.16-.08-.09-.19-.2-.27h-.12l-.22.08-.26.15-.06.07-.1.2v.14l.48.53h-.1l-.44-.17h-.15l-.47.26-.73.69-.23.26-.13.07h-.15-.05l.05-.09v-.14-.19-.15-.1l.07-.07h.11.25l.1-.07-.53-.38v-.08l.28-.22.27-.33.23-.39v-.11h-.34l-1.11.78v-.15l.53-.5.75-.58.57-.52.24-.17.11-.12v-.21l-.35-.2-.16-.18-.21-.32-.07-.3.09-.3v-.25l-.18-.2-.32-.18-.47-.17-.29-.31-.2-.73-.25-.53-.14-.17-.46-.27-.78-.15h-.6-1.05l-.42.06-.23.08-.18.1-.9.2-.74.25-.4.21v.09l.31.36-.71-.19h-.75l-.46.3-.93.24-1 1 .16.27.67.18 1.89.74v.17l-1.69-.54-.63-.15h-.29l-.15.09-.28.3-.1.16-.06.2v.23.39l.05.12.15.16.13.25.24.29.12.1.42.17h.23l.22-.09h.26l.52.13-.05.11-.38.09-.07.1.15.21.31.3.68.41.15.16v.06h-.16l-.59-.33-.95-.38-.7-.07-.19.08-.32.49-.28.17-.45.18-.12.15.23.13.5.39.19.21.27.38.13.13.21.1.27.06h.23.44l.33.11.09.2v.3.33l-.08.34-.19 1.12-.08.28-.11.11-.27-.13-.14-.11v-.08l.06-.06.09-.19-.21-.06h-1.27l-.42.12-.69.32-.45.14-.53.12-.09-.1.27-.13.67-.23.54-.28.44-.13.81-.14.62-.33.26-.21-.13-.19-.57-.4-.48-.27-.5-.37-.65-.55-.43-.55-.18-.55-.1-.42v-.3-.3l.05-.61v-.26l-.13-.28-.49-.59-.14-.28v-.17l.09-.47.12-.18.22-.22.91-1.33.2-.23.73-.66.44-.3.66-.34.53-.41.07-.12-.09-.18-.06-.07-.23-.13-1.94-.19h-1l-.83.09-1.63.33-.57.17-.47.22-.56.35-1.41.91-.05.06v.11.13.1l-.49.27-.32.31-.26.33-.09.17-.05.23-.06.33v.44l-.07.17-.42.5-.38.53-.26.44-.11.24v.2.24.28l.08.17.26.12h.13v.08l-.62.47-.21.43v.2l.1.23.1.46.1.67.1.4.09.13.26.16.64.31.78.27 1.13.2 1.22.06.43.08.26.12.43.3.47.24.53.17-.1.1-.81.13-.72.05h-.44l-.63-.13-.47-.2-.42-.06h-.76l-.78-.09h-.21l.11.11.08.17.27.78.11.21.83 1 .15.12.28.1.6.12.52.31.64.48h.14.11l.28-.22h.12.26l.61.06.41-.06v-.08l-.19-.14v-.09h.11l.72.1h.24.19l.52-.27-.08.09-.07.16-.08.23v.26l.29.48.09.11.28.17 1 .28.8-.3.87.13h.33l.19.06.15.13.56.12 1.52.17h.66l.88-.18h.14l.38.15 1 .42.44.12h.36l.42-.11.9-.31 1.49.88.19-.17v-.08l-.19-.25-.23-.2-.4-.34-.3-.17h-.22l-.24-.09-.29-.19.22-.07 1.06.08.63.14h.36l.65.17.29.06h.23l1.26.42h.23.49l.48-.12.47-.22.17-.14.09-.15v-.23l-.08-.31-.13-.27-.16-.21-.19-.13-.76-.2-.14-.12v-.15l.12-.19.21-.22.22-.17.22-.11.19.09.19.3.16.19.13.08.35.38h.11l.19.13.48.36h.12.17l.73-.12h.15l.12.28.11.54v.31l.06.27.11.22h.22l.6-.07.5.07h.13l.24.2v.13l-.34.23-.2.07-.06.08.09.07.16.07h.24l.4.15.13-.07.22-.27.18-.11h.21l.44.1-.53.14-.12.12v.17.14l.12.19.13.11.22.08h.29l.33.1.6.27.08.08.24.36v.21l-.22.23-.22.17-.22.12h-.31l-.67-.1-.27.08-.14.09-.11.28v.52.12.1.13.13l.08.09h.41l.39-.14.91-.46.5-.19.24-.26h.15l.21.06.35.15.25-.12.35-.34.23-.17h.11l.2.07-.12.1-.34.16-.08.09.06.08h.25l.17.09v.08l-.36.28v.06h.19.15.1l.05.08v.14l.11.19.52.51.17.1.18.06h.2l.45-.05v-.12l-.35-.49.11-.06h.32.19l.07.07.05.11v.15.17l-.12.32-.09.14v.14l.14.26.16.15.25.12h.14l.63-.28h.06l-.11.19v.17l.61.63.36.65.42.52.34.61.51 1.24.12.14.16.09v.12l-.33.47-.28.14-.42.1-.28.16-.37.57-.06.21v.25l-.11.14-.39.12-.19.09-.17.15-.17.2-.35.3-.81.57-1 .58-.09.16v.1l.07.16.29.33.56.51.48.28.18.14.24.44.19.41v.22h-.29l-.46-.13h-.29-.34l-.23.08-.43.55-.24.1h-.19-.21l-.36-.1h-.31l-.15.07-.14.12-.13.18h-.35l-.9-.16-.21.07.06.15.62.46.13.14.12.15.09.19v.15l-.11.11-.05.14v.17h-.06l-.24-.14-.08-.09v-.09l.07-.07.13-.25v-.16l-.29-.32-.42-.32-.55-.22-1-.32-.68-.17h-.42l-.31-.05-.36-.12h-.17l-.08.07-.16.24-.07.06v.11l.22.4v.09l-.2.13-1 .34-.27.19-.14.14-.1.17-.11.49-.1.21v.14.19l.05.17.3.44.14.14.45.35h.07.3l.23.07.29.16.28.07h.27.33l.38.12h.31l.22-.16.15-.07h.15.21l.66-.27h.2.5.11l.12-.49.53-.06.36.18.26.08h.35.4l.45-.12.13-.22-.21-.34-.21-.26-.22-.18v-.1h.24.15l.07-.06h.09.1l.1.14.08.26.1.17.12.1h.11.48l.18.08.07.51v.1l.08.07h.09l.1-.06.07-.11.09-.41h.1l.17.07h.15l.24-.12.49.1h.33v.08l-.38.51v.09l.18.08.25.17.22.19.6.61.43.32h.11l.09.12.13.32.2.29h.11l.52-.27h.15v.07l-.09.12-.18.3v.11l.15.07.89-.06.26.07.23.16.14.13v.1h.07.31v.09l-.16.16-.36.25h-.19-.29-.35l.31.22.55.61.27.22.35.22.22.09.6-.28h.02l-.35.37v.06l.24.09.46.25.53.15.53.28.24.1h.39l.25-.07.37-.05.45.08.14.09.41.62.56.53.09.07.83.3.21.14.22.09.37.07 2.16.3.17.07.1.1.33.11.87.22.58.31.29.12.24.07h.15l.31-.09.15-.07v-.19l-.14-.31v-.17l.25-.13.05-.07.06-.18-.08-.08-.19-.06-.43-.2-.17-.17-.24-.4-.16-.17-.27-.33-.15-.11-.48-.17-.14-.08-.53-.51h-.13l-.23-.21-.31.13-.62-.22v-.09l.13-.14v-.08h-.28l-.27-.06-.53-.21-.15-.16-.38-.5-.42-.39-.27-.2-.27-.29-.28-.4.12-.18h.52l.32.06.58.32.93.69.19.11h.08v-.25l-.18-.53-.16-.36.11.07.31.29.49.56.54.51.19.13h.37.05v.18l.12.11.21.09.14.14.06.19.05.11h.06.14v-.14l-.07-.42v-.11l.13.17.24.44.19.25.28.11h.14l.07-.05-.06-.25-.05-.12h.06l.56.39.14.12.13.17h.07.06l.06-.07h.15l.39.23.4.29.3.26.2.24.17.08.13-.07v-.2l-.27-.83.07-.08.48.23h.13.27.16v-.08l-.1-.08-.12-.17-.12-.25-.17-.23-.36-.4v-.1-.07h.1v-.15l-.06-.39-.14-.6-.1-.31-.12-.2v-.07l.46.44.13.16.11.19.44 1 .07.08h.18l.17-.08v-.34-.38l-.12-.4v-.39h.18l.17-.07-.21-.31-.18-.39-.13-.08-.31.05h-.07l.26-.17v-.18-.06h-.25-.29l-.23.07-.36-.08.08-.11v-.07l-.1-.16-.2-.19-.15-.19-.54-.23v-.06h.2.38.3l.32-.5-.05-.17-.19-.1h-.72-.09v-.08l.37-.23.17-.16-.36-.36-.19.08-.21-.13v-.11l-.32-.31-.4-.12-.21.15-.18.2-.1.21-.14.05-.16-.12v-.09l.21-.19v-.09l-.28-.21-.4-.23-.27-.11-.08.1v.6l-.08-.16-.15-.6-.07-.21-.07-.06h-.06-.06-.14v-.07-.07-.13l-.16-.27-.25-.22-.28-.15h-.09l.44-.24v-.08l-.42-.16-.07-.1v-.15l-.13-.15-.2-.14-.19-.07h-.16l-.18.06-.43.24h-.07l-.06-.06v-.16l.2-.57-.07-.08h-.17l-.33-.12-.17-.16-.16-.26v-.21l.14-.17v-.16l-.58-.36-.24-.06h-.33-.08l.51-.19h.16l.72.46.44.44.3.19.64.16h.35.11l.18-.1.2-.3-.26-.21-.58-.37-.36-.31-.22-.38-.19-.39v-.09l.3.13.42.22.44.32h.13.2.08v-.65l-.29-.34v-.19l.27.14h.26l.25-.09v-.13l-.1-.16h.07l.28.13.18.15.06.18.11.19.54.69.14.1.32.1.16.09.33.28h.29l.19-.06.23-.11.16-.16h.07l-.46.45-.08.26.15.09h.65.3l.25-.06.7-.26.27-.23.29-.36.24-.21.35-.15h.14l-.28.17-.25.31-.23.43-.19.24-.41.11-.35.18-.21.19-.23.26-.06.22.15.21h.06l.07.1.17.33.07.08.16.39.29.34.31.28.19.25.23.25.25.19.2-.51.3-.42.12-.14-.09.29-.08.57.22.22.22.18.21-.21h.2.18l.15.1.1.12.12.23.3.23.28-.35.19-.36.09-.42v-.98l.06-.28-.4-.07-.48-.07.53-.13v-.18l-.12-.31v-.06l.5.59.17.15.46.13.35-.09.11.06h.26l.11-.32.28-.31.24-.11v-.13l-.05-.15-.09-.15-.11-.11-.29-.16.07-.07.29.07h.51.24l.34-.09-.07-.12-.5-.31-.68-.3.09-.17.18-.07v-.11l-.34-.35h.1.31l.23.07.27.21.47.11h.21l.67-.23v-.26l-.17-.35-1-.47-.08-.07.25-.12zm-67.65-27.44.41-.5.16-.23.06-.15.09-.12.39-.23.46-.48.23-.3.2-.32.06-.2-.24-.18-.39-.19-1.06-.26-1.25-.08-.57.06-.8.19-.21-.1-.41-.31-.22-.09-.44-.14-.91-.22-.55-.08h-.32l-.54.23-.36-.07-1.25.09-.57.12-.56.2-.15.08-.19.18-.06.11v.24.12l.17.34.38.4.23.13.24.07h-.27l-.41-.11-.9-.31h-.14l-.29.1-.14.15v.11.51l.09 1v.69.26.51.25.26l.05.23.07.22.69 1.22.13.69.06.71-.06.66.43.07.91-.13h.27l.81.19.25-.12.15-.44.23-.53.73-.74v-.06-.28-.14l-.06-.12-.46-.48-.34-.15-.54-.14-.13-.09 1.45-.2h.55l2.19.36h.36l.27-.12.49-.42.27-.29.39-.49.37-.53.08-.22-.09-.08-.21-.1.59-.22zm-12.43 4.23.27-.22.11-.18.08-.23v-.29l-.1-.34-.12-.3-.11-.05h-.19l-.45.11-.42.22h-.18l-.07-.06v-.13l.16-.2v-.2l-.35-.33-.32-.12v-.06l.14-.08v-.09l-.07-.09-.34-.24-.37-.16h-.21-.49l-.28.07-.28.12-.42.26h-.13v-.08-.19-.09l.09-.1.46-.32.88-.75.72-.24.49-.21.09-.15-.13-.17-.14-.1h-.28l-.14.06h-.12-.07v-.09l.07-.16h.25l.22-.17h.25l.3-.1.14-.1.21-.23v-.14l-.23-.37-.14-.16-.12-.09-.24-.08-.59-.11h-.2-.37l-.22.07-.52.21-.85.12-.61.14h-.59l-.27.08-2-1-.31.08-.2.18v.08l.16.12h.27l.23-.06.06.05-.18.23h-.44l-.7-.19-1 .17-.11.06-.05.12v.17l.06.16.13.15.26.2.29.09.12.08.16.29.07.2v.07l-.36-.2-.41-.34-.28-.13h-.32l-.48.1-.32.17-.13.13v.09l.09.18.07.06 1.3.7h.31l.39-.09.2-.07.3-.2.25.09.59.45.41.11-.32.05h-.24l-.36-.19h-.27-.22l-.12.09-.11.16v.15.11l.2.08h.26.12l.1.11.12.18.21.41v.08l-.09.17-.14.07h-.09l-.32-.35h-.06l-.11.75-.06.12-1 .2-.44.06h-.43l-.17-.11-.2-.33-.25-.27-.17-.12-.32-.14-.1-.14-.08-.19-.2-.18h-.23-.42l-.31.06-.38.26-.11.12-.18.3-.14.3-.06.26v-.13l.12.2.59.55 1 .47.15.24.17.1.07.1.07.19.15.15.52.16.48-.16h.16.09l.27.16.15.22.1.08.42.05.22.06.26.14.62.64.46.4.9.67.35.45.41.4.3.57.12.16.13.08h.42l.2.08.26.16.28.05.29-.07.29-.13.49-.39v-.09-.13l-.08-.29-.44-.67-.09-.24.16-.22.16-.12v.07.12.16l.06.21.09.15.14.08 1.38.14h.28l.55-.17.25-.16.21-.21.18-.13.77-.18v-.58l-.21-.25h-.1v-.06l.35-.43v-.12-.13l-.05-.15-.12-.14-.29-.19h.13zm106.47 205.47-.43.26-.11.21-.05.24v.14.12l-.12.14v.1.5.24l.17.15h.27v.07.08h-.17-.14l-.07.26.08.3.12.33.13.28v.13l.22.21h.15l.24-.1h.53l.1-.1h.13l.23.12.24.07.13-.08h.23l.14-.06.15-.19v-.27l.23.1.14.09h.25l.07-.09.05-.17v-.17l.2.21h.11.12l.13-.05.22-.21.1-.2-.06-.11v-.12l.11-.12.14-.09.06-.06.18-.27.13-.22.05-.1v-.11l-.06-.27h.1l.06-.06.07-.3.09-.21.11-.21v-.12l-.12-.06-.16-.06h-.17-.46l-.76-.12h-.23-.23l-.2.11h-.31-.21l-1.43-.26zm-56.34 118.66-.18.25-.52.15-.11.15v.08.26l.13.24.06.16.12.25.06.08.09.43.21.27.49-.08.28.05v-.07l-.12-.5v-.09-.07-.08l-.12-.13-.08-.27v-.18-.06l-.17-.14-.09-.17v-.5zm7.23 19.47h.21l.26.06h.19l.39.26.37.19h.06l.08-.15.13-.12.05-.1v-.27-.16h-.34l-.51-.25-.37-.25-.35-.1-.67-.12-.17.12h-.18l-.15.34.28.23.27.28.06.3.3-.08zm-121.31-259.47.6.23.45.15.75.16.08-.07.12-.16.09-.08.26.06.06-.13-.19-.45v-.19l-.06-.08h-.06v.05.21l-.06.06-.3-.71-.29-.38-.15-.39-.08-.11-.19-.15-.14-.16-.44-.23-.71-.24-.34-.14-.43-.31-.23-.33v-.09h.07l-.07-.14-.31-.35-.38-.49-.19-.29-.24-.44-.14-.19-.12-.08-.19-.05-.52-.06-.84-.22-1.17-.21-1.15-.38-1.19-.55-.47-.12h-.42l-.33.09-.13.11-.11.15v.14l.19.27.31.26.18.07h.21.23l.31-.11v-.13-.09h.52l.14.05-.14.14v.12l.08.21v.07l-.21-.19h-.14-.44-.1l-.07.05-.13.3v.06h.22v.06.25l-.11.18v.07h.11.21l.22-.13h.48l.09.1.07.14.11.1.14-.06v-.07-.1h.08l.05.06v.08.07l-.06.18v.13l.07.11.12.1h.15.17l.07-.06v-.1l.12.07h.24l.15.09.2.33.08.1h.08.37l.14.13.13.05h.49v.06l-.66.1-.23.08v.1.38l.06.06.13-.15h.06l.26.2h.06v-.12h.06l.17.08h.16.06l.06.08h.06l.2-.1v.06l-.11.28.07.12h.08l.19-.08.09.05.16.18h.08.09l-.13.14-.25.09v.05l.38.19.28.22.12.06h.07l.22-.17h.45l.55-.07h.06l.08-.14.07-.18v-.2.21.18l-.08.16-.19.21-.47.4v.06.12l.24.15.34.17.41.17zm113.15 245.93h.31.23l.08-.05.09-.25v-.44-.12l.05-.09.5-.34h.05l-.12.11-.06.08v.27l-.1.09-.06.17v.1l.13.27v.27.15l.11.25h.13.26l.05-.05.07-.22.1-.18.06-.22v-.28-.07h-.1v-.11l.09-.54v-.44-.43l-.13-1v-.14h-.05-.2l-.22-.12h-.1l-.24.08-.17.18v.08l.08.21v.21l-.2.18-.34.18-.06.2.26.11v.25l-.3.07-.12-.09h-.13l-.25.16-.08.1.09.15.15.16.14.1-.08.4h-.42l-.11.23v.28l.23-.07zm-65.19-347.93-1 .17-.78.2-.13.35.38.29h.59l.43.05-.43.49.5.19 1.31-.31.37.19-.47.45-.16.28h.85l.84-.08.16-.13.2-.29.24-.12.63-.15.09-.06v-.07l-.49-.29-.45-.34h-.15l-.11-.48-.11-.41-.33-.12h-.85zm16.67 6 .06.16.05.1h.06l.2-.14.2.08.53.47 1 .15h.38l.75.43.36.18.25.09h.37.76.51l.83-.08h.12l.06-.1v-.16-.11h.06l.03-.07.06-.39v-.3-.14l-.15-.35v-.11-.23l.08-.17-.21-.43-.18-.2-.19-.35-.41-.33-.8-.57-.39-.23-.51-.14h-.53-.4l-1.43.44-.42.28-.23.11-.4.4v.27l-.14.28-.26.1h-.21l-.42.52-.07.19v.12.14l.07.05h.4zm15 2h.66l.25-.06.44-.19.15-.13v-.14-.14l-.05-.15.06-.06h.18.13l.09-.12.09-.06h.09l.07.12.06.24.07.1.17-.12.22-.4.34-.13h.11l.13.11.21.09-.08.19-.23.35-.14.27v.18.13l.12.14.18.07h1l1 .08.52-.14.85.1h.52l.24-.05-.15-.31h.18l.72.2.3-.1h.24l.35.18h.34l.61-.16.07-.05.06-.1v-.15h.07l.24.26.29.11h.19l.1-.05.06-.36h.12l.22.17.22.12.35.1.56.05h.41l.87-.23h.57l.21-.09.28-.32v-.07l.12-.44-.05-.17-.29-.15-.05-.06-.08-.2v-.05l.27.08.43.26h.14.16v.13.25.18l.13.29.19.22.1.08.45.16h.21.53l.8.24h.3.3l.47-.11.52-.19.27-.06 2.18-.07.09-.33v-.21-.23-.14l.1-.07-.09-.15-.29-.22-.08-.12h.14l.2.06.59.29 1-.22.24-.17-.13-.19-.02-.17-.32-.15h-.16l-.72.15h-.23l-.29-.06-.28-.15.06-.08.88-.31.86-.4.28-.28v-.16l-.18-.42-.17-.3-.18-.06h-.84l-.37-.05h-.06l.37-.25v-.09l-.09-.09-.38-.23-.47-.06h-1.11l-.29-.07-.11-.05-.05-.08.1-.24-.27-.09-.88-.19-1.16-.17h-.46l-.47.07-1.24.3h-.33l-1.17-.29h-.43l-.19.18-.26.09-1.1.51h-.34-.55l-.88.34h-.49l-.9.24-.22.12.38.28-.11.22h-.66l-.46-.14-.25-.13-.62-.13-1-.59-.25.12-.4.5h-.08l-.16-.25-.2-.13-1.09.29-.84-.62-.18-.06h-.19-.16l-.16.1v.17l.11.24v.17l-.08.18-.07.06h-.11l-.84-.52h-.13-.71v-.09l.61-.29.24-.25.12-.18v-.12l-.17-.16-.54-.29-.32.06h-.1l-.23-.34-.27-.2h-.28l-.33-.28-.17-.11-1.07-.11-.2-.14-.51-.17-.59-.09-.3-.28h.34l1 .21 1.19.13 2.08-.15.27-.13.13-.1v-.1l-.15-.2-3.62-.65h-1.11-.19l-.06-.21.1-.05h.28l.16.05.92.08.56.09.18-.15v-.1l-.12-.13-.31-.18-.89-.39-.5-.42h-.56-.56l-1.17.29-1 .06-.64-.08-1 .7-.26.13.11-.21.14-.17.25-.23.12-.25.15-.21v-.08-.11l-.05-.22v-.08l-.11-.06-.33-.14-.43-.3-.47-.19h-.32l-.37.07h-.43l-.74-.22-1.17-.29-1.18-.22h-.49l-.49.08-.73.22-.4.08h-.31l-.17.07v.11l-.1.17.09.12.26.16.52.22.08.06-.12.12h-.32-.2l-.46-.18-.05.14v.09.08l.08.06.48.11 1.54.64h.22l.52-.09-.11.1-.21.13-.52.11-.06.13.19.2.27.14.91.25.4.48h.64l.59-.17h.35l.47.07 1.22.06h.44v-.07l.2-.11.58-.23h.27l.23.06.48.67.4.47.54.61.39.34.4.31.1.23.1.33.07.33v.11l-.07.11-.51.62-.18.34v.11.17.23.16l.09.15.33.23.3.27v.1l-.24.13v.1l.17.48.32.71.21.23.48.21.26.2h.1l.39-.08.39.1h.08l-.07-.28.08-.12.58-.37v.08l-.18.25v.14l.42.09.53.38h.44l.8.23zm-28.84 20.57.26-.12h.12l.19.09.55.36.3.1h.2l.1-.09.09-.15.13-.31.06-.08.06.07.13.35.15.16.27.13h.4.14l.11-.15.07-.4v-.23l-.15-.67-.16-.33-.11-.11h-.13-.21l-.74.07-.13-.16v-.31-.07l-.09-.06h-.12-.48-.12l-.87-.53-.51-.23-.37-.22-.69-.56h-.09v.13l.19.33v.06h-.13-.06l-.21-.16-.23-.1-.67-.25-.62-.43-.23-.12-.49-.69-.8-.58-.13-.17v-.12l.17-.49.12-.22.12-.16.03-.15v-.38-.1-.35l-.31-.53-.57-.72-.1-.15-.16-.33-.82-1.89v-.21l-.12-.42-.05-.33-.08-.15-.13-.17v-.14-.11-.1l-.18-.27-.3-.34-.43-.37-.62-.27-.93-.55-.79-.31-.29-.05-.19.14-.09.21h-.09l-.88-.43-.52-.18-.71-.09-.14.2v.1l.2.21.12.08h-.1-.32l-.2.09-.07.14v.2l.56 2 .14.29v.13.16l.05.13.13.1.07.11v.41.2l.23.66.35.54.54.56h-.16v.07l.09.1v.07l-.79.44-.16.23-.06.14-.12.23-.26-.06-.22-.16-.29-.12-.1-.08-.05-.12-.15-.64-.45-1-.22-.77-.14-.42-.17-.38-.15-.25-.1-.07-.35-.07-.1-.06v-.18-.07-.08l-.13-.07-.18-.17-.55-.21-.25-.15-.33-.3-.9-.46h-.2-1-.35l-.07.28.32.37.63.3.19.15v.34.09l-.54.12-.17.14-.62.29-.41.45-.42.29h-.1-.19v-.06-.1-.1-.11h-.11l-.31.2-.23.25-.3.22-.2-.15-.31-.09.19-.13.47-.22.59-.59.24-.43-.05-.19-.42-.23-1.37-.54-.94-.21-.69-.22h-.73l-.31.06-.2.14-.36.38-.1.18v.3.14.12l-.18.19h-.1l-.16-.12-.61.1-.5.12-.39.14h-.27l-.14-.06v-.14l.5-.5.24-.29.16-.24.08-.2v-.23-.5l-.1-.48-.07-.23-.09-.17-.1-.12-.22-.15-.77-.19-2.11.71-2.35.7-.92.43-.66.19-.68.37-1.34.87-.56.43-.19.27-.05.2.07.12.14.13.33.25.09.11v.1l-.35.25-.51.17-.82.78v.06.26.47.17l.08.13.19.2.66.16h.49l1.12-.09h.33l-.31.42-.62.15-.19.25v.07l.07.06.59.19h.48l.9-.18 1.28-.05 2.75-.43.57.15.08.07-.08.09h-.3l-.61-.08-.57.07-.14.06v.13l.29.1.07.08-.35.09h-.43l-.44.09-.91.26-1.15.27-1.15.23-.28.1-.77.42-.2.15v.14l.26.33 1.56 1.09 1.37.11 1.53-.09h.24l.32.11h.22l1.57-.06 1.08-.09.57-.09.62-.13h.22l.62-.09h.48l.83.16.58.15 2.38.71.89.4.22.18-.17.09-.18.06h-.94l-.17.09-.59.11h-.27l-1.32-.16h-1-.58l-.58-.11h-1l-2.16.23-2.36.34-1.34.31h-.06l-.08.16v.26l.08.43.06.26v.08l.26.35.31.29.34.3.23.26.1.21.07.11 1 .36.56.13.56.09 1.06.07h1.06.87l.57.07.87.23v.05l.16.62v.28l-.06.49.15.29.5.68.24.25.24.17h.25.36.46l.83-.12 1.81-.07h.48l.42-.18h.4l.25.07.87-.13 1.18-.08 1.12-.19 1.21-.33.5-.27.41-.29.43-.15 1.16-.08 1-.19.19-.12.54-.49.2-.12.41-.67.22-.25.24-.13h.27l.28.12.13.13v.17.24.12.11l.16.12.3.13.31.06h.46l.63.08.63.16h.56v.07l-.29.3-.05.09.15.14 1.23.2.26-.17.24-.06.66.25.57.07.81.16.71-.08h.61.14l.23-.13.57-.09.3-.14.87-.27.29-.14.16-.44v-.2l-.07-.14-.12-.1h-.06-.22l-.12-.09v-.09-.11-.12-.1l.17-.19v-.07l-.16-.16-.24-.1h-.68l-.23.17-.53.23-.25.15-.48.53h-.07v-.13l.17-.54v-.27-.15-.06h-.09l-.1-.06-.35-.29-.28-.17-.11-.14.07-.09.17-.08h.13l.57.33.32.12.4.07h.29l.13-.09v-.07-.12-.16l-.05-.14.01.06.17-.17zm7.8 3.59h.13l.06.07v.09.12l.07.1.12.09.17.06h.38l.24-.08.13-.09h.13.06v.1.14.09h.05l.8.27.42.19.54.33.48.06h.59l.94.31h.46l.3-.15.57-.4.29-.08.22-.24.27-.2h.16.34l.25-.13.15-.1.06-.09-.12-.19-.13-.08-.14.05-.34.18-.38-.25-.24-.22-.23-.29-.25-.41-.28-.54-.27-.35-.91-.52-.42-.16-.26-.18-.25-.25-.32-.24h-.1-.06l-.1.14h-.14-.07l-.07-.1v-.07l.32-.14-.06-.11-.45-.26-.2-.16-.23-.08h-.22l-.45.11-.27.14-.09.07-.07.11-.07.26v.09.16l.29.48.29.23h-.27l-.15-.06-.39-.33-.2-.06h-.16v.12.07l.09.12.11.08h-.21l-.05.07.06.14.15.21v.09.08l-.11.11-.51.36-.43.21-.4.07-.86.08-.13.12-.1.19v.08l.16.3.13.17.28.17h.15.38v-.09l.08-.08zm6.86-38.07 3.64.05 1.32.11.22-.07h.45.06l.42-.77.48-.15-.19-.25-.21-.15-.43-.16h-.26-1l-1.5-.08h-.68l-.63.1-.58-.19-.46.05-1.06.34-.12.07-.1.14-.09.21v.17l.48.45zm-61.41 6.38h.07v.06.09l.14.11v.08l-.14.2h-.09v.1l.11.17.14.11h.3l.23-.08.56-.27.35-.08.49.07.61.18h.25.25l.45-.17.27-.68.12-.1h.08l.1.06.1.16.21.47.17.12.11.24.13.42.11.21h.1l.48-.13h.57l.41-.27.15-.14.14-.18h.16v-.07-.16l-.06-.1-.4-.23v-.09l.23-.18v-.16-.26-.17l.15-.22.13-.07.08.1.1.21.18.26.28.3.18.15h.17l.2-.09.08-.11.24-.43.1-.1.38-.27v-.15-.25l-.36-.22v-.11l.07-.13.14-.06h.36l.25-.11.08-.2.05-.35.09-.19.16-.17.23-.12.29-.06.45-.15h.15l.08.1-.06.24-.21.39-.15.38-.1.37v.24l.06.2.35.29.25.14.56.21h.26.26l.19-.08.1-.11.15-.24v-.15-.31-.03-.18l1.23-.21.57-.17.33-.2.21-.16.09-.12v-.12l-.17-.24-.5-.43v-.13l.16-.07h.17.45l.24-.14-.11-.15-.5-.3-.49-.35-.1-.17.27-.2 1.36-.43.27-.13.08-.08v-.08l-.18-.19-1-.48-.46-.27-.36-.13h-.34l-.75.09-.26.12-.21.19v.08.09l.61.16.15.09-.22.16h-.11-.5l-.2-.07-.14.15-.16.09h-.32l-1.35-.32-1.88.24-.58.16-.54.31-.39.32-.78.5-.85.69-.25.13-.11.09-.18.34-.11.11-1.18.49-.25.15-.23.19-.82.81-.13.06-1.73.19h-.13l-.22.18-.59.6-.24.3-.06.14.51-.13zm15.78-.94-.11.16v.17.12l.06.08.3.06 1.48.14.33.08.23.1h-.37l-1.91-.08-.62-.06h-.35l-.56.24-.32.23v.1l.14.27-.07.12-.19.16v.14l.48.18h.25l1.7-.07h1.4l-.42.14-.7.12h-.83l-1.27.15-1 .17-.39.13-.16.12-.28.35v.13l.26.07 1.39.08.9-.1 2.1-.47v.05.08l-.25.19-.2.1-1.71.58-.31.05h-1.61-.6l-.24.06-.18.08-.12.1-.29.3-.15.2v.1.1l.08.18.15.13 1.14.22h.38l.84-.1.77.61 1 .34h.11l.17-.17.08-.21.09-.12.13-.1h.15.16l.15.06.24.24.11.18.12.12h.13l.37-.11.94-.41.22-.24v-.15l-.33-.4v-.08l.07-.05h.12l.33.15.27.05.1-.24.12-.48v-.11l.08-.08h.08l.15.19.09.06.67-.17h.28l-.08.09-.59.35-.12.12-.1.17-.09.41.06.11v.27.08l.11.13.19.07.86-.11.9-.07.22-.06.13-.08.22-.23.12-.08h.12l.28.05.51.31h.1.49l.51-.11h.37l.33-.11.68-.32h.2l.14.14-.11.14-.41.32-.56.33-.39.17-.26.06h-.4l-.54-.05-1.09.07-.4.09-1.12.46-1.24.29-.63.22-.41.23-.15.21.25.3.22.14.78.39.38.16.36.11 1.15.13 1.14-.07 1.83-.39 1-.38.8-.25.44-.22.29-.3.19-.13.36-.15.49-.12h.4l1.15-.15 1.15-.59.4-.25.38.11.07.08-.08.08-.19.07.36.15h.28.28.29l.47-.16.53-.09.82.22.72.12h.22l.22-.05.86-.35 1.14-.35.28-.19.25-.28.37-1 .06-.42.36-.61.09-.33v-.2l-.19-.64-.09-.23-.07-.08-.18-.1-.45-.2-1.17-.31h-.3l-.35.14-.29.23-.09.11v.1l.09.28.14.14.17.11-.46.13v.2.24.05l-.13-.44-.19-.34-.07-.09-.12-.07-.19-.06-.47-.07h-.28l-.37.11-.5.36h-.07-.16l.11-.17.5-.47v-.08-.08-.1l-.12-.19-.18-.11h-.38l-.34.06h-.29-.22v-.09-.15l.18-.18.29-.22.13-.16-.16-.46-.35-.29-.39-.23v-.27l-.05-.16-.15-.24v-.11-.1l.23-.24.08-.14v-.14l-.06-.08h-.14l-.64-.3h-.62l-.28.1-.27.15-.39.33-.83.82-.26.17h-.05l-.61.31-.09.09v.13l.07.18.08.12.11.09.46.21.21.1h.46l.52.33.13.16v.18.14l-.07.1-1 .44.17.31 2 .78.06.11v.24.17l-.08.21-.13.13h-.19l-2.11-.15-1.06-.08h-.61l-.38.06h-.37l-.26-.1-.26-.2-.22-.3-.19-.4-.14-.23h-.08-.37-.39-.41l-.06-.06.08-.09.42-.21v-.14l-1.08-.63-.84-.62-.64-.2-.45-.06h-.44l-1.06.2-.23-.11-.32-.34-.09-.14v-.09-.22l-.06-.13-.12-.14-.31-.15-.54-.13h-.54-.53l-1.34.29zm12.86-7.53.45-.12.54-.14.21-.21.14-.29v-.09h-.08l-.8-.05-1-.07h-.62l-.34.08h-.77l-2.53.4-1.15.33-.5.11h-.39-.06l-.13.22v.12.11.17l.19.3v.21l.11.22v.07l-.12.09v.09.11l.08.14.27.1.28.17.65.16.62.39.45.1h.52l1.68-.42h.38.38l.49-.09.72-.22.39-.17.14-.24v-.26-.45-.13-.1l-.08-.07-.24-.05h-1l-.21-.11-.1-.09v-.06l.26-.12zm-6.85-1.9h.4l1-.25 1-.12.86.42h.55l.19-.06.31-.25.17-.2.14-.05.33.09.43.23.19.06.78.08h.29l.62-.12.68.09.52-.06.22-.1.09-.16v-.2-.24-.19l-.24-.38-.08-.08-.18-.05h-.14l-.4-.3-.29-.14-.15-.05-.31-.09-.62-.26h-.48l-.6.12-.45.13-.76.33-.27.21-.44.14-1.16.14-1 .24-.49.17-.68.3-.3.28v.09l.16.18zm-29 29.42 1.08-.05.19.08.21.13.84.38 1.74.68.12.1.46.54.17.15.2.29.46.87.18.21.24.2.27.12h.36.23l.27-.13.4-.28.9-.31.94-.76h.11.19l.17.17.17.08.72-.11.53-.13.72-.26.23-.22.13-.2v-.11l.18-1.11.13-.41.27-.62v-.37l.21-.07.74-.07.62-.31.24-.25.64-1.09.12-.13.27-.19 2.26-1 1.19-.6.92-.31 1.35-.64.56-.19.57-.13 1.07-.41.18-.1.09-.12v-.16-.18l-.11-.19-.12-.15-.29-.21-.74-.37-1.77-1.26-.52-.34-.58-.31-.72-.28-.45-.09-.59-.07h-.57l-.8.1-.18.06-.28.18-.65.67-.13.1h-.08v-.06-.45-.18-.08l-.08-.06h-.25-.36l-.6.42v-.08-.1l.35-.36-.87-.1-1.41-.45-.76-.31-.57-.32-.43-.18-.43-.07h-.56l-2 .35-2 .13-2.83.4v.1l.15.1v.16l.13.1.72 1.33.16.23.24.21.5.13.17.19v.08l-.54.55-.19.52-.72.49-.39.78-.12.17-.36.35-.08.22v.08l.19.16h.21l.13.06v.08.1.09.08l-.8.28-.09.09-.07.13v.16.2.38.12h.08v.08l-.19.16-.23.12-.32.32-.18.11-.12.18-.17.33-.19.34h-.12v.08.11.08h.07l-.41.2v.36.12l-.13.2v.06zm114-5-.29-.09-.26-.17-.12-.29-.08-.13-.23-.25-.57-.2-.09-.08-.18-.34-.2-.22-.4-.17-1.57-.49-.52-.09-2.49.11-.39-.05-.81-.22h-.53l-.68-.26h-.48-.33l-.13.07-.06.1v.22.36l.08.25.21.23h-.1-.05v.19.22l.11.21.12.12.25.16.75.11.25.09.08.28.08.37.14.45.18.37.09.13.27.16.73.31h.42l.43-.06 1.34-.38.55-.1 1.1-.07 1.9.23 1.41.11.5-.1.22-.17-.11-.14-.27-.2-.13-.17v-.37zm-42.29-33.52h-1.72l-.9-.07-2.28-.36.31.59.07.24v.32l.29.37 1.07.75.33.16.27.07h.43.59l.75-.13.9-.25.42-.06-.17.26-.11.1-1.8.52-.6.1-.23.11-.16.57.17.15.79.18.49.34h.14l.45-.22 1-.28.28-.05h.4.34.05l-.23.15-.16.22v.06h.12.25l.88-.32.39-.08.81-.31.48-.11h.56l.37.05.54.35h1.28.91l-.1.06-1.21.23-1.57.18-.31.5-.37.15h-.54l-.52.09-1.51.52-.49.22v.11.11l.09.12.49.29 1.3.33.41.16h-.11-.82-.14v.09l.19.22.37.33.28.17h.37l.31-.06h.59l1.8.22.16.1-1 .11-1 .17-.28.13.09.16.3.2.75.39 1 .38 1.13.25 1.13.15h.7l.52-.07.14-.11-.07-.17-.11-.14-.15-.11-.42-.2.07-.07h.38.37l.37.08.26.11.14.14.21.13.51.22.17.13h.12l.08-.06v-.16l-.24-.38-.33-.46-.61-.38-.17-.27.09-.29h.1l.16.14.62.68.43.35.86.81.29.12h.34.07l.14-.24.19-.47.1-.29v-.36l-.21-.42-.06-.19.07-.06h.3l.68.49.32.1.24-.09.14-.21v-.15-.15-.1l-.08-.06-.44-.13-.06-.1.15-.12.05-.25-.05-.63.06-.34.14-.2.14-.11.38-.22h.11v.05l-.24.44-.07.18v.11.21l.08.52.13.25.56.16.32-.22.53-.48.39-.27.14-.17.14-.39h.1.45l.21-.08.41-.25.83-.31 1.85-.56.25-.13.32-.26v-.23l-.26-.31-.75-.74-.34-.42h-.07l-.17.1-.12.12-.33.45h-.14l-.18-.37-.22-.28-.12-.09-.24-.07-.72-.06-.49.26h-.14l-.74.11-.12-.05.17-.26.18-.17.22-.75.17-.47-.23-.38-.29-.4h-.29l-.75-.18h-.48l-.14-.05.12-.19.56-.29v-.1-.51-.25l-.06-.12-.66-.23-.38-.08h-.69-.23l-.28.17v.21.31l.07.18.54.16.29.31.13.22v.07l-.3-.11h-.48l-.74-.19-.37-.17-.42-.34v-.14l.16-.38v-.1l-.09-.08v-.07l.16-.18v-.09l-.24-.11-.16-.16-.22-.12h-.45-.34l-.29.16h-.15l-.82-.27-.73-.14-.25-.1v-.26-.07l-.11-.18-.85-.48-.51-.39-1.12-1.06-.3-.46-.26-.29-.49-.32-.47-.19-1.43-.37-.69-.1-.63.08h-1l-.28.06-.09.05v.08.14.14l.05.13.2.09.5.06h1.12l.28.17.12.13v.14l-.12.16-.14.08h-.22l-.89-.12-.9.26-.69.14-1.07-.1-.66.27-.56.75v.13l.74.16.94.31.44.6.91.16.4.13.23.15h-1.34l-.57-.07h-.36l-.31-.4-.46-.18h-.65l-.48-.19h-.49l-.47.15v.75l.58.44.66.4.15.16h-.46l-.61-.09h-.23l-.51.15-.12.11v.09l.06.12.14.14.22.11.43.13h.28l.5-.07.55.51h.49l1.39-.35h.76l-.1.07-.64.22-.06.08v.12.16.09zm-8 7.57.08.15-.59.2v.1.11l.09.2.33.13.1.09.05.3.47.32.06.16 1.14.14.68.23h.19v.06l-.19.11-.43.07-1 .06v.1l.06.11.45.34.77.24.17.13-.07.13v.11l.05.16.12.11h.36l.53-.19.29-.11 1.07-.08.79-.18.51-.2h.18.4l.26-.12.35-.42v-.13l-.11-.15-.27-.21-.52-.24.14-.19.59-.25.29-.16v-.08l-.07-.15-.26-.2-.88-.34-.35-.1-.94.06-.54-.14-.12-.1v-.11l-.05-.11-.48-.36-.26-.11-.81-.17-.53-.19-.5-.13-.49-.06-1-.05h-.39l-.28.16v.12l.12.3zm-8.79 11.58h.81l.06.09-.56.32-.2.23v.09l.11.2.25.16.66.07-.18.23v.12l.08.17.13.17.29.27h.07l.57-.09h.09l-.34.16h-.33l-.37-.12-.41-.23-.79-.25h-.47l-.29.29.05.16-.37.31-.73.35-.16.18.22.27.26.14h.11l2.49-.45.59.09.7-.14 2.27-.29 1.67-.08v.14l-.88.06-.38.1v.1l-.45.21-.73.5-1 .26-.07.23.27.12.58.14.5.21-.71.08-.06.14.3.57.15.18.13.09h.66l.74.08.47-.27h.22l.19.11.21.05h.33.41l.3.06h.31l.63-.11h.4l.3-.06.09-.07-.09-.23-.2-.2v-.11l.05-.11h.06l.17.22.29.14h.1.29v-.11l-.1-.19-.34-.32-.06-.73.52-.43.43.23.24.2h.06l-.17-.62v-.57l-.08-.06-1-.25-.07-.1.46-.2.21-.23v-.14l-.12-.28v-.19l.08-.35.19-.27v-.14-.2l-.1-.2-.3-.38-.08-.15v-.14l.08-.11v-.17-.21l-.06-.14-.19-.11-.36-.07-.62-.21-.13-.11-.55-.33-.42-.13-.53.25-.19.14.12.37.19.34-.65.06-.37-.33-.78-.49h-.33-.59l-.74.1-.42.14-.59.29-.14.23v.1l.13.09.39.2 1.1.17.21.08.24.15v.06h-.14l-.73.09-.1.17v.07l.54.22h.46l.42.14.64.1-.58.06h-.48-.2l-.06.08.14.24.17.17.67.33v.09l-.17.07h-.21l-.36-.07-.19-.1-.29-.22-1.55-.95-.36-.18-.08-.13v-.12l-.12-.18-.46-.31-.17-.07-.61-.13h-.25l-.17.06-.24.19-.32.33-.08.22.35.2zm69.86 181.68h.14l.12.08.18.21h.1l.06-.12.21-.37.37-.52v-.14-.22-.07h.1l.24-.05.38-.12h.26l.19.16.19.12.69-.08.09-.06.18-.16.11-.07.28-.1.29-.06h.42l.29.05h.28.28l.47.09h.31l.27.16.1.18.13.11h.08.06l.11-.2.11-.11.16-.06.11-.09.2-.29.05-.17-.1-.14-.15-.11-.55-.45-.5-.2h-.3-.3l-.27-.06-.27-.08-.26-.05h-.26v-.11-.1h.2.45l.14-.06.07-.11-.21-.13-1 .07-.19-.17-.13-.25v-.28l-.15-.19h-.13l-.27.08h-.15l-.25-.09-.31-.23h-.46-.11l-.23-.14-.11-.08-.28-.07-.3.06-.35.1h-.11l-.36-.11h-.27-.14l-.12.07-.08.12-.07.15h-.1l-.13.05-.28-.06-.61-.06-.48-.16-.48-.21-.55-.06-.56.06h-.23l-.22.07-.2.12-.09.2.1.15h.18l.61.06.44.21.37.2-.09.23-.06.24.06.26-.16.15.37.42.43.36.27.16v.12l-.07.12h-.1-.46l-.09.09-.09.11-.1.06h-.11l-.3-.05-1.55-.16-.22-.1h-.41l-.26-.06-.28-.09-.3-.05h-.13l-.24.08-.21.41v.14l.09.11.52.18.25.13.22.17.24.24h.11v-.15l.18-.16.24-.09h.3.29.26l.26.07.66.13h.28l.28-.05h.09.09.12 1 .13l.13.06.22.16.19.18.13.08.09.13v.15.16zm-8-5.05.26-.06.11-.07.25-.11.49-.13h.52.36l.09-.09.14-.13v-.15l-.07-.14h-.07-.08-.09-.26l-.3-.13-.34-.33-.16-.12-.35-.19-.18-.05-.58-.1h-.29-.43-.27l-.19.05-.07-.05v-.1-.08l.33-.07-.15-.14.06-.12.1-.11-.09-.16-.21-.12h-.4-.4l-.43-.23-.45-.11h-.23-.22l-.09-.13h-.09-.09l-.23.07v-.08l.06-.08-.21-.14-.4-.32-.1.12-.15.15h-.1v-.13l-.22-.18h.28.14l.09-.11-.18-.07-.18-.09-.1-.11-.36-.28h-.2l.15.14h-.11l-.21-.06-.5-.44-.25-.17-.4-.33-1.25-.62h-.07-.14l-.13-.06h-.16-.64-.22l-.19-.1-.22-.14-.22-.17-.29-.4-.4-.2.07-.14h-.24-.09l-.26-.16h-.21-.23-.23l-.22-.08-.21-.1-.14-.16h-.09-.82l-.32.08h-.08l-.21-.17v-.06l-.14-.02h-.49l-.6-.11-.61-.07-.58.09-.54.22-.18.05-1.18.15h-.19l-1.81.73-.18.12-.37.34-.18.23-.05.3.13.44-.11.09h-.14-.14-.09l-.79.33v.09l.12.07h.12l.24-.13.12-.05h.16.13v.19.18h.12l.48-.26.24-.07h.25l.07-.09.08-.27.07-.13.08-.05h.49.1l.1-.05h.13l.14.06.24-.09.2-.19.24-.13.1-.08.09-.1.22-.2.35-.2.17-.15.11-.08h1.92.15.12l.1.06.1.1v.14l-.06.09-.11.07-.5.11-.24.08.24.24.29.18h.07.87l.2.2h.16l.14-.08.06-.14v-.16l.1.15.06.17.08.09.1.06h.17 1.07v-.09l.22.21.19.25.18.14.21.11.53.2 1.27.38.2.06h.19l.85-.16.22.06.21.19.13.24.1.28.1.59.09.1.11.09.21.11.46.4.27.11h.31l.61.06h.29.28l.27.07.06.08v.12l.19.16v.09.11l-.11.15-.14.11-.79.52-.37.54h.71l.58-.08h.42l.25-.07h.26.61l.6-.07h.28l.91.07.25.07.24.1h.6l.16-.07.1-.09.06-.11.07.13v.07zm6.2-53.55.36-.32-.23.08-.4.27-.18.1h-.47-.48-.17l-.18.08h-.21-.22-.08-.07-.11-.2-.08l-.08.07v.12l-.1-.09-.14.1-.29.11-.19.18-.09.12-.07.12v.16h.2l.12-.15h.13.05v.06l-.22.14.3-.06h.34l.82-.18h.09.07l1-.34h.2l.28-.1.29-.14h.21l1-.45h-.23l-.23.08-.11-.1h-.08l-.24.06-.28.14-.12.1-.12.06h-.15l.16-.18zm16.28 239.49-.88.07-.56-.17-.56-.21-.52-.3-.48-.4-.45-.29-.47-.24-.52-.31-.48-.4-.41-.43-.42-.39-.18-.14-.16-.17-.31-.77h-.54l-.22-.1-.07-.12v-.14l.09-.2.12-.18.22-.12.22.2-.09-.31-.14-.26-.54-.64-.13-.13-.07-.06-.23-.16h-.1l-.67.3h-.2l-.57-.57h-.19l-.17.18-.21.3-.24.27-.27.21-.12.07h-.14l-.21-.17-.24-.14h-.33l-.11.06.19.2.09.13.22.13.06.06v.07l-.07.09-.08.06h-.14-.15l-.16.09-.12.18v.18.2l.1.31.2.22.27.12h.26l.5-.21h.27.23.28l.28.1.08.14v.2l-.08.06-.7.32-.59.22-.33.16-.13.12v.4l.15.39.23.31 1.82.78.35.16v.07l-.07.06h-.12l-.1.08-.19.23h-.13v-.09-.18l-.1-.16-.12-.1-.47-.13-.28-.19-.15.05-.13.15h-.29-.41l-.17-.1v-.23l-.31-.3-.36-.15-.21-.41h.39l.18-.06-.14-.29-.21-.84-.2.09-.17.22.11.3-.51.2v.35.36l.24.42.28.06.22.14.17.22.39.35v.14l-.24-.08h-.36l-.3-.06v-.22-.21l-.23-.07h-.23l-.07.08v.12.06l-.26.08h-.18l-.63-.01-.25.14-.17.16h-.07l-.26-.17h-.19l-.06.13-.19.06v.11l.06.23.17.08h.9l.48.24.71.06.43.12.55.19.5-.19h.05l.05.07.23.13h.25l.3-.11.3-.14.11-.08.31.32.23.15.94.16.55-.11.09-.07h.34l.08-.07h.3l.37-.06h.25l.49.1.5.07 1.53.11.46.07.69.28.27.06.26-.07.26-.1h.18l.25-.06.25-.12h.26l.27.05h.28l.3-.05.29-.11.22-.29.16-.35-.16-.13zm-10.24-167 29.06 14.48.09-.74-.06-.49-.08-.18-.27-.22-.45-.14-.16-.27-.43-.34-.43-.43-.21-.08h-.23l-.29-.12-.27.07-.2.27-.16.24v.41l-.18.14.13-.26v-.45-.33l.24-.45v-.66l-.08-.17-.27-.34-.17-.14-.25-.3-.9-.78-.64-.41-.43-.25h-.17v.09l-.19-.08-.33-.36h-.08l-.35-.16h-.4l-.15.05-.17.14-.74-.1h-.15l-.39.2h-.37l-.25.18-.32-.23-.19-.09-.22-.11h.86l.16-.29.13-.27.05-.23v-.05l.09-.16v-.14l.07-.14.12-.14.3-.11.11-.23-.19-.21-.32-.24-.51-.09-.17-.09-.47-.49-.18-.11-.08.18h-.33v.13l.06.12v.17l-.05-.11-.11-.06-.06-.07v-.11l-.16-.2-.25-.2h-.14-.1-.08v.06.17.14l-.08-.09-.08.14v.06h-.05l-.19-.32-.26-.59-.08-.06h-.12v.13.11l-.12.1h-.2l.1-.11.08-.22-.06-.21v-.11l-.18-.15h-.07-.07v-.21h-.16l.51-.08h.72l.34-.2h.44l.28-.08.09-.14-.83.1-1.06-.12-.57.1h-.2-.36l-.71.16h-.87l-.75.07h-.22l.11.21.21-.09h.68l.3.13-.11.07-.12.06h-.82l-1.53.83h-.21-.19-.24l-.43-.12-.4-.08-.38-.16-.46-.07-.55-.5v-.1-.13l-.33-.14-1.71.05-.33.1-1 .1-.67.12h-.62l-.22-.18-.14-.28-.07-.28.12-.16-.12-.16v-.24l-.13-.25-.5-.35-.49-.28-.52-.07-.41-.13h-.68-.1-.14l-.19-.2m-.14 0-.07.16-.19.07-.37-.2h-.11l-.15.22-.17.12-.72.26-.63.13-1 .48-.47.08v.3l-.19.13.06.37.05.2.08.15.17.48.29.27.13.3.28.42.07.3-.06.45v.37l-.28.29-.08.15-.13.08-.55.18h-.2l-.15-.06-.12-.14-.1-.27v-.2l-.1-.12-.16-.09-.24-.29v-.21l-.27-.4.36-.67.16-.14.21-.35.3-.29.16-.5v-.16l-.21-.25-.09-.37h.13.07l-.34-.28-.1-.13-.26-.52v-.16-.2l.11-.09.09-.05.88-.21.17-.08.15-.14.07-.11.08-.13.34-.3v-.27l-.25-.4-.54-.23h-.23-.27l-.48.26v.09l-.09.08h-.2l-.19.12-.06.3-.26.4-.39.2-.64.21-1.36 1-.84.06h-.27l-.27-.08-.34-.07-.19.05-.14.12v.38l-.19.35-.11.32-.12.11-.13-.05-.13-.17.05-.17.19-.07h.13l.06-.05h-.29l-.9-.28-.18.12-.46.43-.29.2-.08.13-.38.27-.11.19-.14.47-.27.3-.08.12.15-.06.19-.15v.07l-.13.18v.15l-.1.37-.1.24.11.17.07.27-.08.21-.27.08h-.35l-.28.15-.25.23-.32.64-.95.68-.26.13h-.2l-.08.11.11.14.13.11.1.36.07.71-.1.16h-.18l-.07-.05-.07-.07v-.14l.1-.07v-.06l-.09-.09h-.1l-.53-.28-.32-.35-.3-.21-.19-.33-.07-.05-.75-.54-.31-.41-.58-.39-1-.39-.44-.07h-.54l-.1-.06-.1-.13-.22-.06h-.23l-.33-.09-.51-.06-.18.09-.16.18-.3.23h-.14-.15l-.34.31-1 .3-.3.14-.37.31-.52.17-.32.06h-.23l-.44-.1-.39-.45-.2-.12-.1-.11-.12-.05v.07l.16.15.12.21h-.11-.15l-.43.05-.13-.11-.25-.12v-.25l.08-.06v-.06-.05l-.16.06-.15-.05-.08-.29v-.11-.1l-.3-.22-.15-.13-.11-.09-.38-.12-.08-.15-.13-.08-.37-.51-.22-.12-.51-.63-.24-.35-.29-.63v-.18l-.07-.15v-.09h-.17l-.13-.17-.14-.28-.09-.4v-.12l.07-.17.12-.18.08-.14.21-.18v-.19l-.09-.23h-.11-.09l-.09-.06v-.08l.1-.08v-.11-.19h.12v.06-.47-.14-.11l-.12-.17-.08-.22.08-.12h.08l.13-.11.08-.23v.11.2l-.07.15v.13l.07.15h.07.13v-.24l-.05-.19.06-.81-.12-.87.17-1 .18-.6.16-.14.15-.23.16-.26.05-.18-.25-1h-.1-.08l-.09-.14.06-.11.1-.07h.09v.2l.15-.28.07-.06.06-.08-.15-.12-.16-.08-.18-.38-.63-.3h-.07l.28.17.13.17h.05l-.12-.11h-.19l-.11.1h-.1l-.09-.16-.16-.15-.13-.09-.2-.05h-.08-.11v-.07-.14l.07-.05h.25l.48.27v-.07l-1.12-.91-.6-.12.07.06h.15l-.13.05h-.15l-.2-.19-.76-.25h-.17l-.26.13h-.74l-.69-.24h-.47.07v.11l-.31.12h-.26l-.4.24h-.29-.64l-.34.07-.88-.17h-.21l-.25.09-.13-.1-.17-.18h-.2l-.39.08h-.08l-.24.18h-.1l-.18.15-.22-.07-.84-.52v.05l.06.07.08.12-.15.2-.25-.1-.2-.13h-.1-.12v-.15l.08-.15.42-.54.31-.1.23-.34.13-.13.21-.33.12-.78-.07-.54v-.29-.19l.15-.29-.16-.22.12-.33v-.23l.25-.65v-.25l-.1-.29h-.27-.11-.13l.13-.27h-.18-.19.19.18v-.1l.19-.31v-.18l.16-.12.13-.15h.09v.26l-.1.49v.09l.18.1.18.4h.16l.11-.21.1-.21.06-.49.19-.35.13-.58.22-.58v-.07h-.1l-.16.17h-.08v-.22l.08-.07.14-.08h.12.07l.11-.14v-.19h-.1-.1-.17l-.14.05-.1-.1v-.1l.23-.34.18-.11h.1l.05-.09v-.09l-.08-.24v-.25l.1-.31.46-.66.38-.29.3-.37.14-.24.12-.29.1-.34-.07-.12v-.09-.44l-.2-.1-.29-.31-.21-.07-.21.09h-.13-.22v.05l.21.07h.11.09.05l.05.07-.05.09-.07.05h-.08l-.52-.06-.49-.15h-.19l-.54-.13h-.29-.09-.15-.5l-.27.07-.37.22-.31.08-2.17.34-.16.05-.68.32-.39.26-.19.61v.1l-.06.38v.42.37.47.19.09l-.33.27-.1.16-.11.9-.5.48-.24.12-.17.15-.7.35v.06.07h.05l.24-.16v.06l-.08.17v.07h-.13l.07.13v.23l-.39.19-.21.21h-.15l-.47-.06-.26-.13-.06-.09.14-.08v-.09l-.22-.19h-.29-.26-.52-.1l-.52.13-.05.09-.09.12-.27.13-.55.1h-.24-.74l-.49.17-.25.13-.73.26-.47.06h-.16-.2l-.31-.41-.27-.39-.5-.13-.38-.31h-.88l-.31-.13.15.1.17.08h-.11l-.45-.15-.22-.16v-.07l.27.11h.07l-.31-.22-.16-.37-.21-.12-.11-.23-.39-.34-.06-.31-.12-.22-.2-.72-.58-.76-1-1-.15-.25v-.2l-.38-.72-.33-.71v-.08-.11l-.12-.07-.07-.07-.09-.16-.27-1v-.19l-.05-.42-.14-.55v-.12-.16l.09-.37.14-.26v-.14l-.05-.88.09-1v-.07-.06-.47l.12-1 .37-1.52.19-.53.46-.86.14-.42v-.51.12-.09h-.15l-.43-.81-.08-.22-.07-.5-.06-.17-.08-.36-.06-.15.09-.21.09-.16v-.14-.16l-.48-.12-.18-.42.2.15.37.2h.1.09l.14-.23.21-.62-.33-.41.06-.06h.07.29l.18-.06.23-.26.09-.27-.25.08v-.1-.11h.13.19l.11-.07.08-.08v.09l.07.07.12-.09.07-.06v-.25l.05-.25.22.19.27-.06.16-.1.16-.12-.12-.06h-.12l-.26-.55h.07.07v.08l.08.09.18.13.17-.09v-.06h.23l.37.09h.24l-.28.18-.24.18h.13l.36-.22.39-.13.28-.18.18-.08.61-.38.27-.17.28-.28v-.23l.28-.23.29-.27-.1-.23-.14-.17-.07-.43h.1l.12.08h.09l.13-.19h.21v.23l-.12.27h.1l.3-.08.18.05-.52.33v.08l.43-.25 1.09-.46.49-.05v-.09l-.14-.23.24-.41h.11l.06.06v.09l-.09.16-.09.08h-.08v.13l.09.08.14-.07h.17.7.25.24l.52.17.37.2.28.09.94.1.41-.09.06-.06-.13-.13v-.08l.13-.15.14-.1.29-.09.16.21h.35l.25.35.11.12.43.11.12-.12h.07v.15.12l.2.27v.08h-.2-.1v.08l.66.24.58.16h.17l.21-.31.2-.07h.28l.18.09.13.32.08.06.17-.08.08-.11.05-.15v-.14-.1-.24l-.12-.08h-.09v-.06-.08l.65.2.13.1v.09.12l.18.05h.1.12l.1.08.13.05.18.14.12.22.09.09-.06.22h.11l.22-.21.09.07.09.09v-.07l.06-.13.2-.11v-.15h-.12l-.12-.08-.15-.22h-.15l-.61-.22-.16-.16-.21-.13-.11-.21.07-.06v-.08h.1l.14-.06-.07-.07.14-.12h.17l.23-.09v-.05-.2l-.1-.15v-.08-.09h-.22l-.16.14-.06.22h-.1l-.25-.07-.17-.19.09-.1.14-.08.12-.1v-.06l-.16-.07-.08.08h-.09-.19l-.23.17-.42.08-.25-.1-.3-.18.19-.35.25-.26h.23.18l.21.21.84.26.16-.07.18-.07.28-.31h.13.1l.39-.09.34-.12h.07.13l.29.12h.68.11.23.26v-.13l.09-.38.1-.29.14.17.06.16v.08l.06.09h.1l.1.16v.13l-.26.09h-.19l-.05.06.89-.09.25-.26h.05.1v.07l-.13.14h.06l.44-.11.07-.15.16-.14v-.22h.12l.11.1.08-.14h.09l.07.18v.17l-.32.09-.09.06-.09.09.54-.09.66-.08.17-.05.19-.11.18-.07h.17.26l.22.07.06.06v.09l-.27-.06-.49.07.64.17.74.3.15.11h.08v-.09-.11l.15-.08h.16l-.08.12-.06.12.13.11v.07h.35l.39.37.35.25.11.2v.1l-.11-.11-.07-.15v.19l.09.18h.13l.31-.07h.36l.14-.06.18-.08h.2l.58-.32h.22.12l.05-.05v-.14l.05-.11.11-.09.61-.1.8.44.94 1.19 1.2 1 .27.41v.19.11.71l-.2.61-.22 1 .08.17.07.1.08.06.06-.06h.13l.08-.07v-.07-.24l-.09-.06-.1-.17h.09l.13.06.14.2h.05l.12-.09.1.1v.07l-.07.16-.21.23-.26.38h-.12-.07l.14.13.08.12.41.84.2.31.15.16h.11.14v-.08-.16l.2-.06h.19l-.12.18v.46l.09.37h.08.08l.11-.19.09-.09.13-.05-.16.22-.14.26.06.06.15.08.13.71.22.4.34.22.47.15v.25l.27.36.27.53.13.07.17.07.09.11-.05.1-.31-.23h-.09v.1.1l.13.22h.23l.34-.1h.29l.42-.18h.14l.28-.25.09-.24.06-.47.19-.3.14-.33v.08-.73l.16-1.08v-.59l-.09-.46-.09-.22-.23-.3-1-2.42-.08-.22-.14-.27-.09-.45-.07-.19-.05-.3h.07l.08.07v.12.13l.15.08-.1.16v.43l.08.3.07-.08v-.19-.16h.06v.51.35l.25.61.1.08-.18-.42-.09-.28v-.22-.23-.16l.1-.15-.09-.17-.77-1.23-.47-1-.34-.84-.2-.88-.11-.32-.17-.94-.11-.22v-.18-.19-.09l.07-.25v-.2-.09-.19h.07.11l.17-.23-.09-.13h-.11v-.06h.2l.08-.17.09-.09.1-.15h-.07-.08v-.09l.17-.09v-.16-.1l.08-.1h.15l.07-.09v-.07l-.07-.07v-.09h.07.08l.28-.13.12-.22v-.09l.07-.12h.14.07l.15-.19v-.08h-.07l-.07-.08-.08-.17v-.21l.22.28h.06v-.08h.07v.18.08h.07l.15-.1.06-.07v-.18l-.13-.13-.24-.1.14-.05h.26l.23.05.21-.09.09-.1h.12.13l.23-.08.19-.12.11-.16-.09-.21.29.06.16-.1.28-.21.06-.24.21-.07h.18l.33-.24.11-.13-.12-.33.13-.23v.1.13l.1.18.13-.42.5-.65.18-.17.61-.38.37-.11h.9l.1-.21v-.45l.06.24v.35l.09-.29.06-.25.26-.35.12-.13.11-.06.31-.25.31-.19v-.07-.1-.74l.06.09.06.2h.15.1l.27-.24h.2.72l.06-.12h.21.23l.18-.17.18-.24-.22-.14-.66.12-.36-.07-.17-.15-.22-.33.48.39h.19l.35-.21v-.08-.13l.1-.16.12-.14-.09-.1-.1-.06-.87-.34-.15-.18.35.17.34.09.24-.06.06-.2h.36l.11.06v.19l.06.11h.1.13l.26.09h.23l.17-.07.31-.34.45-.36.06-.31v-.2-.15l-.09-.15h-.1l-.29.17-.05.46-.1.08h-.09v-.26-.23-.24l-.31-.06-.13.06h-.22-.34-.24-.27v-.2-.26-.25.21l.09.19.28.16h.18l.13-.1.09-.17h.14.22l-.1-.19.11.06.17.06v-.19-.17l.22.12.24.07.15.09.15.16-.11-.41-.13-.3-.13-.12v-.12l.06-.2h.18l.18.74.19.44.34.6.11.14-.06-.16-.46-.91-.23-.85-.07-.28-.12-.29-.06-.25-.07-.13h-.34l-.23-.06-.36.17h-.2v-.17l-.3-.23-.08-.33h-.22l-.37-.11-.18-.12-.44-.07h-.07l-.06-.06h.56l.7.27h.17l.07.21.22.18.1.11.14.11.15-.06.12-.1v-.16l-.06-.1-.17-.17-.22-.09-.26-.2-.3-.33v-.08-.07l.5.52.2.09.14-.07v-.08-.15l.32.08v-.19-.18l-.23-.09.14-.11-.41-.15-.15-.11-.16-.23-.22-.14-.31-.35-.18-.25-.43-.35h.1l.3.19.25.35.09.07.69.68h.13.21l.09-.12v-.19l.07-.14v-.12l-.21-.19-.27-.13-.18-.22-.22-.11-.6-.16-.33-.43h-.14l-.29.08h-.09l-.09-.12.07-.35v-.19l.22-.21.17-.11.1-.15v-.31.3l-.08.2-.19.14-.2.3v.12.23h.18l.18-.12h.12v.14l.08.13.14.14v-.12-.14l.23.34.41.09.32.15.12.13.14.1v-.14l-.08-.15-.1-.19-.54-.5-.06-.22v-.2l.05.08v.11l.18.28.14.08.16.12h.11l-.06-.14-.09-.15-.1-.15-.08-.56v-.13-.14-.31l.06-.13-.06-.15-.09-.17.16.1.13-.11v-.14l-.14-.09-.2-.26.34.12.05-.07v-.14l.11-.06v-.11-.06l.13.22v-.08-.24l.06.05v.11l.17-.06.1-.08v-.1-.15l.05-.1h.13.11v.22h.23l-.1.11h-.09l-.11.13h.15l.14.06h-.23-.23l-.18.15-.19.33.05.34.19-.15v.11l-.11.24-.14-.05h-.16v.15.06l.21-.09.11.07.06.17-.18.08h-.13l-.09.3h.07l.07-.13h.15l.09.14.27.23h.1v.06h-.26-.19l-.15.05-.07.28.06.16.13.2.22.11.15.11h.07v-.08h.05v.1h.07l.11-.13h.07v.11.16.12l-.1.12.09.06h.08l.14.14-.08.14-.05.17h.27l.17.05-.14.36-.17.17-.22.37-.2.58v.36.13l.12.16.18-.38.1-.34.1-.13.16-.11.15-.05.11-.06v-.2l.5-1 .06-.11.14-.17.15-.3h.15v-.11-.23-.06h.06v.12-.05-.12-.2l-.09-.2-.08-.06h-.18l.13-.11.11-.24v-.15l-.23-.11-.28-.39-.19-.34v-.51l-.25-.33-.12-.2v-.2-.1-.39l.19-.21.09-.17.1-.09.05-.05.18-.09.34-.08.23-.24-.07.14-.11.17-.46.11-.16.11-.12.21-.12.29v.31l.4.4.28.15.22.21h.19l.18.06.18.11-.06.27-.07.26h.07l.29-.16.35-.55.09-.11v-.05-.06l.14-.09h.1l.11-.12v-.18-.09-.16h.17l.17-.21.19-.3.14-.58.05-.1h.07v.44.11l.07-.36.05-.41.06-.27.07-.21v-.22-.19l-.06-.14-.12.06-.44-.07v-.2l.08-.22.09-.11.08-.06h.09l.11-.09.1-.1.22-.43v-.22-.38l-.12-.31.1.09.1.13v.31l-.08.39-.09.2.41.15.09-.07.08-.1.14-.05.17-.12.24-.24.1-.07.11-.09.92-.42.37-.11.23-.19.17.06h.85l.25-.1.25.05.44-.09h.33.2.17l.57-.14.18-.2v-.49l.14-.2-.06-.25h.08l.06.07v.12l.09.1.08-.07.13-.1h.07l-.13.28v.35.07l.21-.13h.24l.63-.46h.08v.28.14.07l.41-.13.18-.13.79-.14h.17.09v-.1-.27l-.08-.42-.3-.32-.12-.05h-.1-.09v.06l.1.1v-.08l.14.09v.14l.2.3v.12l-.31.16-.37.11-.3-.08-.21-.12-.08-.38-.24-.13v-.09l.06-.06-.27-.52-.19-.1-.41-.09-.11-.09.26-.28.14-.18.09-.15.19-.05.2-.13h.12v-.07l-.05-.07h-.07-.1-.09l-.1-.14-.05-.15-.06-.14.05-.15.07-.17.1-.37.1-.1.11-.07.28-.6.37-.37.36-.41-.08-.08h-.07l.21-.26.27-.2.22-.05v.1.09h.11l.12-.06.08.08.07.05v-.09-.18-.12h.05v.11h.07l.07-.29.52-.18v.12.19h.07l.08-.27v.05.19h.1l.1-.15.21-.12h.27l.21-.15.16-.17v-.21l.25-.49v-.25l.27-.14.11-.18.08-.06v.17l-.07.16h.09.06l-.19.17v.12h.2l.26.09.09.12h.09v-.13-.21l.09-.19.07-.17.08.1.1.07.13-.08.09-.09h.07.11.11.08l.05.15.09.15h.1l.07-.06.05-.12h.12l.16-.35h.11l.15.06h.17.12l.1-.19h.23l.22-.11.4.06.47-.43v-.06l-.06-.06h-.21v-.17l.08-.13v-.28l-.06-.15v-.08l.09.07h.25.13v.14l.08.09.38-.05.45-.17.17.14.2-.11.23-.16.25-.11.08-.08-.17-.23.21-.11.06-.07h.09l-.09.16-.1.13.35.27h.17l.78-.32.61-.39.52-.2.36-.24h.28l.42-.51-.11-.28v-.1l.23.23.12.18.18-.06h.21l-.09.15-.1.08-.38.37-.61.43-.2.29.09.06h.09l.2.07.15-.16.19-.08.61.06.57-.06.42.09h.67l.57.08-.21.12h-.67l-.79.27-.21.2.11.35-.23-.26-.27-.06v-.14-.15-.09-.11l-.27-.08.09.09-.09.14-.7.22-.35.17-1.74 1-.08.06.07-.05.32-.09.2-.09v.08l-.22.15-.15.08h-.23l-.32.09-.24.15-.16.16-.08.1-.05.1.48-.4h.17l-.54.57-.21.63v.18l.15.75.21.2.08-.1.05-.1.21.05.12.18.23.48.17.08.23-.06.19.1h.07v-.11h.1.09v-.33l.22-.16h.14.2l.51-.4.09-.17.31-.26.26-.34.25-.12.21-.34h.1l.14-.12-.09-.23-.06-.09.12-.3.28-.1.15.28.13-.16v-.12l.1-.16.18.11.07.17.17.1.13.07h.35l.1-.09v-.09-.19l-.1-.2.13.08h.21.17.17l.35-.19h.15.14l.6-.2.59-.17.57-.26.55-.17.54-.25h.17l.17-.1.18-.07h.16l.26-.08.24-.14.27-.06.15.06h.07l.09-.11-.09-.11-.09-.05-.81-.06.23-.06.22-.09v-.1l-.17-.28-.18-.21-.14-.11-.38.13h-.28l-.23-.17-.08-.24v-.15l-.07-.05-.61.39-.47.19-.06.07-.08.05-.24-.11h-.38l.08-.11v-.16l-.49-.1h-.45l-.25.07h-.18l-.05-.08-.1-.09-.35-.18h-.06l-.31.06-.4-.29-.36-.16h-.06l.52-.25-.09-.11-.1-.06-.53-.08-.16-.07-.76-.06v-.21l-.21-.13v-.2l-.11-.25-.08-.46-.21-.08-.15-.36-.06-.18.1-.21.08-.3-.26-.07h-.23l-.35.12-.15-.06-.14-.09.54-.39.4-.39.14-.59.2-.3.14-.15-.39-.22h-.4l.1-.16-.52.1-.27.13-.32.24h-.28l-.14-.08-.2-.48-.22-.15-.83-.23-.35-.21h-.16l-.46.17h-.17l.59-.28.28.06.18-.06.38.05.16-.13.2-.13.4.23.64.24.27.06h.23l.51-.25.18-.16.32-.11.13-.09.14-.25.16-.14.66-.19.22-.37v-.42l-.39-.33-.23-.11h.33l.37.1v-.2l-.1-.14-.71-.55-.62-.26-1.29-.21h-.29l-.83.12h-.68l-1 .26-1.19.48-1 .32-.75.37-.81.31-.44.25-.28.25-.45.24h-.16l-.4.27-.73.67-.38.23-.25.43-.51.58-.5.45-.12.27-.34.26-.4.5-.3.25-1.09.52-.37.09-.25.19-.41.1-.53.19-.53.07-.48.23-.18.12-.13.2-.29.1-.3.15-.54.5-.59.22-.4.27-.21.42-.27.3-.22.36v.13l-.08.37-.09.1-.48.08-.66.44-.5.15-.69.42-.33.11.81-.58.56-.31.29-.06-.06-.26-.57-.17-.16-.11.64.09.32-.18.23-.26.2-.16.54-.08.45-.46.24-.36.08-.12.28-.16.1-.25.31-.16.38-.07 1-.57.12-.21.4-.14.35-.23h.28l.3-.08.83-.28.35-.37.33-.24.61-.39.6-.82.34-.24.7-.69.21-.27.15-.35.15-.43-.21-.22-.24-.1-.41-.11-.82-.32h-.39-.38l-.2-.17-.22-.09 1.46.26.63.26h.26l.34.19h.21.2l.29-.15.4-.4.33-.55.7-.76.6-.33.09-.2.2-.14.29-.13h.28l.17-.1-.14-.14.52-.18 1.17-.23h.14.23l.25-.31.07-.45.67-1.18.46-.21.28-.27h.16l.13-.15h.19l.1.05h.29l.27.06.39-.28.45.1 1.14-.18.2.07.72.07.83-.11.78.12.36-.1h.37.28l.34.14h.8l.24-.15h.42.28.3l.41.05h.41l.45.12h.57l.19.11.26.28 1-.29h.25.52l.34-.14.46.09.4-.05h.82l.45-.19.16-.31.47-.22.54-.55.49-.32.25-.3 1-.89v-.2l.05-.06.19-.12h.16.39.42.15l.39-.24.2-.08.71-.13h.37l.46.11h.19.1l1-.68.62-.36.61-.4.74-.65.05-.16v-.16l-.21-.12-.12-.09-.39-.19v-.07l.27.08h.21l.14-.08v-.11l-.14-.48-.21-.1-.49-.09h-.41-.22l.07-.09h.29l.74-.15.1-.06v-.11l-.13-.18v-.27l.06-.17-.14-.38.19-.42v-.24-.11l-.09-.13v-.08-.1l-.12-.15-.12-.25-.34-.36h-.36l-.2-.08-.21-.29v-.15h-.14-.4l-.33.06-.4.21-.48.45-.25.19-.13-.29-.08-.07h-.24l.08-.07.57-.26.2-.13v-.11-.17l-.12-.24-.5-.76-.46-.09-1.33-.12-.27.09-.1.09v.06l.1.12.32-.05h.26l.31.08h-.35l-.55.12-.75.24-.61.32-.49.41-.44.32-.41.22-.28.12-.48.1-.12.07-.24.28-.38.27-.41.13.17-.08v-.09h-.13v-.1l.3-.18.13-.12-.13-.13-.49-.25-.06-.14.31.14h.27.07v-.08l.05-.21.06-.1.09-.09.33-.15.11-.08h.17.23.36l.68-.3.37-.11h.06l.08-.11.14-.07h.18.28.2l.17-.17.28-.4.18-.08.32-.1.13-.11v-.09l.6-.11h.44l.31-.17.18-.25.19-.16v-.07l-.18-.16h-.33l-.23-.07-.23-.15-.24-.17-.08-.33h-.22-.31l-.07.17-.4.13h-.24l-.64-.18-.25-.36-.16-.33-.09-.31-.21-.1-.4-.06-.15.15-.16.23-.08.09-.74.54-.2.23v-.17l.17-.24.59-.6.11-.15-.18-.07-.2.08-.2-.08v-.23l-.15-.13h-.24l-.15.11-.65.07-.3.14-.5.41h-.14l.23-.22.16-.23v-.14l.16-.39.32-.26.07-.11-.27-.25-.1-.18-.13-.12.1-.19.06-.25h-.17l-.14-.05-.2.25-.07-.28h-.09l-.24-.2v-.17l-.2-.06-.14.14-.24.17h-.22l-.07-.07v-.14l-.12-.08-.38-.06-.23-.07v-.09l.34-.08-.06-.09-.09-.46h-.13l-.32.05-.35-.08v-.18l.48-.13.17-.11-.21-.1h-.41l-.57-.08-.16-.1.26-.17h.32.05l-.1-.55h-.09-.32l-.28-.25-.65-.21-.23-.23.08-.06.21-.06h.17l-.2.15v.07l.7.22 1.22.15.37-.09v-.31-.25l.1-.23v-.29l-.68-.57h-.2-.19-.14l-.2-.1-.07-.07.09-.08.12-.25.08-.07-.16-.13-.39-.1h-.24-.25-.22-.13l-.1-.09h.27.09l.2-.15h.2l.19-.09.27-.16.08-.19-.14-.34.06-.11.12-.07v-.12l-.14-.17-.37-.18h-.19-.24l-.42-.61h-.23l-.53.1-.38.12-.55.31h-.09l.4-.49.2-.14.58-.25.32-.4.19-.52v-.07h-.3-.23l-.55.22h-.21v-.1l-.06-.06h-.15l-.19.08-.41.37h-.15l.23-.23.11-.19.39-.22.27-.09.53-.43-.12-.31-.19-.31-.1-.07-.31.07h-.22l.14-.14v-.06l-.15-.26-.07-.08.19-.08h-.06-.18-.17l-.39.11-.52.07h-.34l-.07-.09h.14.35l.26-.05.32-.13.21-.27-.29-.47h-.22l-.27.22h-.05v-.14l-.05-.11-.38-.1-.06-.1.28-.13.23-.22-.21-.22-.2-.24-.1-.18v-.19l-.18-.24-.21.1-.18.18.13-.36v-.43l-.23-.32h-.29l-.35.07-.4.16h-.08l.13-.09.43-.19.25-.27v-.2l-.15-.14-.26-.13-.21-.1h-.26l-.07.08-.1.07-.09.12-.33.66-.07.23-.16.3v.14.13l.11.09.19.11-.06.06-.36-.19h-.18-.16l-.11.05-.06.06-.11.3v.14.11l.16.26.14.1h.19l.21.12.24.17.07.08h-.08l-.46-.3h-.18-.29v.08l.19.4v.05l-.23-.12-.08.11-.08.25-.06.11-.13-.06h-.07v.06l.08.2.06.09.08.06.25.06.26.11v.07h-.3v.08l-.35-.07h-.05v.07.11h-.22-.1l-.19.21v.07l.19.12h-.26l-.18.06v.11l.06.18.17.29.05.13v.13.13l-.16.35v-.46-.13l-.11-.18-.18-.23-.16-.15-.14-.08h-.14l-.27.21-.09.11-.09.2-.12.3-.26.2-.41.09-.28.1-.33.21-.5.24-.44.29-.06.09v.15.22l-.11.28v-.06-.32-.12-.34l-.11-.48v-.06l-.11.13v.18l-.08.13-.35.4h-.13l.35-.43.06-.1v-.11l-.22-.44-.09-.09h-.21l-.14.24-.27.76-.14.29-.14.13-.19.13-.66.12-.6.25v-.08l.21-.14.28-.11.52-.12.3-.13.26-.29.09-.22.19-.58v-.43-.1l-.17-.13-.13-.5-.07-.13-.14-.14-.21-.14-.17-.09h-.14-.56-.28-.26l-.22.05-.26.11-.62.41-.32.14h-.2l-.36-.16-.28-.06v-.09l.42-.09.25-.14.06-.08v-.09-.07-.06h.07l.07.06.17.37h.07.09l.18-.13.07-.18.06-.27.06-.16.07-.07v-.06l-.11-.22v-.1l.23-.33v-.09l-.13-.12h-.65l-.06-.17v-.33l.08-.26.13-.2v-.18-.16l-.1-.34-.1-.17-.14-.17-.16-.09-1.2-.09h-.33-.35l-.08-.15h.33 1.26.39l.28-.16.1-.16v-.08-.18-.08l-.17-.23-.07-.16v-.19-.18-.17l.07-.27.19-.43.15-.18.2-.13.13-.12.06-.12v-.12-.14l-.13-.31-.08-.11-.12-.06h-.15l-.06.13-.07.22-.07.12h-.21l-.25.17h-.19l-.24-.09-.12-.14v-.29-.14l-.06-.07-.21-.09h-.25l-.36.08h-.42l-.72-.24-.32-.08h-.4-.17l-.3-.19-.44-.44v-.12l.19-.1h-.35l-.14-.07v-.09l.2-.22.23-.08.09-.08v-.07l-.08-.09-.52-.25h-.13l-.1.15-.14.08-.44.09-.07-.05.38-.14.09-.09v-.05l-.1-.17-.1-.09-.12-.17-.36-.22-.31-.2-.34-.12-.16.05-.2.16-.15.09h-.1l.24-.41.08-.25v-.09-.09l-.06-.14h-.11-.34l-.25-.2-.13-.06-.34-.29-.24-.17-.3-.15-.46-.31-.17-.07h-.14l-.26.12-.39.23-.37.18-.51.17-.5.22-.1.1.17.21-.64-.41-.26-.12h-.21l-.53-.15h-.15l-.19.07-.69.38-.05-.05.31-.2-.32-.23-1.85-.54-.6-.22-.75-.08-.39-.09-.53.15-.69.38-.38.25-.1.14-.05.13v.26.36l.14.66.12.32.17.25.14.12.17.12.27.24.42.25-.31.27-.2.15v.15l.05.58v.08l-.07.17-.15.26-.24.29-.52.52v.12h.13.29l.29.11.62-.13v.06l-.16.06-.17.32-.07.07-.06.13.17.22h.18.28v.07l-.22.13-.19.27.07.23.46.75-.26.11.09.09.54.07v.07l-.19.33v.14l.09.18v.12l-.32.28v.11l.17.25.14.11h-.11l-.44-.38h-.31v.06.26.08l-.25.28v.11l.15.12.05.1-.19.26-.34.2-.18.15-.17.2-.24.36-.43.46-.06.09-.06.15v.21.29.11l.1.16.25.07.78.61.3.17.46.2.31.17.14.15.77.59.61.87.19.33v.2l.3.73.13.35.06.31.11 1v.61.68.46l-.14.52-.1.3-.26.36-.41.42-.31.36-.21.3-.37.35-.87.68-.17.17-.27.17-.54.28-.41.26-.39.19-.86.33-.14.08-1.75.59-.1.08v.06h.1l.09.06.08.09.18.35.1.3.11.19.17.23.14.15.18.1h.16l-.09.13h-.15l.4.15.14.09v.07l-.18.16v.06l.1.16.21.13h-.13l-.08.06-.1.24-.07.08v.19l.13.3.12.47.1.64.11.51.1.21.27.24v.13l-.18.53v.17l.05.32v.09l.29.28.1.14.06.29v.27.06l.15.09h-.1l-.11.12-.12.23-.25.33-.3.21-.1.15v.21l-.09.15-.12.07v.13l.46.51.1.12v.06l-.22.21-.07.14-.1.34v.22l-.08-.18-.11-.39v-.12l-.09-.12-.11-.11-.14-.08h-.17l-.09-.05-.08-.21h-.09l-.37.18v.08.13l-.09.13-.13.12-.11.2-.08.29v.2.11.1l.18.21.27.25.15.15.17.25.08.22-.25-.34-.15-.13-.3-.27-.43-.51-.29-.19-.33-.14-.37-.1-.24-.05-.25.07-.46.36-.27.18h-.13l.41-.43.41-.24.12-.14v-.13l-.11-.28-.21-.44-.16-.28-.11-.12-.61-.54-.37-.22-.36-.14-.26-.16-.16-.19-.19-.1h-.23l-.38.07.12-.09.26-.13.12-.09.09-.14-.07-.2-.32-.4-.27-.28-.38-.5-.2-.2-.22-.14-.13-.12-.07-.22v-.11l.07-.29.1-.16.13-.17v-.31l-.07-.47v-.31l.1-.4v-.25-.21l-.18-.51-.06-.08-.3-.34-.07-.21v-.35l.11-.41.35-1v-.14l-.19-.45-.2-.22-.42-.26-.25-.06h-.27-.15l-.18-.2h-.09-.53l-.82-.15h-.22l-.56-.16h-.15l-.11.06h-.19-.27-.31l-.37.07h-.44l-.49-.08h-.33l-.15.06-.2.13-.35.47.35-.65v-.17l-.15-.11-.28-.15-.17-.14-.19-.21-.27-.2-.35-.18-.36-.13-.35-.07-.55-.18-1.25-.46-.85-.19-.45-.15-.18-.12-.73-.93-.46-.41-.45-.22-.4-.24-.54-.38-.34-.3-.28-.12-.61-.1-.3-.11-1-.21-.66-.24-.62-.32-.57-.25-.7-.11-.5.06-2.09.58-.53.18-.25.13.17-.16v-.08h-.35-.12l-.33.21-.17.08h-.17l.15-.08.15-.12.14-.17.15-.23.16-.31.09-.23v-.15-.22l-.09-.28-.49-1-.09-.23-.24-.77-.19-.5-.4-.89-.06-.25-.07-.44-.05-.11-.23-.1h-.23-.58l-.68-.1-.64.05-.15.08-.2.37-.14.84-.14.27v-.14l.12-1.08v-.19l-.3-.1-.28-.35-.09-.07h-.11-.11l-.09-.11-.07-.24-.08-.16-.16-.1-.25-.06.2-.07.11-.21.08-.4v-.72-1.63-.16l.07-.37.17-.67.05-.4-.05-.13-.08-.08-.13-.07.19-.14h.25l.14-.21.19-.44.27-.49.36-.54.2-.4v-.26-.18l-.07-.13.05-.05h.28l.12-.12v-.07l-.12-.28.06-.14.47-.43.67-.36.16-.12.09-.1-.26-.12-.1-.08-.08-.09-.12-.25h.48.09l.14-.1-.06-.07-.16-.12h.42l.22-.09.13-.12-.06-.16v-.1l.37-.23v-.11l-.17-.15-.44-.23-.06-.05h.11l.67.22.3.17.2.18.16.11h.12v-.12l-.19-.27-.17-.18-.15-.08v-.1l.14-.14.26-.19.08-.12v-.15l.13-.07h.22.18l.12-.08h.12l.29.15h.17l.14-.13v-.06-.19l-.45-.07-.22-.07-.14-.1-.09-.08-.08-.14v-.1l.06-.06h.38.1l.1-.08h.18l.37.1 1 .11h.23l.55-.37.24-.07h.32l.21-.1.12-.16.07-.17v-.17-.7l-.09-.18-.51-.33-.31-.12-.64-.22-.37-.2-.45-.36-.36-.14-.27.08-.27.13-.49.28h-.41l.59-.32.11-.13-.09-.06-.33-.1-.44-.09-1.46-.52-.2-.09-.29-.08h-.07l.06.15.13.1.14.07h-.34l-.33-.11-.24-.28v-.11l.11-.12v-.13l-.23-.39.62.43 1.06.34 1 .4.48.15h.33.24l.13-.1h.13.12-.08v.2h.07l.57.06.32.06 1 .39.38.11h.3l.25-.06.16-.1.09-.14h.15l.2.11h.18l.28-.07.21-.17.32-.42v-.09l-.09-.18-.25-.37h.06l.51.14.15-.05v-.08l-.22-.38-.07-.07-.22-.1h.09l.53-.15h.05l.06.25.07.08.27.18h.15.12l.08-.06h.14l.44.21h.19l-.23-.46.32.29.22.09.34.07.38-.07.63-.29.63-.35.25-.22.08-.22.18-.36 1.4-1.59.22-.37.36-.52.06-.17-.06-.33-.19-.1-.65-.14-1.24-.07h-.62l-1.79-.26-.35-.18-.27-.19-.74-.66-.44-.34-.31-.17-.28-.09h-.26l-1-.28-.89-.13-.19.08v.05l.08.21-.57-.24-.32-.21h.25.68.42l.39.09h.33.46l.46.16h.19l.26.06h.1l-.23-.23h.13.32l.36.1.4.19.77.46.33.14h.31.15l.17.25.19.09.45.28.63.46.35.17h.67.52l.37-.06.23-.11.26-.22.29-.33.58-.54 1.52-1.34.07-.1.12-.27v-.14l-.08-.12-.26-.15-.44-.17-.65-.2-.23-.15-.14-.21v-.07h.08v-.06l-.11-.21h.07.17 1.31.63l.43-.14.37.12.32.38.26.27.22.17.44.21.64.24.35.11.14-.28.17-.12h.07l.65.23.25.07h.08l.17-.1-.07-.2-.32-.5-.3-.41-.13-.24-.07-.23-.09-.13-.23-.11-.62-.56v-.08l-.08-.1-.23-.12h-.28-.09l-.19.18h-.09l-.21-.08v-.06l.17-.19.45-.28h.35l.36.17.15.13.35.25.09.09-.2.07.09.12.27.17h.12.24.12l.18.19.42.56.2.2.06.09.08.28.16.07h.27l.25-.08.23-.15.57-.46.71-.14.2-.13.42-.34.26-.12.14-.1.2-.23.25-.37.18-.21.12-.05h.35l.21-.06.38-.26.06-.09.12-.38.2-.66.07-.4v-.15l-.27-.38-.19-.17-.5-.33-.37-.32-.24-.24-.2-.26-.09-.24v-.12-.13l.18-.48v-.08h-.05l-.1.06-.17.16h-.08-.08l-.39-.56h-.07l.09-.13-.05-.08-.12-.1-.2-.25v-.06h.11.24l.43-.11h.24l.23.14h.21l.19-.11.44-.15.26-.13.57-.41v-.14-.2-.16l-.16-.19-.11-.09-.22-.06-.49-.05h-.62v-.1l.45-.2.34-.18.65-.48v-.08l-.13-.19h-.08l-.74-.24-.51-.07-.46.11h-.02l-.05-.07.09-.13v-.14l-.18-.32-.86-.25-.26-.14.28-.1.32-.06.24-.28v-.17l-.56-.2h-.3-.56l-1.3-.07h-.26l-.58-.18-.75-.37h-.18-.75l-.43.06-.43.12h-.36l-.3-.13h-.25-.22-.06l.09.06.12.17v.13l-.12.39v.14l.12.15v.14l-.06.11v.13l.06.15v.1.07.23.14l.09.36.26.24h.07.3l.52.29.06.08-.07.21v.13.11h-.21l-.18.17v.15.11l.55.21v.07l-.94.13h-.15l-.2-.11h-.15-.06l-.1.16-.19.12-.11.12-.1.16v.21.25.28l-.13.47-.38 1-.08.11-.88.87-.07.1-.18.34-.06.25-.08.53-.05.13-.12.13-.16.11-.16.06h-.15l-.25.18-.37.34-.42.33h-.13-.09l-.07-.06-.06.07-.12-.43-.07-.12-1.15-1.06-.45-.56-.28-.73v-.15-.7l-.09-.38v-.11l.25-.2h.07l.14.28.08.06h.28.22l.1-.07.05-.14v-.18-.23-.18l-.03-.1-.11-.35-.12-.58-.18-.41-.42-.42-.21-.16-.74-.42-.41-.31-.32-.35-.24-.18h-.33l-.18.06-.17.12-.46.57-.27.29-.12.33-.07.49-.07.3-.24.45v.12.3.12l-.25.37-.25.24-.1.13v.14l-.07.05h-.1l-.08-.09-.08-.16-.09-.06-.15-.2-.24-.15-.11-.17.11-.54v-.32l-.08-.39v-.13l.17-.18v-.07l-.25-.27-.36-.64-1.14-.73.05-.07h.16l.21-.07h.07l-.05.09.1.06h.26l.16-.09.06-.23.11-.19.15-.14.18-.07h.21.23l-.17-.09-.24-.12h-.26-.28-.38l-.77-.11-.35.07.28-.18.31-.16v-.07h-.12-.42l-.34.14-.44.29h-.43l-.69-.29-.11-.13.06-.08-.18-.08h-.42l-.35.1h-.37-.12l-.07-.06.31-.18 1.08-.74.5-.38.21-.22-.19-.14h-.16-.73l-.16-.08.14-.2.21-.21.1-.14h.07l.31-.03.21.11.29.11h.31l.56-.07h.1v-.07l-.21-.23-.14-.27-.1-.12-.14-.06h-.13l-.12.15h-.13l-.14-.07-.06-.07.08-.2v-.09l-.38-.43-.23-.48-.1-.11-.07-.07-.41-.18-.19-.05-.32-.33-.41-.17-.05-.06.14-.14v-.13l.05-.64v-.23l-.13-.59-.08-.16-.11-.15-.52-.54-.35-.25-.39-.21-.43-.29v-.16l.07-.18v-.11l-.15-.1h-.64-.19-.32l-.39-.36v-.29l-.15-.27h-.13-.28l-.35.09-.73.26-.71.54-.24.39-.51.38-.08.1.09.2.13.06h.23.53l.09.06-.09.14-.27.52-.16.08h-.22l-.28-.14-.17-.14-.17-.07h-.15l-.18.08-.3.24-.31.28-.1.14.06.27-.06.08-.13.06-.05.07.13.24v.29l-.14.47v.34l.43.55.24.15h.16l.65-.25-.23.32v.1l.23.18-.39-.07h-.17l-.24.08-.16.13-.09.17-.49.6v.35.14l.14.35.51.55.23.28.12.22.16.16.19.12.27.07h.33l.27.09.22.16.46.21 1.09.36h.07l.18-.26h.08.1l.28.27.22.27.06.23.16.08h.25.34.23l.28-.17.33-.09.27.16v.12.19.09h.24v.08l-.27.24-.42.29-.16-.11v-.11l.44-.5v-.06l-.54.17-.7.14-.22.11-.05.16v.14l.06.36.08.06h.33l-.35.3-.55.37-.2.19-.09.43v.11l.25.14.6-.07.35-.1.17-.15.13-.27.09-.38v-.06h.06.1l.1.09.12.16.08.17v.2.22.4l.07.21h.09.36l-.07.08-.39.22-.57.39-.39.3-.36.41-.3.27-.24.15-.59.48-.27.11h-.22l-.39-.13-.25.09h-.35-.1l-.07.09-.47 1.17v.13l.39.37.17.36.22.62.08.38-.14.43-.08.67-.1.13-.21.09h-.31l-.8-.14-.15.06v.06l.06.2.57.56.06.14-.1.28v-.29l-.16-.2-1.1-1-.14-.18v-.06h.12l.31.28h.31l.18-.09h.15l.21.12h.22.36.12.13.1l.09-.09v-.17-.23-.16l-.26-.21h-.07-.16l-.35.11.2-.41v-.07l-.37.07-.31.11h-.29l-.07-.07v-.34l-.07-.11-.36-.42v-.17l.32-.49.07-.16.07-.45.31-1.29.15-.36-.37.05-.84.34v.06l-.08.2-.08.09h-.14-.3v-.09l.56-.72.11-.19v-.08l-.46.24h-.8-.05l-.17-.27-.15-.18-.3-.3-.16-.1-.17-.07h-.16l-.16.08h-.21l-.43-.21h-.23l.07.24.26.25-.68.17-.29.11-.58-.26h-.12-.1-.2v.13l.33.43.09.09.16.27v.07l-.26-.07v.06l.14.21.57.56.19.08.45-.2.4-.1.45.07.48.24.3.18.11.13v.1.17.27l-.09.12-.19.12-.41.19h-.35l-.75-.32-.11-.11-.19-.12-.82-.87-.28-.23-.22-.1h-.13l-.07.1v.17.13l.22.22.32.22.12.12v.07h-.09l-.57.07-.26.14-.25.07h-.26l-.17.01-.34-.08-.41-.16-.7-.12-1-.09h-.56l-.15.09h-.22-.3-.25l-.4.14h-.16l-1.06.27-.3-.06-.45-.14h-.4l-.36.09h-.25l-.16-.1-.7-.2-.34-.16-.42-.35-.69-.49-.35-.2-.42.18-.57.11h-.67-.36l-.32-.08-.32-.24-.08-.1.06-.26v-.07l-.35-.08h-.25-.08v-.21h-.06-.07l-.12.08h-.13l-.22-.13-.42-.33-.12-.18-.06-.48-.19-.57-.16-.25-.18-.19-.26-.15-.5-.16-.34-.06-.37.08-.9.33h-.27l-1.4.48-.76.16-1.26.16-.07.05-.68.88-.18.32.07.08.74.4.1.09h.14l.36-.08h.18.68l.13-.12-.13-.2v-.13l.28-.18h.28l.46.11h.35l.24-.17.22-.11h.22.17l.39.12.1-.12.05-.29.2-.22.51-.24.48-.19.22-.06.37.11v.07l-.07.27-.18.2-.17.13-.25.14-.21.07h-.32l-.31.26-.06.12v.35h-.08l-.18-.06h-.31-.09l-.19.25-.1.07h-.2-.17-.3-.23l-.29.13h-.22-.15l-.58.11h-.08v.1l.14.21-.08.21-.29.2-.16.15v.34.12l.2.24.26.21.24.3v.14.18.17l.18.44.2.29.38.28.08.1-.15.19v.12l.16.18.23.37h-.1l-.3-.2-.17-.06v.07h-.07-.11l-.29-.26-.23.07-.05.09v.57.17l.05.12.34.47.66.75v.1h-.07l-.07-.07-.25-.22-.52-.56-.13-.18-.45-.38-.1-.14-.11-.11-.12-.06-.13-.12-.14-.19-.55-.48-.09-.11h.09l.26.12h.28l.31-.07.22-.1.15-.13v-.14l-.02-.13-.13-.21-.83-.58-.33-.31-.23-.43h-.05-.15l-.09.1-.23.57-.08.06-.09-.06-.14-.22v-.15l-.06-.42-.1-.21-.1-.08-.33-.07h-.94l-.12-.08-.17-.27-.17-.18h-.17l-.07-.06-.25-.35-.07-.06h-.06l-.27.15h-.36l-1 .48-.43.17h-.22-.16l-.09-.1h-.22l-.37.15-.29.08h-.33l-.9.1h-.31l-.18.05-.28.13h-.16-.87-.45l-.32-.06h-1.08-.48l-.37-.08h-.29-.21l-.37-.08-.54-.17-.45-.07h-.35-.28l-.36-.2-.34-.13v-.08l.52-.3.08-.08v-.26-.08l.11-.11.63-.25.21-.3 1.13.09.41-.07.1-.07.07-.09.13-.37-.05-.07h-.15l-.09-.08v-.17l-.24-.3-.45-.43-.48-.35-.86-.42-.57-.16-.47-.2-.44-.26-.41-.06h-.17l-.12.12-.54-.07h-.17v.07l.43.41v.08h-.38l-.25-.11h-.21-.29l-1.1-.15h-.24-.22l-.2-.09-1.19-.26-.61-.18-.49-.2-.41-.21-.6-.36-.29-.1-2.26-.34-.67-.16-.35-.16-.9-.6-.3-.21-.34-.17-.87-.34-.44-.14-.49-.09-.76-.07h-.73-.73-.19-.39-.16l-.12.11-.08.19-.07.43-.16.37-.09.09-.25.1-.23.31-.16.13h-.19-1l-.14.06h-.53l-.2-.06-.11-.09v-.1l.07-.12.12-.16.6-.65v-.16l-.52-.18-.14-.13-.15-.63v-.26l.06-.33v-.2l-.14-.13h-.12-.19l-.16.1-.08.15-.48.16-.09.07.06.05h.1.13l.22.07-.06.09-.22.13-.18.17-.14.21-.12.11h-.08l-.2-.06-.06.3v.1l-.29.29v.15l.22.24.22.36v.21l-.49.32h-.32l-.47-.12-.41-.15-.37-.2-.43-.32-.83-.76-.17-.19-.17-.32-.23-.36-.22-.43-.48-.74-.2-.23-.35-.3-.87-.65-.25-.14-.3-.1h-.11l-.2.18-.1.18v.26l.11.09.31.14-.13.14v.06l.14.09.67.14-.19.16-.76.25-.42.22-.19.5-.06.11-.74.62-.34.24-.27.16-.17.05h-.11l-.08-.13v-.21-.13l.46-.18v-.08l.07-.28-.2.13-.11.12-.18.09-.36.11-.7.12-1.24.44-.55.26-.37.36-.33.36-.5.66-.09.14-.13.31v-.18-.45l-.06-.27-.11-.09h-.12-.11l-.11.09-.19.28h-.08v-.22l-.09-.08-.5-.11h-.16l-.36.11-.08.12.09.06v.07l-.11.14-.2.19-.49.23-.19.13-.33.14-.43.11-.4.25-.08.15v.12.12l.06.2.08.11h.38v.06l-.1.11-.3.14-1.39-.12h-.07v.07l.29.17.12.12h-.13l-.35-.12h-.06l-.1-.22.09-.17.35-.33.32-.25.28-.29.34-.43.3-.22h.48l.35-.14.3-.23.16-.16.32-.47.12-.07.17-.06.9-.12.39-.07.22-.08.58-.07.29-.08.29-.14.57-.39 1.87-.89.25-.32v-.13l-.19-.26-.12-.1h-.13l-.39.36-.1.06h-.23-.3-.23l-.28-.13-.24-.06-.39.07-.6.31-.14.14-.1.16-.24.3h-.18l-.24-.1h-.28l-.33.14-.81.53-.53.2h-.16l-.23-.18-.36.06h-.11l-.08.09h.2l.16.08v.06h-.12-.17-.72l-.17.08-.26.5-.13.15-.18.15-.3.09h-.43l-.5.15-.58.27-.53.2v-.11l.33-.44.17-.17.15-.32v-.08l-.41-.12-.13-.12-.13-.22-.1.01h-.39l-.09.06-.06.14v.25.11l.08.27h-.08l-.83-.07-.63.08-.14.08-.07.1-.06.41-.08.07-.48-.12-.27.19-.17-.09-.51.82.14.12.25.13.21.07h.17v.07h-.24-.41-.12v.07l.1.19.55.1.47.21h.06l.41.54h-.07-.23l-1.17-.55-.59-.2h-.74-.12-.51l-.81-.25-.49.04-1.41-.52-.59-.24-.38-.24-.92-.4-1.13-.81-1.83-.44-1 .08-1-.13-.33-.06h-.18-.48l-.11.07h-.16l-.32-.31-.4-.23-1.37-.41-.29-.28-.66-.39-1.18-.34-.13.08h-.19-.48-.42l-.73.2-.81.07-.47.23-1.33-.11-.09-.1-.47-.07-.88-.46h-.54l-.52-.19h-1.07l-.73.09-1.48-.19-.2-.1-.18-.26h-.39l-.23-.22h-.25l-.28.17h-.25l-.48-.41h-.36l-1-.31h-.33l-.3-.09h-.75l-.66.27h-.28-.29l-.33-.19-.27-.08-.73.19-.35.05-.22.14-1.66-.14.29-.25.05-.11.07-.09h-.92-.19v-.19h-.3l-.21-.2.08-.34.47-.32-.16-.16-.39-.14h-.41l-.27.06-1-.24-.61.18h-.47l-.5.07-.64.32-.45-.16h-.48l-.43-.2.14-.14.12-.25-.33-.26-.29-.14-.52-.07-.14.07-.2.29-.61.5-.3.16-.37.1h-.24l-.23-.41-.24-.11.79-.28.39-.28.13-.25-.15-.26h-.38l-1.52-.44-.23-.21.17-.16.23-.07h-.17l-.72.38-.44.38-.51.57-.3.23-.65.42-.7.34-.21.06h-1.12l-.06.09-.25.09h-.87l-.18.13-.4.1h-.13l-.08-.12.18-.14.18-.07v-.12l-.09-.07h-.19l-.85.39-.92.63h.28l.49.43h.83l-.68.19-.3-.08-.07.19v.26.27.19l-.1-.22h-.43l.21-.47-.24-.11.33-.4-.19-.07h-.16l-1.19.6v.11l-.81.48-1.48.29-.3.16-.53.13h-.17l.07-.06.3-.12.22-.18h.13l-.05-.08-.07-.06-.16-.17-.22.18-.22.26-.64.55-1.39 1.38-.32.61-.09.64-.07.27h-.06l-.11.19-.65.72-.77.54-.65.31-.35.1-1.36.13-.51-.03-1 .06-1.62-.07.07.36-.24.9-.22.59-.16.14-.28.12h-.18l.24-.2-.23.06-.38.14.49.16h.38l.4.12.64.49 1.32.44 2.91 1.73.42.51.33.81.18.3.44.36 1.22.29h.55l.41.07.4-.34v.17.16l1-.11.56.11.23.16-.25.22-.34.46v.4l.4.21.26.21.4.16.79-.39.44-.07.5.25h.66l.22.16.08.24v.34l-1 .18h-.31l-.61-.34-.12-.14h-.41l-.59.14-.73-.38-.33-.42.08-.45-.27-.07-.28-.46-.27-.14-.27.07-.29.14.14.35.18.26h.35l.29.16.7.77-.07.32.2.15.66-.14 1 .28.11.16.08.4-.17-.19-.21.08-.33-.11-.26-.13-.23.12-.6.75h-.27l-.65-.11-.86.08h-.31l-.39-.1-.65.09h-1.21l-.78-.5.16-.16.16-.11v-.36l.25-.44v-.14l-.14-.12-.13-.06h.18.41l-.21-.16h-.76l-.93.08-.49.13-.86.44h-.34l-.58.11-.75.35-.08.12-.07.17.65.3-.07.08-.09.05-.22.07h-.66-.11l-.36-.25-.42.1-.33.17-.48.19-.34.35-.23.21-.18.1-.77.07-.4.39-.77.32v-.13-.13l-.18.12-.22.24.12.23.11.11 1.35.55 1.7.32.13-.06 1 .18.09.08.08.09h-.36l-.4.1-.18.35-.58.05h-.22l-.11-.06h-.06l.24.23.63.54.32.1v.37l-.16.11v.26l.36.38.42.16 1.6.26.71.18h.37.18l.1-.07.06-.11.15-.07h.09l.08.06.9-.28h1.36l.52.14.51.28.28.19.09-.2.12-.16h-.28l-.17-.12-.15-.25.23-.17.76.51.16.53h.22l.17-.27.7-.6.37-.25.7-.24.25-.27.29.09h.39l.64-.48h.12l.16.08.22.24.18.17.08.15v.27l-.13.26-.01.04-.27.17-.33.07h-.51l-.18.34h.24l.39.16.53.54.19.81.15.36.14.42-.11.33-.23.26-.4.37-.38.22-.55.11-1.08.06-.19-.07-.13-.23h-.19-.2l-.18.28-.61.68-.42.21-.33.33-.26.13-.52.12h-.17l-.14-.14-.19-.08-.34.18-.2.14.05-.06.14-.08.07-.08v-.12l-.29-.29-.47-.2h-.38l-.7.17-.12.11-.14.21.34.27v.08h-.1l-.58.07-.2.18-.08.19-.1.42.06.45.06.19.25-.28.23-.12v.08l-.21.29-.36.09.11.25.09.06-.26-.13-.25-.06-.27.08-.18.14-.58.61-.6.73-.08.31v.19.11l.22.21-.5.16h-.37l-.2.11.14.2.49.18-.06.06-.62.12h-.07-.08v.22.15l.14.14.33-.18h.27l.11.16-.28.39.1.24.4.12.14.48.15.22h.19.23v-.22-.15l.14-.24h.14.07l-.16.15-.07.1.15.1.17.06.12-.12h.06v.22l.14.13.32-.08h.16v.09l-.29.15-.4.28.14.11h.11.72l.72.21h1l.57-.37.2.11.17.13-.16.08h-.43l-.16.1.66.11.25.08.21.14-.25.33-.46.26-.21-.28-.17-.26h-.1-.14l-.31.17-.41.3h-.14l.12-.19.12-.27-.12-.16-.12-.09-.33-.08-.39-.18-.28-.08-.22.07-.27.46-.78.7.3.06h.26l.2.09v.12l-.06.25.33.23.27.14h.3l.44.54.78.53v.16.18l.54.31h.52l1.07-.16.78-.26.34-.25h.37l.08-.17.08-.31-.06-.25-.05-.11-.31-.13.19-.09.31-.34.47-.7.15-.14.14-.18h.16.25l-.44.24-.35.55-.3.6.41.37.24.68.53.92.18.43v.25l-.1.29-.11.22-.24.28.1.47.21.23.22-.11h.35l-.34.32v.26.18l.13.35-.3.26-.35.11-.32.14.9.11.91-.2.08-.25.09-.06.09-.13h.08l.67-.24h.25l.37-.28.31-.18.36-.15.24.27.25.22.53.29h.21l.21-.2.16-.06.5.41.22.24.63.85.31.22.37-.13v-.26l-.21-.67.06-.26.14-.37-.08-.24.12.08.19.07.21-.2.16-.28.22-.06.46.18.32.2h-.25l-.28-.1h-.26l-.12.2-.06.3.15.23.11.13.2.35.26.09.39-.09.82-.36 1.21-.44.41-.38.36-.49-.27.58-.27.64.08.1h.07l-.58.32-.54.46-.14.28v.24l.08.32.22.07h.12l.34.13-.57.08-.26.1-.13.3v.52l-.14.51v.21.14l.17.12.08.2h.09.13l-.17.07h-.25l-.07-.06-.05-.08h-.09l-.25.07h-.12l-.35.34-.2.14-.21.08-.22.15-.35.33-.26.28-.17.24v.14.18.18.2.11h-.07-.17l-.26-.07-.06-.1v-.12l-.1.2-.39.3-.29.27-1.16.41-.6.41-.24.13-.35.27-.17.24-.19.34-.13.25-.05.18v.13l.11.1.4.23.09.1-.05.09h-.13l-.21-.06-.14-.07-.07-.08h-.16-.25-.12v.27.05h-.1l-.11-.05-.36-.38v-.08l.25-.09.06-.1-.05-.07-.16.07-.43.14h-.1l-.07-.07.1-.12h-.08l-1.11.37-.56.27-.5.34-.45.4-.38.47-.33.32-.3.17-.16.14v.11l-.08.08h-.13-.11-.08-.16l-.38.23-.06.09v.12.15.2l-.1.23v.12h.11l.15-.08.21-.17.07-.18-.06-.2v-.09l.28.05.3.3h.11l.33-.15.13-.13v-.11l-.07-.47v-.09h.21l.11.11.15.21v.12l-.1.05.07.06h.1.12l.13-.07.15-.16.1-.07h.22l.21-.19.55-.62v-.1l.09-.35.06-.11.13-.09.19-.09h.14.23l.24.11.09.06h-.26-.14l-.09.07-.07.07-.08.16v.21h.19l.47-.06h.18l.18-.11.16-.17.13-.07.29.1h.1l.1-.14h.14.16.13l.08-.06.13-.18.08-.07.3-.08.45-.33.2-.11h.11.09l.15-.1h.09.06l.15.07v.09.54.06l.12-.09.1-.14.06-.17v-.2l.21-.1 1.48-.47.2-.18.18-.37.08-.09h.38v.31h.05.06l.1-.12.36-.27-.06-.16-.06-.09-.1-.07h-.19-.16v-.08l.28-.32.15-.06.37-.08.15-.08h.13.2.12-.11-.23l.12-.14.36-.17h.23l.22.06h.15.07l.12-.13.09-.29.11-.1.12-.06h.13.14.15.16l.16-.11.18-.17.15-.1h.12l.11-.07.1-.13h.16.19l.09-.18.21-.08.06-.05.17-.33v-.12l-.1-.18h-.07v-.06l.1-.11.44-.29h.2l.15.06h.08l.05-.26.08-.06h.43.08l.12-.19.23-.16.07-.09v-.11l.21-.61.26-.06.24-.1.38-.25.11-.11.21-.34 1-.13v-.18l.37-.1h.29.08v-.25l.06-.18h-.17l.46-.2.07-.11v-.15l.1-.17.36-.32.09-.06.29-.07.19-.1.41-.34.17-.22.07-.12v-.09-.09l-.19-.17-.54-.27-.31-.1h-.26l-.53-.14-.11-.13.09-.28.17-.33v-.09l.63-.38.14-.12.09-.13.21-.18-.14-.07.4-.26.15-.06h.11l-.06.18h.05.29l.33-.13.11-.07v-.22-.06l-.4-.11h.06l.18-.06.58-.08.22-.08.23-.26.08-.15v-.15l-.08-.14-.2-.18-.32-.22-.32-.17h.3l.28.16h.17.17l.26-.1.39-.24.18-.16.07-.09-.1-.16v-.06l.08-.2.63-.53.3-.18h.19l.08-.05-.08-.27v-.09l.11-.18.27-.5.31-.12.41-.1.3-.16.2-.21.28-.18.76-.36h.11.08l.14.14h.83.31.07l.17-.28.11-.14.3-.2h.16l.46-.19h.24l-.61.28-.33.19-.21.2-.09.13v.11l-.08.07-.21.06-.08.09.2.17.87.45.3.1.73.1.17.18h-.23l-1.06-.25h-.51l-.33.09h-.26l-.21-.08-.18-.1-.16-.13h-.21l-.78.38-.4.26-.85.34-.08.07v.22l.09.37v.31l-.19.66-.13.25-.37.38-.28.36-.12.23-.16.48.09.21.12.07.58.17h.14.11l.72-.43h.08l-.33.46-.16.18-.32.23-.26.12-.42.07-.36.19-.08.07-.11.15-.07.19v.07h.11l.38.24h.3l.33-.15h.26.18.15.12v-.01l-.08-.11.27.08.24.11h.06l.08-.19.11-.13.4-.29.13-.18v-.29-.1l.13.09h.1l.34-.16h.18.09.14l.53-.42v-.08l-.13-.22h.1l.37.15h.05l-.05-.28v-.08l.19-.22.06.08.13.38v.06l.12-.42.2-.25.06-.12v-.34h.05l.21.31.09.06.33-.12.12.11.15.07.37.1h.22.24.16l.08-.05h.08.09.08l.23-.46.1-.08h.1.07v-.34-.2-.14-.1l.37-.23.19-.05.13-.08.06-.12v-.13l-.15-.15h-.16l-.16.1h-.25-.36-.25l-.17.1.1-.12.2-.15h.1.3.07v-.09l.07-.23v-.08l-.17-.09h-.13l-.42-.25v-.09h.2.18l.11-.07.12-.3.2-.32h-.15l-.25.1.05-.09.11-.09.16-.07h.15.11.25l.15-.09.32-.28.17-.11-.51.7-.07.18v.07l.23.2h.19l.35-.09.08-.08.07-.16.05-.06.11.09.2.07.1.11h.07.09l.08-.08.08-.2.14-.06h.21.16l.13.06.24-.09.37-.26.3-.17h.46l.23.08-.72.21-.09.21v.34l.08.09.16.11.32.1-.23.19h-.12-.06l.16.1.36-.13h.22.16v.07.15.11h1.1v.11l-.16.21-.12.12-.2.17h.12.3l.36.1.41.18h.31l.2-.13.15-.13.26-.29.28-.22.32-.22h.08l-.22.3-.09.17-.09.26-.09.43.11.14.26.08.16.08.07.09.26.06h.45l.34.14.23.23v.07l-.18.06v.11h.39.51l.69-.15 1.29-.14h.92l1 .19 1 .22.32-.09.2-.09.08-.07v-.15-.08h.11l.08.08.09.27v.08l-.26.27.17.1 1.13.43.45.08h.52l.47-.06.69-.27.16-.09.55-.49.21-.15h.2.07l.37.37.59.2-.1.31h-.3l-.1.07-.06.13v.14.27.15l-.08-.44v-.32-.1l-.26-.28h-.09-.06l-.1.07v.07.11.13.2l.12.22v.1l-.23.3-.15.08-.21.07-.07.07.06.07.13.08.32.14.54.29 1 .48.42.17.44.07-.09.07h.06.19l.23.08.26.13.49.36.15.17.07.15.16.21.26.27.2.15.15.06.08.06v.12l1.08.63.48.21.38.22.21.08h.06l.28-.28.77-.07h.11l.06-.07v-.23l-.09-.18-.28-.32-.22-.08h-.38l.18-.21v-.07l-.29-.14v-.11l-.11-.08-.29-.14-.32-.1h-.2l-.17.06.17-.17h.09v-.12l-.12-.19.37.17.61.14.13.12.07.15h.06l.17.07.19.14.16.07h.1l.09-.06v-.1-.26l-.08-.18v-.34l.07.13.12.37.08.06.19-.1h.25l-.5.26v.11l.36.56.06.15-.08.39v.21h.06l.69-.06.28.12.2.26.14.15.37.07h.12l.07-.11v-.1-.11l-.21-.58-.07-.26-.06-.27-.11-.36-.18-.45-.12-.6-.27-.39h.16.08v-.12l-.16-.23h.17v-.12l.09-.23v.29l.07.29.26.55.2.8.12.15.21.11.05.08v.32l.39.65.26.23.41.06.35.23.17.18h.11l.18-.15.22-.46.22-.28.07-.06h.08v.07l-.1.1-.26.6v.27.27.19l.32.27.17.19.18.27h.15l.07-.05.15-.22h.15l.69.15-.69-.05v.06.1.19l.19.16.73.54h-.06l-.46-.26-.49-.21h-.11l-.05.06v.12l.25.29.24.72-.07.55 1.27.41h.21l-.06.26v.1l.07.12.23.24.14.08.35.1v.39l.1.05h.17l.05.08v.32l.06.12.12.1.17.23.11.06.26.07.13.18.09.17.09.1h.1l.67.07-.43.15h-.24l-.38.74-.19.3-.16.19-.11.09v.1l.16.39.08.1.32.11.08-.06.18-.3.08-.28.07-.1v-.06l-.06-.17v-.06l.08-.07.34-.18.8-.26.59-.25-.1.14-.15.15v.13l.35.48.13.24.09.4v.2.3l.06.33v.08h.2v.07l-.54.17-.14.21v.07l.16.31.1.35.2.46h.54l.09.07.09.07.43-.21.34-.43v-.25l.34-.64.11-.19v-.28-.15l-.07-.21-.09-.32v-.35l.07-.31.15-.33-.09.22-.06.2v.19.2.22l.09.3.13.36v.31l-.15.22-.07.28.1.16.14-.17.25-.45.09-.22v-.32-.37-.09l.07.2.07.13.08.06h.08l.08-.05h.16l-.51.58-.25.37-.13.27-.37.62-.08.21-.18.3-.2.09-.1.15v.11.25.19l-.08.19.07.22.25.26.47.28.43-.14h.24.39l-.38.2-.58.1v.09.41l-.34.34-.23.46.16.22.44.24.37.08.21.44.31.24.28.26.24-.3.41-.14.06-.08v-.19-.31-.2l.35-.43.1-.06.13-.14v.06h.09l.43-.28h.12l.27.19h-.06-.21l-.15.07-.07.09v.11.11.16l.17.33.18.15.2.1h.1l.23-.06h.37l.21.12.39.37v.17l-.35-.3-.13-.15-.36-.13h-.15l-.27.15h-.15l-.67-.4h-.17l.13-.34v-.12h-.19l-.19.07-.22.16-.13.34.1.28.11.24.49.12.5.27.29.32.17.82.2.16.6-.25h.12l-.13.16-.05.16-.15.57-.18.58v.23h.07l.14-.12.33-.38.22-.06-.19.17-.07.12v.08l.07.26v.08l-.73.49.37.49.21.65.25-.5.22-.62.15-.31.1-.12.18-.09.35-.07h.1l.95-.85.09-.06.08-.09v-.12-.11-.27l.09.18v.1.1l-.1.19-.45.38v.12.12l.08.2.07.07.44.2.08.13v.12l.33.35.09.16h-.06l-.2-.19-.07-.13-.14-.21-.11-.11-.39-.07-.15-.25-.45.12-.26.18-.29.14-.28.19-.11.32v.3h.3l-.24.35-.07.18v.14.31l.07.22.16.18v.12h.1.06l.08-.11.08-.15.31-.35.24-.09h.7.79-.1l-.54.07h-.72-.15l-.17.1-.49.56-.13.25-.06.23v.36l.27.19.35.3.19.14.21.09.48.14h.1l.13-.09.75-.06.16-.15.11-.28.07.29-.08.29.08.07h.16.1l-.05.1-.18.12-.1.13v.13h.28l.9-.13h.17v.06l-.39.06-.4.12h-.41l-.07.06v.12l.11.06h.39l.32.07h.31.13l.29-.08h.16l.07.09h.1.13l.07-.06.06-.27.07-.18v.34l.05.09h.07l.61.06.35-.12.17-.23.1-.22v-.16l-.05-.15v-.13l.17-.19v.14l.05.33v.15.09l-.17.3-.27.36v.17h.13l.12.18v.12l.34.56v.15l.18.19.51.45.16.09h.3l.33-.06.19-.19.17-.06v-.05-.23-.07l.21-.24v-.09l-.19-.25h.12l.13.09.08.11v.06l-.09.13-.14.08v.11.56l.07.17.13.16.13.08h.13l.29-.07-.07.07-.3.19h-.18l-.06-.15-.18-.24h-.08-.08l-.07.07-.07.15.06.18.18.2.13.12h.08l.76.26h.05l.16-.14h.09l.14-.05v-.18-.08-.1l.32-.31v.09l-.08.16v.44.16.05.05h.24l.36.07h.12l.2-.2-.08.22-.08.09h-.28-.27l-.1.05.09.12v.21.06h.07.17l-.07.1v.09l.07.18v-.05l.05-.13v-.07h.09.09l.23.14.09.1.15.42.08.17.08.09h.12.05l.07.27v.34.1h-.11-.19-.07v.08.05h.05.13l.1.05.12.11.18.23v.08h-.14l-.13.08v.09.12l.06.08.22.14-.08-.25.06.05.08.15.08.1.13.11v.1l-.18.23v.1l-.14.23v.1.1.1.12.07l.07.07v.07.22.39.07l-.15.17h-.11-.1l-.08.06-.14.31-.05.07-.17.1h-.07l-.19-.09h-.23-.26l.09-.1.07-.21.08-.13.21-.14.07.3.11-.25.14.1h.1.06l.06-.33v-.17l-.07-.19-.2-.25h.09v-.23-.06l.22-.16v-.14-.31h-.13v.21.06l-.25.22-.09.18-.13.12-.23.15-.16.14-.15.23v.08.16h.12.23l-.25.14h-.17-.08v-.08-.16l.18-.33.53-.7v.14l.28-.42v-.15l-.14-.24-.07-.19v-.12-.06l-.19.14h-.11.29-.12l-.23-.21h-.08l-.21.09h-.1l-1.57-.15-.28-.09-.18-.12-.59-.18-.47-.22h-.17l.07.28v.39l.08.52.1.21.37.35.2.37.15.74.25.57.07.36v.21.17-.13-.1h.16l.13.13.33.07-.63.29.1.34.26.1.16.15-.06.36-.07.29-.16-.25-.07-.25v.68l-.06.27.26-.07.14.1.48-.09.09.09h.43l.14.14.24.15h.11.07-.23-.19l-.15-.15h-.12l-.35.11h-.55l-.12-.13h-.06v.12l.06.11v.85l.08.76-.08.29v.22l-.25 1.77v.37.36.27l-.12.26-.07.78v1l-.08.11-.13.31-.11.37.13-.08h.08l-.18.15h-.11l-.06.08-.24.92-.11.21-.09.34.22.4.09.24v.56.21l.12.51.3.33v.26l-.08.28.19.19.1.27.11.44v.21l-.17.63v.51l-.16.4v.09h.07v.07.13h-.07v-.06l-.07.08-.1.31-.1.29v.33l.08.32.49.43.52.63.12.23.11.43v.28l-.1.39.23.7v.54l.64.63.31.37.39.23.17.39.14.07.18.22.07.19-.23-.27v.34l-.07.21v.08l.16-.18.13.08.26.22.18.11.23.08.14.12h.13l-.07-.3v-.42l.21-.09h.13l.29.17h.13l.28-.16h.09l.14.09h.12.66.13l.23.07h-.11-.15l-.18.07h-.86-.3l-.22.09-.16.13v.1l.08.07.08.28.17.16.15.28.08.22.06.06.06.11h-.06l-.11-.05-.14-.17-.16-.07-.17-.17v-.23-.13h-.14l-.16.07v.32.29l.21.45v.44l.54.57.65.14.17.23v.13.18l-.11.2-.19.22v.37l.08.27.49.46.46.6.07.16.21.19.14.31.33.18.27.33.28.14.09.16v.23l.06.17.35.14.11.09v.12l-.06.33.08.36v.16.21.23l.19.09.19.19h.19.52.27l.46.15h.33.24l.45.21.33.21.08.24.21.13.72.23h.54.21l.26.41v.29l.27.08.07-.12h.23l.19.08.3.26.37.21.74.63.35.5.13.41v.17.17l.06.37.14-.07.11.1v.3l.15.48.06.1.28.27.15.52.53.37v.24h-.07-.11l.13.09v.34l.12.16.35.35.29.4v.2.19.2l.54.42.06.25v.36l.08.38.32.13.09.14.06.56v.31l.14.06.17.45.25.19.59.37.33.26.4.11.13.08.14.18.49.47.82.91.37.31.23.44-.1.51-.22.52-.18.2v.06h.21v.13.09l.09.26.15.13h-.16l-.22-.12-.16-.14v-.16-.08l-.17.08-.17.11h-.28l-.59-.12h-.49v.1l.09.16.31.19.33.29.4.27.1.14v.23l.08.16.26.15h.3l.22.1.26.29h.14.22l.19.24.13.19.24.18.39-.19h.36l.15-.16.12-.22v.38.19l.23.33.83.65.31.11.34.14.47.74.12.36v.34l.05.11v.2l-.05.41-.12.68v.27l.1.23.52.41.05.09v.15l.05.07h.12.15l.24.27.37.28.88.55.33.32.3.23.31.34.62.32.17.21.1.26.15.17.21.81.19.27h.19l.23-.09.22-.14.22-.24.32-.19.08-.14.1-.46v-.18l-.21-.28-.38-.16-.08-.34-.15-.15-.08-.18-.19-.23-.21-.18-.09-.16-.55-.42h-.1v.08.11l.06.16-.06.13-.1.1-.1-.08v-.08l-.29-.08-.26-.31-.17-.6v-.2l.12-.29v-.19l-.16-.31-.32-.37-.27-.67v-.26l-.27-.11-.33-.54-.08-.34v-.48l-.17-.34v-.21l-.1-.14v-.25l-.17-.17-.06-.32-.52-.43h-.06v.27l.09.17.18.26h-.07l-.25-.26v-.4l-.29-.31v-.11-.17l-.22-.16-.21-.1-.21-.4-.11-.44-.51-.33-.42-.42-.06-.18v-.23l-.13-.25v-.28l-.17-.21v-.15-.18l-.19-.08h-.18l-.14-.1-.26-.71-.12-.05h-.14v-.07-.08l-.12-.18-.28.05-.09-.25v-.19l-.49-.67-.17-.18-.53-.42-.27-.31-.45-.25-.07-.16-.34-.32-.18-.33-.05-.21v-.68l-.12-.29v-.36l-.13-.49-.2-.31-.08-.19.07-1 .14-.27-.12-.39-.12-.13-.09-.13.44.24.1.08h.21l.13.08.66.45.27.12h.15.18l.06-.17.07-.1.43.18.14.09.16.14v.31l.33.13.57.1.11.05.23.07.09.07v.24l-.07.06h-.08v.08.05.22.37l.12.36.25.35.29.53.15.44.05.35.09.18.11.11.18.38.37.46v.19.1.18l.18.07.18.13.07.38.07.25.27.3.24.18v.07.11l.17.26.19.21.16.23.48.22.44.67.37.36.31.11.15.09.17-.07h.2l.53.13-.11.17-.09.35.06.27.07.24.09.13.1.18.23.22.23.18.77.2v.13.12l.07.24.15.27.17.17h.18.44l.48.44.08.2v1.17l.06.13.16.12.07.13h-.1l-.09-.11-.17.15-.19.26-.16.26.09.75.19.23.11.06h.14l.46.02.18-.06.17-.12.11-.11v.09l-.2.27-.22.09v.08l.08.09.31-.07.12-.08h.13l.08.28.13.1.53.29.21.17.65.25.1.06v.08h-.1-.14-.12l-.12-.1h-.08l.16.26.45.46v.22l.14.2.31.18h.24l.09.06h.16.12.09l.05.16v.15h-.08l-.46-.28h-.08l1.56 1.11.35.33.47.66.38.39.38.61.38.33.49.56.19.12.35.36.33.73v.81l.28.41.17.35.06.13.51.31-.06.26v.32.31l-.15.22-.21.24-.14.2-.13.08.05.08h.16l.22.06.17.2v.08.13l-.27.16h-.38l-.23.15-.06.12.12.16.11.21.08.37.12.23.45.65.41.34.15.28.24.32.78.37.45.15.3.19.53.24.31.19.49.47.27.35.32.38 1 .33.73.29h.36l.76.2h.51.18l.16.09.2.19.37.45.26.09.23.24.55.28.34.28.35.18 1 .32.44.19.5.15.77.47.79.13.8.2.22.08h.33l.56.54.88.23.89.56 1.31.14.87.43.68.17.24-.07h.45l1-.45.71-.21.76-.47.42-.08h.37-.14l-.4-.07v-.07l.21-.17.08-.09h.09l.15.13v.08.1h.09l.23-.14h.08l.07.07-.22.21.05.06h.44l1.08.39-.06-.1-.38-.2h-.13-.13l-.15-.07-.13-.07v-.14h.17l.15.11.16.08.37.14.38.22.42.39.44.32.86.71.33.32.25.18.25.23.64.7.61.63h.07l1 .75.41.26.61.29.53.15h1.25l.29.06.89.38.28.12.39.29.65.12.56.07.95.45.82.23h.06l-.22-.11h-.18l-.06-.05h.21l.41.15.54.12h.36.22l.12-.1.13-.14v-.24h.06l.1.05h.14l.24-.06.26.08v.1.08l.1.14.1.21.19.1v.31l-.12.07h-.22l-.17-.15-.1-.13h-.1l-.19.18v.15l.48.34.63.58.14.17.64.43.22.22.23.4.43.57 1.17.94.3.31.2.25v.11.13l-.31.15-.05.06.17.11.28.14.11.1v.25l-.09.17-.29.38v.25l.12.37.26.4.13.13.72.21.37.44.09.09h.09v-.16l.13-.07.27-.28-.05-.15-.13-.11-.46-.19-.17-.21-.06-.35h.06l.09.1.4.19.71.5.17.25-.07.2v.13l.18.18.23.1.6.15.24.19.51.24.37.29.23.27v.17.36l-.07.17-.21.27.3.31.14.08h.21l.18.06h.19v-.14-.1l-.29-.25-.11-.21h.18l.25.12.28.18.08.19v.35l.19.15.22.24.15.26.06-.07v-.33l.2-.14h.23l.35.08h.38l.3-.08v.18l.15.08.15-.06h.28l.26.11.31.07.08.15v.13l.39.68.31.1.24.12h.11l.06-.11v-.32l.05-.11h.15l.07-.06.07.44.27.63v.37l.13.13h.42l.52-.12.15-.11.06-.14.14-.09h.41.1l.13-.1-.07-.23-.08-.16-.43-.42-.24-.34-.1-.07-.11-.11v-.15-.17l.12-.11.09-.06.39-.06.17-.08.87-.57-.15-.1.13-.17.06-.14.1-.18.27-.12v-.05l.1-.1.15-.09h.45l.37.05.3.15.25.21.18.07.14.14h.09l.11.07.25.2.1.41.08.1.06.11h.07v-.11-.09-.14h.06l.06.06h.21v.07l.07.06h.07l.07-.08.14-.1.1.23.1.16.37.26.22.19h-.17l-.27-.19-.23-.12-.15-.22h-.06l-.09.13-.23.19.06.25-.08.11-.06.06h-.12-.13l.1.37.48.83.56.66.06.06.23.21.28.41.08.21.1.07.18.33h.2l.16.26v.17l-.09.52h.05-.07v.25l.28.42.22.49-.17.24-.48.32.3.28.07.21v.25.32l.07.55.07.12.05.14-.06.3v.27l-.06.18-.14.11-.07.11-.16.1v.1l.26-.08v.11l-.07.16v.16l.16.27.19-.26h.07v.33l.12.06h.11l.09-.11h.11l-.38.75-.19.25-.07.29h-.14l-.13.25-.11.16-.09.2h-.17-.14v.07l.07.21v.09l-.24.21-.07.09v.07h-.14l-.06.06-.07.16-.13.14-.1.06-.08.08-.12.05-.41-.06-.11.12-.17-.05h-.1l-.17.1-.13.16-.06.11v.58l.18.3-.06.34-.49-.17-.38.22-.16.3.32.22.06.16.08.37-.17.2-.76.24-.54.1-.35.2h-.29l-.13.13-.25.14-.3.06-.12.12.06.44.08.42v.58l-.21.37-.23.24-.2.12-.37.47v.15l.2.34.23.09h-.17l-.23-.09-.11.22-.11.38-.17.11-.5.18-.14.24.19.47v.22l-.07.57.16.44v.26.32l-.23.15-.22.11v.11.07l.22.19.35.11.54.52.17.1.22.09.06-.1v-.08l.28-.23.17-.32.11-.08-.06.46.1.05.14-.07.11-.28v-.64l.12-.18v.1.13.43l.18.3v.21l-.22.46-.23.71-.09.16-.15.16-.17.11-.14.11-.33.12h-.05l-.41.25-.34.32-.34.21-.21.35-.79.81-.12.2-.12.8.11.21.22.27.2.34-.1.17v.15l.52.71.14.36v.29l-.11.19h-.14l-.24-.11-.16.15v.15l.09.26.19.17.57.35 1.62.85.26.27.21.31.33.38.33.52.07.29.49 1 .15.2.34.29.35.37.2.45.38.49v.25l.21.54.2.42.31.5.2.65.19.37.21.64.2.4.83 1.33.17.43.06.4v.22l.74.57.21.3.15.6v.32l.2.11.06.15.1.11.38.3.17.42.28.46.18.23.13.37.17.29.47.61.09.34-.17.67h-.14l-.13.1.18.2v.43l.26.22.09.22.3.41.17.32.45.36.47.26.32.46.28.2.19.33.2.22 1.27.67.42.32.52.18.74.57.22.11.76.24.31.2.71.31.38.22.75.22.24.16.22.24.36.3.33.14.23.21.22.11.56.22.22.17.08.14.08.46.07.15.64.46.27.13.28.29.76.53.16.16.14.13v.46.55l.13 1.05.15.52v.3l.1.22v.24 1l-.11.72v.47l.26 1.26v.69l-.1.35-.06.54-.07.26-.1.53-.07.87-.17.71-.13.29-.14.16-.26.05v.24l-.06.2v.28l.18.27.21.11.06.1v.21l-.18.31v.25.2.39l-.09.49-.06.77v.32l.26 1v.19l-.09.3-.2.28-.13.14-.19.58v.19l.14.32-.06.57v.26l-.09.23-.05.43-.22.6v.27l-.2.59v.29.49.21.07l-.25.27-.08.22-.15.62-.08.78-.18.32-.09.41-.18.26-.25.2-.06.17.07.68.31.38.06.23v.52l-.08.71-.12.53-.62.47-.09.75v.33l.12.58v.46l.19.83.12.79v1l.21.46-.09.38v.31l-.32.8-.1.13-.25.19.11.5v.36l.14.23-.07.34-.38.43-.06.18-.16.33-.18.39v.31l-.09.35-.06.5-.29.79-.1.46-.37.38-.16.26-.12.28-.13.15-.14.21.08.45-.22.31-.22.27-.22 1.08-.21.39-.09.27-.13.09-.05.3v.2.47l-.1.3-.12.1h-.24l-.53-.1-.07.18-.07.23.14.36-.14.3v.29l.33.56.12.35v.23l-.14.64v.38l.09.31.59 1.61-.05.53-.37 1-.17.18-.44.29v.33l-.17.49-.1.56-.31 1.1-.15.28.05.39.2.55.05.35.1.2.23.15h.2v.09l-.14.07-.08.15v.13l.25.09.24.07.64-.05.16-.09.37-.56.14-.08h.17l.17.07.31.32.16.06h.14l.26-.12.16-.36h.09l-.09.42-.29.2h-.4l-.2.17-.09.12-.09.17.1.14.1.1h.26l.29-.08.09.63.11.5v.13l-.28-.5-.19-.15-.17.05-.16.11v.12l.16.3.19.28h-.05-.28l-.17.46v.38l.18.28v.24.13h-.28l-.08.24-.06.22-.31.31-.06.37.24.5-.17.64-.36.1v.48l-.06.29.29.19.32.16.4.29.38.11v.45l-.14.4-.78.52-.41.12h-.24l-.1.35-.09.39.5.05.37.3.21.09.08.07v.1h-.1l-.51-.28h-.15l-.26.1-.4.29h-.41l-.12.42.06.22.22.08.15.13v.35l-.09.25v.5.15.25l-.13.34-.12.24-.18.19h-.22v-.11-.1l.28-.35.24-.89v-.3-.3l-.09-.14h-.18l-.15.08-.12.58-.09.3-.28.2-.28.05h-.37l-.05-.08h.08l.64-.23.14-.22-.09-.31.14-.15.09-.17.18-.76.09-.2v-.15l-.22-.12h-.29-.19l-.14.12-.06.11.06.3v.12.1.11l-.14.14-.33.1h-.15l-.22.09h-.39l-.3-.06-.7.15v.37l.18.27.16.18-.34.22-.4.38-.3.18-.14.15-.5.37-.12.28v.2l.17.25.32.23h.15l.07-.08v-.13l-.14-.32h-.19-.08v-.08l.15-.11h.32l.44-.14.3-.26h.08l-.16.33.05.2.06.13.45.17.27.19.42.06h.07v-.06l-.05-.09v-.11l.07-.09.32.07.24.28.14.26-.13.31.11.29-.13.08-.43.34-.19.3.37.3.19.08h.12l.13.06v.11l-.21.15h-.19l-.18-.19-.15-.07h-.15l-.13.15-.15.25.1.16h.09l.33.07.12.09v.18l.07.16.28.07h.33l.33-.08.22-.18.16-.38.07-.22h.07l.19.66v.18l.05.15.09.08.16.26.25.11v.09l-.24.16-.75-.45h-.91l-.35-.09h-.42v.48.33l.17.26.06.3.31.08.16-.11.23-.08.38.14-.11.09h-.17-.11l-.12.07-.26.23-.09.58v.76l.05.9v.15.08l.11.11.19.11.08-.29v-.25l.06-.21.16-.18v-.23l.07-.26h.22v.07h-.11l-.07.1v.2.25l-.06.19-.08.16v.21l.24.18.22.1.13.25-.12.05-.15-.1-.34-.11-.29.07-.14.08-.07.35v.18l.35.38.23.12.14-.06.12.2-.14.08-.72-.14-.24.27-.45.39.27.22.21.25h.11l.16.1.63.22.19.12-.54-.07v.38l.08.08.15.24.28.33.2-.13.32-.74.16-.15h.06l-.09.24.19.17v.07h-.1l-.19.14-.19.42v.31h-.09l-.67-.37v-.07l-.08-.05-.33-.67-.08-.21-.45-.32-.19-.07-.18.15-.12.18.17.2.12.25-.08.13-.35.05h-.6l.09.32.17.29.39.55.29.07.23.14.19.06h.21l.19.1h.28.21l.42.21.1.2-.08.88-.32-.12-.3.31.12.1.4.22.18-.08.08.1h.11.14l.23.19.16.32.15.25.31.09.45-.25.6-.4.75-.19v-.19l-.15-.13h-.13l-.19-.19-.66-.24h-.11l-.08-.05.06-.07.1-.05.84.41.51.41.12.17v.18l-.07.14-.23.17v.18.1l.21.41v.26.08l-.08.16-.15.12h-.1l-.09-.09v-.08l.25-.23v-.17-.17l-.14-.14-.1-.17v-.18l-.09-.08h-.14-.11l-.23.27-.44.25-.29.09h-.15l-.3-.06h-.18l-.26-.23h-.09v.18.2l-.11.05-.19.05-.48-.23h-.21l-.14-.11h-.16-.08l.07.16.07.1.14.35.06.2h.13l.13.09.09.34-.09.2.05.19.23.15.47-.08.29.07.47-.28.32.09.15-.19v-.16h.13l.11.15-.16.2-.22.33-.25.15-.69.25.32.21.11.19.28.28.5.06.15-.08.08-.08v-.4l.2-.35.3-.21.08-.22v-.2l.15-.13h.15l.32.09.07.14.09.07.28-.27.21-.06.95.05.34.07.35.14-.09.12-.09.06-.47.06-.42-.11h-.32l-.78.51h-.4v-.13l-.1-.08h-.12l-.24.18-.13.16-.05.2v.65l-.19.18-.13.2.13.15.62.41.41.12v-.27l.09-.26.08-.11.42-.38.34-.22.53-.19 1.18-.74.37.14.17.11v.13.1l-.25.36-.26.23-.78.39-.12.79-.23.12v-.09l.08-.11.09-.19-.05-.35-.21-.17-.32.05h-.48-.13l-.24.3v.21l.05.17.47.5.17.11.52.18.41.25.58.12.34.14.49-.19.2-.14.11-.66-.08-.38v-.24l.07-.46.31-.82-.05-.23.11-.38.26-.17.27-.12h.4l1.11-.46h.33l.33-.12.14-.14.26-.47.48-.19h.25l.29.16 1.3.29.11-.15-.23-.34-.45-.57-.52-.92-.12-.11-.15-.13-.34.08-.31-.18h-.22l-.13-.07.24-.08h.37.37v-.18-.13l-.09-.43-.18-.63-.13-.32h-.15l-.2.12v-.05l.28-.24.19-.26v-.34l.12-.52.1-.25.24-.35.44-.31.37-.17.29-.09.1-.11-.12-.2-.14-.17-.15-.08-.36-.06h-.52l.16-.1.57-.1.06-.22-.08-.21v-.12l.23.35.19.33.19.19.34.19h.25l.54-.32.2-.2.1-.18.28-1.54-.07-.12v-.17l.5-.88.47-.41.3-.37.23-.18.58-.31.43-.3.46-.23.87-.76.17-.19.07-.13.24-.1-.12-.26-.17-.08-.37.08h-.08l-.12-.09.43-.12.35-.24.17-.19.09-.2.09-.66-.08-.25-.19-.29-.33-.19-1.51-.14-.29-.11-1.41-1.31-.27-.32-.13-.28-.06-.22-.05-.3v-.33l.1-.24.38-.55.31-.57.73-.92.14-.08.68-.13.12-.07.09-.11.34-.24.36-.2 1 .12h.27l.08-.18v-.19l-.23-.23.11-.38.66-.52.17-.35.06-.23-.1-.34.16-.31-.15-.74v-.44l.08-.16.14-.14.47-.64.34-.29.28-.15.66-.22.13-.09.13-.16-.14-.05h-.06l-.44-.11-.91-.42.12-.26.37-.09.37-.28h.38l.38.16.17.2.07.31.2.29.22.06.79-.21.11-.17.07-.14.05-.39v-.41l-.07-.34-.13-.26-.1-.1-.16-.11h-.22l-.44.16-.33.1-.06.09h.44v.24l-.09.12-.38.07h-.36l-.34-.05v-.17l.11-.16v-.08h-.06-.19l-.18-.11-.46-.17-.2-.16-.17-.37.12-.62v-.49l-.26-.9-.06-.36v-.44-.18l.15-.21.35-.2h.11l.15.05v.1l-.07.06.53.11.55.18.6.24.81.39h.35.94l.58-.11.37-.17.93-.43.22-.21.13-.38-.34-.59-.08-.28.06-.43.18-.67.08-.15h.08l.28-.15.11-.69v-.29l-.13-.08-.11-.14h.29l-.17-.17-.19-.13h-.2l-.1-.25.08-.44-.16-.36.09-.14h.34l.28.29.51.11.56.1.51-.05h.62l.48-.06 2.48-.36.35-.11 1.54-.33 1.91-.64 1.23-.71.23-.22.09-.47.26-.44.71-.79.83-1.3.13-.28v-.3l-.07-.82-.05-.1-.07-.11h-.43l-.27-.16-.44-.4-.16-.31-.09-.33v-.47l.45-.56v-.38l-.31-.45-.56-.44-.5-.32-1.2-.55-.31-.4-.11-.19-.13-.42.11-.08h.09l.1-.15v-.34-.19l-.07-.23-.17-.38v-.23l.21-1 .07-.45.11-.1h.15.14l.11-.17.07-.14-.11-1v-.24l.09.25.08.48.11.35v.19l-.14.25-.15.17h-.17l-.16.11v.2l-.13.64-.06.54.08.5.45.51.57.51.13.22.07.15.1.07.66-.07h.86l.73.58.9.26.17.22.32.1h.13.18l.58-.25.44-.09.7.08.31.23h.32l.45.1 1.24-.52.21-.18h.24l.37-.39.51-.36.1-.34.48-.6.15-.43.12-.18.11-.1h-.06l-.15-.07-.13-.08v-.06-.28-.06-.09-.12-.17-.18-.14-.13-.15l.05-.14.13-.14.17-.17h.15l.12-.07.07-.12v-.12-.1-.09l.08-.07.12-.06.09-.08.07-.05.1-.08.15-.05.09-.17.07-.17.19-.09.15-.1v-.11-.1-.12l.08-.12h.06v.09.28l.08.11.07.16.07.11v.11.11.14l-.1.15-.08.15-.24.16-.1.17-.08.08h-.09-.11l-.1-.12-.09-.1-.09-.06h-.12l-.15.1-.09.28-.13.26-.15.06h-.08-.06l-.05.06-.08.1-.06.2v.29.32.15h-.09v.26.06l.13.08.15.07h.06l1-.87.36-.35.26-.33.33-.67.38-1.12.16-.29.19-.27.15-.13-.09-.2-.06-.31v-.21l.17-.49.22-.24.07-.28.05-.27.11-.11.48-.24.49-.35.1-.13v-.19l.06-.17.19-.16v-.44l.1.07.07.12v-.4l.1-.31.13-.14.07-.12-.28-.3v-.26-.27l.11.06v.16l.12.22.32.13v.27h.21l.66-.34h.19v.16l-.08.31h-.08l-.16-.11h-.07l.06.71-.18.27-.4.23-.05.26v.11l-.06.11h-.29l-.13.09v.53.18l-.22.35-.4.2-.54.56-.29.05-.08.09-.12.09-.24-.13h-.15v.21.16l-.06.22.07.13.28-.32.28-.22.78-.51.71-.56.53-.56.4-.49.29-.43.74-1.19.62-1.57.66-1.1.57-.72.52-.5.57-.44.52-.3v-.2l.24-.33.1-.26.06-.33v-.62l-.09-.66.17-.46-.06-.27.1-.16v-.18l-.05-.16-.06-.45-.14-.43v-.22l.05-.23v-.28l-.11-.14-.11-.2.08-.1h.08l.14-.12.1-.6-.09-.15h-.15v-.07l.28-.07.33-.54-.07-.11-.18-.07-.42-.08-.09-.3.2.17h.18.21l.11-.1-.07-.23.13-.09.29.08h.21l-.14.23h.1l.41-.44.22-.17.05-.24h-.05l-.07-.07.17-.09h.09l.1-.11.55-.42 1.05-.7.63-.63.54-.3 1.52-.77.3-.08h.41l.32.09h.14l.07-.11v-.18l.23-.2.25-.06.61-.47.66-.11.11-.05.11-.1-.12-.11-.12-.05v-.25l.1-.12.62-.12h.51l.23-.16.42-.08.37.13.06.11-.26.09h-.25l-.17.05.17.11.37-.08h.47l.38-.12h.34l.07-.12v-.15l-.06-.12v-.08-.11l.18-.06h.15l.05.11-.08.19.05.13.14.1.14.06h.3l.57-.08h1.06.18l.13-.25.1-.14-.1-.12v-.22-.16l.64-.65.28-.16 1.06-.38.28-.21v-.19l-.08-.74-.06-.22.22-.65.29-.49.09-.3.14-.14.3-.15.47-.52.17-.34.05-.32.22-.2.14-.57.33-.54.36-.22.14-.19.12-.28.07-.42-.1-1v-.49l.2-.92.38-.62.17-.17.31-.16.29-.35v-.14l-.1-.77v-.33l.09-.32.09-.66.14-.61.24-.75.18-.75v-.06l-.13-.65-.13-.73v-.74l-.1-.66.27-1.46-.06-.06-.09.23-.1-.14v-.12-.54l.09-.22v-.12l-.05-.08h-.06l-.12.07.05-.25.08-.27.17-.22.28-.29v-.41l.16-.29-.05-.14-.15-.13h.14l.11-.08.12-.29h.08l.3.27.06.46h.12.1l.38-.29.51-.58.14-.27.62-.88.5-1 .14-.37-.06-.24.18-.32.08-.09v.12.1l-.05.09v.13l.09-.07.31-.44v-.27h.14l.07-.07.36-.55.39-.34.31-.19.51-.23.41-.59.39-.35.39-.53.08-.17-.1-.2.14.07h.16l.38-.38.59-.71.42-.7.44-1.2.18-.73.13-.28v-.27l-.09-.29v-.12-.14-.23l.09-.32v-.24l-.07-.61h-.1v-.22l-.11-.28-.14-.9-.24-.48-.11-.62-.22-.8-.24-.75-.2-.19-.16-.09-1-.17-.42.09h-.52-.47l-.36-.11-.26-.19-.22-.07-.51-.06-.29-.45-.75-.28-.39-.43-.58-.43-.52-.62-.2-.16-.27-.37-.48-.14-.49-.35-.27-.26-.78-.44-.36-.16-.23-.16-.37-.16-.45-.29-.62-.11h-.55l-.93.17h-.73l-.29.11h-.37l-.37-.09-.19-.16-.36-.14-.28.13h-.58l-.79-.3-.19-.16-.36-.14-.24-.15-.68-.18h-.34l-.13.08-.05.21h-.63l-.31.18h-.16l-.18.14-.42.38-.07-.12.07-.13.19-.23v-.09-.15l-.17-.05h-.11l-.18.14-.17.47-.13.47-.43.44-.23.16v-.15l.19-.87.07-.19.05-.24.06-.11.1-.1v-.17l.32-.1v-.22l-.1-.23-.19.05-.14.09-.19.33-.09-.12-.13-.13.12-.05h.11l.09-.18.09-.08.1-.14v-.25l-.11-.24-.14-.22-.16.11h-.13l.13-.15h-.15l-.09-.13-.21-.19-.25-.17-.12-.11-.24.1-.13.28-.1.15-.11.05-.05-.35-.25-.48-.22-.06h-.21l-.3-.22-.45-.15-.17-.19h-.22l-.17-.05v-.15h-.23-.24l-.22-.07-.23-.06-.06-.13-.29-.18-.1-.13h-.19l-.11-.08h-.42l-.17-.15-.16-.08h-.3-.09l-.05.07.06.1v.1h-.12l-.2-.18-.21.11h-.08-.11l-.09-.08h-.08l-.18.07-.18.18-.16-.15h-.08l-.11.05v.14l-.17.07-.15.16-.12.14v.19l-.33.24.09.19-.16.22v.16.09l.24.11-.22.09v.21l-.16-.1-.16-.19h-.25l-.65.79-.38.11-.13.08-.45 1-.12.36-.15.21-.12.08-.14.06.09-.17.1-.14.11-.55.11-.21.14-.5.19-.55-.62.31-.31.14-.42-.13-.23-.09-.27.06-.13.09-.2.06-.33.21-.42-.38-.12-.07-.12-.13v-.15-.12l-.25-.35-.08-.26v-.23-.2l-.13-.14v-.11l.18-.18v-.09l-.12-.14-.22.11-.09.11-.4.24-.22.2-.54.3-.26.09-.7.44-.57.12-.26-.18h-.82l.26-.09.74-.34.48.08.1-.07.1-.11v-.32l.24-.14.23-.23v-.38l.05-.21.34-.49.13-.09.21-.27.25-.49v-.21l.42-.12.31-.37.13-.07h.22l.14-.11.4-.46.28-.49.27-.27.11-.19.52-.41.05-.08.26-.16.09-.1v-.24l.06-.35-.18-.55-.22-.16-.31-.13h-.27l-.36-.08-.17-.22-.1-.16-.07-.24-.12-.07h-.12l.08-.11v-.07l-.14-.38-.12-.23-.06-.22v-.18l-.39-1-.13-.46-.06-.9-.33-1-.25-.3-.31-.2h-.19v.17l-.22.4v-.18-.21l-.07-.13-.2-.65-.1-.15h-.12l-.09.26v.2l-.06.08-.12.11v-.08-.1-.19l-.12-.3-.1-.17-.38-.33-.24.21.09-.24v-.15l-.38-.18-.71-.58-.31-.35-.86-.27-.42-.05-.91-.5h-.17l-.16.21-.22.61-.16.12.17-.33.08-.24v-.26-.2l-.2-.11-.49-.13-1.1-.18h-.73l-.53.1-.62-.08-.42.06-.18.15v.23.22l-.09-.22-.68-.21-.54-.12-1.16-.13-.2.13m-8.55-98.87h.21l.67-.18.41-.25.21-.22.23-.18.4-.17v-.07l-.24-.16.12-.12.07-.15v-.08l-.23-.09h-.3-.31v-.22l-.12-.12-.18.08-.13.08-.17.15-.18.25v.16l-.36.3.06.07.56-.1v.06l-.53.5-.09.06h-.15-.17-.12l-.3.13-.07-.13.09-.13.19-.13v-.05l-.16-.07.13-.08.26-.11v-.1h-.16l-.31.14h-.08l.44-.29.19-.08.2-.06.39-.23.09-.12.1-.16v-.09-.32l.23-.58.12-.36v-.09l-.22-.45v-.11l.05-.12h-.18-.19l-.11.07-.33.33-.25.19-.14.19-.12.23-.59 1-.15.17-.24.21-.17.32v.34l.1.64.1.14.19.2.1.07h.11.11.24l.24-.07h.25zm-242.33-68.03-.48.19-.26.16v.06h.09l.44-.26z"></path><title>Americas</title><title>Americas</title><title>Americas</title></svg>