<svg version="1.0" xmlns="http://www.w3.org/2000/svg" xmlns:xlink="http://www.w3.org/1999/xlink" x="0px" y="0px" viewBox="0 0 72 55.8" style="height:40px; width:40px; fill: #024F87; enable-background:new 0 0 72 55.8;" xml:space="preserve" role="img">
	<path d="M67.4,0H4.6C2.1,0,0,2.1,0,4.6v46.6c0,2.5,2.1,4.6,4.6,4.6h62.8c2.5,0,4.6-2.1,4.6-4.6V4.6C72,2.1,69.9,0,67.4,0z M70,51.2
		c0,1.5-1.2,2.7-2.7,2.7H4.6c-1.5,0-2.7-1.2-2.7-2.7V4.6C2,3.1,3.1,2,4.6,2h62.8C68.9,2,70,3.1,70,4.6V51.2z"></path>
	<path d="M30.7,40.5c0.1,0.1,0.3,0.1,0.4,0.1c0.3,0,0.5-0.1,0.7-0.3l12-11.7c0.2-0.2,0.3-0.4,0.3-0.7c0-0.3-0.1-0.5-0.3-0.7
		l-12-11.8c-0.3-0.3-0.7-0.4-1.1-0.2c-0.4,0.2-0.6,0.5-0.6,0.9v23.6C30.1,40,30.3,40.4,30.7,40.5z M32,18.4l9.6,9.5L32,37.3V18.4z"></path>
	<path d="M62.8,45.2H21.5c0.1,0.4,0.2,0.7,0.2,1.2c0,0.4-0.1,0.8-0.2,1.1h41.3c0.6,0,1.1-0.5,1.1-1.1C64,45.8,63.5,45.2,62.8,45.2z"></path>
	<path d="M8.8,45.2c-0.6,0-1.2,0.5-1.2,1.1c0,0.6,0.5,1.1,1.2,1.1h4.8c-0.1-0.4-0.2-0.7-0.2-1.1c0-0.4,0.1-0.8,0.2-1.2H8.8z"></path>
	<path d="M17.6,43.7c-1.1,0-2,0.7-2.5,1.6c-0.2,0.4-0.3,0.7-0.3,1.2c0,0.4,0.1,0.8,0.3,1.1c0.4,0.9,1.4,1.6,2.5,1.6
		c1.1,0,2-0.7,2.5-1.6c0.2-0.4,0.3-0.7,0.3-1.1c0-0.4-0.1-0.8-0.3-1.2C19.6,44.3,18.7,43.7,17.6,43.7z"></path>
</svg>