<svg viewBox="0 0 400 135.97" xmlns="http://www.w3.org/2000/svg" style="fill: #9A9393; height:50px; width:150px; " role="img"><path d="m79.36 47.23-.13-.15v-.08h.27v-.13l.07-.09h.08l.07-.18h.1.2l.14-.12h.07l.09.11v-.15-.13-.09l.25-.23.11-.16.16-.11h.16v-.16-.16-.2l.14-.26h.15l.07.23v.38l.16.18h.15v-.07h.1l.2.1v.16l-.28.21-.2.29-.25.07h-.13l-.23.17-.18.18-.19.22v.11.09l-.7.09h-.25zm-.2.69.1-.15v-.21l-.09-.15h-.17l-.12-.12-.15-.07h-.19-.1l-.23-.19v.06l-.06.13h-.18l-.2.08v.09l.27.12v.08l-.06.11-.52-.05-.15.12v.23.15.31.17l-.31.07v.08h.28l.22.07v.15h.14l.31-.34.3-.22.15.12h.39l.33-.08-.12-.31v-.17zm-13.54-38.44.11.21-.14.25v.11.15l.18.24.1.2.07.27.09.19.25.3.19.43.24.09.34-.18.18-.22-.07-.33h.18.56l.2.11-.13.22-.23.26v.16.15l.11.21.12.18h.07.31.23v.05l-.15.16h-.09l-1.35-.32h-.17l-.17.09.46.28.46.21-.19.09v.19.2l.17.17.18.14.33.15h.22l.33.46.43.4.29.14.09.08.08.12.44.26h.94l.48-.09h.37l.24-.15.23-.21.26-.13.26-.09-.18-.2-.21-.12.07-.2.09-.16v-.21l-.07-.18.2-.12.21-.07h.1l.09.07.09.16.1.11h.23l.23-.14.16-.28.18-.21.12.05v.2l-.08.24-.05.38v.07.15l.15.27.11.06h.49l.49-.09.4-.19.53-.41.16-.07h.47l-.16.21-.46.44.16.23.36.17h.15.34l.34-.07-.32.19-.42.08h-1.12l-.51.06-.17.05-.24.11v.14l.07.15h-.33l-.33.05-.65.28-1.39.32.11.27-.48-.25-.21-.07h-.21-.1l-.1.07-.07.12.06.44.07.14.08.12.32.23.23.1h1 .45l.47-.12.46-.19.45-.05.45.09h.43l.9-.14.58-.12.12.05.1.23.12.18h-.77l-.77.07-2.4.37-.42.66-.18-.06-.2-.13h-.21l-.57.06-.08.08-.06.14v.25l.09.17.18.27.19.21.22.19.22.14.47.15.72.3.79.78.85.49.22.09.22.14.2.22.21.14.45.12.43-.1.24-.21-.05-.24-.1-.23v-.13l.31-.32.2-.29-.11-.17-.07-.15.36-.42.18-.27.34-.69.41-.39h.54l.17-.06.13-.23.12-.41.08-.45.06-.59v-.2-.14l.25-.09h.25.21l.32-.16v-.2l-.1-.21v-.21l.13-.34.18-.25.43-.41.44-.34.13-.25.17-.05 1.15-.09.63-.12h.7l.27-.1.27-.17-.07-.13-.07-.1-.38-.24-.69-.22-.4-.31.49-.33-.27-.21-.28-.1-.55-.07-.09.09v.2l-.42.09-.26-.38-.49-.12-.74.08-.21-.1-.18-.23-.2-.1h-.18l.08-.08.16-.09v-.14-.21-.17l-.06-.14-.07-.12-.31-.34-.34-.14h-.12-.12l-.76.68-.36.22.09-.19v-.21l-.08-.22.08-.15.24-.28.17-.29-.19-.42-.28-.24-.2-.12-.67-.24-.47-.07-.07.06-.07.12-.1.05h-.09l-.49-.49-.26-.13h-.26l-.28.18-.07.23.08.29-.27.21-.21.43v.11.11.4l.06.29.28.74.42 1 .17.57h-.09l-.81-.75-.13-.11-.19-.25-.4-.72-.41-.58-.37-.55-.41-.38-.45-.16-.4.31-.37.47-.26.14v.2.24.22.19.16h-.13l-.23-.15-.22-.22-.22-.12-.31-.06h-.09l-.11-.38-.22-.06-1.21.06.9-.49 1.37-.13.24-.15v-.05-.18-.1l-.41-.19-1.1.17-.65.24h-.29l-.6-.19-.11.07.05.2.08.16h-.16l-.19-.08-.74-.35-.67.07-.17.06-.13.27h-.06l-.19-.18-.34-.15h-.12-.1l-.12.13v.1zm6.53 42.21h.17l.52-.06.55-.35.21.08h.11l.17-.07.17-.21h.11v.17h.17l.46-.14.21-.11h.14.07.07.12l.13-.2.27-.24.27-.1.34-.21v-.27l-.12-.28-.11-.13-.18-.1h-.1-.09-.15v.14.17l-.11.11v.11l-.28.1-.25.31v-.19l.26-.37v-.28-.29l-.14-.18v-.2l.34-.29.23-.34v-.19l-.15-.09h-.15l-.14.07-.28.36-.17.12-.31.29-.08.22v.19h.16l.06.13-.14.22-.14.62-.59.56-.95.14-.28.19-.33.27zm68.58-43.24.66.05v-.05h-.05l-.16-.12-.18-.13v-.08-.17l-.59-.19-.41.24h-.4l-.71.23.68.24zm-3.73-2.51h-.86l-.3-.22h-.11-.18l-.18.07-.59.07-.44.12-.47.24-1.42.62.18.19.2.09.27.23h.48.17l.19-.17.37-.07h.47l.16.11-.48.26-.17.17.2.13h.38.16l.13-.1h.13l.41.16.15-.06.12-.21v-.1h.05l.4.14h.18.16l.06-.2v-.15l-.06-.1h-.07l-.43-.06.25-.24.16-.06h1.28l.39-.22-.08-.2.18-.11.8-.13h1.27l.35-.28 1-.36-.17-.5h-.26l-1-.64-.21-.1h-.69l-.29-.07h-.24l-1.14.26-.49.19-.19.48.09.24v.43zm-6.89-.19.47.1.61-.14.11.12.06.25.16.16h.44l.25-.08.2-.28.1-.09h.63l.24-.2h.1.2l.21-.3h.18l.16-.24.2-.1h.13l.5.38 1.08.17h.11v-.43l-.25-.27-.19-.12-.19-.06h-.19l-.64.05-.79-.2h-.17l-.62.16-.41.26-.88.09-2.24.36-.41.18h.46zm-38.11 11.69-.61-.31-.62-.26-.66.14-.4-.01-.66-.33-.4-.13.06-.39.4-.14.16-.11-.18-.15-.44-.22-.24-.05-.47.05-.53.1-.28-.05-.13-.77-.3-.7h-.56l-.3-.11h-.29l-.76.17-1.27.17-.25.15.27.27h.35l-.06.38.48.3.11.35.35.43.33.22.82.33h-.08l-.33.42-.18.16-.16.24-.09.37-.61.22.1.42.23.07 1.5-.21h.37l.37-.11.27-.16h.09l.32.09h.13l.08.06-.1.16-.44.28.08.27v.12l-.08.06.24.19h.46l.18-.14.18-.2.2-.1h.52l.23-.08.43-.24.2-.14.21-.24.2-.29.13-.12zm-12.24-9.53.95.1-.24.17-.24.12-.64.16.06.18.07.12.2.15.55.27.4.1h.86.44l.48-.07.42-.15h.63l.6.11-.18.18-.22.07-.14.24h-.57-.32-.36l-.14.06-.13.12.42.24.42.18.51.11.67.1.08.13.11.05 2 .07 1.78-.13-.32.35.18.27.21.14 1.59.1.36.05.34-.09.23-.2.24-.16.68-.26h.17l.57.12h.17l.75-.24.16-.16.33-.51.11-.21.4-.26 1.6-.8.22-.17-.09-.65-.25-.29-.29-.14-.79-.07h-1.09-.15l-.16-.1-.4-.15-1-.16-.22-.11h-.09l-.23.07h-.13l-.33-.32h-.19v.13l-.09.11h-.17-.35l-.34.25-.16.17-.62.12h-.45l.21-.56.05-.27.11-.25-.12-.1-.45-.12h-.21l-.22.18-.22.09h-.23l-.18.06-.06.16.05.25v.51l-.12.43-.13.2h-.19l-.54-.31h-.22l-.16-.21-.07-.25-.2-.11h-1-.18l-.39-.21-.4-.31-.22-.13-.54-.16-.47-.17h-.22l-.23.06.15.26.16.22.06.11v.14l-.09.29-.36-.13-.45-.31-.12-.06h-.16v.13l.07.16.3.34.34.09-.36.2-.37-.09-.34-.16-.34-.08-1.29.1-.28.14.4.21zm-45.91 80.09h.09l.31-.13.06-.1v-.07l-.07-.21-.07-.33-.16.07-.18.12h-.06-.05l-.08.05-.06.06v.06.1l-.06.15h.07l.22-.18h.06v.12l.06.15-.07.13zm3.55 3.12-.16.08-.2.28-.15.11-.09.27-.07.12h.13l.14.02.37-.32v-.1l.1-.11-.07-.32zm-1.64-2.72h.09.23v-.12-.21l-.1-.24v-.06l-.12-.07h-.13v.06.12l.11.36zm-1.9-2.32v.07h.26l.74-.15v-.39l-.14-.08h-.21l-.15-.2-.14-.1h-.06-.09l-.19.08v.07l.32.16-.09.36zm-1.86-3.16h.26l.17-.25-.21-.16-.12.07h-.1l-.13.05h-.09-.05-.06zm-.17.91.06.16.06.05h.05.08v-.66h-.21v.23.18zm.63-2.38h.07v.05h.06l-.13.09.11.08.25.11-.16.08v.07l-.23.14.13.14h.05l.09-.06.1-.14h.11l.21-.23.2-.08.28-.22v-.1h-.06-.22l.25-.13.08-.12h.1l.23-.47v-.2-.15h-.11l-.46.28-.37.17h-.06l.11.24h-.16-.14l-.11-.1h-.12l-.08.06v.12.11zm2 6 .32-.5.14-.3h-.07-.07l-.26.17-.07.1h.11l-.24.13-.06.09v.12.06zm-.59-5h-.09v.17l-.44.11.06.09h-.07-.12l-.09.1v.08l.13.13.43.1.15.24.07.09h.11.19.24v.39h.07.06l.22-.23.19-.14.05-.07v-.07h-.06-.32-.35-.08v-.1-.15-.14-.05-.21l-.22-.19zm102.9-35.06h-.2l-.4.19-.4.3-.18.25v.28.29.18.19.13l.23.45.42.24h.45l.51-.11.83-.27.39-.37.16-.26.32-.23.09.08v.2h.1l.12-.13v-.32l-.19-.24-.31-.17-1.44-.66zm-101.72 36.06.05.11.13.16v.35l-.27.38-.22.11.25.13-.28.2h-.29l-.18.12h.15.16l.06.22.14.11.17.06h.22l.17-.09.64-.49h.06l-.11.18-.13.18v.17l-.11.11-.08.24-.1.19-.09.27v.3l-.1.21v.64h.06.12l-.19.22-.09.12-.19.35-.13.47v.13.08l.07.08h.2.06l.06-.1.32-1v-.15l-.08-.33v-.18l.05-.06.19-.19.37-.28.16-.1-.33.31-.09.13v.17.19.11-.11h.15v-.11h.23l.08-.06.13-.23.07-.09-.08.2v.08l.32.22.16.08h-.41l-.08.15v.24.21l.31.27.07.11v.14l-.08.21-.12.16-.34.55-.17.41-.11-.06-.11.07v.18l.13.1.2.25.22.18v-.21l.07-.14.07-.05.31.15.25.08.2-.08.19-.12h.1.08l.07.1h.07.11.22l.11-.06.1-.1.11-.07h.12.12l.2-.14h.21.66.08l-.43.12-.36.35-.24.54v.25l.3.41.16.2.29.26h.11l.1-.07h.11.24v.11.23l-.07.21h-.08v.16.18l.09.07h.11l-.2.19-.12.2v.18l.18.32.1.1h.13.1.08-.22-.1l-.27-.31-.19.08.13.34-.43-.22h-.18l-.19.08h-.22-.22-.09l-.56.21-.29.19-.11.1-.07.12-.08.11-.22.14-.16.36-.08.11v.1h.18l.21-.12.22-.09h.23.24v.13.11l.09.15.06.15-.06.11v.13l.06.12h.13l-.13.17-.1.21-.09.16-.13.13-.3.2-.34.11-.59.27-.39.12-.17.11-.15.17h.11l.07.13v.17l.08.09.42.19.23-.13.22-.13h.13.27l.11.1h.09.35l-.15.08-.12.15h.22.22.1.1l.24.13.37.31.51.06h.06l.33-.24.19-.11.44-.1.14-.11.24-.18.2-.11-.29.33-.19.18-.19.15-.17.17-.3.39-.17.11h-.22-.23l-.43-.08h-.44l-.59.07h-.05l-.2.39-.43.13v.18.2l-.05.11-.52.48-.06.11h-.11l-.09.07-.07.1-.19.19-.37.32-.43.12-.16.15v.14l.06.06.13-.08h.22.21l.18.15h.2l.13-.23.07-.07.36-.23.16-.08.42-.13h.23.16.14.05l.13.11.38.15.19.14h.22l.17-.2.11-.26.08-.29.15-.21.75-.2h.19.23l.22.09.2.13h.22l.07-.07h.08l.59.08h.07.07l-.09-.11v-.13h.3.34.16.15l.34-.18-.15-.37.25.1h.28l.25.07.24.11h.16l.62-.11h.46l.76.12h.18l.21-.11.22-.08.28-.08.17-.12h.35v-.11l.13-.19.59-.26.06-.07v-.32-.12h-.08-.22-.45-.23l-.38-.06h-.08l-.08-.15h-.14-.19l.15-.09h.17.19.19l.17-.08.07-.19-.06-.1-.27-.1.38-.2.27.06h.16l.16-.11v-.14l-.08-.12h.14.07l.18-.09.27-.23.06-.08.05-.11.06-.29.1-.22.08-.25v-.28l-.05-.25-.11-.19-.55-.49-.2-.08-.4-.08h-.2-.23-.23-.27l-.08.07-.16.2-.09.08h-.1-.09l-.43-.24.14-.17.16-.14.17-.13.1-.2-.16-.45-.26-.33-.83-.53h-.35l-.33-.07h.17.2.36l.18.13.18.1h.1.11.07.07l-.19-.34-.22-.31-.11-.2-.07-.2.13-.11.13-.1-.27-.18-.26-.23-.28-.3-.28-.28-.16-.09-.74-.29-.15-.13-.11-.18-.24-.66-.19-.6-.16-.62-.08-.19-.14-.15-.19-.13-.35-.36-.24-.25-.84-.33h-.44l-.34.17h-.06l-1-.17-.18-.07-.16-.13.18.08.4.08h.22.17l.17-.09.37-.3h.39l.18-.13v-.17l-.43-.21h-.38l-.21.06h-.21.18l.17-.11.14-.07.51-.09.18-.08.16-.12.17-.2.14-.25.31-.35.32-.64v-.14-.14-.14l.3-.32.18-.18.1-.14v-.08l-.17-.32-.17-.17-.21-.07-.32.06h-1.14-.17-.17-.08l-.4-.1h-.2l-.42.12-.45.17-.22.05h-.27l.1-.27.36-.3.06-.08-.1-.06h-.24v-.17l.06-.12.4-.25.68-.51.37-.22.14-.16v-.08-.07-.22l.1-.2v-.07h-.38l-.36.1h-.39l-.37.08-.61.06-.46.12-.11-.15h-.08l-.26.13h-.07l-.1-.12h-.08-.21-.1-.07l-.1.13v.08.19.1.1l.09.13v.1h-.1-.39-.12v.08.09.09l-.11.2v.07l.41.37.15.09-.24-.06h-.06v.07h-.49l-.1.16-.06.12-.09.29v.07.11l.07.08.18.07-.2.06-.12.07-.09.08v.09.15zm181.23-76.45.47.08.38.12.2.18 1.49.33 1.22.4h.4l.85-.28.44-.22h.18l.56-.12 1.67-.12 2.45-.27.23-.14.22-.21-.24-.09-.07-.09-.25-.57-.08-.1-.08-.07.16-.34.2-.17.83-.11.15-.09h.2v-.28l-.07-.16-.24-.12-.55-.04-1.19-.52-.11-.16-.25-.16-.06-.2-.11-.11-.53-.37h-.2l-.17-.08-.16-.22-.22-.11h-1.19l-.18.37-.42.22-.42.11h-.44l-.44.08-.47.13-.47.09h-.26-.25l-.55.19-.24.28-.32.14-.1.09-.19.27v.13h.33l.92-.09-.53.38-.29.37-.46.37-.62.15-.65.09-.39.25-.3.26zm11.08.43-.87.07-1.31.21h-.26l-.21.06-.57-.06h-.67l-.2.14-.1.13h-.1l-.55-.28h-.08l-.24.3-.18.1-.69.3-.17.48-.41.31-.35.23-.83.3-.62.57.37.16h.39.52l.86.21.17.4.32.37.25.11v.21.06l.25.17.43.14h.21l.57-.2h.17l.32.36h.18l1-.06.16.06.7.07.12.09.11.12.59.28.57.17h.25l.4.07h.28l.43.11h.24l.76-.13 1.15-.06h.28l.72-.45-.05-.19-.16-.37-.12-.05-.43-.09-.38-.41-.51-.27.12-.05h.11l.42.13h.28l.27-.2.08-.26v-.33-.12-.09-.22-.26-.11l.07-.06.14-.3.27-.16-.21-.31-.24-.2-.17-.1-.21-.12-.12-.12-.19-.07-.14-.13-.8-.12h-.5-.12l-.11.14.05.24-.27.29h-.15l-.39-.12-.36.21-.27.3-.14.09-.11-.06.07-.32.24-.19.09-.26.19-.2.2-.09-.21-.3-.43-.28zm5 6.45v.24l-.08.15-.1.13-.07.14-.13.37-.07.17-.63.43-.25.22-.2.38-.28.19.19.15.21.1.64.08.44-.08.85-.29.93-.39.31-.2h.88.91l.81-.08.11.09h.11.12l.38-.28h1.33l1.08-.32.41-.06h.42l.17-.05.89-.6.06-.39-.06-.29-.1-.28-.1-.19-.11-.16-.24-.1-.19.04-.46.08-.34-.18v-.18l-.06-.17-.08-.06-.58-.15-.17-.2-.14-.25-.23-.11h-.24l-.45.1-.44.22-.23.06h-.23l-.2.17-.18.27-.29.32-.33.15.07-.17.55-1 .08-.29.18-.33.1-.07.21-.05.09-.07-.11-.13-.47-.26-.71-.17h-.23l-.11.08-.08.16v.26l.14.23h-.23l-.23-.05-.17-.2-.17-.24h-.11-.22l-.1.05-.07.16v.24l-.43.09-.22.12-.08.2-.18.14v.11l-.07.3-.13.07-.12.11-.06.23v.11l.08.36.11.09h-.15-.48-.19l-.19.14-.25.3zm-65.36 8.52h-.23l-.23.05-.45.22-.46.19-1.74.27-1 .28h-.35l-.58.06h-.43l-.84-.19h-.41l-.68.06h-.09l-.22.16v.25.19l-.1.11-.11.07h-.26l-.13-.13h-.23l-.61.05-.3.11-.15.32-.48.14-.81.15-.44.13h-.21l-.21.06-.43.3-.44.22-.67.21v.17.1l-.58.32-.14.2-.14.37-.05.06-.57-.12h-.4-.18l-.27.09-.06.09v.19l.09.12-.57.55h-.16l-.18-.16-.18-.09-.24-.09h-.23l-.22.1-.2.16v.13l.07.12.26.21h.63l.17.15.13.06-.53.22-.56.38-.48.52-.14.11v.13l.1.13.17.06h.36l.35.17.04-.13-1.23.16-.14.07-.59.85-.19.21-.17.12-.18.23-.17.27h-.07l-.41.06-.39.18-.39.23-.21.08-.17.13.14.25.68.56-.13.22.31.47.5-.25.38-.11h.44l.51.23.5.12h.9l.36.12.38.06h.38l.61-.22.32-.5.61-.38.15-.17-.14-.32-.33-.25v-.09h.26l.29.18h.1.18l.17-.13v-.16-.17l-.14-.28v-.15l1.26-.42.33-.36.08-.22v-.15l-.16-.34-.11-.16.06-.13.73.14.21-.09.11-.08.09-.16v-.22l.05-.2.1-.11.67.3h.14l.15-.1v-.1l-.06-.12v-.18h.44.18l.26-.15.15-.15.26-.14.11-.11-.08-.16-.4-.09.07-.14.37-.17h.1.23.12l.2-.15.2-.2.4-.22.19-.22.2-.13h.24.24l.84-.41 1.82-.56.51-.1.64-.25h.22l.9-.18.9-.26.85-.2.78-.25 1.23-.3.7-.24.44-.1.43-.14.45-.2.74-.3.75-.18.1-.11.63-.53.64-.48-.08-.14.06-.19.09-.19-.05-.21-.07-.11-.33-.32-.39-.24-.88-.23-.68-.08h-.22l-.5.18-.81.15-.9.41-.53.29-.19.23-.18.29-.2.13h-.22-.2l-.41.2zm-10.33 24.29.17.05h.16.2l.2-.07.35.1.21-.09h.21l.07-.22v-.31l-.05-.16-.11-.09-.41-.21-.4-.28-.6-.3-.2-.17-.19-.21-.22-.17-.41-.26-.07-.07h-.08l-.4.11-.21.25h-.12l-.18.1-.08.18.17.37.07.09.06.14.08.12.51.53h.09l.15-.09h.12l.23.08h.21l.22.08.15.25v.17zm-7.29-39 .17.08h.72 1.47l.17-.1v-.1l.08-.24v-.53l-.08-.14-.25-.07h-.44l-.1.14h-1.18l-.06.09v.5l-.13.17zm4.6-4.3-.17-.08h-.09l-.74.38-.45-.06-.38.13.37.44.64.12.35.42.65.12h.66.41l.13-.23-.05-.29-.17-.16-.1-.25-.26-.22-.21-.09zm22.22 31.8h.33.15l.55-.17.4-.09.87-.15h.51v-.18l-.07-.21-.27-.21-.18-.11-.22-.27-.17-.11-.22-.1h-.15l-1.1.13-.38.12-.28.31v.48l-.06.2-.1.15v.15l.22.17zm43.74-26.25.37-.37-.6-.16-1.65-.23-.78-.18h-.79-.6l-.37.08-.3.21.11.33.46.29.58.19.87.45h.54.45l.45-.08.43-.14.42-.2zm-56.79-4.94-.55.32-.42.18-.14.13.45.26.45.22.35.06h.34l2.19-.24.84-.28.82-.49-.12-.16v-.18-.21l-.13-.17-.23-.24-.27-.12-.44-.08h-.42l-.49.1-.1.13-.09.17-.08.31-.13.17-.45.07h-.45zm-4.26.16.58-.09.62-.27.18-.17-.21-.24-1.62.07-.82.32-.12.07v.07l.5.08zm3.17-3.16.08.06.58.11 1.2.06.23-.06.24-.18v-.07l-.11-.1-1.7-.14h-1l-.33.12.76.1zm216.56 42h.13l.54-.19.92-.06.44-.26.22-.06.49.07.43.17h.21l.48-.07 1.17-.25.87-.1.45-.08.55-.34v-.18l-.06-.15-.1-.07-.43-.2-.3-.17-.15-.16-.15-.1-.15-.06-.25-.16h-.16l-.82-.12-.22-.06h-.22l-.27.08h-.27-.27-.27l-.28.1h-.29l-.21.05-.32.2-.31.06-.59.43-.64.32-.11.18-.27.25-.11.19v.16zm-20.12 3.51.29.21.38.16 1.05.31h.53l.09-.07v-.09l.07-.36.06-.11h.16v-.18-.08l-.08-.09-1.9-.44h-.3l-.25.11-.37.25-.09.09-.05.12.06.06zm-202.44-41.01v.2.22l.08.07.57.32.46-.06.71-.21.82.25.62.07.43-.37.59-.13.15-.22.16-.07.58-.07.07-.29.14-.2.07-.28-.11-.17-.12-.14-.47-.09h-.47l-.53.13-.92.16-.63.1h-.38l-.08-.16h-.26l-.71.06-.23.08-.08.15-.1.07-.2.24zm-14.39 33.19-.19.32-.07.16v.37.17l.14.45.15.27.18.15.23.12.23.06.45-.06.45-.16.48.11h.43l.85-.16h.09l-.15.18v.27l.16.2h.2.2l-.06.12.55.35.5.24-.11.07-.32-.11h-.17v.2l-.35-.06-.15.12v.17l.05.17v.13h-.27l-.15.1.63.2.89.17.24.06.35.18h.15v-.11l.07-.1.41.22h.34.35l.84-.09v.06.11l.17.09h.21l.06-.08.27.1.05-.09.55.32h.12l.11-.09-.26-.25h-.16l-.14-.13.24-.07h.23l.11.1.1.15h.05l.92.19.19-.05v-.11l.34-.08.34-.23-.13-.13-.14-.09-.78-.28-.31-.18-.82-.61-.61-.62-.42-.55-.38-.63-.13-.33-.14-.3-.32-.23.14-.27.06-.33.17-.26v-.13l-.22-.33v-.23-.1-.2l.11-.13v-.17l.07-.09.32-.09.16-.25v-.18-.16l.18-.08h.49l.08-.06.09-.15v-.2-.28-.18l.27-.28.12-.1.06-.22-.15-.08-.39-.11h-.66l-.87-.14-.37-.18-.33-.09h-.26l-.24.07-.65.25-.23.07h-.21l-.42-.08h-.21l-.22.12-.22.08h-.29l-.2.15-.1.12v.16l.09.33v.14l.23.2h-.22-.22-.2l-.21.05-.19.09-.43.29-.06.08v.12l.15.11.14.08.44.05-.15.17v.1l.08.15-.22.23-.06.17v.16l-.08.19-.07.12-.07.06-.23.12-.1.19-.14.15-.15.08h-.34l-.35-.08h-.14l-.29.15zm1.8-31.39h.11v.06h.41 1.24l.25-.16h.23l.19-.2-.68-.24-.22-.17v-.16h-.26-.62l-.26.24-.06.13-.2.09-.6.11h-.1l.24.22zm10.09-6.56.61-.09 2-.19v-.1l.1-.2-.27-.16-2.1.12-.27.14-.08.22-.06.11v.05zm-4.19 2.26.89-.16.32.2h.27l.3-.1.28-.18.63.26.54.19.6-.15.26-.12.19-.25-.19-.22-.1-.29 1-.08.35-.14-.23-.2-.78-.09-.29-.1-.1-.18-.17-.08-.49.1h-.17-.51l-.22.14-.47.39-.59.16-.46.37-.7-.11-.59.08.2.36zm-2.5 1.76h.3l.16.08.09.11h.83l.79.21.32.29h.32.81l.93-.14 1.42-.4.21-.16-.23-.12-1.23-.41-.81-.37-.56-.14h-1.31l-1.4-.42h-.16l-.4.56-.09.36h-.24l-.36.13v.26zm5 1.28-.12.11.14.1.19.21v.12.17l.13.58.09.16.11.08.76.15.29-.09.39-.31h.17l.06-.2v-.23l.22-.1 1.59-.1-.26-.2-.27-.11-.91-.22h-1.79zm155.26 26.05h.18l.93-.29.07-.19.1-.43v-.15l-.07-.12-.18-.08h-.18-.82-.2l-.2.08-.17.19.15.66zm-6.34-4.86.39.42.43.26.22.05.22.12.43.51.16.17.17.11 1.44.35.22.11.21.06h.22l.21-.1.19-.23.15-.33.07-.25.11-.16.14-.06h.14l.47.25.48.18h.37l.36-.1 1.21-.15.41-.09.41-.13h.44l.21.15.16.2.19.18.17.08h.18l.28-.06.29-.12.65-.38-.37-.34-.43-.16-.15-.11-.66-.8-.12-.17-.09-.25-.12-.77.41-.12.46-.11h.72l.11.2v.1l-.22.24-.24.1-.07.36.06.42.17.27.19.19.46.37.42.13h.43l.73.14.37-.05.35-.16.89-.63-.13-.21-.16-.15.14-.19.41-.28.63-.16-.1-.12-.1-.08-2.92-1.06h-.26l-.46.15h-.23l-.49-.05-.48-.14-.38-.16-.86-.53-.48-.25-.48-.11-.35.28-.49.29-.09.09-.07.14v.24.25.19.19l-.1.18-.14.08h-.29-.11l-.1-.07-.09-.1-.2-.4-.22-.1h-.22l-.2-.07-.57-.47-.4-.24-.59-.25-.19-.11-.17-.2-.18-.14h-.2l-.71.27-.42.05-.2.14-.11.12-.12.08-.37.05-.28.1-.12.13-.11.17.17.33.21.24-.65-.08-.16.12-.1.74.13.78h-.23l-.34-.07-.06.15v.21zm18.47.65.41.24.21.05.69.09.21.1.43.28.23.12.38.09 1.4.11h1l.45-.09.92-.26.46-.2.12-.09.33-.8h-.12-.13l-.14.13-.15.08-.21-.13-.26-.11-.33-.21-.85-.1-1.05-.06-.35.13h-.57l-.21-.13v-.14l.06-.1v-.19l-.14-.1-1.74-.1h-.1l-.72.28h-.49l-.09-.22v-.31l-.4-.27-.18.09-.18.29-.16.33-.13.37-.07.37 1 .31zm-13.48 6 .18.25h.26.19l.68-.27.51-.06h.17l.8.21.77.28 1 .1.41.11h.45.48l.65.08h.48.08l-.06-.76-.09-.23-.13-.17-1.31-.85-.38-.18-.47-.16-.47-.07h-.46l-.69.12h-.23-.2l-.19.13-.18.19-.35.54-.19.24-.4.29-.42.09h-.44zm-170.93 78.75.09.22v-.16l-.07-.21-.06.07zm198.73-9v.21l.19.07.18-.11v-.09l-.06-.29.15-.24v-.15h-.14zm2.59-3.34-.22.18-.21.49-.17.2-.46.08-.2.18h-.2v.08l.09.13v.28l.08.09h.2l.1-.08.12-.17.17-.08.35-.06.24-.24.23-.37.1-.26v-.27-.25zm-7.17 8.71-.23.22-.33.34h-.28v.06l.06.09h.11l.35-.25.53-.58h-.1zm70.89-50.88-.21-.06h-.66l.1-.1v-.1l-.06-.11-.11-.07h-.11l-.22.07-.23.09.11-.13.13-.09-.06-.08h-.09l-.69-.54-.42-.19-.39-.27-.39-.44-.42-.35-.44-.13h-.45l-.32-.08-.33-.11-.72-.12v.09l.78.18.12.08-.05.07h-.17l-.6-.06h-.18l-.17-.14h-.08l-.07.08v.18l.08.15-.15.07h-.17v-.18-.15l.19-.25h.11v-.06l-.62-.11-.18-.09h-.17l-.38.12h-1.05-.19v.08h.07.16.17l.11.12.24.06.12.12.09.21v.15.16l-.1.27-.15.12-.17.06.07.16.18.13.33.06.15.1.13.17-.11.21-.13.18-.1.07-.07.13h-.06-.08l.09-.48-.12-.28-.23.06-.09.08-.21.25h-.05l-.05-.09-.06-.18-.05-.19v-.14l-.21-.15-.11-.06h-.36-.11l.1-.32.19-.18v-.42l-.09-.14-.1-.12-.1-.29v-.35l.11-.21v-.25l-.13-.19-.15-.09-.12.08-.11.11h-.06-.41l.27-.28v-.24l-.05-.14-.09-.11-.06-.25-2.91-1.41-.49-.18-.24-.15-.2-.07h-.21-.13-.09l.08-.13h.12l-.29-.22-1.05-.58-.23-.08.16.15.79.46.12.13-.23.16-.25.07.07-.18-.06-.22-.09-.11-.27-.14-.43-.11-.41-.15-.08-.15v-.22l.26.19.14.06-.28-.29-.34-.26-.76-.23-.14-.09-.22-.2h-.08-.15l-.38-.11-.37-.14-.25-.1-1.11-.81-.6-.11v-.1-.12l-.11-.09-.75-.21-1-.14-1-.39-.88-.11-1-.41-.56-.3-.35-.12h-.32l-.84.15h-.95l-.87-.08h-.69l-.4-.06-.55-.18-.16.07-.14.34-.41-.14-.35-.18-.58-.16-1.1-.11-1.35-.25-.7-.07h-.71l.07.57v.27l-.27.35-.29.23-.08.18.79.15.24.64.32.41.21.42v.3l-.86.72-.88.08h-.84l-.37-.43-.19-.52-.68-.28-.67-.21h-.31l-.22-.1-.05-.58-.15-.43-.19-.16-.19-.25-.17-.09h-.43l-1 .61-.35.18h-.12l-1.56-.15-.41-.13-2.43-.12-.66-.36-.39-.06-.45.11h-.39l-.55-.07-.48.11-1.06.11-.39.12-.41.22-.76.55-.11.26v.33l.16.45v.52l-.13.18-.24.08-.25.55-.24.3-.46.08.26-.22.25-.16.39-.81-.05-.26-.32-.18-.2-.2-.1-.77-.09-.41v-.49l-.32-.16-1.15-.25-.54-.18-.19-.29.21-.4v-.3l.11-.26.17-.21.05-.3-.09-.38-.09-.28-.2-.33-.14-.15-.7-.48-1.21-.49-1.24-.33-1.1-.12-1.42-.06h-1.48l-.56.19h-1.05l-1.15.2-1.15.32h-.63l-1.26.22h-.54l-1.39-.5.44-.07.18-.07-.62-.67-.33-.24-.82-.29h-.33l-.27.06-1.08.33-.27.14.54-.38.26-.17.26-.23-.06-.15-.06-.08h-1-.06l-.21-.21-.11-.07-.67-.22-.48-.08h-.5l-.09-.08.06-.1v-.07l.16-.11.43-.11 1.12-.06.25-.18v-.19l-.07-.15-.37-.34-.49-.26-1-.3-1.08-.3-1.8-.11h-.32l-.25.13-.44.33-1 1-.55.39-.5.22-1.14.19h-.21l-.16-.15v-.14l.1-.13v-.09l-.06-.16v-.08h.12l.27.11h.25l.66-.18v-.27l-.18-.17.09-.38v-.1l.09-.07h.07l.47.28h.16.18l-.42.67h.2l.54-.32.36-.3.39-.4v-.21h-.45l-2.89.15-1.06.3-.33-.07-.23-.23h.36l.42-.14.35-.27.22-.05h.59l.48.11h1.43v-.32l-.32-.1-.68-.1-.43-.15-.53-.1-1.18-.14-.49-.12-1.16-.11-.31-.09-2.71-.08-1-.24-.39-.24-.93-.12h-.19l-.06.07v.1l.59.45v.31l.18.15-.69.24-.48.09h-1.58l-.24.1-.62.48v.21l.06.36h.47l.14-.16.21-.06 1 .05.1.07-.32.1-.31.05-.39.52-.52.17.36.08.32.15-.06.64.46.49.08.23h-.65l-.58.15h-.21l-.38-.38-.42-.25h-.2l-.27.24-.39-.13h-.16l-.21.1-.13.14-.1.22-.13.11v.16l.19.07h.14l.4.11-.41.06-.11.08v.08l-.31.12.1.11.14.09v.09h-.1l-.26-.1-.27-.16-.44-.31-.19-.2-.24-.09-1.32-.53-.59-.17h-.38l-.61.07-.37.23-.63.1-.39.19-.2.25h-1.12l-.77-.19-.49-.2-.55-.4-.55-.51h-.06l-.07-.11-.1-.25-.11-.19-.17.1-.44.59-.18.29-.24.55-.18.46v.19l.09.17-.24.14-.33.22-.38.68-.25.25-.3.21-.21.08h-.25l-.23-.2-.12-.45-.14-.09-.17.26h-.24l-.48-.18-.48-.41-.49-.18-.69-1-.31-.36-.17-.29h-.39l-.15-.21.2-.16.53-.13h.42l-.31-.38-.16-.23-.16-.13.06.26-.07.19-.14.14-.24.1-1-1.16-.62-.57-.34-.2-.22-.37.14-.07.74.43.52.23.85.58h.65l.24-.26v-.53l-.24-.43-.31-.17h-1.06l-.24-.14h.17.23l.34-.13.56-.32.25-.1v-.25l-.39-.34h-.64-.14l.25-.18.22-.1.37-.26.09-.24-.1-.19h-.27l-.08-.11v-.18l-.3-.15-.27-.11h-.61v-.12-.11l-.26-.08-.21-.14-.06-.12-.07-.08-.4-.12-1.32-.24-.15.07-.21.34-.54.35-.4-.19h-.08l-.07-.09.1-.16.07-.15-.09-.11-.08-.05-.27.12-.41.07-.18.1-.36.08v-.27l-1.48-.7-.47-.14h-.29l-.68.15-.16.08-.26.23-.57-.14-.14.1-.2.38v.37l.06.1.05.2.22.31.23.24-.1.06h-.09l-.11.11-.11.21-.19.3-.26.16h-.3l-.72-.23h-.16l-.05.17.43.14v.08l-.12.06-.28.05h-.52l-.43-.06-.27-.23h-.26-.73l-.66.12-.75-.16h-1.26-.32l-.6-.31-.87-.19-1-.46-.1-.43.15-.35h.55l.34-.06-.05-.14-.07-.07-.79-.19h-2.12l-1.39-.31-2.16-.09-1 .34-1.4.08-.38.19-.65.1.06.26.32.2h.15l.17.07-.1.07h-.12l-.24.16-.15.15v.32l-.07.32-.23.43-.2.2-.18.25.16.24.17.1.44.12.16.08-.09.07-.66-.08-.23-.26-.05-.14-.06-.22.22-.23.23-.16.19-.38v-.35-.72l-.39-.16-.23-.25.39-.44.1-.23-.17-.22-.27-.47-.28-.28-.03-.07-.19-.06.2.46-.16.24-.11.09-.74.13h-.47l-.64-.13-.75-.3-.19-.21-.13-.3.43-.13.17-.09-.39-.07h-.39l-.14.42h-.25l-1.25-.31-.33.08-.4.24-.18.18-.2.29.08.21.08.07h.63l.56-.06.62-.19.14.07.13.1-.18.15-.64.22-1.07.57-.4.06-.57-.12-.31.32-.14.08-1 .21h-.42l-.12.16h-.25l-.28.08-.47.22h-.71-.48l-1.18.13-.3.12-.2.17-.09.2-.17.19-.67.4-.57.17h-.48l.46-.22.53-.42.95-1.25.92-.08.21-.17.7-.76.19-.12h.92l.81-.25 1.63-1.23.81-.21.56-.29.1-.15.09-.19-.09-.12v-.11l.71-.2.28-.33 1-.3.75-.41 1.06-.3.61-.42 1.36-.61 1.28-1 .21-.59-.31-.2-.38-.12-.21-.29h-.15l-.43.28-.42-.63-.52-.35v-.06l.25.06.93.52.49.08.14.08.09.13v.22h.15l.1-.09.24-.43.22-.57v-.25l-.55.11-.25-.84-.12-.26-.17-.28h-.35l-.18.07.14.1.16.16-.1.16-.09.07-.43.21h-.3l.12-.09.15-.2-.11-.22-.11-.12-.12-.64-.38-.1-.22-.1h-.29l-.37.17.14-.15.14-.24-.29-.28-.28-.19-.35-.08-.38-.25-.52-.14-1.2-.14-.91.18-1.14-.14-1.36.11h-.54l-.31-.07-.29.08-.15.22-.08.36-.34.18-.18.05-.87-.06-.62.18-.27-.14h-.5l-.05-.3h.3l.17.05.56-.61.47-.36.45-.41-.29-.25-.62-.17h-.3l-.14.07-.69-.13h-.36l-.6.18h-.2l-.13-.39h-.6-2.09l.23-.12 1.1-.16.88-.25.65-.46.6-.15-.14-.23-.16-.16-.35-.14-.75-.1-.64-.18-.28-.23-1.17-.31h-.32l-.84.39h-.43l-.37.06-1 .47-2 1.23-.42.38-.2.29-.36.15-.16.35v.31l.16.16.17.3-.17.35-.15.23.14.1h.4l.87.19-.16.18-.53-.15h-.47l-.4-.19-1 .18h-.72l-.67.07-1.32-.15-.12.11.31.2.23.18.68.42.29.13.39.4.05.79-.21.19-.24.27-.13.05h-.18l.3-.19.16-.4.15-.27-.2-.19h-.09l-.1-.1-.7-.27-.38-.11-.39-.06-.21-.08-.59.24-.28.06-.32.12-.12.03h-.46l-.06.18-.26.19-.28-.2-.27.05-.61.34-.71.15.08-.11.11-.27-.17-.06-1.07.31-.35.2-.17-.07.62-.45.17-.28-.29-.12-.64-.09h-.41l-.6.1-.86-.15-.13.17h-.22l-.53-.08-.48.09-.36.18-.54-.18h-.19l-.29.28-.25-.19-.21.36.06.27h.18.16l.08-.12.12-.06.42.22.13-.12.19-.09.21.14.87-.15-.15.18-1 .22-1.76.29-.37.11-1 .1-.68.28h-.89l-1.53.23-1.09.5-.54-.05-1.07.38-.43.3-1.55.61-.93-.24-.31.08-.15.22v.17h.37l.28.07.33.15-.09.27-.7.61-.33.22-.4.13-.84-.49-.16.22-.11.11h-.33l-.17.35.6.06.58.16.51.24.36.26.4.17.23.15-.62.14-.43-.33-.24-.11h-.26l-.4.1-.34.4.33.13.73.13.24.18.95 1.16.24.12h.31l.13.08-.38.2-.14.19-.32.32-1.39.17-.41.12-.12.06-.17.12-.12.11v.23l.11.16.29.14 1.1.65-.16.03-.3-.12-.39-.2-.39-.27-.52-.2v-.16-.24-.07l.05-.13.49-.3.51-.15.62-.36.62-.39-.13-.13-.13-.09h-.56l-1.14.14-.69.12-.3.32h-.46-.23l-.63-.15-.6.15-1.4.12-.22.08-3.2.03-.65.07-1.65.26v.19l.06.15-.25.22-.12.2v.25.21l.06.27.1.24.24.14.22.08.16.27-.13.32-.18.36v.17l.11.22.15.45v.12l.51.34.34.11h.57l.38.08.56.22.17.1.05.09.13.37.07.12.61.51.2.08.83.09.26.17.37.5v.11.2.17.1l-.14.16-.35.66-.22.59.34.4.46.75.13.32.16.43-.06.27-.08.16-.3.24-.38.08-.41.15v.19l.07.22-.05.15v.06h-.22l-.2-.06-.16-.16-.16-.16.11-.23.33-.41.21-.58.05-.39v-.39l-.08-.28-.26-.2h-.25l-.27.18-.26.68-.36.5-.05.2v.18.11l-.07-.39v-.29l.2-.37.1-.32v-.24l-.15-.41v-.2-.12l.09-.57.32-.12.74-.34.11-.11.24-.38.11-.14.13-.23-.24-.18-.23-.1-.42-.05h-.39l-.87.18h-.78l-.28-.1-1.18-.89-.08-.29-.1-.12h-.11l-.42-.19-1-.24-1-.56-1.75-.05-.48.07-.48.17-.44.35-.2.09h-.29l-.06.12-.05.17.15.13.54-.15.44.08.23.16.17.32-.08.16-.77.25h-.42l-.91-.57-.35-.1-.84.1-.56.27-.17.06.14.28.2.51.18.3.23.15.81.37.46.12.68.34h.42l.38-.08.56.2.33.61.19.21.18.11.26.06h.14l.16-.08h.37l-.13.18h-.14l-.77.08-.39-.07-.47-.19-.89-.62h-1.1l-.13.18-.35-.25-1.17-.06-.7-.16-.75-.26-.07-.13v-.18l.26-.22.09-.14.07-.41-.48-.55.05-.51.21-.02.29-.66.18-.21.09-.08.09-.15-.09-.19-.09-.11-.1-.26v-.2-.24l-.24-.37-.19-.39-.41-.2h-.39l-.14.06-.15.09.21.36.2.32.1.25.07.45v.53l-.07.22-.12.19-.35.24-.58.28-.33.13-.7.15-.49.25-1.1 1.38.12.21.4.22.27.19.13.17.29.5 1.1 1.43.06.26-.26.45-.5.58-.2.32-.47 1.25v.32l.19.29.32.38.1.28-.21.73.11.18.26.09.72-.1.84.18.45-.08.68-.41h.26l.82.06 1.2.38 1.28.52.25.18h.35l.25.89.22.48.1.34.07.38-.24.08h-.21l-.17.1-.24.59v.31l.13.51 1.07.23.74.13h.52l.09.06.07.08h-.62l-1.13.06h-.4l-.18-.06-.18-.18-.34-.17-.13-.12-.28-.14.14-.52v-1.2-.5l-.24-.41-.7-.59-.24-.39-.27-.26h-.27l-.39.06-1 .24-.87.13-1 .36-.19.3-.16.77.22.38.22.27.21.47.07.28v.28.42l-.17.23-1.12.89-.17.28-.19.76-.17.29-.52.42-.32.17-1.72.77-.06.17-.12.54-.47.24h-.28l-.66-.27-.38-.08h-.4l-1.5.08-.67-.19-.52-.26-.54-.08-.4-.21-.1-.19-.1-.26-.07-.14-.07-.06.12-.09h.26 1l.26-.09h.13l.27.24.35.22h.3l.25-.18h.1.11l-.23.14-.23.1-.06.07-.05.14.33.16.31.1.4-.09.23-.18.52-.26h.36v-.24l-.2-.37-.15-.26.56.07.34-.21 1.39-1.84.66-.34.22-.23.16-.31v-.35l-.08-.38v-.29l.24-.36.37-.44.24-.17v-.16-.14l-.66-.43-.71-.35-.25-.19-.18-.31-.1-.37v-.24l.06-.74.11-.35v-1l-.13-1.27-.11-.34.17-.24.17-.19.09-.18.05-1.24-.05-.48-.23-.64-.93-.53-.4-.52v-.19-.12l.4-.22.28-.29.18-.44.37-.67.09-.23.24-.92.07-.5v-.73l-.33-.19-.35-.16-.64-.14h-.32l-.58-.29h-.22l-1.57.08h-.9l-.53.07h-.28-.17v-.13l.09-.08v-.08h-.16l-.41.09-.65 1-.39 1-.42 1.32-.25.56-.38.59-.57.46-.78.47-.5.23-.67.22-.27.49-.24.2.1.13.28-.07-.16.34-.17.21v.13l.05.15.23.08.6-.14.12.13.14.2-.07.81-.17.69v.25l.1.17.07.21-.17.26-.14.08h-.27l-.17.58-.06.34v.27l.07.16.11.18.07-.14v-.19l.19-.13 1 .36.28.18.43.17.13.19.08.61.44.56.35.32.22.13h.19l.3-.13h.41l-.22.43-.36.82-.61.7-.25.11-.4-.28-.79-.36-.17-.21-.91-.57-.28-.39-.46-.06-.63-.18-.09-.05-.53-.24-.5-.14-.15-.18-.38-.13-.38-.09-.55-.23-.25.07.06-.25-.63-.37-.75-.32-1.54-.47-1.36-.22-1.6-.07-1.41-.29h-.16l-.18.09-.47.43-.53.13-.19.2.31.44.61 1.15.36-.12.14.52-.22.3-.33.35-.28.19-.61.1h-.49l-.06.33.14.31v.13l-.05.16-.07.08h-.06l-.19.09h-.23l-.54-.16-.4-.15v-.55l.2-.25h.14l.14-.1-.28-.36-.21-.15-.09-.25v-.11h-.25l-1.06.29-.21.27-.12-.18-1.36.8-.59.29h-.41l-.54-.17h-.64l-.43-.08h-.22l-.47.2h-.47l-.5.29-.43.34-.11.56-.27.05-.29-.28-.16-.07-.15.06h-.3-.25l-.25.1h-.08l-.74-.09h-.21-.26l.06-.15.09-.1.42-.08.23-.11.26.06.18-.17v-.33l-.3-.31.14-.24.11-.31h.07l.08-.11-.1-.08-.22-.05v-.07l.14-.06.93-.13.22-.09h-.57-.72l-.72.27-1.36.59-.63.4h.17.21l.18.28.14.08-.09.18-.37.15-.14.09h-.14-.12l-.14-.08.08-.14.11-.13-.29-.24h-.14-.11l-.71.2-.52.24-.48.13h-.44l-.26.1-.54.32-.33.14-.57.36-1.44.62-.38.05-.21-.05-.16-.08-.11.07.13.15.21.3-.08.16h-.33l-.7.14-.76.21v.22l.05.19-.13.32-.13.25-.11.73-.1.22-.3.14-1.5.33h-.26l-.11.06-.08-.06-.28-.08h-.4-.18l-.19-.12-.25-.3-.35-.62-.79-.32-.37-.21-.07-.19.07-.21.81-.67.28-.22 1.21-.19h.47l.49-.08v-.5l-.48-.48-.5-.55-.5-.61-.69-.22-.82-.1-1.69.12h-.23l-1.08-.43h-.11-.15v.12l.09.09 1.42.91.07.24v.32.13.14.24l-.36 1-.33.73-.11.35v.24l.14.21.41.06.4.22.21.3v.21.45l.1.38-.32.59-.18.24-.23.53.09.38v.15l-.05.17-.16-.13-.14-.15-.18-.13h-.2-.21l-.16.08v-.16l.19-.24-.09-.12-.1-.1-.59-.29h-.42-.38-.38l-.28-.19-.25-.1h-.2l-.23.17-.57.64-.56.43-.75.31-.56.1-.16.08-.33.37-.34.28-1 .47-.06.2-.06.26.09.3.18.29.46.58.26.2.18.31.13.35-.07.08-.38-.09h-.28l-.39.24v.1l-.14.24h-.36l-1-.43-.82-.22h-.13l-.19-.11v-.09h-.34-.21l-.2-.08-.9-.69-.72-.26h-.17l-.31.07-.18.56-.25.16h-.22v.28l.09.17.09.12.27.2.5.59.27.24.2.09h.26l.58-.07.19.09.2.14v.34l.16.35v.19l-.19.23-.62.17-.36.23h-.13l-.74-.27-.48-.11-.65-.17-.12-.09-.29-.47-.64-.43-.29-.13-.4.09h-.28l-.46-.24-.31-.36v-.44l.09-.09.08-.06-.22-.13v-.34-.22l-.25-.56-.25-.33-.24-.36.25-.18.14-.17.18-.47v-.16l.08-.16v-.15-.18l-.18-.26-.54-.55-.54-.3-1-.3h-.28-.1l.22-.06.21-.11.12-.19-.26-.08h-.21l-.35-.15-.06-.13.08-.1-.09-.24-.47-.07h-.12v-.08l-.32-.26-.41-.28.07-.27-.3-.2-.26-.15h-.41l-.03-.22h.94l1 .21-.09.08-.07.12.29.36.28.2.62.25h.03l.14-.06.3.1.25.14h.47l.57.16v.07h-.06l.16.2h.24l.4-.16 1 .57.28.1 1.6.29h.74l.4.06.58.15.62.3.51.1.92.1h.48l1.18-.19 1.52-.52.78-.46 1.23-1.17.16-.28.15-.65v-.28h-.18l-.24-.15v-.38l-.14-.18-.17-.86-.38-.09-.2-.1-.24-.05-.27-.14-.33-.35-.32-.23-.26-.32-.16-.12h-.12l.08.17.07.17h-.48l-1.37-.82-.23-.06-.1.07-.42-.11-.16-.24-1.17-.9-2.07-1-1.42-.62-1.06-.28h-.1l-.11.11h-.31-.27l-1-.25h-.23-1l-.1.07-.36.52-.19.1-.36.1.1-.16.25-.11.16-.38v-.2l.08-.21v-.16h-.13-.24l-.51.2h-.07l.15-.21v-.08h-.22l-.46-.09h-.48l-.09-.25-.31-.14-.13-.12.15-.13 1.08.22h.3l.15-.09v-.14-.17l-.12-.1-.7-.18-.33-.21-.75-.28v.13l.11.26-.06.08-.22-.07-.17.06-.23.31-.22.08h-.17l-.76-.26-.33-.05h-.29-.22-.21l-.1.25h-.06l-.09-.34-.21-.09-.1.07v.32l-.13.09-.18-.06h-.37l-.18-.06-.11-.12v-.12-.19-.23l-.08-.11-1.49-.39v-.18l2.13.17.63-.1.38-.24.89-.26v-.23l-.06-.19-.62-.42-.32-.08h-.39v-.07l.06-.2-.32-.27h-.2l-.3.17h-.14v-.08l-.15-.12-.45-.1-.14-.09-.26-.13-.21-.11h-.51l-.15.08-.26.27-.23.48-.09.4-.24.19v.14l-.17.52v-.13-.25-.27-.46l.13-.31-.1-.12-.41.14-.19-.05.1-.13.6-.28.1-.09.11-.15v-.36l-.48-.27-.61-.06-.15-.07h-.26l-.49.33-.18.17.06.12.54.28v.08h-.44l-.24.21-.06.21-.15.25-.15.32-.6.31h-.15v-.15-.17-.16-.29l-.16-.11.22-.24.11-.39-.14-.29-.29.09-.51.45-.45.53-1 1-.09.35-.39.33-.31.1-.12-.12v-.25l.28-.35.12-.56.12-.21.49-.45.37-.36.21-.13v-.12l-.11-.06h-.11l-.15-.1h-.25l-.11.06-.1.15h-.11l-.17-.1-.24-.19-.4-.17-.12-.1h-.2l-.4.38-.34.22v.18l.26.09v.15h-.12l-.13.11-.46.6h-.27l-.44.27-.52.51-.1.14-.08.34.05.14.17.14-.09.13h-.18l-.15-.12-.24-.24-.07-.42-.08-.23-.17-.12-.31-.12-.49.13-.06.2-.12.05-.17-.18-.31.11-.11-.06-.4.21-.45-.09-.34.08v.08l.1.12.39.25.36.11.17.21.15.56-.08.07-.28-.24-.39-.14-.3-.25h-.33l-.17.38h-.24l-.12-.1h-.24-.41l-.14.21v.53.19l.19.16.15.17-.47-.07-.54.57-.19.21h-.1v-.07l.44-.6.11-.26v-.2l.1-.64-.05-.23v-.08l-.19.06-.14.11h-.15l-.2.2-.18.34-.24.72-.17.26v-.26l.11-.36v-.56l-.07-.08-.91.19-.3.29-.06.17v.12.09l-.2.13h-.21-.18l-.11.1v.19l.23.18.31.14-.1.07h-.4l-.3-.14-.2-.25-.16-.12h-.06l-.13.12-.21.36v.3l.08.17v.08l-.74.19-.3.32-.1.4-.19.26-.48.35h-.46l-.43.2-.14.1-.12.2v.13l.11.08h1.15l.42-.08h.1.13v.07h-.13-.27l-.45.14h-.27-.19l-.45.1h-.44l-.34.24v.11l.16.44.07.21h.13v.1l-.12.08-.1.11.1.39h-.09l-.26-.45-.11-.56-.05-.06-.29.15-.37.06-.31.2-.32.1v.11l.11.1.47.05v.13l-.22.07h-.19l-.38-.15h-.26l-.16.06-.46.47v.19l-.08.23h.14l.35-.06.49-.26.07.09-.11.09-.12.17v.17l.2.18.25.09.32-.09.06.07-.22.25v.3h-.08l-.16-.31.06-.07h-.22l-.32-.22-.29-.07-.39.24-.33.36-.07.15-.17.13v.09h.07.19.45.89.25v.14h-1.19l-.32.06-.24.1-.3.02-.25.15h-.18l-.16.14-.27.34h-.13l-.15.08-.14.09.1.18.39.1.08.08h-.32-.31l-.19.16-.13.08-.25.05-.19.19v.32h-.2l-.07.34.1.62h.43.12.15l.34-.07.55-.14.11.07-.22.15-.29.08-.16.13h-.53l-1.13.26v.09l.34.16.11.19-.1.05h-.31l-.24.16-.11.29-.53.54-.13.19-.12.25-.16.38v.26l.12.1h.12.13l.06.15h.1.18l.37-.21.2-.16.18-.07-.33.38-.43.35h-.38l-.15-.18-.12-.1-1.2.51-.26.21-.09.23v.23l.18-.06.32-.14h.13l-.21.21-.35.17h-.2l-.25.2-.3.11-.18.25-.5.23-.61.71-.42.29-.14.3-.12.23-.29.16-.17.21-.09.26.05.08h.12.2l.12.25.12.12v.16h.25l.53-.17 1.16-.63.21-.22-.21-.12-.1-.06.3-.2.26-.12.17-.06.23.08.05.06-.3.16-.22.15.07.06h.17l.08.11v.1l-.27.12-.2.13-.31.06-.32.14-.1.08-.1.2.06.06.1.23h-.1-.21l-.47-.07h-.28l-.2.07-.11.12h-.08l-.08-.25h-.09l-.11-.09-.25-.3h-.17l-.16.07h-.36l-.32.33h-.13v-.11l.15-.2v-.08l-.55-.15-.31.07-.19.06-.33.2-.07.1.05.16.18.06h.21l.09.1v.15l-.11.08-.57.08-.17.15v.22l.14.23.19.12.51.47v.1l-.58-.35-.19-.09-.2-.28-.45-.06h-.23-.15-.16l-.34.22-.71.19-.12.08v.08l-.27.33-.09.21h.09l.45-.08.16-.07h.25l.31.12 1.19-.17.09.11h-.54l-.5.15v.07.11l.31.07-.07.06-.16.05h-.15l-.38-.17-.6-.07h-.41-.23-.34-.16l-.15.08-.06.19-.14.11-.08.1v.11h.23l.37-.09.44-.06-.14.13h-.07l-.69.15h-.24l-.11-.07-.08-.09h-.13l-.21.09h-.15l-.34.19-.09.21-.12.09-.12.16h-.12l-.1-.1-.18.08-.09.38.12.21.2.06h.38l.36.06.87.21h.49l.54-.1h.09l-.49.17-.84.06-.46.17-.61-.2h-.65-.24l-.11.06v.2.28l.13.19.19.07.13.22.18.11.13.06-.15.08h-.16l-.31.06v.16l.06.36.16.18.41.23h.23l.37-.13.81-.06.56.1.2-.06.1-.26.1-.13v.15l.09.06h.26l.27.08h.43.19v-.09-.2l.11-.25.2-.18-.2.34.11.23h.37l-.11.09-.94.25v.21l.05.14h-.07l-.11-.12v-.17l-.13-.13-.22.07h-.31l-.36.15h-.23l-.57-.15-.9.18h-.4-.18-.18l-.16.1v.29.22l.07.42.13.2.24.19.38-.14.26-.21h.11l-.19.17-.7.4-.06.11.09.38.19.29.24.14h.45l.06.09-.37.15h-.22l-.2-.06h-.11l-.06.12.08.18-.06.2-.12.21v.28.18l.06.08h.08l.09-.14.17-.14.26-.18.12-.23.26-.28.19-.05.15-.12.05-.23.12-.15.25-.24.09-.15.36-.21.86-.23h.35l-.09.1-.3.06-.12.1-.11.15-.25.6v-.17l.08-.41-.1-.14-.31.16-.39.33-.07.19v.09l-.07.14-.14.15-.4.33-.1.13.07.16h.13.24.18.28l-.42.2h-.23l-.18.21-.29-.2h-.11-.11l-.13.16h-.18l-.12.21-.1.31-.1.62.08.18h.35l.19-.1.18-.24.18-.06h.11l.24-.06.32-.17.26-.21.22-.13.24-.07-.2.12-.2.18-.28.19-.18.19v.18l.06.14v.14l-.11.1v.1l.24.2.15.1.41-.18h.08l-.28.16-.14.19h-.07l-.46-.24-.54-.11-.1.11-.06.41v.27l.16.31.23.26.5.25.15.15.62.29h.19.24.07v.05l-.17.13-.09.15.07.07.26.07h.06v-.12l.06-.06h.14.07v.06.09l.19.12.35-.06.51.07.76-.16.3-.18h.24l.27-.22.39-.2.76-.74.47-.28v-.1l.09-.08h.16l.13-.16-.16-.14.45-.21h.13l.07-.07.07-.11-.13-.16-.13-.12h.15l.3.25.08.19h.22l.23-.16h.18v-.08l.07-.06.35-.6v-.27-.18h-.08v-.17l.18-.06.14-.13-.07-.3.12-.19v.23l.06.22v.48.11l.18.25.17.31h.21.1l.17.06h.08l.43.11v.11.08l.16.35h.13l.19-.09.13-.25.07-.39.09-.36-.11-.39-.11-.34v-.1l.28-.3.09-.23.1-.23.1-.07h.16.18l.23-.16.2-.2.16-.18.05-.37v-.19l.07-.14.07-.27.17-.23-.2-.41-.24-.57v-.31l.11-.06h.21.4.05v-.14l.09-.19.09-.13.07-.2v-.17l-.23-.27-.3-.27-.2-.09-.36-.23-.26-.2.15-.73.11-.55v-.34l-.35-.89v-.2-.18-.3-.27l.06-.09.15-.15-.14-.24-.26-.6.4-.59-.07-.3.23-.23.43-.51.25-.28.19-.13.36-.15.4-.08h.18l.69.1.54.08.08-.08.12-.17.14-.23v-.26-.38l-.08-.23-.38-.15-.41-.2.51-.65.35-.45.44-.68.14-.29.1-.11.13-1.06.09-.29.07-.16v-.16-.26l-.12-.61.7-.08h.22l.22-.07.41-.19.2-.17-.11-.57.25-.2.61-.67.66-.65.3-.25v-.12-.2l-.14-.3-.14-.19-.29-.36.12-.26h.21l.28-.1.22-.22.37-.85.72-.43.29-.24.45.18.65.27.29-.4.1-.14.1-.22v-.37-.49-.2l.26-.09h.14l.73.2h.19.34l.38.09.81.23.33.1h.19l.16-.11.34-.28-.5-.21.33-.21.17-.22.15-.26v-.31-.17l-.1-.11-.28-.52h.7.24l.51.18v.2l.5.26.14.13.3.2.08.12.28.12.2.14.24.11.27.18.37.14h.31l.79.24.13.07.23.17.22.19.16.39h.25l.07.13.22.23.31.2v.07l-.24.18v.26.32l.08.26v.07l-.06.09-.07.14v.13.08h.13.23l.14.06.07.29v.06l-.2.14-.05.1v.16.17l.06.2.15.2.21.22.14.17.06.13v.09l-.09.1-.08.22v.25.16l-.18.22-.12.08v.11.2.23.17.11l.06.08.29.13.16.27.11.22.19.57h.16l.31.1.24-.12.12-.09h.06v.09l-.07.22.17.27h.17.14l.75.35.19.21-.07.38v.34l-.08.3.16.14v.1.17l-.19.07-.08.1.1.11v.17h-.13l-.11-.02h-.36l-.36.09-.17.14h-.19v.19l-.17.17-.3.5-.47.39-.19.33h-.11l-.39.37-.1.28h-.2l-.46.41-.21.09-.22.13-.51.51-.42.1v.2l-.24.27h-.15v.09l.06.09h-.13-.06l.08.18.06.1v.1l-.37.19-.42.1-.17-.08-.48.1v.14.13l.15.21h-.33v.25l-.49.46-.1.15v.15.19l.01.28v.3l.3.2v.19.16l-.09.32-.09.35.24.22.16.29.14.31v.11l.1.21v.07h-.13-.05l.06.08v.07h-.11v.08.13.37l-.06.31v.12l-.14.2v.26.33.23.37.11l.17.08.16.11.21-.15h.15l.09.25h.15l.6.28.49.07h.07v.06l-.12.22h.13v.08.06h-.1-.08v.13h.06l-.06.16v.12h.34.1l.31.14.08-.05v-.07-.24-.08h.09l.15.31.16.14h.13.09v.14l-.13.17-.2.12-.09.12h.11l.3-.08.27-.22.25-.17.25.05h.24l.56-.12.59-.09h.19l.14-.07.15-.19.46-.12h.21l.37-.1.21-.15h.35l.17-.11.2-.09.11.19h.08l.16-.14.19-.09h.17v-.09l-.01.03-.09-.13h.15l.31.19.32-.05.15-.12.07-.24.14-.21h.07v.09l-.09.14-.06.2.03.13.13-.07h.21l.43-.05.23-.18h.24.07l.41.2.12-.07h.27l.17-.1h.07l.71-.09.62-.3.12.07.14.11v.19.15l-.24-.14.06.16.22.3.32.13.48.39h.56l.37-.07h.28l.28.21.2.26.15.07.21.12v.15l-.06.08-.85-.22-1-.13-.13.11-.12.17-.06.13-.06.07h-.15-.22-.27l-.16-.09-.12.1-.06.22-.16.12-.23-.09-.18-.14h-.14l-.08.16.06.21v.26l-.09.19.1.09.12.14v.08h-.12v.05l-.06.07h-.14-.08l-.09.24-.17.38-.16.2.13.19.12.93v.23.11h-.1l-.3.34v.13.12.11h.23.28l.2.11.24.24.09.19v.16l-.13.15h-.2l-.15-.08-.07-.07-.14-.14-.23-.08h-.07l.06.22.09.07.08.06-.39.11v.1.1l-.17.16-.06.14v.17.06h.22.07-.07-.27-.26l-.29-.11-.12-.08h-.24l-.15.06-.54.15h-.13l-.31-.16-.15-.16-.34-.33v-.08-.06l-.45.1-.13-.12h-.11l-.17-.07-.43-.26h-.11v.06h-.06l-.1-.1-.12-.08-.37.16h-.13-.12l-.59.21-.19.2h-.08v.23l.11.38.07.85v.21l-.19.2-.43.29-.22.15-.53.1-.73-.31-.28-.62-.19-.18-.72-.55-.06-.15-.12-.2-.6.16-.54.18-.4.08-.5.66-.07.23v.28l-.1.3-.17.23-.35.29-.08.5v1l.06.5v.13.54l.12.52.13.42-.07.29.07.19v.4l-.06.45-.36.08h-.2l-.22-.1h-.17l-.12-.09.49-.52.19-.25.13-.19.14-.35v-.21-.12.09l-.06.27-.08.2-.21.3-.1.14-.31.34-.3.28-.23.11h-.66l-.24.09v.23.21l-.16.3-.19.23-.28.22-.09.06-.28.13-.8.09h-.26l-.31-.16-.16-.21-.28-.6h.12l.33.2.23.08-.08-.13-.42-.22-.41-.25h-.44-.45l-1.09.22-.47.2-.23.14-.6.11-.35.31-.15.19-.1.07-.1.11-.27.06h-.26l-1.14.3-1.07.41-.62.24h-.25-.07l-.32-.21-.39-.24v.09.08l.08.06.09.1v.15.15h.23.23.08.25l.39.1v.17.12.08.09l-.12-.1-.43-.15-.42-.09-.14-.09-.15-.13-.08-.42-.19-.35h-.51l-.56-.36-.22-.33h-.25l-.24-.08h-.39l-.36.31-.16.16-.23.15-.11.14-.59.06-.18.08-.44.38-.12.06-.55-.17h-.34-.12l-.07-.17.37-.27.1-.25-.1-.26h-.1l-.42.15-.69-.37-.28.08-.08-.08v-.1l-.53.1.14-.1.16-.18v-.23l-.13-.17-.17-.16-.28-.07-.06-.26v-.1l-.08-.09-.08-.06h-.14-.16l.09-.2.26-.23.05-.16-.05-.2v-.18l-.07-.21.14-.17.2-.13.07-.11.17-.15.18-.07.05-.07-.11-.13-.18-.17.21-.09h.17l.09.05.08-.37.17-.54.1-.11.1-.06.21.2h.15l.25-.1.19-.14.07-.17.06-.22-.08-.13-.07-.08h-.66l-.2-.09-.19-.17v-.43-.11-.47h.08l.18-.41.16-.19v-.36-.19l-.18-.3v-.14-.09l.24-.24h-.14l-.51.32-.55.1-.28.27-.48.66-.23.16-.25.07h-.49-.16l-.26.11h-.36l-.35.33-.27.35v.1.08l.15.11.22.12.25-.12h.32l.19-.43.22-.34.22-.07.27.08-.09.54v.28l-.1-.12-.14-.12h-.14l-.19.11-.29.28v.22l-.09.13-.12-.05-.1-.12h-.15l-.23-.14h-.1-.12l-.07.75v.48l.15.41v.22l-.09.78.39.24.51.24.06.23v.45h-.18l.12.23v.16.21.29l.2.25.17.26.14.14v.3l-.22.1-.34.08v.11.15h.17.08.14l.1.1v.66.09l.1.1.17.07h.28l.17.08.6.66.28.12h-.2l-.17-.09-.34-.59-.21-.11h-.58l-.52-.1-.08.1-.08.14v.28l.06.29-.08.42v-.26l-.08-.09-.22-.14h-.06v.19l-.06.17h-.08l-.18-.09.11-.19-.43-.25h-.71-.64-.16l-.18.25-.06.2v.26l.18.13.06.16h-.26l-.17-.07-.1-.12-.18-.16h-.47l-.4.05h-.54l-.35.08-.64.27-.16.14-.16.3-.57.31-.33.13-.09-.05h-.13l-.1.17-.07.16-.21.92-.15.34-.2.28-.31.34-.14.12h-.09l-.11.17-.09.2-.06.09.35.34v.1h.05-.33l.14.11.18.08h.12l.06.08h-.13-.06l-.47-.3-.27-.05h-.36-.09l-.1.09.14.13.12.08h.2l.24.1.34-.08.25.1h.16l-.21.06-.19-.09-.24.11h-.31l-.23-.07h-.28-.14l-.23.06-.5.22-.81.41-.14.08-1 .18-.27.14-.18.12-.11.16-.06.2-.05 1.09.08.1h-.09l-.06.07-.2.28-.3.22-.6.21-.57.12-.8.38-.11.25v.11.11l.28.11h.3v.06l-.53.11-.27.17-.28.09-.67-.14h-.46l-.36-.08h-.33l-.11-.14-.07-.12-.06-.25v-.2l-.2-.07-.42.1h-.22-.28v.13.09l.1.25.23.43.2.26v1l.16.25.2.11h-.12-.72v-.09l-.1-.07-.13.15v.13l-.14-.15h-.86l-.45.27-.19-.16-.36-.21-.43-.12-.45.07-.14.11-.31.13h-.26-.38l-.88.21-.35.19-.08.21v.1l.06.11h.25.11.25.05.12l.11.1h-.3-.18-.06-.09l.07.1h.06.14l.2.11-.09.1-.26.08h-.21l-.1.11.47.17.1.22.12.13h.16l.29-.09h.31l.74.2.11.1h.09.13l.12.07h.08.12l.17.17.19.05h.19.14l.1.06-.12.15v.06h.19.21.14l.1.1-.09.13-.1.08v.16h.13.15l.7-.07.43.22h-.14l-.19-.09h-.2-.15l-.07.09-.09.14.1.09h.11l.12.18-.13.27v.13l.06.13.36.54.25.4.74.39h.14.14.17v.13.11l.06.65.07.28v.08.07l-.16-.06h-.17v.13.07l.54.34.17.16.1.19.18.68.11.09.06.12-.16-.11-.11-.1-.14-.51-.11-.16-.21-.17-.26-.18-.13.44-.07.42-.11 1.13v-.09l.09-.09.14.17-.17.07-.14.23-.19 1.23-.26 1-.27.28-.3.07h-.07l-.3.12h-.38-.26l-.51-.19-.5-.1h-.13l-.18.15-.7-.18-.19-.13h-.15l-.32.09-.21-.05-.24.08-.55.11h-.39l-1.09-.19-.39-.12-.65-.07-.09.02-.44.12h-.26-.47-.27-.52l-.3.07-.38-.09-.25-.23-.2-.1h-.17l-.19-.09-.29.13h-.28l-.25.15-.22.11-.06.09.07.1v.13l-.19.09h-.13l-.21.11h-.24-.39l-.28.21-.13.06-.16.09-.1.31v.13l.1.15.1.1.16.12h.21v.07l-.18.24v.15h.09l.33-.12v.09.08.21l.06.08h.09l-.07.12h-.08v.11h.16.07l-.15.14-.21.24v.35h.05.14l-.19.25v.15l.07.13h.17l-.1.11v.2l.12.61.12.29v.15.13.25.36l-.08.22-.08.1-.19.76v.18l.06.06v.08l-.31.64-.27.61-.19.26-.13.07-.1.12v.11.08l-.12.3v.33l-.08.23v.27h.12.1.2l.21-.06.09-.2.25-.39.16-.11h.14l-.27.18-.11.2v.22l-.08.12-.14.11h-.16l-.13.07.09.25v.2h.05.17l.33-.12h.22l.12.07.12.13h-.39l.13.32v.25l-.14.48.11.19.05.3-.05.3v.35l-.21.56-.13.29h.12l.16-.12h.2l.27-.1h.21l.64.05.37.16h.22l.63-.35h.16l.44-.06h.37.08l.12-.14v.07.11l.73.51.18.27.14-.17h.15-.08l-.13.11-.15.26.05.19.21.09v.07.08l.07.21.11.2.24.31h.15l.28.2.34.13h.14l.17-.07v-.16h.07v.05l.06-.22.19-.29.11-.1.44-.17h.48l.32-.26.13-.15h.13l1-.08h.46l.28.07.32-.1h.2.46l.22.06.22-.07.14-.13h.26.28l.21.16.15-.07.32-.36.26-.61.29-.33.59-.37h.72.22.09l.1-.07-.19-.18v.09l.12-.17v-.08l.11-.23.07-.34.17-.11.06-.25.26-.26.61-.32.35-.24.13-.14-.09-.14-.35-.14-.19-.17-.13-.2-.23-.78v-.22l.47-.78.22-.3.22-.2.38-.47.43-.65h.06.06.11l.26-.13.06-.08-.18-.18h-.15l.19-.15.4-.38.33-.07.67-.22 1-.2.12-.08.3-.32 1.3-.67.26-.21.19-.18v-.31-.07h-.1v-.06-.21h.1l.16-.06v-.13h-.09v-.14-.07l-.2-.29-.09-.56v-.17l.21-.37.18-.26 1-.6.14-.13.09-.1.27-.07h.07l.09.13.12.06h.28.06l.41.14h.16.14v-.05h.06.06.07.12.15v.08.09h.09.14.23l.16.26.49.12.26.18h.41l.16.07.35-.15.36-.07.14-.07.16-.14.06-.17.05-.08.28-.15.68-.59.15-.08.21-.08h.12.1l.44-.09.51-.16.14-.1.4-.49.48-.48.4-.18h.3l.5.19h.17l.83.5.59.18.26.17.1.21.14.77.24.32.14.38v.14.17.22h.14.1.12v.08.13l.07.09.25.15.43.45v.18h-.08l-.07.06.07.06h.09.11.09l.38.14.26.17.31.46.5.31.24.29.8.76.4.14.33.24v.07l.09.05.18-.07h.11.22l.36.1.21-.05h.12l.24.23.35.58v.13h.06v-.08h.08.3l.22.11.06.07-.22.29h.08l.14-.07h.18.11l.28-.06.14.09.13.16.07.19.07.2-.1.15v.1.06l.64.37h.18.36l.2.13.13.27.17.53.32.59.09.47.06.25.19.18v.39h-.25l-.17.06-.08.08-.09.13v.28l-.16.39-.23.09-.1.19v.3l.15.2h.62l.1-.17.06-.14.26-.35.49-.35v-.18-.48l.11-.18.26-.2.36-.11h.28l.14-.17-.1-.3v-.54l-.22-.22-.32-.21-.42-.13-.15-.24v-.24l.26-.61.26-.41.22-.29.19-.13h.28.07l.06.11v.09l.25.13h.15l.73.08.39.75.27.18.23.07.09-.18.05-.18.12-.26v-.25l-.25-.33-.54-.43-.16-.2-.89-.41-.37-.29-.32-.2-1-.37-1-.45-.21-.17v-.24l.23-.18.21-.13.07-.12v-.19l-.19-.07h-.18-1-.44l-.56-.27-.61-.42-.66-.59-.32-.41-.16-.37-.23-.74-.2-.47-.24-.41-.11-.09-.4-.17-.72-.53-.4-.17-.38-.32-.17-.2-.17-.47-.11-.67.06-.25h.08l.12.08.15-.1.06-.13v-.16l-.25-.16-.19-.39-.12-.08v-.29-.18l.15-.1.26-.13h.08l-.19.18h.12l.21-.09.28-.1.26-.16.24-.06.17-.14.07-.11.09-.06.48.14.17-.14h.44l.29.33-.11.1-.16.12h-.11l-.11.08.16.58v.15.13l.21.27.22.35h.07.12l.15-.21.09-.16.27-.38.06-.28.08-.13h.14l.3.11.15.17.42.32.1.26v.35.25l.17.24.53.5.21.13.17.13h-.19-.16-.1-.09-.11l.12.19.58.6.29.23.31.17.22.18v.11.08l.08.12h.11.16l.25-.06h.24l.38.18.56.16.43.41.37.22.39.34.09.06.15.09.1.11-.94-.4h-.17-.15l.4.1.6.3.45.09.63.36.32.24.34.21h.07.07.1l.48.28.43.43.12.25.29.17h.23l.21.15v.33.1l-.09.07-.11.31v.23.19.29.38l-.14.31-.09.28v.1l.18.33v.14.07h-.08-.07-.07l.07.13.07.14.16.16.69.37.21.37v.16.2l.18.15.17.2.2.48.32.16.19.23.22.18v.07h.13l.26-.06h.21.06.1v.11.12l-.08.06h-.07l-.33-.12h-.22v.11.15l.18.07.22.26.13.33.1.25.13.09.22-.06v-.11-.14h.05l.06.14.16.19h.17.16.27.16l.3-.1.49.13h.17l.13-.06.06-.11.31.2.31.12.06.06.09.06.19.07h.11.08.11.1l.06.1v.08l-.06.05h-.31l-.12.05v.1.1h-.14-.08l-.17-.14-.29-.14-.58-.16-.54-.29h-.24l-.14.11-.17.22h-.2l-.18-.09h-.09l-.18.36-.3.24v.06.08h.13l.15.12.08.22.16.07.29.21.2.33v.17l-.22.23v.25l.29.47.29.27.08-.14v-.19-.21l.1-.06h.13l.1.13.06.14h.12l.27.38v.4l.1.08.11.07v-.26l.22-.45h.2.2l.1.22.28.33.14.09.09.08h.1l-.09-.21-.13-.2.06-.28v-.17l-.12-.35-.27-.58-.16-.22-.07-.32.09-.09.14.11h.17l.14.08.15.09v.16l.11.06h.08l.09-.06.44-.13v-.05l-.06-.08-.09-.09v-.08h-.09-.16-.12l-.09-.21v-.17l-.12-.12-.09-.05v-.06h.07l.2-.1.42-.07.16-.09h.06l.08.05.29.27.27.23.17.22h.09l.07-.07v-.23-.3-.4-.18l-.07-.11-.24-.11-.28-.06-.22-.29-.37-.08-.22-.29h-.21l-.22-.16-.46-.12-.16-.11h-.1-.12.05.15.23l.24-.1.26-.2h-.19l-.05-.18-.1-.13-.09-.19.15-.1.14-.06.31.16v.1l-.1.17.07.07h.12l.2-.16-.07-.25-.1-.15-.25-.29-.23-.15-.11-.15-.15-.37-.46-.52v-.18l.07-.34.07-.2v-.14-.15l.11.35.13-.09h.21l-.06.15-.08.07.09.2.37.21.4.2v.27l.13.22.43.15h.06l-.38-.38-.06-.09-.09-.24.08-.09.44.09.32.44.21.13.06-.07v-.06l-.07-.2-.09-.09-.18-.11-.19-.18v-.09l.17-.09h.17l.27.13h.19l.14.14.2.15-.09-.21-.15-.19-.34-.18h-.18-.12l-.07-.14.09-.13-.19-.19-.06-.11v-.15h.34.26l.28-.14.28-.28.17-.07h.15l.23.15h.21l.4-.25.18-.06.27.14h.14l.32.12.67.1.29.16v.09l.06.1.07.16h.22.25.41.39l-.13.18-.51.21-.17.13-.19.16v.25l-.06.13v.15h.13l.1-.06.26-.3.57-.52.37-.15.53-.27.32-.34.13-.29.46-.09h.34l.29-.15h.17.22l.91.22.33-.08.07-.11.07-.18v-.2h-.2l-1.12-.48-.28-.2-.27-.39-.12-.28v-.25l-.06-.17-.3-.36-.21-.32-.13-.12-.29-.15.51-.53h.12l.13-.08v-.61l.06-.37.1-.1.1-.09.18-.28.35-.07.27.08.18-.25v-.55-.12l.13-.43v-.71l.1-.18.28-.3.07-.15h-.15v-.09l.06-.08v-.18-.08l.1-.13-.06-.25.07-.11.09-.06h.21l-.08.11v.13.16l-.06.1 1-.2.08-.17.06-.14.08-.4v-.09-.16-.19l-.1-.46-.13-.13v-.19-.1l.1-.07h.26.15l.19-.1.33-.12h.07l.51-.52.27-.38v-.09l.09-.14.1-.25v-.19l.64-.16h.34.15l.18-.26.12-.09-.06.26.24.05h.22.18l.05-.17v-.48l-.08-.18-.06-.2-.14-.29.14.13v.14l.14.27v.3.16l.06.18.13.15.15.11.42.07.42-.11-.24.17-.11.1-.43-.08h-.47l-.3-.08h-.3l.12.1.17.09h.27l.28.08v.1h-.14-.14l-.11.05.09.1h.18l.2.06.55.31.27.11.6-.12h.27l.48-.12.12.12.31.16h.13.17l.08.14.06.2-.37.26-.35.16h-.26l-.58.36-.6.44.08.12.11.06.3-.08h.28l.5.35.13.06h.25l.3.21.09.26v.17l-.16.52-.07.14v.1l.38.28.19.08h.28l.31-.08.39-.26.35-.42.46-.2h.31.38l.12-.21.38-.19.21-.28h.18.21l.15.07.08.07.12.08.35-.06h.32l.31-.09.06-.2v-.18l.11-.17.12-.21-.28-.09-.25-.05h.36l-.17.06-.12.12-.33-.06h-.16l-.36.18h-.18l-.16-.08-.21-.22-.44-.59-.22-.41-.09-.25v-.2-.27l.23-.12.17-.06.31-.41.12.17v.13.08l-.11.11-.38.29h.08.14l.13-.1.1-.08.27-.42.79-.56.37-.1.32.05h.16l.28-.18.24-.07h.24l.2.12.25-.26.22-.12.32-.1h.22l.38-.37h.53.65.07l.5-.2.18-.15h.34l-.05.06-.17.06-.17.14h.22l.48-.08.18-.22h.32l.09.17.09.22v.08.06h-.27l-.61.28-.31.07-.36.14.09.19v.16h-.29l-.21-.05h-.13l-.36.17h-.19-.18l.08.24.19.29.12.06h.19l.44.36.33.35h-.17-.17-.24l-.09.21-.1.16v-.08-.11l-.11-.07-.15.11-.18.47-.32.33-.1.21v.15h.07v.13l-.05.12-.71.15-.09.09-.21-.07-.23-.18-.21-.1h-.14l-.13.08.07.06h.1l.24.11-.13.09-.47.15v.08.06l.54.13.49.22.15.16.12.27.11.12.16.09.14.06h.25l.27-.09.62.64.24.1.61.13.15.07 1.14.89.35.38.66.58.2.12.08-.14.11-.16h.13l.35.06.33.07h.24l.29.13.26.14.26.09.52.1.19.13.22.13.87.06h.08.06.29.26l.28.16h.17.19l.24.08.19.09v.1l.17.13.48.21.39.12.12.08.3.14v.06l-.09.1v.09h.12.25l.09-.06h.18l.18-.08.24-.11.33-.1h.13.13.09l.14.21.15-.29.13.06.24.08h.17l.09.06.25.27h.41.17.09l-.07.26-.1.28v.06l.16.11.23.11.12.08.08.08.17.06h.21.1l.1.07.27.12.2.05v.13h.08l.14-.05h.11l.14.15.2.17.1.1v.08l.1.07.15.09.12.13.1.31.11.08.37.11h.14.37.13l.19-.27.17-.27.16-.06.29-.14.18-.12.07-.14.16-.26.1-.14-.17-.14h-.1l-.08-.07-.15-.28-.14-.22-.27-.39-.48-.58-.1-.07-.08-.08v-.29l-.14-.21-.2-.15-.07-.07-.05-.08.09-.41v-.12-.25-.29l.11-.4.11-.27v-.18l-.16.11-.18.64-.07-.51-.12-.49-.1-.25-.15-.2-.2-.16-.18-.19-.2-.1-.31-.07v-.07-.12-.13l.07-.22.16-.14.22-.15v-.1-.12l.07.09h.08l.06-.2.09-.15.11-.13.14-.28.1-.16.07-.18v-.29h.08l.07-.05v-.08-.09-.17l-.11-.18h.05l.12.09.11.11v-.16l.09-.07h.12.12l.42-.13h.19l.19-.09.42-.37h.1.09l.09.07h.1.08v-.06l-.08-.12v-.13-.13h.11.13l.5-.21.06-.09v-.12h.23v-.1h-.09l-.42-.22-.34-.15-.31-.14-.08-.07-.06-.1v-.12-.08h.08.09.07l.09.05.15.06h.2.13v-.12l-.23-.42-.22-.34-.21-.38-.09-.14-.26-.32-.26-.31-.2-.28-.11-.09h-.32l-.63-.07h-.22l-.17.08-.18.07-.17-.12-.13-.2-.07-.17v-.17-.26l-.1-.25-.12-.12-.28-.09-.36-.22-.09-.38.17-.55.28-.4.2-.16.1-.15v-.12-.12l-.12-.13-.19-.12-.09-.15v-.33l.12-.47.19-.38.26-.21.22-.15.08-.14v-.38l.06-.14.1-.11.09-.1.14-.11h.18l.2.08.27.24.39.46.23.3.08.09.2.18.19.07.31-.11.29-.13.1-.08.06-.13v-.21l-.06-.14-.07-.17-.09-.31-.06-.48-.08-.15h.06.15.13l.2-.11.27-.2.49-.31.11-.2.08-.23.14-.14h.31l.29-.07.21-.16.32-.15.26-.08.12-.08.08-.12.3-.34.24-.2.21-.22.07-.13h.17l.25.1.27.08.2.13v.14.1l.08.06h.09.15.25l.31-.18.43-.29.4-.09.2.07.18.21.13.21.14.07h.12.17.73l.15.07h.25l.35-.06h.17l.21.09.16.12.28.36.17.09.33.13.16.12.18.18.1.11.2.2.23.33v.26l.05.22.09.11h.07.07l.08-.1v-.17-.29l-.06-.24-.07-.08v-.09l.05-.11h.13.16l.26.13.27.18.34.31.31.19.34.16h.26.21l.25-.13.22-.15.1-.15.08-.17.34-.22.3-.21h.14l.1.06.32-.13h.11.3l.31.07.25.22.25.14h.21l.18-.08.12-.13.09-.16.12-.11.39.05h.32.31l.35.23.22.25.28.33.13.1h.19.15l.2.05.52.07h.08.05l-.05.18h.05l.43-.12.11-.09.14-.27.13-.27.09-.1h.1.1l.14.16.19.16.25.06h.16.24l.56-.08.53-.2.31-.21.14-.32.09-.36.13-.22-.05-.24-.27-.22-.09-.07-.65-.12v-.09l-.64-.2-.3-.09-.09-.13-.06-.17-.2-.15-.39-.14-.07-.11.06-.1.31-.12.36-.26h.14.32l.29-.2.21-.12.1-.14v-.15l-.29-.44-.09-.26.05-.18.17-.18.1-.11.11-.18.08-.1h.3.36l.25.05h.34.32.16.11l.09-.1v-.13l-.13-.13-.46-.17-.2-.13h-.15-.26l-.24-.09h-.21l-.06-.13v-.17l.08-.11h.15.17l.18-.07h.05v-.05-.08l-.08-.07h-.2-.14-.17l-.27-.08-.23-.1v-.09l.16-.14.07-.11v-.33l.06-.2.16-.15.19-.07.5.14.61.12h.11v-.06l.07-.06h.85l.17-.08.08-.06.83-.09.09-.09.12-.08h.19.23l.31-.1.22-.06h.24l.29-.08h.06v-.06l.25-.12.49-.09.12.06h.23.3l.22-.07.12.07.18.07.13-.06.16-.24.08-.19.15-.09h.12l.1-.08.08-.07h.47l.39-.19.07.08h.5l.62-.12.37-.06.64-.13.3-.1.42-.07h.39l.25-.18h.21.25.15l.1-.07.07-.12v-.17-.11l.17-.07h.26.16l.35-.27.24-.13.25-.08h.5.46l.46.13.24.16.21.12h.2.18.2l.15-.08.08-.1.13-.08.47-.06.1.12.22.34.15.46.25.61.11.3v.15.15.23l-.18.27.07.12.46.14.63-.05.39-.11h.22l.11-.07.08-.2h.15l.15.14.12.23.1.15v.15.23h.08l.16-.08.1-.06v-.06-.09-.09-.08h.07.22.32l.39.32.2.06h.09.19l.24-.09.15-.12.06-.06h.09l.08.06v.11l-.07.17-.23.16-.29.15-.18.26v.28l.07.14.07.09v.13h.06.12l.32-.28.17-.06.23-.05h.39l.27.09.12.13.14.1h.1v-.12-.14-.11l.43-.27.28-.18h.1.19.12l.31-.17.29-.2v-.13-.04h.07.41.07l.35-.14.48-.23.24-.13.43-.07h.08l.14-.1.27-.12h.14l-.09.31-.16.36-.09.09h-.43v.09l.07-.06.05.09.05.07.11.13.46.31.58.39.63.43.44.3.17.16.12.12.32.44.31.42.51.73.46.71.51.77.29.44.59.93.16.29.3.54.27.5.24.44h.15v-.12-.08h.08l.17-.13h.1.14l.14-.07.06-.12v-.24-.11l.05-.11h.08.11.1l.08-.13h.16.15.12l.1.09.06.13h.3v.11l-.06.18-.06.14v.12h.1.36.13v.11l.05.1v.11.13l.06.08h.32l.22-.06h.33l.31.14h.21l.22-.06h.31l.22-.11.15-.13v-.11l.08-.06h.48l.13-.15.13-.07h.21.16l.41.15.26.12.26.17.16.1.11.24.18.18.14.21v.2l.11.36.13.12h.14.18.2l.44.27h.15l.13.06v.13.14.14l.14.18.11.17.14.21v.12h.11.15.23l.72.12h.09l.08.13h.45.17l.11-.12.09-.1.24-.12.19-.17.17-.15h.12l.1.07v.13l-.12.1-.1.11v.11h.16l.18.17.26.4.09.09.13.08h.15l.16.06.11.16.05.15h.18.11l.07-.08h.12.17.17.32.1l.08-.08.16-.09v-.1-.2l.1-.17h.27.11.11.17.16.1.12.15l.06-.08v-.11h.07l.09.08v.05h.07l.19-.07.13-.07v-.16l.08-.07h.1.18l.15-.12.2-.1h.14v-.08l-.06-.18v-.19l.18-.11h.39l.19-.08.05-.2.09-.06h.09.23l.16-.08h.1l.28-.11h.26l.11-.09.09-.11h.14l.15-.1.19-.13h.08l.32-.07h.12.08.14v-.13l.14-.1h.14l.07-.1.14-.12.18-.07h.28.28.16l.14-.19v-.09-.09h.11l.13.15.11.1.17.09.09.1h.1l.11-.07.08-.17h.14.16v.09.08l.08.14.17.12h.22.09.22.21.23.07.25.36.16.33l.06.11.06.26.06.25v.19l.09.11h.1l.08.08.12.11.1.16h.11.08.39l.16.08.06.12.12.06h.1.41l.11.06h.15l.08-.08.26-.05.15-.12h.12l.09.06.07.07h.1l.05-.06h.09.08l.22.07.16.12h.13.15.08l.07.06h.1.08.13l.51.07.12.13.09.06.07.1.14.08h.28l.11-.08.23-.17.09-.16h.11.13.25l.15-.12h.13l.18-.16v-.06l.09-.19.05-.11.1-.18.05-.3v-.15-.12h-.11-.14l-.12-.09-.09-.1-.06-.14-.07-.16v-.12-.09l.15-.66-.12-.14-.05-.1v-.17l.14-.28v-.13-.08-.1-.17l.08-.07.09-.18.12-.08h.15.07v-.18l.08-.14v-.09l.09-.11.53-.21.23-.26.08-.13.08-.28.08-.12h.13l.14.17h.1l.16.09.43.19.23.06h.15l.2.06.13.11.25.17h.21.37.44.12l.33.13.36.14.34.13.25.09.16.1h.14.15.2l.47.11.29.1.25.07.08.1v.2.11.27l.08.14v.18.18.18.09l.08.06.07.12v.13.08.12l.09.1h.13.12l.14.16.25.18h.16l.17.08.34.08h.23l.13.06.13.16h.22.14l.25.07h.17.15.1.19.22.19l.15-.11.18-.15.21-.07h.24l.16-.06.55-.1h.22l.17-.09.15-.08h.21l.3.08.28.07h.34l.23.09.16.08.25.07h.28.38.26l.26.16.17.13.18.26.19.13.17.11h.74.29.24l.06.06v.18.38l.05.09h.09v.13l.12.07.21.09.37.31.21.14h.17.22.94l.4.1.14.06.42.07.45.08.38.09.23-.11h.2l.19.08.19.12h.14l.22-.06.71-.33.24-.13h.17.16.12.3.18.19.27l.55-.22h.22l.38.06h.2l.2-.11.26-.12.07-.18.14-.25.28-.19.24-.16.24-.16.29-.14.28-.09.35-.25.29-.13h.14.16.32.22.13l.25.12.23.11.18.19.33.27.17.09h.12.29.24l.15-.06.24-.11.39-.14h.15l.25.08.38.14.14.1.1.13.38.21.25.11.42.16h.43l.41.18h.21.12l.58-.43.49-.37.57-.29h.42l.31-.09.21-.13.12-.21v-.3l-.08-.19-.21-.06-.05-.06.1-.07.07-.13v-.18l.12-.18.19-.17.1-.19v-.2l.11-.21.21-.2.12-.19v-.18l.1-.22.29-.38.18-.44.32-.3.51-.32.32-.31.13-.3v-.28l-.15-.23v-.24l.09-.25-.08-.18-.25-.12h-.3l-.35.06-.19-.07-.05-.22.1-.17.23-.13.37-.33.53-.51.52-.29.79-.08.63-.17.64-.17.46-.08h.08.26.42l.4-.08.36-.12h.29l.22.06h.25l.09-.05.25.09.47.27.3.12h.12l.13.07.15.18.18.1h.32l.32.19h.13l.05-.1.12-.07h.19l.28.09.37.21.23.09h.09.1l.08.09v.12.07l.09.1h.1.17l.13.17.11.09.08.07v.06.06.08.08l.05.09.21.07.07.07v.36l.07.1.14.11.05.09v.08.06h.07v.29l.11.11v.24l.08.26.26.36.09.19v.24.1l.12.06.06.09v.15l.05.08v.1.14.14l.06.07v.15.17l.18.29.33.38.2.3.07.21v.17l-.07.14v.1l.06.06v.09.1l.1.13.37.22-.15.33v.23.25l.09.17.16.11.1.1v.11l.19.12.35.13h.44l.54-.08h.33l.12.06v.08.12l.09.07h.22l.15.07.08.11h.11.12.12l.11.06h.08l.06-.07h.21l.07.16.1.09h.15l.23.19.45.55.3.19.3.06h.37l.12.21-.1.23v.18l.09.07.11.22.17.12v.1l.07.11v.21l-.14.3v.26l.22.21.12.21v.19l.06.12h.07.23l.36-.07h.27l.18.1h.42l.68-.09h.43.18l.16-.13.14-.28.13-.14h.12l.19-.09.27-.21.23-.1h.61l.19-.08.19-.18.31-.15.68-.21h.16.08.23l.2.08.19.16v.11.13.08l-.08.09-.07.14.05.11.11.24.09.18.1.2v.07l-.06.14-.18.24-.1.09-.11.09h-.19-.08-.09l-.06.09-.06.06-.11.12v.1l.05.15v.15l-.12.14-.09.22v.06l-.05.16v.06.34l-.12.23-.17.27v.16.15l-.05.07v.06.14l-.05.06-.16.09-.09.11v.16.14l-.07.12-.07.09h-.11-.07v.16.12.12.13l-.05.11-.15.07h-.09-.08l-.15.12-.14.4v.23.21l-.19.13-.15.1h-.08-.1l-.13.25-.24.53-.28.23-.18.19-.17-.09-.06-.09-.13-.1-.19-.16v-.25-.27l-.17-.24v-.12-.2h-.09l-.13-.07-.1-.12h-.11l-.1.14-.16.09-.08.16-.06.12-.17.16-.08.07-.33.11h-.08-.27-.09l-.1.1v.1l.07.11.1.21.05.15.07.29.24.9-.07.16-.08.68v.12.33h.05.06v.08.13.09l-.05.18-.06.26-.08.1-.05.08v.19.12h-.12l-.12.07h-.14-.12-.15l-.27.05-.16.08h-.07l-.05.06v.06h.16l.1.12v.12l-.1.07v.14l.12.13.06.1v.1l.06.06.08-.06.19-.44-.23-.3h.08l.36.09h.14.25l.17-.16.08-.17.19-.11.23-.39.38-.47.14-.12.27-.1h.07.07l-.22.24-.06.18h.15l.15-.05.39-.28.14-.16v.17l-.05.8.33-.06.17.09h.25l.29.18h.11.14l.11.19.19.06.32-.15.48-.14h.23l.56-.26.27-.22 1-.56.41-.3.4-.23.24-.36.42-.34v-.14l.08-.17.64-.91.21-.16.29-.11.12-.17.08-.24.39-.35.58.36.24-.23.13-.21.64-.52.52-.57.48-.41.16-.25.63-.75.19-.5.23-.19.11-.47.2-.34.05-.2.11-.19.77-.77.31-.59.38-.6.28-.21.29-.27.16-.21.44-.34.21-.24.11-.24.1-.6.29-.46-.09-.07v-.14-.16-.09-.15l.07-.17.06-.1.16-.64v-.4l-.08-.15v-.21l.23-.3.05-.05v-.07l-.12-.06h-.05l-.11-1 .08-.62.23-.46.05-.16v-.44l.28-.45.18-.51.37-.27.24-.33.2-.15v-.34l.19-.3-.14-.14-.15-.09-.3-.24-.07-.17.21-.29v-.25-.48l-.31-.14-.4-.36-.06-.12h.25l.54.19.28-.2.13-.22-.05-.28-.29-.1-.38-.31v-.1l-.6-.26-.63-.55-.2-.48-.1-.26-.6-.39-.12-.13-.16-.06-.72.22-.4-.06-.77-.26-.07.05.11.19v.2.26.45l-.07.32-.28.44-.11.08h-.25-.13l.08-.18.22-.21.3-.36v-.26h-.08-.06l-.22.13-.23.46-.57.31-.39.11-.76.06h-.14l-.06-.08.17-.14.38-.19.24-.4.26-.1.09-.11-.4-.06-.27-.15-.25-.18.12-.06h.08l.12-.07.29-.32h-.27-.27l-.44.26-.09.14.15.18.15.08-.19.52-.25-.07h-.25l-.15.15-.16-.06-.07-.32.09-.33.08-.75.09-.25v-.29l-.05-.15h-.16-.25-.63l-.72.08-.78-.28h-.2l-.13-.06-.09-.29.05-.16.05-.1.52-.44.39-.12.79-.5.33-.41.2-.18.62-.3.41-.27.33-.25.36-.22.35-.36.22-.07.71-.77.13-.18.07-.24.07-.1.83-.9.57-.32.4-.47.49-.18.11-.07.21-.27.33-.19.1-.1.27-.37.82-.34.09-.14.36-.93.19-.25.37-.31.67-.3.48-.33.28-.27.51-.69.56-.42.47-.24 1.14-.36.62.07.64-.18h.43l.67.09 2-.1.37.11.14.12.19.36.22.08.42-.14.32-.58.17-.07.5.23h.44l.88.27.32-.06.35-.27.71-.07.44.42h.44l.35-.07.09-.24-.14-.08-.27.07-.07-.21.17-.23.24.16h.38.14l-.06-.1-.09-.09-.11-.2.42-.27.25-.09h.4l1.05.33h.23l.24.13.39.09-.24.09-.1.09h.24l.22.11h.17.08l.09-.13.13-.14h.09.26l.33.06.26.1.58.56.27.11h.3.12l.17.15-.5.18h-.48-.43l-.71.22.38.57h.7l.72-.12.16-.28.29-.1h.15l.33.2.45.08h.12l.36-.39h.22.15l.16-.34h.62l.37.3.22.11.44-.09.24-.22.15-.08.46.21.22-.13h.36.27v-.22-.24l-.36-.25-.73-.25-.41.16h-.16-.11l-.12-.13.11-.2.11-.16v-.2l.05-.28.18-.12h.09l.26-.59.73-.79.85-.49.54-.37.25-.27.38-.61.54-.45.25-.15.28-.19.09-.59.21-.14.19-.1.35-.32.54-.2.18-.15h.62l.5.12h.15l.34-.18h.4l.52-.11.47-.21h.21l.19.05.24.3.14.08.1.18.32-.11.86-.42h.1.13v.16.12l-.13.42-.16.32-.43.61-.09.09.06.16.06.3-.21.33-.08.16h.17l.22-.19.34-.11h.18l.18.05-.28.55-.05.29v.11.15l.21-.09.15-.11.21-.09h.53l.28-.39.23-.2 2.14-1.64.38-.35h.21l.19.06h.17v-.12h.06.2l.12.3.13.16h.1l.07-.05.1-.11.11-.1.11-.16-.09-.1-.37-.16v-.29l.21-.45v-.3l.09-.31.09-.15.08-.07.09-.11-.11-.23.08-.17.08-.11 1.72-.42h.31l.27.09.42.3.49-.1.66.06v.14h-.26-.12v.12.09l-.16-.11-.44-.06-.4-.12h-.14l-.58.36-.15.16-.25.71v.49l-.09.47-.25.2-.09.24-.06.27.32.12v.09.13l-.21.29-.51.37-.06.08-.07.16.3.31-.24.11-.22.08-.21.14h-.71l-.48.35-.83.34-.37.2-.12.13-.3.52-.17.23-.56.35-.43.5-.68.61-.27.07-.3.15-.37.42-.94.74-.48.88-.25.3-.27.23-.18.25-.33.26-.65.39-.44.32-.24.21-.09.21h-.12l-.44.11-.57-.09-.4.59-.44.06-.43-.14-.21.07-.08.06-.07.09.2.19.09.16v.15.26l-.23.47-.23.37-.37.35-.86.63-.08.08-.08.15-.49 1.65-.14.73-.16 1.16v.39l.11.86.16.89.37 1.52.08.47.28 1.87v.35l.08.3.14.3.25.29v.36l.21 1.13v1.09.23.17l.23.21.08.26v.18l.05.2.18-.1.66-.5.54-.49.08-.17.18-.14.36-.17.52-.51.43-.7.24-.53.06-.2v-.19-.42l.09-.15.42-.46-.09-.12-.23-.09.07-.19h.17l.14.08.08.2.12.07.38-.35.35-.17.83-.31h.35l.33.27h.14v-.36l-.2-.27v-.17l.1-.27-.07-.17-.08-.13-.06-.28.15-.58.16-.31.12-.15.4-.25.43-.37.47-.28.31-.1.36-.05.31.2h.61.19l.45-.4.26-.17-.05-.34-.16-.29-.32-.37-.07-.17-.1-.4v-.41l.09-.41.28-.49.3-.65.11-.1.35-.16.24-.12.12-.07-.07-.36.19-.15.15-.1h.39l.12-.08h.18l-.12.19-.16.13-.33.19-.16.26.4.43.24.09h.14l.27-.24.13-.1.14-.16-.08-.56-.09-.31v-.33l-.17-.1h-.22-.23l-.14-.09-.08-.15v-.17l.05-.39v-.21l-.09-.38v-.11-.19l.33-.32.29-.24.14-.19.05-.14v-.27l-.15-.13-.79-.29h-.12l-.25.12-.1.37-.14.13v-.07-.09l-.4-.14-.19-.12-.11-.12-.07-.17-.07-.26.16-.53.17-.47.58-.72.36-.24.38-.39.16-.06.07-.07.06-.09-.12-.26.07-.06h.06.14l.35-.47v-.6l.1-.52.08-.21.09-.15.15-.14.15-.08.22-.18.1-.14h.07.24l.2.05.22.1v.24l.25-.21.24-.24h.12.15l.27.18.21.34.14.1h.18.12l.11-.24v-.42l.2-.07h.17l.24-.2.31-.09.67-.33.45-.35h.32l-.08.2v.19l-.12.47-.11.25-.07.3v.16l.07.2h.16.11l.22-.21 1-1 .49-.28.74-.18.22-.11.73-.18h.61l.39.08h.21l.81-.09.09.11.64.33.37.48h.07l.06.09v.2l.06.12.1.11.32.22.37.06.08-.12v-.11l.17-.59.14-.23v-.15-.11l.35-.18.28-.07 1-.57.44-.33h.19l.16-.07.15-.1.13-.05.27-.23.34-.18-.06-.16.07-.14h.18.17l.21-.17v-.13l.08-.06h.11.14.08l-.13-.18-.06-.17.09-.1.37.18h.15l.48-.43.43-.45.37.1.59-.33.27-.06h.43l.18-.13.19-.23h.16l.73-.28.14-.19.19-.06h.14l.32-.16 1.33-.47.2-.18.5-.28.38-.09.47-.07.05-.09-.33-.1-.08-.09v-.1l.05-.09.06-.16h.13l.15.12h.16l.08-.1h.07v.13l-.08.15v.12.13h.11.58l.66.1 1.76.56.15.09h.14v-.22l.08-.21.2-.12.36-.3.17-.22v-.25l.04-.5-.24-.06-.15-.16-.08-.2.13-.15.14-.06v-.2l-.1-.13-.57-.27-.2-.18v-.17l-.23-.41v.09.2l-.08.14h-.12v-.11l.07-.24-.1-.11h-.35l-.05-.09.35-.13h.1.1l-.08-.52-.08-.37h-.21l-.16-.11v-.23-.11l-.18-.4-.12-.16-.16-.15-.12.17-.06.22h-.16-.17l-.5-.25-.47-.42v-.39l.11-.49-.07-.08h-.08l-.63.16-.38.26h-.21l-.42-.18-.68.3.15-.17.12-.07.12-.12-.09-.24-.1-.18-.15-.13-.21-.06-.2.12-.17.12-.33.13-.65.11h-.43l-.75.2h-.27l1-.28h.55l.72-.18.52-.36.69.32h.24.51l.44.19h.15l.14-.18-.19-.25-.16-.16h-.18-.55l-.36-.05-.21-.07.14-.07.39.1.48-.13.55.2.14.19.16.06.45.47.32.18 1 .14.43.2.33-.08.85-.45.55-.13.38-.3.33-.34.32-.1.55-.36.13-.18.21-.43.13-.18.19-.22v-.37-.19l-.15-.15-.36-.22-.17-.14-.11-.3v-.36l.08-.27.11-.24.12.17h.36l.18-.07v-.17-.21l.09-.06h.18v-.13l.06-.06.07.09v.35l.14.09.21.07h.09l.09-.05.12-.11.26-.36.16-.15v.27l-.1.36-.05.1-.15.13-.07.27v.07l-.2-.07h-.16l.12.29.16.22.21.22.22.12h.06.05v.13l-.05.32v.17l.18.13h.19 1.14.39l.58-.3h.22.25l.7.17.85.23.31.36.13.37.05.38-.06.16v.13l.26.2.36.24h.07l.08.1h.09.26l.2-.05h.2l.39.11.48.18.47.24.21.18.38.39.2.11.31.14h.12.11l.24-.19.15-.15.13-.19v.16.14l-.12.09v.17l.18.19h.22.28l.09-.09.08-.12-.06-.42h.09l.21.08.06.11v.15h.09.54v-.05-.13l-.08-.12-.1-.09-.24-.1-.24-.08h-.2-.09v-.11l-.06-.12v-.08l.17-.09v-.09l-.18-.11h-.19l-.16.06v-.09l.13-.09h.19.19l.38-.08.36-.17.17-.11.17-.14v-.25l-.11-.23-.18-.06h-.19-.17l-.16-.06.65-.08.08-.08.11-.38v-.09h-.14-.15l.05-.08.07-.06-.38-.36-.42-.21h.12.21l.32.06.21.16.07.11h.09.2l.32.07v.11h.07.22l.6-.07h.2l.27.07h.09.12l.09-.12-.15-.24-.31-.22-.19-.16-.09-.13h.06.08l.27.21.21.13.22.09.19.07.43.06.2-.11v-.16-.35-.13l.26-.19.45-.25.29-.08h.1l.11.08h.11l.19-.18zm-44.21 31.6-.14-.14-.29-.42v-.2l.09-.18h-.12l-.53-.07-.18.12h-.15l.45.27.14.14v.15l.07.12.21.25.18.18.1.07h.16l.1.15.23.19v-.35l-.13-.18zm-3.55-11.39h-.1l-.59.36-.82.23v.08.12l-.1.36-.28.43-.28.17v.09.06l.31-.26.6-.38.6-.26.62-.13.09-.23-.06-.39zm-26.57 32.82-.64.42-.31.34-.24.08-.41.57h.17l.28-.12.36-.33.13-.09.19-.06.26-.19.08-.19.59-.45h-.38zm-259-23.47h-.06-.33-.13l.06.2h.11l.09.07v.09.08l.11.18v.36l.21.32h.18.2l.33.07.08.23v.15l.07.17v.15l.23.37.35-.11v-.24-.18-.24-.3l.43-.13.17-.13v-.26l-.21-.07-.11-.14.06-.19.14-.13h.16.19.07l.05-.08v-.26l-.08-.35v-.11l.13-.19-.06-.19h-.1l-.18-.06h-.2-.19l-.33.18-.33.22.09.08v.11.18h-.07v.09l-.07.2h-.07l-.17-.07v-.27-.2l-.13-.13h-.29v.1.07l-.26.33zm-.91 1.57v-.18-.18l.06-.13-.15-.33-.09-.29-.05-.14-.22.14h-.2l-.13-.1h-.13l-.54.2h-.25v.42l.14.33.07.06v.11l.49.2.35.1h.34zm28.65 46.16h-.26l-.25.08-.1.1h-.09l-.09-.05v-.08-.3-.05h-.3l-.18.05-.33-.07h-.36l-.19-.13h-.52-.18l-.17.06h-.17-.17-.07-.07v-.08-.09h-.14l-.11-.05.14-.06-.06-.12h-.13l-.11.13h-.39l-.11-.05v-.16l-.07-.05v.11.12l-.08.07h-.08v-.08l-.07.07v.25.25l.06.08.08.05h.12.34l.2.05.88.13.22.09.23.06v.06.09.11h.1l.76-.05.75-.1h.41.41.22l.14-.06v-.11-.13-.23-.1h-.07zm-5-7.76-.11-.24-.19-.16h-.1l-.21.07-.29.18-.22.1v.05h.1l.18-.07.21.06.2.09.21.15.19.17.07.09.09.07.12.06.06.24.2.09h.24.29v.08h.08l.07.16.09.08v.12.07l.2.12.07.09h.11.05v.06h.06.06l.08-.09v-.22-.05h-.18-.2l-.15-.12-.11-.26-.06-.27v-.08-.08l-.09-.11v-.13h-.41l-.36-.17h-.09l-.21-.09zm2.58 2-.12-.16-.12.06v.13l.1.06.06.1.16.12.15.17v-.15-.08l-.06-.13v-.1zm-40-4h-.1l-.19.06-.18-.07v-.1l.06-.06v-.06h-.06l.07-.08h-.08l-.47.13-.22.12-.71.41v.09.07h.12l.08.11.14-.11.11-.06h.12l.08.07v.22h.19l.32.15.16-.07.16-.12.09-.2.11-.17.32.02.09-.16v-.14zm-31.59-64.43-.29-.15.09-.07h.06.05v-.12h-.2l-.09-.1-.06-.09h.14l.07-.05v-.13l.07-.14v-.1-.27h-.07l-.15.05-.1-.16-.18-.09-.43-.08h-.25l-.32.16.27-.25v-.08l-.06-.08v-.09-.1h-.06l-.62.11h-.13l.16-.16.12-.2v-.19-.09l-.05-.1-.08-.09h-.08l-.2.07-.22-.07-.2-.13v-.07l.16-.16.22-.33.23-.15h.17l.2-.1h-.16-.32l-.21.06-.36.25-.15.06-.35.11h-.21l-.2-.09-.1-.09v-.22l-.09-.11-.16-.12-.34-.47h-.09-.4l-.45.14-.09.1.21.53v.08l-.09.17-.26.08-.23.12h-.16l-.17-.06-.08-.08-.19-.08h-.1-.07l-.34.35-.15.2-.1.08-.13.06v.05h-.06l-.1-.09-.34-.36-.16-.09h-.51-.22v.09.11l.31.58.1.23v.17.08.05-.07l-.39-.44-.34-.24-.21-.38-.2-.2-.14-.11h-.12-.13l-.15.06-.18.12-.19.07-.35.07-.09.12-.05.16v.53.08h-.11-.2l-.09-.07-.2-.21-.23-.19-.28-.37-.14-.09-.15-.06-.16.05-.12.15v.27l.06.37v.33l-.1.3-.08.16h-.17-.11l-.19-.23h-.06-.11l-.12.07-.25.21-.08.29v.08.05h-.12l-.06.13v.26.11l-.06-.12-.12-.35-.16-.12h-.1-.1l.07-.08v-.11-.13h-.09v-.07l-.06-.08-.27-.14-.09-.13.37.08.09-.05.07-.09.03-.5v-.06l-.15-.13h-.2l.16-.07.06-.06-.41-.2-.46-.48-.2-.13v-.05l-.38-.15-.33-.27-.19-.14h-.25-.31-.3-.11l-.22.14-.1.08v.06h.27.28.25v.07h.05l.21.05.09.06h-.47-.19l-.13.06v.06l.14.12.12.07.67.25v.18.22.06h-.23l-.12.26v-.21-.1-.07l-.07-.08h-.12l-.17.17h-.1-.13-.18v-.12-.09l-.07-.07-.44-.25h-.14-.13l-.14.05v.06.07h-.09v.05l.21.13.09.08h-.1l-.46-.14v.05.08.07l.19.13.26.23h-.4-.13v.06l.11.13.13.08h.25.47.06l-.2.07-.15.1h-.27l-.54-.26h-.23-.12v.05l.08.15.09.06v.14.09l.28.24-.37.05-.33-.2h-.18-.17l-.25.26v.07h.43l.38.13.22.12.2-.05.35-.14.9-.2.41-.14.17.1.31-.06.48.09.14.17h.57l.3.14v.08l-.11.07-.45.17-.3.16-.3.2-.07.09.21.11.56.1h.11l.49-.18-.07.2-.05.09-.12.09h-.76-.35-.2-.11l-.2-.07h-.06l-.13.06-.39.11-.06-.07h-.11-.07l-.15.1h-.07-.25l-.38.1h-.32-.11l-.17.3v.1l.08.14.09.11.1.09h.11.24l.4-.16h.24l1.17.1h.47l.3.18h.11l-.16.2v.07l.07.11.06.05.17.1h.1l.33-.09.47-.26h.09.06-.16l-.47.25-.1.19v.11.06h.16l-.2.12-.08.07h.18l.57-.25h.17l.17.06h-.26l-.12.06-.1.08-.13.32-.12.24-.06.07-.13.08-.12.16-.1.09-.25.09-.6.14-.09-.05-.08-.12-.09-.08h-.09l-.07.1v.09.18l.07.27.08.12h.08.44 1.72.11l.3-.34h.17.09l-.12.09.24.15.24.1h.28v.08l.14.09h.11l.24-.16h.1l.09.12h-.06-.06v.08.06l.17.15.37.39h.46.32l.54.17.44.11 1.11.11.66-.14.15-.06-.08-.12h.06l.15.1h.11l.25-.11.13-.17v-.05h-.06v-.05l.14-.14.05-.09.33-.1 1-.18.3-.1h.36.18l.33-.15.43-.36.32-.22.43-.2.63-.24.44-.12h.44l.18-.08.25-.18.3-.1.15-.09.14-.15.08-.13v-.14h-.06v-.1l.16-.13v-.2l.16.06h.3l.17-.08.17-.13.19-.24v-.15-.14-.1l.15-.07h.23l.1-.05v-.1-.09-.08zm7.81 37.18h.12.05l.9-.21.15-.13h.27l.21-.14h.13l.11-.07v-.13-.13-.08h-.07.22.06l.06.06.15.1h.16l.2-.1.15-.17h.06l.32-.08h.08l.06-.06.05-.11.07-.09.16-.06.42-.05h.25l.15-.07.07-.21.09.21h.05l.15-.08h.15l.26.07h.23l.21-.11-.26-.24.12-.06.1-.09.24-.35v-.3l.06-.19.07-.17.11-.15.08-.15v-.42-.19l-.12-.34v-.16-.07-.27-.2l-.1-.16-.1-.44-.08-.24-.1-.11v-.15-.11l.07-.06h.14.14v-.09l-.17-.11.18.07h.19l.15-.09.11-.17v-.12l.06-.09h.22l.19-.07.09-.26h-.09-.05v-.25-.19h.1l.09.06.08.14h.08v-.15-.14l-.07-.16-.1-.12h-.29-.12l-.14.06v-.11l.21-.11.1-.08v-.16l-.28-.25-.22-.29-.09-.3-.23-.16h-.17-.29-.18l-.42.12h-.23-.12-.11l-.16.26-.13.09h-.14l-.08-.1.09-.11.22-.11.17-.15-.18-.08-.18-.1-.17-.12h-.11-.11l.12.16h-.29l-.11.09v.14l.06.13v.14.11l-.2.14-.14.06.13-.14-.08-.08.09-.08.05-.09v-.13l-.08-.07v-.12h-.07-.18v.16h-.09-.29-.09l-.25.09h-.25l-.06.1v.14l-.12.09v.14l.07.2-.18.15-.1.06v.06l-.21.06-.12.08-.09.13.57.18.6-.08-.11.16-.07.18-.11.06-.23.06h-.11l-.15.1-.13.15.1.11v.16h-.08l-.29-.08-.48-.06h-.06l-.12.15h-.09l-.31-.23h-.46-.29l-.2.08h-.21-.11-.11l-.06.11v.16l.22-.08.06.11v.17h.14v.12.11l-.07.17v.19l.31-.07h.32v.1.09l-.31.06-.29.14v.08.18l.1.06.25.07h-.29l-.23.07h-.11-.1v.1l.09.08-.07.09v.08h.17.19.19l-.15.14h.1.09.14.14.05v.12l.05.06h.08.05.61.2l.2.07-.13.11h-.06-.06l-.14.06h-.19l-.11.07-.3.37h.08v.08l-.13.19-.09.1-.42.34-.33.19h.28l.27-.11v-.05h.06l.18.07h.13.41l.14-.08.2-.22.13.11.26.08-.51.14-.51.11h-.48-.08l-.24.2-.15.06-.12.1.1.07v.21l.13.1h-.31-.1-.13-.13-.15l-.27.16-.05.1v.08h.26.55.08l-.07.11-.18.09-.19.06-.16.11-.27.26.07.18h.18l.06.07h.24l.9-.26-.28.12-.1.11h-.09l-.14.09-.27.18-.09.14h.2l.21-.09.6-.1h.1l-.32.15-.23.3h.18l.38-.12h.19zm46.36 30.46-.3.16h-.11-.1l-.09.09h-.11-.25-.36-.1l-.19.14-.24.09h-.17l-.24.06h-.44-.21l-.28.09h-.1-.1l-.35-.22h-.11-.09l-.06-.12h-.11-.25l-.19.13v.1l-.18.09h-.1l-.09-.06-.22-.26-.06.09-.07.07-.12.05-.1.07-.11.25-.1.25v.1l.13.22.21.17h.11.42l.22.13.24.06.1.06.08.09.18.13.42.2.4.26.19.07h.44l.22.12.2.16.25.37h.1.11l.3.12h.21l.21.06h.21v-.1-.1-.12-.11l.07-.09.21-.17v-.18l-.1-.09-.12-.15.11-.07-.07-.09-.01.02v-.06-.09-.17-.16l.07-.12v-.14-.15-.13l.45-.6.06-.1.12-.24.11-.1-.12-.06zm-11.57-9.69h-.06-.11-.11l-.09.06-.08.1h-.1l-.33.08-.19.13-.14.28-.09.09-.05.06h.05.07l.09.14h-.13l-.07.09v.13l.1.1.11.05v.11l-.09.11-.07.08v.07h.22v.12l-.07.15v.09l.1.06.21.08v.07l-.09.09v.09l.06.06.1.1.2.09.34.2.13-.17.14-.37.08-.11v-.12-.43-.11l.23-.35v-.07l-.06-.87v-.08l-.06-.07v-.09-.33-.13-.19-.08l-.09-.09h-.04l-.06.17v.29.1.12zm.73 4.17-.09-.14-.11-.07.06-.13h.06-.07l-.07-.05-.07-.11-.09-.1-.19-.1h-.13l-.1-.13h-.09v.12l-.11.1-.2.07-.33.35-.23.12-.23.1h-.2-.19-.1l-.12-.11v.1.22.26l.08.1.12.1.11.13.06.13v.2l.12.13v.36.11l-.09.09v.13.13l.16.05.1.12v.16.08h-.06l-.07-.06v.06.16.19.08.09.42.18l.13.21.12.18.08.14.1.08h.13.15.15l.16-.11.11-.17.06-.43.08.06h.09.11.11l.23.11.18.06.14-.06v-.19l.06-.22.13-1.24v-.21-.16l-.08-.15v-.24l.21-.29.05-.09v-.13-.12zm34 9.68-.19.15-.08.13-.1.09v.07l.07.15-.08.23.06.1h.13l.23-.25h.23v-.14l.14-.17.16-.34v-.14h-.12zm30.19-6.58h.21.18l.1-.06.13-.53.11-.14.13-.08.26.19.1.06h.07l-.06-.08-.07-.09-.32-.31-.3-.24-.2-.1h-.21-.32-.12l-.28-.1-.23-.13h.05l-.06-.16-.13-.26v-.08-.11l-.05-.09.19-.2.08-.16v-.16-.16l-.12-.3-.07-.09-.14-.08-.12-.13v-.1-.06h-.06-.08-.15-.13l-.1-.08v-.06-.06l-.17-.1-.28-.25-.16-.06-.06-.16h-.06-.14-.14l-.11.2-.08.07h-.19-.16-.13-.53l-.19.14h-.08l-.14-.07-.24-.06h-.12l-.18.21-.62.36-.23.11h-.26l-.24.18-.79.33h-.25l-.24-.08h-.17-.19l-.71-.27-1.07.19-.55.18h-.33l-.88-.17-.27-.17-.62-.08-.68-.16-.14-.2-.4-.19h-.24l-.11.06-.14.14h-.2l-.24-.13-.37-.51-.24-.57-.14-.05h-.1l-.68.18-.48-.21-.17-.15-.19-.2v-.14-.08-.08l-.28-.08-.47.24h-1l-1.51-.12h-.18l-.56.26-.76.19-.43.17-.41.32-1.17.59-.21.36-.17.11h-.83l-.87-.24-.79.1-1.11-.17h-.33l-.1.1v.17.2l.07.1.06.06.27.2.2.08.81.11h.09l-.63.06-.84.14h-.18l-.32.21.1.07h.1.15l.15.09-.09.08h-.5-.2l-.64-.06-.61.07h-.06l.07-.12v-.07-.05h-.21-.2l-.07.06.22.22-.11.07h-.11-.47l-.27-.12v-.09l-.06-.09h-.3l-.21.12h-.51l-.49.45-.3.38-.24.07-.06.26v.47l-.1.19v.11.12h.44l.25-.08.64-.09h.13v.07l-.19.21-.19.17v.11l.07.07.25.31v.13l-.08.09v.12l.09.08h.1.1l.08.07-.2.24-.22.08v.06.11.07l.08.15.13.16.12.08h.32l-.08.08-.45.09h-.17l-.08-.07h-.05v.15h-.06l-.08-.14v-.15-.15l-.13-.15h-.14-.12v.13l.11.26v.16h-.13l-.1.2.08.07.18.06.18.11h.1l.08-.06h.11l.23.13.14.18h.12l.4.16h.13v.21l-.06.33-.27.09v.06l.15.12.1.24v.22l.13.08h.16v.07l.22.13v.18l-.31.09h-.13l-.09.1v.22h.09l.07-.08h.6l.86-.05h.21v.07l-.26.16-.15.19h-.13l-.56.05-.15.06h-.16v.07l.16.06h.21l.28-.13h.52l-.13.17v.08h.17l.16-.08.2-.27h.34l.43.22h.19.14l.14-.09.13.05v.12.1l.09.15.05.26.15.16.24.14.63.21h.19l.54-.17.28-.13h.12l.17.1.11-.06.07-.08v-.3l.1-.16v-.58l.12-.15h.57l.54.06h.21l.79.4.46.17.2.18.28.39.18.18.29.17.49.14.25-.13h.31l.64-.11h.15l.32-.08.49-.24.12-.1.52-.56.56-.38.19-.07h.2l.25.15.43.2.41.12h.26l.17-.12.06-.15.14-.09h.13l.19-.15.27-.13.16.12.08.1v.14.17l-.3.29-.27.25-.14.21.15.32.13.34-.12.17h.14l.29.17h.05l.09-.22.09-.08.18-.06v-.36l.09-.07h.1.16.14v-.06l-.19-.42v-.1l.1-.42.06-.16h.05.22l.31.07.08.12.15.11h.23.26.2l.16-.08.37-.14h.18l.17-.06.53-.23h.21.15.11l.25.16.2.16h.15.26.38.46l.27-.05.34-.07.62-.19.81-.39.47-.19h.21.26l.27.05h.3.14.33l.42-.08.27-.07.32-.1.2-.18h.07.08l.08.1.09.26.18-.05.34-.26.19-.24h.06l.18.08h.13l.29-.09h.17l.14.06h.09l.39.15h.09.2.3l.2-.1.13-.09h.1.09.08l.06.07v.1.33.08.06h.07l.08-.07.15-.1.17-.11.13-.1h.08.23.06v-.13l.07-.11-.15-.15-.21-.14v-.27-.1-.06-.05l.09-.11-.06-.08-.3-.18-.12-.09h-.21v-.06-.13l.08-.15.11-.15v-.08-.14-.09l.12-.14h-.1-.11v-.37-.18-.13-.29l-.07-.06-.11-.16-.05-.13v-.09.13l-.11-.08-.08-.08v-.09-.11-.09-.06zm-31.81 3.67v-.13h-.11-.07l-.23-.07h-.19l-.19.07-.11.12h.06.2l.13.1h.1l.25-.12zm219.11-25.26-.15-.16-.32-.27-.17-.32-.13-.31-.06-.29-.08-.29-.1-.27-.18-.56-.43-.94-.15-.55-.34-1.82-.09-.07v-.06-.25-.17l-.07-.12-.18-.16v-.12-.28l-.08-.25-.11-.25-.07-.34v-.66l.05-.24.12-.09.06-.12.05-.22v-.21-.67l-.07-.43-.06-.21-.06-.2-.24-.48-.33-.78v-.18-.19l.08-.19v-.14-.19l-.4-.64-.13-.06-.05.15-.1.14-.11.06h-.41l.25.33.38.47.06.18v.2l-.07.21h.08v.14l-.23.06-.08.16.13.13-.1.23-.19.09h-.1-.1l-.26-.2h-.07l-.33.1-.21.17-.05.12v.51l.06.25v.62l-.1.6-.1.25-.12.24v.22.84l.1.22.16.14-.07.09h-.09l.09.12.19.15.25.27.16.22.21.51v.55l-.11.27-.09.28-.06.36v.28l.13.49v.24 1.57l-.06.31-.08.31-.08.56-.08.26-.21.53v.11.12l.24.42.2.45.09.65-.06.27-.14.22-.11.25-.1.27v.14.46l.06.24v.25l-.05.25-.27.79-.07.57.16.65v.2l.06.17.1.12.11.1.14-.19.11-.21.17-.62.09-.24.1-.22.14-.21.18-.13h.11.11l.1.1.09.12h.06.41l.44.08.13.19v.28l.09.31v.45l.06-.09v-.11-.14-.12l.13-.31v-.1l-.07-.4-.11-.41-.07-.1h-.11-.13-.18l-.08-.12-.16-.37-.16-.52-.12-.23-.07-.1-.07-.07h-.12l-.1-.09-.14-.2-.17-.35v-.12-.35l.06-.45.14-.41.6-1.6.1-.45.15-.23.24-.15.27-.07h.65.17l.27.07.15.07.15.1.29.33.24.2.23.22.16.19.1.33.07.09v-.45zm-222.96 25.33v.07l.06.06.2.15h.11l.07-.14v-.06h-.25l-.1-.07zm230.65-17.3v-.07h-.08-.12l-.18.08-.53.47-.36.06h-.14l-.17-.27h-.08l-.09.19v.17l-.22.08-.2.23-.19.07-.24.27-.34.2-.17.21v.23l-.31.23-.07.12-.07.24.37-.29h.21l.19-.28.47-.36.09-.12v-.13l.07-.08h.23l.24-.08.17-.18.48-.34.29-.07.34-.16h.36l.08-.08-.06-.12zm-228.13 13.61h-.34v.09l-.15.06h-.11-.22l-.12.19.09.09.31.09.2-.21h.18v.08l-.26.18.1.12.43.11h.14.15l-.08-.08v-.09h.08l.1.07v-.14l-.17-.05-.26-.22v-.12zm-.1 3.81.1-.12-.22.07h-.23l-.17.15v.08h.08l.33-.09z" transform="translate(0 -.03)"></path><title>Europe</title><title>Europe</title><title>Europe</title></svg>