<svg version="1.1" xmlns="http://www.w3.org/2000/svg" xmlns:xlink="http://www.w3.org/1999/xlink" x="0px" y="0px" viewBox="0 0 261.4 279" style="height:40px; width:40px; fill: #024F87; enable-background:new 0 0 261.4 279;" xml:space="preserve" role="img">

	<path fill="accent" d="M130.8,74.3c20.2,0,36.6-16.4,36.6-36.6S151,1.2,130.8,1.2S94.3,17.6,94.3,37.7S110.7,74.3,130.8,74.3z
		 M130.8,10c15.3,0,27.8,12.5,27.8,27.8s-12.5,27.8-27.8,27.8S103.1,53,103.1,37.7S115.5,10,130.8,10z"></path>
	<path fill="accent" d="M155.7,80.8h-50c-12.3,0-22.4,10-22.4,22.4v69.3c0,10,6.9,18.8,16.3,21.5l7.4,67.8c0.2,9.5,7.9,17.2,17.5,17.2
		h11.7c9.5,0,17.3-7.7,17.5-17.2l8.1-67.8c9.4-2.7,16.2-11.5,16.2-21.5v-69.3C178.1,90.8,168,80.8,155.7,80.8z M168.1,172.5
		c0,6.3-4.9,11.7-11.2,12.3c-0.8,0.1-1.5,0.3-2.2,0.8c-1.3,0.8-2.1,2.1-2.3,3.6l-8.6,71.7c0,0.2,0,0.4,0,0.6c0,4.1-3.4,7.5-7.5,7.5
		h-11.7c-4.1,0-7.5-3.4-7.5-7.5c0-0.2,0-0.4,0-0.5l-7.8-71.6c0,0,0-0.1,0-0.1c-0.3-2.3-2.2-4.2-4.6-4.4c-6.3-0.6-11.2-6-11.2-12.3
		v-69.3c0-6.8,5.5-12.4,12.4-12.4h50c6.8,0,12.4,5.5,12.4,12.4V172.5z"></path>

	<path d="M223.5,98.4c16.6,0,30.1-13.5,30.1-30.1c0-16.6-13.5-30.1-30.1-30.1s-30.1,13.5-30.1,30.1
		C193.3,84.9,206.9,98.4,223.5,98.4z M223.5,48.1c11.1,0,20.1,9,20.1,20.1s-9,20.1-20.1,20.1s-20.1-9-20.1-20.1
		S212.4,48.1,223.5,48.1z"></path>
	<path d="M242.9,103.8h-39.1c-10.2,0-18.6,8.3-18.6,18.6v54.2c0,8.1,5.4,15.2,12.8,17.6l5.7,52.2c0.2,8,6.7,14.5,14.8,14.5h9.2
		c8,0,14.6-6.4,14.8-14.4l6.2-52.2c7.4-2.5,12.8-9.6,12.8-17.6v-54.2C261.4,112.1,253.1,103.8,242.9,103.8z M251.4,176.5
		c0,4.4-3.4,8.1-7.8,8.5c-0.8,0.1-1.6,0.3-2.2,0.8c-1.3,0.8-2.1,2.1-2.3,3.6l-6.7,56c0,0.2,0,0.4,0,0.6c0,2.6-2.1,4.8-4.8,4.8h-9.2
		c-2.6,0-4.8-2.1-4.8-4.8c0-0.2,0-0.4,0-0.5l-6.1-56c0,0,0-0.1,0-0.1c-0.3-2.3-2.2-4.2-4.6-4.4c-4.4-0.4-7.8-4.2-7.8-8.5v-54.2
		c0-4.7,3.8-8.6,8.6-8.6h39.1c4.7,0,8.6,3.8,8.6,8.6V176.5z"></path>
	<path d="M38.2,98.4c16.6,0,30.1-13.5,30.1-30.1c0-16.6-13.5-30.1-30.1-30.1c-16.6,0-30.1,13.5-30.1,30.1
		C8.1,84.9,21.6,98.4,38.2,98.4z M38.2,48.1c11.1,0,20.1,9,20.1,20.1s-9,20.1-20.1,20.1s-20.1-9-20.1-20.1S27.1,48.1,38.2,48.1z"></path>
	<path d="M57.6,103.8h-39C8.3,103.8,0,112.1,0,122.4v54.2c0,8.1,5.4,15.2,12.8,17.6l5.7,52.2c0.2,8,6.7,14.5,14.8,14.5h9.2
		c8,0,14.6-6.4,14.8-14.4l6.2-52.2c7.4-2.5,12.8-9.6,12.8-17.6v-54.2C76.2,112.1,67.9,103.8,57.6,103.8z M66.2,176.5
		c0,4.4-3.4,8.1-7.8,8.5c-0.8,0.1-1.6,0.4-2.3,0.8c-1.2,0.8-2.1,2.1-2.2,3.6l-6.7,56c0,0.2,0,0.4,0,0.6c0,2.6-2.1,4.8-4.8,4.8h-9.2
		c-2.6,0-4.8-2.1-4.8-4.8c0-0.2,0-0.4,0-0.5l-6.1-56c0,0,0-0.1,0-0.1c-0.3-2.3-2.2-4.1-4.5-4.4c-4.4-0.4-7.8-4.2-7.8-8.5v-54.2
		c0-4.7,3.8-8.6,8.6-8.6h39c4.7,0,8.6,3.8,8.6,8.6V176.5z"></path>

</svg>