<?xml version="1.0" encoding="utf-8"?>

<svg version="1.1" xmlns="http://www.w3.org/2000/svg" xmlns:xlink="http://www.w3.org/1999/xlink" x="0px" y="0px"
	 viewBox="0 0 18 18" style="enable-background:new 0 0 18 18;" xml:space="preserve">
<style type="text/css">
	.st0{fill:#0766D1;}
</style>
<g>
	<g>
		<path class="st0" d="M16.2,15l-3.6-3.6c0.8-1.1,1.3-2.4,1.3-3.8c0-3.5-2.8-6.3-6.3-6.3S1.3,4.1,1.3,7.6s2.8,6.3,6.3,6.3
			c1.4,0,2.8-0.5,3.8-1.3l3.6,3.6c0.2,0.2,0.4,0.2,0.6,0.2c0.2,0,0.4-0.1,0.6-0.2C16.5,15.9,16.5,15.3,16.2,15z M2.5,7.6
			c0-2.8,2.3-5,5-5s5,2.3,5,5c0,2.8-2.3,5-5,5S2.5,10.4,2.5,7.6z"/>
	</g>
</g>
</svg>
