<?xml version="1.0" encoding="utf-8"?>

<svg version="1.1" xmlns="http://www.w3.org/2000/svg" xmlns:xlink="http://www.w3.org/1999/xlink" x="0px" y="0px"
	 viewBox="0 0 15 15" style="enable-background:new 0 0 15 15;" xml:space="preserve">
<style type="text/css">
	.st0{clip-path:url(#SVGID_00000174604270564889471410000016538928092164502919_);}
	.st1{fill:#0766D1;}
</style>
<g>
	<g>
		<defs>
			<rect id="SVGID_1_" x="0.3" width="14.6" height="14.6"/>
		</defs>
		<clipPath id="SVGID_00000100372971976534336710000000087660632257217174_">
			<use xlink:href="#SVGID_1_"  style="overflow:visible;"/>
		</clipPath>
		<g style="clip-path:url(#SVGID_00000100372971976534336710000000087660632257217174_);">
			<path class="st1" d="M8.6,4.2H3.4v-1h5.2V4.2z M7.5,5.3H3.4v1h4.2L7.5,5.3L7.5,5.3z M5.5,12.6H1.3V1.1h9.4v6.2h1V1.1
				c0-0.6-0.5-1-1-1H1.3c-0.6,0-1,0.5-1,1v11.4c0,0.6,0.5,1,1,1h4.2V12.6z M13.8,11.5v2.1H7.5v-2.1l-1-0.8v3.9h8.3v-3.9L13.8,11.5z
				 M6.5,8.4v1l4.2,3.1l4.2-3.1v-1H6.5z"/>
		</g>
	</g>
</g>
</svg>
