<?xml version="1.0" encoding="utf-8"?>

<svg version="1.1" xmlns="http://www.w3.org/2000/svg" xmlns:xlink="http://www.w3.org/1999/xlink" x="0px" y="0px"
	 viewBox="0 0 15 15" style="enable-background:new 0 0 15 15;" xml:space="preserve">
<style type="text/css">
	.st0{fill:#0766D1;}
</style>
<rect x="0.3" y="0.1" class="st0" width="2.9" height="2.9"/>
<rect x="0.3" y="0.1" class="st0" width="2.9" height="2.9"/>
<rect x="6.2" y="0.1" class="st0" width="2.9" height="2.9"/>
<rect x="6.2" y="0.1" class="st0" width="2.9" height="2.9"/>
<rect x="12" y="0.1" class="st0" width="2.9" height="2.9"/>
<rect x="12" y="0.1" class="st0" width="2.9" height="2.9"/>
<rect x="0.3" y="5.9" class="st0" width="2.9" height="2.9"/>
<rect x="0.3" y="5.9" class="st0" width="2.9" height="2.9"/>
<rect x="6.2" y="5.9" class="st0" width="2.9" height="2.9"/>
<rect x="6.2" y="5.9" class="st0" width="2.9" height="2.9"/>
<rect x="12" y="5.9" class="st0" width="2.9" height="2.9"/>
<rect x="12" y="5.9" class="st0" width="2.9" height="2.9"/>
<rect x="0.3" y="11.7" class="st0" width="2.9" height="2.9"/>
<rect x="0.3" y="11.7" class="st0" width="2.9" height="2.9"/>
<rect x="6.2" y="11.7" class="st0" width="2.9" height="2.9"/>
<rect x="6.2" y="11.7" class="st0" width="2.9" height="2.9"/>
<rect x="12" y="11.7" class="st0" width="2.9" height="2.9"/>
<rect x="12" y="11.7" class="st0" width="2.9" height="2.9"/>
</svg>
